G04 DesignSpark PCB PRO Gerber Version 10.0 Build 5299*
G04 #@! TF.Part,Single*
G04 #@! TF.FileFunction,Copper,L1,Top*
G04 #@! TF.FilePolarity,Positive*
%FSLAX35Y35*%
%MOIN*%
G04 #@! TA.AperFunction,ComponentPad*
%ADD99O,0.03543X0.05984*%
G04 #@! TA.AperFunction,SMDPad,CuDef*
%ADD82R,0.06693X0.29528*%
%ADD81R,0.06693X0.35433*%
G04 #@! TA.AperFunction,ComponentPad*
%ADD92R,0.04449X0.04449*%
%ADD89R,0.04461X0.04461*%
%ADD83R,0.04559X0.04559*%
%ADD131R,0.06000X0.06000*%
G04 #@! TD.AperFunction*
%ADD19C,0.00500*%
G04 #@! TA.AperFunction,SMDPad,CuDef*
%AMT85*0 Bullet Pad at angle 90*21,1,0.06000,0.03000,0,0,90*%
%ADD85T85*%
G04 #@! TA.AperFunction,ComponentPad*
%ADD95O,0.09937X0.06000*%
G04 #@! TA.AperFunction,SMDPad,CuDef*
%ADD88R,0.04000X0.02200*%
G04 #@! TD.AperFunction*
%ADD74C,0.01000*%
%ADD76C,0.01500*%
%ADD79C,0.02500*%
G04 #@! TA.AperFunction,ViaPad*
%ADD80C,0.02677*%
%ADD77C,0.03200*%
G04 #@! TA.AperFunction,ComponentPad*
%ADD93C,0.04449*%
%ADD90C,0.04461*%
%ADD84C,0.04559*%
G04 #@! TA.AperFunction,ViaPad*
%ADD78C,0.04800*%
G04 #@! TA.AperFunction,ComponentPad*
%ADD91C,0.04925*%
G04 #@! TD.AperFunction*
%ADD75C,0.05000*%
G04 #@! TA.AperFunction,ComponentPad*
%ADD100C,0.05610*%
G04 #@! TA.AperFunction,SMDPad,CuDef*
%ADD86C,0.06000*%
G04 #@! TA.AperFunction,ComponentPad*
%ADD94C,0.07000*%
%ADD96C,0.07874*%
G04 #@! TA.AperFunction,SMDPad,CuDef*
%AMT87*0 Bullet Pad at angle 270*21,1,0.06000,0.03000,0,0,270*%
%ADD87T87*%
G04 #@! TD.AperFunction*
X0Y0D02*
D02*
D19*
X36273Y211094D02*
Y106508D01*
G75*
G03*
X40054Y102726I3781J0D01*
G01*
X70041D01*
G75*
G02*
X77509Y95258I0J-7469D01*
G01*
Y62344D01*
G75*
G03*
X80041Y59813I2531J0D01*
G01*
X126220D01*
G75*
G02*
X128689Y57344I0J-2469D01*
G01*
Y51094D01*
X151225D01*
G75*
G02*
X151254Y51146I2934J-1633D01*
G01*
X151652Y51835D01*
Y54228D01*
G75*
G02*
X155004Y57580I3352J0D01*
G01*
X165004D01*
G75*
G02*
X168356Y54228I0J-3352D01*
G01*
Y51835D01*
X168754Y51146D01*
G75*
G02*
X168783Y51094I-2904J-1685D01*
G01*
X181728D01*
G75*
G03*
X183402Y54187I-6415J5470D01*
G01*
Y55848D01*
G75*
G02*
X183873Y56983I1602J0D01*
G01*
X186615Y59726D01*
G75*
G02*
X187750Y60197I1135J-1131D01*
G01*
X190006D01*
G75*
G02*
X193691Y58594I1494J-1602D01*
G01*
G75*
G02*
X190006Y56992I-2191J0D01*
G01*
X188414D01*
X186606Y55185D01*
Y54189D01*
G75*
G03*
X188280Y51094I8090J2376D01*
G01*
X191728D01*
G75*
G03*
X193402Y54187I-6415J5470D01*
G01*
Y55848D01*
G75*
G02*
X193873Y56983I1602J0D01*
G01*
X196615Y59726D01*
G75*
G02*
X197750Y60197I1135J-1131D01*
G01*
X201256D01*
G75*
G02*
X204846Y57957I1494J-1602D01*
G01*
X206615Y59726D01*
G75*
G02*
X207750Y60197I1135J-1131D01*
G01*
X211256D01*
G75*
G02*
X214846Y57957I1494J-1602D01*
G01*
X216615Y59726D01*
G75*
G02*
X217750Y60197I1135J-1131D01*
G01*
X221256D01*
G75*
G02*
X224917Y58274I1494J-1602D01*
G01*
X226369Y59726D01*
G75*
G02*
X227504Y60197I1135J-1131D01*
G01*
X228756D01*
G75*
G02*
X229028Y60413I1494J-1601D01*
G01*
X215555Y73887D01*
G75*
G02*
X215157Y74844I955J957D01*
G01*
Y78596D01*
G75*
G03*
X214464Y79973I-4403J-1354D01*
G01*
G75*
G02*
X213378Y82344I2046J2371D01*
G01*
G75*
G02*
X219642I3132J0D01*
G01*
Y82344D01*
G75*
G02*
X219244Y80816I-3132J0D01*
G01*
G75*
G02*
X219200Y80740I-1190J640D01*
G01*
G75*
G02*
X218557Y79974I-2691J1605D01*
G01*
G75*
G03*
X217862Y78594I3705J-2730D01*
G01*
Y75405D01*
X230820Y62447D01*
X232035D01*
G75*
G02*
X231793Y62639I715J1148D01*
G01*
X220545Y73887D01*
G75*
G02*
X220148Y74844I955J957D01*
G01*
Y91094D01*
G75*
G02*
X220545Y92052I1352J0D01*
G01*
X235157Y106665D01*
Y138596D01*
G75*
G03*
X234464Y139973I-4403J-1354D01*
G01*
G75*
G02*
X233378Y142344I2046J2371D01*
G01*
G75*
G02*
X239642I3132J0D01*
G01*
Y142344D01*
G75*
G02*
X239244Y140816I-3132J0D01*
G01*
G75*
G02*
X239200Y140740I-1190J640D01*
G01*
G75*
G02*
X238557Y139974I-2691J1605D01*
G01*
G75*
G03*
X237862Y138594I3705J-2730D01*
G01*
Y106104D01*
G75*
G02*
X237465Y105147I-1352J0D01*
G01*
X222852Y90534D01*
Y75405D01*
X233310Y64947D01*
X234535D01*
G75*
G02*
X234293Y65139I715J1148D01*
G01*
X225555Y73877D01*
G75*
G02*
X225157Y74835I955J957D01*
G01*
Y78596D01*
G75*
G03*
X224464Y79973I-4403J-1354D01*
G01*
G75*
G02*
X223378Y82344I2046J2371D01*
G01*
G75*
G02*
X229642I3132J0D01*
G01*
Y82344D01*
G75*
G02*
X229244Y80816I-3132J0D01*
G01*
G75*
G02*
X229200Y80740I-1190J640D01*
G01*
G75*
G02*
X228557Y79974I-2691J1605D01*
G01*
G75*
G03*
X227862Y78594I3705J-2730D01*
G01*
Y75395D01*
X235810Y67447D01*
X242044D01*
G75*
G02*
X241802Y67639I715J1148D01*
G01*
X235555Y73887D01*
G75*
G02*
X235157Y74844I955J957D01*
G01*
Y78596D01*
G75*
G03*
X234464Y79973I-4403J-1354D01*
G01*
G75*
G02*
X233378Y82344I2046J2371D01*
G01*
G75*
G02*
X239642I3132J0D01*
G01*
Y82344D01*
G75*
G02*
X239244Y80816I-3132J0D01*
G01*
G75*
G02*
X239200Y80740I-1190J640D01*
G01*
G75*
G02*
X238557Y79974I-2691J1605D01*
G01*
G75*
G03*
X237862Y78594I3705J-2730D01*
G01*
Y75405D01*
X243320Y69947D01*
X245785D01*
G75*
G02*
X245543Y70139I715J1148D01*
G01*
X240545Y75137D01*
G75*
G02*
X240148Y76094I955J957D01*
G01*
Y144284D01*
X238440Y145992D01*
X232060D01*
X230112Y144044D01*
G75*
G03*
X229633Y142582I4079J-2146D01*
G01*
G75*
G02*
X229642Y142344I-3124J-238D01*
G01*
G75*
G02*
X223378I-3132J0D01*
G01*
G75*
G02*
X226736Y145468I3132J0D01*
G01*
G75*
G03*
X228198Y145955I-700J4544D01*
G01*
X230543Y148300D01*
G75*
G02*
X231163Y148654I957J-956D01*
G01*
G75*
G02*
X229444Y154015I337J3064D01*
G01*
G75*
G03*
X229898Y154910I-2722J1942D01*
G01*
Y174844D01*
G75*
G02*
X230369Y175980I1602J0D01*
G01*
X232865Y178476D01*
G75*
G02*
X234000Y178947I1135J-1131D01*
G01*
X243179D01*
X244740Y180508D01*
Y189804D01*
G75*
G03*
X244151Y190970I-3933J-1256D01*
G01*
G75*
G02*
X246343Y196772I2192J2487D01*
G01*
G75*
G02*
X248534Y190970I0J-3315D01*
G01*
G75*
G03*
X247945Y189804I3344J-2422D01*
G01*
Y179844D01*
G75*
G02*
X247474Y178709I-1602J0D01*
G01*
X244978Y176213D01*
G75*
G02*
X243843Y175742I-1135J1131D01*
G01*
X234664D01*
X233102Y174181D01*
Y154910D01*
G75*
G03*
X233556Y154015I3176J1047D01*
G01*
G75*
G02*
X232110Y148697I-2056J-2297D01*
G01*
X239000D01*
G75*
G02*
X239957Y148300I0J-1352D01*
G01*
X242455Y145802D01*
G75*
G02*
X242852Y144844I-955J-957D01*
G01*
Y76655D01*
X247060Y72447D01*
X252035D01*
G75*
G02*
X251793Y72639I715J1148D01*
G01*
X249295Y75137D01*
G75*
G02*
X248898Y76094I955J957D01*
G01*
Y80318D01*
G75*
G02*
X243378Y82344I-2388J2027D01*
G01*
G75*
G02*
X248898Y84371I3132J0D01*
G01*
Y90534D01*
X245555Y93877D01*
G75*
G02*
X245157Y94835I955J957D01*
G01*
Y138596D01*
G75*
G03*
X244464Y139973I-4403J-1354D01*
G01*
G75*
G02*
X243378Y142344I2046J2371D01*
G01*
G75*
G02*
X249642I3132J0D01*
G01*
Y142344D01*
G75*
G02*
X249244Y140816I-3132J0D01*
G01*
G75*
G02*
X249200Y140740I-1190J640D01*
G01*
G75*
G02*
X248557Y139974I-2691J1605D01*
G01*
G75*
G03*
X247862Y138594I3705J-2730D01*
G01*
Y95395D01*
X251205Y92052D01*
G75*
G02*
X251398Y91810I-956J-957D01*
G01*
Y124844D01*
G75*
G02*
X251795Y125802I1352J0D01*
G01*
X255157Y129165D01*
Y138596D01*
G75*
G03*
X254464Y139973I-4403J-1354D01*
G01*
G75*
G02*
X253378Y142344I2046J2371D01*
G01*
G75*
G02*
X259642I3132J0D01*
G01*
Y142344D01*
G75*
G02*
X259244Y140816I-3132J0D01*
G01*
G75*
G02*
X259200Y140740I-1190J640D01*
G01*
G75*
G02*
X258557Y139974I-2691J1605D01*
G01*
G75*
G03*
X257862Y138594I3705J-2730D01*
G01*
Y128604D01*
G75*
G02*
X257465Y127647I-1352J0D01*
G01*
X254102Y124284D01*
Y84348D01*
G75*
G02*
X259642Y82344I2407J-2003D01*
G01*
G75*
G02*
X254102Y80341I-3132J0D01*
G01*
Y77905D01*
X254560Y77447D01*
X269000D01*
G75*
G02*
X269957Y77050I0J-1352D01*
G01*
X279560Y67447D01*
X283365D01*
G75*
G03*
X283656Y67598I-520J1359D01*
G01*
G75*
G02*
X284119Y67971I1594J-1504D01*
G01*
G75*
G02*
X284192Y68013I713J-1156D01*
G01*
G75*
G02*
X287116Y64947I1058J-1919D01*
G01*
X288365D01*
G75*
G03*
X288656Y65098I-520J1359D01*
G01*
G75*
G02*
X289119Y65471I1594J-1504D01*
G01*
G75*
G02*
X289192Y65513I713J-1156D01*
G01*
G75*
G02*
X291924Y62181I1058J-1919D01*
G01*
X292648Y62905D01*
Y68034D01*
X290940Y69742D01*
X286303D01*
G75*
G02*
X285346Y70139I0J1352D01*
G01*
X279098Y76387D01*
G75*
G02*
X278701Y77344I955J957D01*
G01*
Y80107D01*
G75*
G02*
X273378Y82344I-2191J2238D01*
G01*
G75*
G02*
X278701Y84582I3132J0D01*
G01*
Y108044D01*
X275555Y111190D01*
G75*
G02*
X275157Y112148I955J957D01*
G01*
Y138596D01*
G75*
G03*
X274464Y139973I-4403J-1354D01*
G01*
G75*
G02*
X274495Y144742I2046J2371D01*
G01*
X270810D01*
X270112Y144044D01*
G75*
G03*
X269633Y142582I4079J-2146D01*
G01*
G75*
G02*
X269642Y142344I-3124J-238D01*
G01*
G75*
G02*
X263378I-3132J0D01*
G01*
G75*
G02*
X266736Y145468I3132J0D01*
G01*
G75*
G03*
X268198Y145955I-700J4544D01*
G01*
X269293Y147050D01*
G75*
G02*
X270250Y147447I957J-955D01*
G01*
X279000D01*
G75*
G02*
X279957Y147050I0J-1352D01*
G01*
X282455Y144552D01*
G75*
G02*
X282852Y143594I-955J-957D01*
G01*
Y125070D01*
X289137Y118785D01*
G75*
G02*
X292899Y119958I2166J-329D01*
G01*
G75*
G03*
X293187Y119809I807J1210D01*
G01*
X296303D01*
G75*
G02*
X296957Y119641I0J-1353D01*
G01*
X295536Y121061D01*
X290053D01*
G75*
G02*
X289096Y121458I0J1352D01*
G01*
X285555Y124999D01*
G75*
G02*
X285157Y125957I955J957D01*
G01*
Y138596D01*
G75*
G03*
X284464Y139973I-4403J-1354D01*
G01*
G75*
G02*
X283378Y142344I2046J2371D01*
G01*
G75*
G02*
X289642I3132J0D01*
G01*
Y142344D01*
G75*
G02*
X289244Y140816I-3132J0D01*
G01*
G75*
G02*
X289200Y140740I-1190J640D01*
G01*
G75*
G02*
X288557Y139974I-2691J1605D01*
G01*
G75*
G03*
X287862Y138594I3705J-2730D01*
G01*
Y126517D01*
X290613Y123766D01*
X296096D01*
G75*
G02*
X297054Y123369I0J-1352D01*
G01*
X303508Y116914D01*
G75*
G02*
X303906Y115957I-955J-957D01*
G01*
Y84084D01*
G75*
G02*
X304464Y84716I2604J-1740D01*
G01*
G75*
G03*
X305157Y86093I-3709J2731D01*
G01*
Y112354D01*
G75*
G02*
X305555Y113312I1352J0D01*
G01*
X320148Y127905D01*
Y148076D01*
G75*
G03*
X319487Y149388I-4223J-1304D01*
G01*
G75*
G02*
X318423Y151715I2013J2326D01*
G01*
G75*
G02*
X324577I3077J0D01*
G01*
G75*
G02*
X323513Y149387I-3077J0D01*
G01*
G75*
G03*
X322852Y148077I3558J-2614D01*
G01*
Y127344D01*
G75*
G02*
X322455Y126387I-1352J0D01*
G01*
X307862Y111794D01*
Y86094D01*
G75*
G03*
X308557Y84715I4400J1350D01*
G01*
G75*
G02*
X309200Y83949I-2048J-2371D01*
G01*
G75*
G02*
X309244Y83873I-1151J-719D01*
G01*
G75*
G02*
X309642Y82345I-2734J-1528D01*
G01*
Y82344D01*
G75*
G02*
X303906Y80605I-3132J0D01*
G01*
Y80267D01*
X309677Y74496D01*
G75*
G03*
X309988Y74397I591J1321D01*
G01*
G75*
G02*
X310580Y74333I65J-2191D01*
G01*
G75*
G02*
X310660Y74312I-312J-1311D01*
G01*
G75*
G02*
X311919Y71059I-607J-2105D01*
G01*
X313168D01*
G75*
G03*
X313459Y71210I-520J1359D01*
G01*
G75*
G02*
X313922Y71583I1594J-1504D01*
G01*
G75*
G02*
X313995Y71625I713J-1156D01*
G01*
G75*
G02*
X316920Y68560I1058J-1919D01*
G01*
G75*
G03*
X317209Y68710I-521J1358D01*
G01*
G75*
G02*
X317672Y69083I1594J-1504D01*
G01*
G75*
G02*
X317745Y69125I713J-1156D01*
G01*
G75*
G02*
X320994Y67207I1058J-1919D01*
G01*
G75*
G02*
X317745Y65288I-2191J0D01*
G01*
G75*
G02*
X317672Y65330I641J1198D01*
G01*
G75*
G02*
X317209Y65704I1131J1877D01*
G01*
G75*
G03*
X316918Y65854I-811J-1208D01*
G01*
X303803D01*
G75*
G02*
X302846Y66252I0J1352D01*
G01*
X292198Y76899D01*
G75*
G02*
X287862Y77344I-2145J446D01*
G01*
G75*
G02*
X288701Y79068I2191J0D01*
G01*
Y80107D01*
G75*
G02*
X283906Y80605I-2191J2238D01*
G01*
Y79017D01*
X287976Y74947D01*
X292750D01*
G75*
G02*
X293707Y74550I0J-1352D01*
G01*
X297455Y70802D01*
G75*
G02*
X297852Y69844I-955J-957D01*
G01*
Y57344D01*
G75*
G02*
X297455Y56387I-1352J0D01*
G01*
X296606Y55538D01*
Y54189D01*
G75*
G03*
X298280Y51094I8090J2376D01*
G01*
X311728D01*
G75*
G03*
X313402Y54187I-6415J5470D01*
G01*
Y57157D01*
G75*
G02*
X313873Y58293I1602J0D01*
G01*
X320363Y64783D01*
G75*
G02*
X324744Y64707I2190J-76D01*
G01*
G75*
G02*
X322630Y62517I-2191J0D01*
G01*
X316606Y56494D01*
Y54189D01*
G75*
G03*
X318280Y51094I8090J2376D01*
G01*
X361728D01*
G75*
G03*
X363402Y54187I-6415J5470D01*
G01*
Y55677D01*
X360586Y58492D01*
X348665D01*
G75*
G02*
X347708Y58889I0J1352D01*
G01*
X342848Y63749D01*
G75*
G02*
X342451Y64707I955J957D01*
G01*
Y74072D01*
G75*
G03*
X342300Y74363I-1359J-520D01*
G01*
G75*
G02*
X341927Y74826I1504J1594D01*
G01*
G75*
G02*
X341885Y74899I1156J713D01*
G01*
G75*
G02*
X341612Y75957I1919J1058D01*
G01*
G75*
G02*
X345994I2191J0D01*
G01*
G75*
G02*
X345304Y74361I-2191J0D01*
G01*
G75*
G03*
X345156Y74073I1210J-807D01*
G01*
Y65267D01*
X349226Y61197D01*
X360641D01*
G75*
G02*
X362633Y60978I859J-1352D01*
G01*
X366135Y57476D01*
G75*
G02*
X366606Y56341I-1131J-1135D01*
G01*
Y54189D01*
G75*
G03*
X368280Y51094I8090J2376D01*
G01*
X371728D01*
G75*
G03*
X373402Y54187I-6415J5470D01*
G01*
Y55848D01*
G75*
G02*
X373873Y56983I1602J0D01*
G01*
X376398Y59508D01*
Y62344D01*
G75*
G02*
X376795Y63302I1352J0D01*
G01*
X379293Y65800D01*
G75*
G02*
X380250Y66197I957J-955D01*
G01*
X390940D01*
X393898Y69155D01*
Y75992D01*
X387750D01*
G75*
G02*
X386148Y83348I0J3852D01*
G01*
Y85091D01*
G75*
G02*
X384143Y87242I1602J3503D01*
G01*
X383027D01*
G75*
G02*
X379112Y88594I-1724J1352D01*
G01*
G75*
G02*
X383027Y89947I2191J0D01*
G01*
X384143D01*
G75*
G02*
X387750Y92447I3607J-1352D01*
G01*
X395250D01*
G75*
G02*
X398646Y86776I0J-3852D01*
G01*
X401008Y84414D01*
G75*
G02*
X401406Y83457I-955J-957D01*
G01*
Y66728D01*
G75*
G03*
X401554Y66440I1359J519D01*
G01*
G75*
G02*
X402244Y64844I-1501J-1596D01*
G01*
G75*
G02*
X397862I-2191J0D01*
G01*
G75*
G02*
X398135Y65902I2191J0D01*
G01*
G75*
G02*
X398177Y65976I1198J-641D01*
G01*
G75*
G02*
X398550Y66439I1877J-1131D01*
G01*
G75*
G03*
X398701Y66730I-1208J811D01*
G01*
Y78132D01*
G75*
G02*
X396602Y76237I-3451J1713D01*
G01*
Y68594D01*
G75*
G02*
X396205Y67637I-1352J0D01*
G01*
X392457Y63889D01*
G75*
G02*
X391500Y63492I-957J955D01*
G01*
X380810D01*
X379102Y61784D01*
Y59454D01*
G75*
G02*
X378883Y57461I-1352J-859D01*
G01*
X376606Y55185D01*
Y54189D01*
G75*
G03*
X378280Y51094I8090J2376D01*
G01*
X381389D01*
Y57344D01*
G75*
G02*
X383858Y59813I2469J0D01*
G01*
X426304D01*
G75*
G03*
X428836Y62344I0J2531D01*
G01*
Y211094D01*
G75*
G03*
X425054Y214876I-3781J0D01*
G01*
X40054D01*
G75*
G03*
X36273Y211094I0J-3781D01*
G01*
X51555Y141341D02*
G75*
G02*
X61134I4789J0D01*
G01*
G75*
G02*
X51555I-4789J0D01*
G01*
X53354Y118457D02*
G75*
G02*
X60669I3657J0D01*
G01*
G75*
G02*
X53354I-3657J0D01*
G01*
X51555Y191341D02*
G75*
G02*
X61134I4789J0D01*
G01*
G75*
G02*
X51555I-4789J0D01*
G01*
X61555Y141341D02*
G75*
G02*
X71134I4789J0D01*
G01*
G75*
G02*
X61555I-4789J0D01*
G01*
Y191341D02*
G75*
G02*
X71134I4789J0D01*
G01*
G75*
G02*
X61555I-4789J0D01*
G01*
X188417Y182970D02*
G75*
G02*
X194583I3083J0D01*
G01*
G75*
G02*
X193556Y180674I-3083J0D01*
G01*
G75*
G03*
X193102Y179779I2722J-1942D01*
G01*
Y177348D01*
G75*
G02*
Y177345I-621J-1D01*
G01*
G75*
G02*
Y177344I-627J0D01*
G01*
G75*
G02*
X192633Y176211I-1602J0D01*
G01*
X188883Y172461D01*
G75*
G02*
X187747Y171992I-1133J1133D01*
G01*
X153803D01*
G75*
G02*
X152668Y172463I0J1602D01*
G01*
X148139Y176992D01*
X137750D01*
G75*
G02*
X136615Y177463I0J1602D01*
G01*
X129586Y184492D01*
X110528D01*
G75*
G02*
X111239Y183846I-2215J-3152D01*
G01*
G75*
G03*
X113036Y182943I3522J4766D01*
G01*
X128997D01*
G75*
G02*
X130133Y182474I3J-1602D01*
G01*
X136160Y176447D01*
X146303D01*
G75*
G02*
X147438Y175976I0J-1602D01*
G01*
X162631Y160783D01*
G75*
G02*
X163102Y159648I-1131J-1135D01*
G01*
Y154910D01*
G75*
G03*
X163556Y154015I3176J1047D01*
G01*
G75*
G02*
X164583Y151719I-2056J-2297D01*
G01*
G75*
G02*
X158417I-3083J0D01*
G01*
G75*
G02*
X159444Y154015I3083J0D01*
G01*
G75*
G03*
X159898Y154910I-2722J1942D01*
G01*
Y158984D01*
X145639Y173242D01*
X135499D01*
G75*
G02*
X134363Y173711I-3J1602D01*
G01*
X128336Y179738D01*
X113037D01*
G75*
G03*
X111237Y178833I1728J-5673D01*
G01*
G75*
G02*
X110248Y178009I-2924J2508D01*
G01*
G75*
G02*
X110231Y178000I-823J1364D01*
G01*
G75*
G02*
X108313Y177488I-1918J3341D01*
G01*
X104376D01*
G75*
G02*
X102161Y184492I0J3852D01*
G01*
X85250D01*
G75*
G02*
X84115Y184963I0J1602D01*
G01*
X75487Y193591D01*
G75*
G02*
X75016Y194726I1131J1135D01*
G01*
Y206336D01*
G75*
G03*
X74822Y206711I-1700J-641D01*
G01*
G75*
G02*
X74352Y207301I1795J1913D01*
G01*
G75*
G02*
X74340Y207322I1455J853D01*
G01*
G75*
G02*
X73994Y208624I2278J1302D01*
G01*
Y211065D01*
G75*
G02*
X79079Y211976I2624J0D01*
G01*
G75*
G02*
X83772Y212444I2461J-911D01*
G01*
G75*
G02*
X89149I2689J-1379D01*
G01*
G75*
G02*
X92681Y213345I2233J-1379D01*
G01*
G75*
G02*
X92706Y213330I-641J-1119D01*
G01*
G75*
G02*
X93438Y212695I-1324J-2266D01*
G01*
G75*
G03*
X96224Y211197I4922J5813D01*
G01*
X106776D01*
G75*
G03*
X109562Y212695I-2135J7311D01*
G01*
G75*
G02*
X110294Y213330I2056J-1631D01*
G01*
G75*
G02*
X110319Y213345I710J-1181D01*
G01*
G75*
G02*
X114079Y211976I1299J-2280D01*
G01*
G75*
G02*
X118772Y212444I2461J-911D01*
G01*
G75*
G02*
X124149I2689J-1379D01*
G01*
G75*
G02*
X129006Y211065I2233J-1379D01*
G01*
Y208624D01*
G75*
G02*
X124149Y207245I-2624J0D01*
G01*
G75*
G02*
X118772I-2689J1379D01*
G01*
G75*
G02*
X114079Y207713I-2233J1379D01*
G01*
G75*
G02*
X110319Y206344I-2461J911D01*
G01*
G75*
G02*
X110294Y206359I641J1119D01*
G01*
G75*
G02*
X109562Y206994I1324J2266D01*
G01*
G75*
G03*
X106776Y208492I-4922J-5813D01*
G01*
X96224D01*
G75*
G03*
X93438Y206994I2135J-7311D01*
G01*
G75*
G02*
X92706Y206359I-2056J1631D01*
G01*
G75*
G02*
X92681Y206344I-710J1181D01*
G01*
G75*
G02*
X89149Y207245I-1299J2280D01*
G01*
G75*
G02*
X83772I-2689J1379D01*
G01*
G75*
G02*
X79079Y207713I-2233J1379D01*
G01*
G75*
G02*
X78896Y207322I-2461J911D01*
G01*
G75*
G02*
X78884Y207301I-1533J871D01*
G01*
G75*
G02*
X78414Y206711I-2265J1322D01*
G01*
G75*
G03*
X78220Y206336I1506J-1016D01*
G01*
Y195390D01*
X85914Y187697D01*
X103125D01*
G75*
G02*
X104376Y195193I1251J3644D01*
G01*
X108313D01*
G75*
G02*
X111239Y193846I0J-3852D01*
G01*
G75*
G03*
X113036Y192943I3522J4766D01*
G01*
X115639D01*
X116174Y193478D01*
G75*
G02*
X117310Y193947I1133J-1133D01*
G01*
X120329D01*
G75*
G03*
X122128Y194852I-1724J5669D01*
G01*
G75*
G02*
X128906Y192344I2925J-2507D01*
G01*
G75*
G02*
X122128Y189837I-3852J0D01*
G01*
G75*
G03*
X120329Y190742I-3523J-4764D01*
G01*
X117971D01*
X117436Y190207D01*
G75*
G02*
X116300Y189738I-1133J1133D01*
G01*
X113037D01*
G75*
G03*
X111237Y188833I1728J-5673D01*
G01*
G75*
G02*
X110248Y188009I-2924J2508D01*
G01*
G75*
G02*
X110231Y188000I-823J1364D01*
G01*
G75*
G02*
X109564Y187697I-1918J3341D01*
G01*
X130250D01*
G75*
G02*
X131385Y187226I0J-1602D01*
G01*
X138414Y180197D01*
X140155D01*
G75*
G02*
X138417Y182970I1345J2774D01*
G01*
G75*
G02*
X144583I3083J0D01*
G01*
G75*
G02*
X142845Y180197I-3083J0D01*
G01*
X148803D01*
G75*
G02*
X149938Y179726I0J-1602D01*
G01*
X154467Y175197D01*
X187086D01*
X189898Y178008D01*
Y179779D01*
G75*
G03*
X189444Y180674I-3176J-1047D01*
G01*
G75*
G02*
X188417Y182970I2056J2297D01*
G01*
X226657Y196772D02*
G75*
G02*
X228849Y190970I0J-3315D01*
G01*
G75*
G03*
X228260Y189804I3344J-2422D01*
G01*
Y177344D01*
G75*
G02*
X227789Y176209I-1602J0D01*
G01*
X223102Y171523D01*
Y154910D01*
G75*
G03*
X223556Y154015I3176J1047D01*
G01*
G75*
G02*
X224583Y151719I-2056J-2297D01*
G01*
G75*
G02*
X218417I-3083J0D01*
G01*
G75*
G02*
X219444Y154015I3083J0D01*
G01*
G75*
G03*
X219898Y154910I-2722J1942D01*
G01*
Y161683D01*
X218530Y160315D01*
G75*
G02*
X217749Y159992I-780J780D01*
G01*
X210707D01*
X207602Y156888D01*
Y145476D01*
G75*
G02*
X207586Y145286I-1102J0D01*
G01*
G75*
G02*
X208612Y140023I-1076J-2941D01*
G01*
Y137344D01*
G75*
G02*
X207870Y135742I-2102J0D01*
G01*
X205487Y133358D01*
G75*
G02*
X204000Y132742I-1487J1486D01*
G01*
X175978D01*
G75*
G02*
X174352Y131341I-3228J2102D01*
G01*
Y130848D01*
G75*
G02*
X172750Y123492I-1602J-3503D01*
G01*
X169500D01*
Y123094D01*
X165250D01*
G75*
G02*
X163719Y131309I0J4250D01*
G01*
G75*
G02*
X162022Y132742I1531J3535D01*
G01*
X159617D01*
G75*
G02*
X156809Y134844I-617J2102D01*
G01*
G75*
G02*
X159617Y136947I2191J0D01*
G01*
X162022D01*
G75*
G02*
X165250Y138697I3228J-2102D01*
G01*
X172750D01*
G75*
G02*
X175978Y136947I0J-3852D01*
G01*
X182839D01*
X180720Y139065D01*
G75*
G02*
X180398Y139844I780J780D01*
G01*
Y146094D01*
G75*
G02*
X180720Y146874I1102J0D01*
G01*
X182745Y148898D01*
G75*
G02*
X178417Y151719I-1245J2820D01*
G01*
G75*
G02*
X184583I3083J0D01*
G01*
G75*
G02*
X183813Y149681I-3082J0D01*
G01*
G75*
G02*
X184001Y149697I186J-1086D01*
G01*
X188543D01*
X188875Y150029D01*
G75*
G02*
X188904Y150056I779J-783D01*
G01*
G75*
G02*
X193162Y154315I2596J1662D01*
G01*
G75*
G02*
X193190Y154343I811J-750D01*
G01*
X194148Y155301D01*
Y155992D01*
X173384D01*
G75*
G03*
X173096Y155843I519J-1359D01*
G01*
G75*
G02*
X169309Y157344I-1596J1501D01*
G01*
G75*
G02*
X173096Y158846I2191J0D01*
G01*
G75*
G03*
X173384Y158697I807J1210D01*
G01*
X194148D01*
Y158904D01*
G75*
G02*
X194183Y159181I1102J0D01*
G01*
G75*
G02*
X194119Y159218I652J1193D01*
G01*
G75*
G02*
X193656Y159591I1131J1877D01*
G01*
G75*
G03*
X193365Y159742I-811J-1208D01*
G01*
X183384D01*
G75*
G03*
X183096Y159593I519J-1359D01*
G01*
G75*
G02*
X179309Y161094I-1596J1501D01*
G01*
G75*
G02*
X183096Y162596I2191J0D01*
G01*
G75*
G03*
X183384Y162447I807J1210D01*
G01*
X193365D01*
G75*
G03*
X193656Y162598I-520J1359D01*
G01*
G75*
G02*
X194119Y162971I1594J-1504D01*
G01*
G75*
G02*
X194183Y163008I716J-1155D01*
G01*
G75*
G02*
X194148Y163285I1067J277D01*
G01*
Y168594D01*
G75*
G02*
X194470Y169374I1102J0D01*
G01*
X203220Y178124D01*
G75*
G02*
X204001Y178447I780J-780D01*
G01*
X217749D01*
G75*
G02*
X218530Y178124I1J-1102D01*
G01*
X221030Y175624D01*
G75*
G02*
X221352Y174844I-780J-780D01*
G01*
Y174306D01*
X225055Y178008D01*
Y189804D01*
G75*
G03*
X224466Y190970I-3933J-1256D01*
G01*
G75*
G02*
X226657Y196772I2192J2487D01*
G01*
X228417Y182970D02*
G75*
G02*
X234583I3083J0D01*
G01*
G75*
G02*
X228417I-3083J0D01*
G01*
X208020Y151719D02*
G75*
G02*
X214980I3480J0D01*
G01*
G75*
G02*
X208020I-3480J0D01*
G01*
X213378Y142344D02*
G75*
G02*
X219642I3132J0D01*
G01*
G75*
G02*
X219253Y140833I-3132J0D01*
G01*
G75*
G02*
X219190Y140725I-1420J748D01*
G01*
G75*
G02*
X218596Y140009I-2681J1620D01*
G01*
G75*
G03*
X218112Y139054I2852J-2046D01*
G01*
Y126301D01*
G75*
G02*
X217641Y125166I-1602J0D01*
G01*
X206188Y113713D01*
G75*
G02*
X205053Y113242I-1135J1131D01*
G01*
X176253D01*
G75*
G02*
X174352Y111341I-3503J1602D01*
G01*
Y110848D01*
G75*
G02*
X174566Y103947I-1602J-3503D01*
G01*
X182506D01*
G75*
G02*
X186191Y102344I1494J-1602D01*
G01*
G75*
G02*
X182506Y100742I-2191J0D01*
G01*
X166852D01*
Y99947D01*
X172750D01*
G75*
G02*
X175978Y98197I0J-3852D01*
G01*
X204000D01*
G75*
G02*
X205487Y97581I0J-2102D01*
G01*
X207996Y95072D01*
G75*
G02*
X208612Y93585I-1486J-1487D01*
G01*
Y84666D01*
G75*
G02*
X209642Y82344I-2102J-2321D01*
G01*
G75*
G02*
X203378I-3132J0D01*
G01*
G75*
G02*
X204407Y84666I3132J0D01*
G01*
Y92714D01*
X203129Y93992D01*
X175978D01*
G75*
G02*
X174852Y92867I-3228J2102D01*
G01*
Y91822D01*
G75*
G02*
X172750Y84742I-2102J-3228D01*
G01*
X165250D01*
G75*
G02*
X162022Y86492I0J3852D01*
G01*
X159420D01*
G75*
G02*
X156612Y88594I-617J2102D01*
G01*
G75*
G02*
X159420Y90697I2191J0D01*
G01*
X162022D01*
G75*
G02*
X164368Y92344I3228J-2102D01*
G01*
G75*
G02*
X163648Y99598I882J3750D01*
G01*
Y103841D01*
G75*
G02*
X164368Y111094I1602J3503D01*
G01*
G75*
G02*
X163898Y118452I882J3750D01*
G01*
Y118594D01*
G75*
G02*
X164295Y119552I1352J0D01*
G01*
X165543Y120800D01*
G75*
G02*
X166500Y121197I957J-955D01*
G01*
X182115D01*
G75*
G03*
X182406Y121348I-520J1359D01*
G01*
G75*
G02*
X182869Y121721I1594J-1504D01*
G01*
G75*
G02*
X182942Y121763I713J-1156D01*
G01*
G75*
G02*
X186191Y119844I1058J-1919D01*
G01*
G75*
G02*
X182942Y117926I-2191J0D01*
G01*
G75*
G02*
X182869Y117968I641J1198D01*
G01*
G75*
G02*
X182406Y118341I1131J1877D01*
G01*
G75*
G03*
X182115Y118492I-811J-1208D01*
G01*
X173989D01*
G75*
G02*
X176253Y116447I-1239J-3648D01*
G01*
X204389D01*
X214907Y126965D01*
Y139055D01*
G75*
G03*
X214425Y140007I-3336J-1091D01*
G01*
G75*
G02*
X213810Y140757I2086J2338D01*
G01*
G75*
G02*
X213785Y140801I1353J808D01*
G01*
G75*
G02*
X213378Y142344I2726J1544D01*
G01*
X192980Y82344D02*
G75*
G02*
X200039I3530J0D01*
G01*
G75*
G02*
X192980I-3530J0D01*
G01*
X183378Y85476D02*
X189642D01*
Y79213D01*
X188612D01*
Y77378D01*
G75*
G02*
X187988Y75883I-2102J0D01*
G01*
X187971Y75866D01*
G75*
G02*
X186476Y75242I-1495J1478D01*
G01*
X175978D01*
G75*
G02*
X174352Y73841I-3228J2102D01*
G01*
Y73348D01*
G75*
G02*
X172750Y65992I-1602J-3503D01*
G01*
X169500D01*
Y65594D01*
X165250D01*
G75*
G02*
X163719Y73809I0J4250D01*
G01*
G75*
G02*
X162022Y75242I1531J3535D01*
G01*
X159617D01*
G75*
G02*
X156809Y77344I-617J2102D01*
G01*
G75*
G02*
X159617Y79447I2191J0D01*
G01*
X162022D01*
G75*
G02*
X165250Y81197I3228J-2102D01*
G01*
X172750D01*
G75*
G02*
X175978Y79447I0J-3852D01*
G01*
X183378D01*
Y85476D01*
X168417Y151719D02*
G75*
G02*
X174583I3083J0D01*
G01*
G75*
G02*
X168417I-3083J0D01*
G01*
X88266Y86094D02*
G75*
G02*
X97766I4750J0D01*
G01*
G75*
G02*
X88266I-4750J0D01*
G01*
X115277Y106614D02*
G75*
G02*
X122959Y103811I3330J-2803D01*
G01*
G75*
G02*
X115277Y101008I-4352J0D01*
G01*
G75*
G03*
X112884Y102209I-4553J-6088D01*
G01*
X98738D01*
G75*
G03*
X96345Y101008I2158J-7288D01*
G01*
G75*
G02*
X88663Y103811I-3330J2803D01*
G01*
G75*
G02*
X96345Y106614I4352J0D01*
G01*
G75*
G03*
X98738Y105413I4551J6087D01*
G01*
X112884D01*
G75*
G03*
X115277Y106614I-2161J7289D01*
G01*
X113856Y86094D02*
G75*
G02*
X123356I4750J0D01*
G01*
G75*
G02*
X113856I-4750J0D01*
G01*
X108313Y145591D02*
G75*
G02*
Y137091I0J-4250D01*
G01*
X104376D01*
G75*
G02*
Y145591I0J4250D01*
G01*
X108313D01*
Y155193D02*
G75*
G02*
Y147488I0J-3852D01*
G01*
X104376D01*
G75*
G02*
Y155193I0J3852D01*
G01*
X108313D01*
X121201Y165193D02*
X128906D01*
Y157488D01*
X121201D01*
Y157988D01*
X110211D01*
G75*
G02*
X108313Y157488I-1898J3353D01*
G01*
X104376D01*
G75*
G02*
Y165193I0J3852D01*
G01*
X108313D01*
G75*
G02*
X110211Y164693I0J-3853D01*
G01*
X121201D01*
Y165193D01*
X150037Y121809D02*
G75*
G02*
X155157Y118457I1463J-3352D01*
G01*
G75*
G02*
X150037Y115104I-3658J0D01*
G01*
X130393D01*
G75*
G02*
X128017Y116086I-5J3352D01*
G01*
X122683Y121421D01*
G75*
G02*
X121701Y123791I2370J2370D01*
G01*
G75*
G02*
Y123793I1381J1D01*
G01*
G75*
G02*
Y123796I1381J2D01*
G01*
Y147488D01*
X121201D01*
Y155193D01*
X128906D01*
Y147488D01*
X128406D01*
Y143870D01*
G75*
G02*
X135750Y140957I3094J-2913D01*
G01*
G75*
G02*
X128406Y138044I-4250J0D01*
G01*
Y133251D01*
G75*
G02*
X135352Y130957I3094J-2294D01*
G01*
G75*
G02*
X128406Y128662I-3852J0D01*
G01*
Y125180D01*
X131776Y121809D01*
X150037D01*
X133324Y91533D02*
G75*
G02*
X155580I11128J0D01*
G01*
G75*
G02*
X133324I-11128J0D01*
G01*
X153556Y154015D02*
G75*
G02*
X154583Y151719I-2056J-2297D01*
G01*
G75*
G02*
X148417I-3083J0D01*
G01*
G75*
G02*
X149444Y154015I3083J0D01*
G01*
G75*
G03*
X149898Y154910I-2722J1942D01*
G01*
Y160234D01*
X140639Y169492D01*
X134000D01*
G75*
G02*
X132865Y169963I0J1602D01*
G01*
X127985Y174843D01*
G75*
G02*
X128906Y172344I-2932J-2498D01*
G01*
G75*
G02*
X128894Y172049I-3854J1D01*
G01*
G75*
G03*
X129526Y170137I5859J878D01*
G01*
X130855Y168809D01*
X137553D01*
G75*
G02*
X138688Y168338I0J-1602D01*
G01*
X142631Y164395D01*
G75*
G02*
X143102Y163260I-1131J-1135D01*
G01*
Y154801D01*
X144583D01*
Y148636D01*
X138417D01*
Y154801D01*
X139898D01*
Y162596D01*
X136889Y165604D01*
X130191D01*
G75*
G02*
X129056Y166076I0J1602D01*
G01*
X127261Y167871D01*
G75*
G03*
X125349Y168504I-2789J-5228D01*
G01*
G75*
G02*
X125053Y168492I-296J3843D01*
G01*
G75*
G02*
X123237Y175742I0J3852D01*
G01*
X121721D01*
X116188Y170209D01*
G75*
G02*
X115053Y169738I-1135J1131D01*
G01*
X113037D01*
G75*
G03*
X111237Y168833I1728J-5673D01*
G01*
G75*
G02*
X110248Y168009I-2924J2508D01*
G01*
G75*
G02*
X110231Y168000I-823J1364D01*
G01*
G75*
G02*
X108313Y167488I-1918J3341D01*
G01*
X104376D01*
G75*
G02*
Y175193I0J3852D01*
G01*
X108313D01*
G75*
G02*
X111239Y173846I0J-3852D01*
G01*
G75*
G03*
X113036Y172943I3522J4766D01*
G01*
X114389D01*
X119922Y178476D01*
G75*
G02*
X121057Y178947I1135J-1131D01*
G01*
X127750D01*
G75*
G02*
X128885Y178476I0J-1602D01*
G01*
X134664Y172697D01*
X141303D01*
G75*
G02*
X142438Y172226I0J-1602D01*
G01*
X152631Y162033D01*
G75*
G02*
X153102Y160898I-1131J-1135D01*
G01*
Y154910D01*
G75*
G03*
X153556Y154015I3176J1047D01*
G01*
X147648Y130957D02*
G75*
G02*
X155352I3852J0D01*
G01*
G75*
G02*
X147648I-3852J0D01*
G01*
Y140957D02*
G75*
G02*
X155352I3852J0D01*
G01*
G75*
G02*
X147648I-3852J0D01*
G01*
X141398Y196094D02*
G75*
G02*
X149102I3852J0D01*
G01*
G75*
G02*
X141398I-3852J0D01*
G01*
X148417Y182970D02*
G75*
G02*
X154583I3083J0D01*
G01*
G75*
G02*
X148417I-3083J0D01*
G01*
X194149Y212444D02*
G75*
G02*
X199006Y211065I2233J-1379D01*
G01*
Y208624D01*
G75*
G02*
X194149Y207245I-2624J0D01*
G01*
G75*
G02*
X188772I-2689J1379D01*
G01*
G75*
G02*
X184079Y207713I-2233J1379D01*
G01*
G75*
G02*
X180316Y206346I-2461J911D01*
G01*
G75*
G02*
X180295Y206358I871J1533D01*
G01*
G75*
G02*
X179585Y206965I1322J2266D01*
G01*
G75*
G03*
X177239Y208242I-4227J-4972D01*
G01*
X165761D01*
G75*
G03*
X163415Y206965I1885J-6257D01*
G01*
G75*
G02*
X162705Y206358I-2032J1659D01*
G01*
G75*
G02*
X162684Y206346I-853J1455D01*
G01*
G75*
G02*
X159149Y207245I-1302J2278D01*
G01*
G75*
G02*
X153772I-2689J1379D01*
G01*
G75*
G02*
X149079Y207713I-2233J1379D01*
G01*
G75*
G02*
X143994Y208624I-2461J911D01*
G01*
Y211065D01*
G75*
G02*
X149079Y211976I2624J0D01*
G01*
G75*
G02*
X153772Y212444I2461J-911D01*
G01*
G75*
G02*
X159149I2689J-1379D01*
G01*
G75*
G02*
X162684Y213343I2233J-1379D01*
G01*
G75*
G02*
X162705Y213331I-871J-1533D01*
G01*
G75*
G02*
X163415Y212724I-1322J-2265D01*
G01*
G75*
G03*
X165761Y211447I4231J4979D01*
G01*
X177239D01*
G75*
G03*
X179585Y212723I-1885J6257D01*
G01*
G75*
G02*
X184079Y211976I2033J-1658D01*
G01*
G75*
G02*
X188772Y212444I2461J-911D01*
G01*
G75*
G02*
X194149I2689J-1379D01*
G01*
X198020Y182970D02*
G75*
G02*
X204980I3480J0D01*
G01*
G75*
G02*
X198020I-3480J0D01*
G01*
X187250Y196094D02*
G75*
G02*
X195750I4250J0D01*
G01*
G75*
G02*
X187250I-4250J0D01*
G01*
X178417Y182970D02*
G75*
G02*
X184583I3083J0D01*
G01*
G75*
G02*
X178417I-3083J0D01*
G01*
X161000Y196094D02*
G75*
G02*
X169500I4250J0D01*
G01*
G75*
G02*
X161000I-4250J0D01*
G01*
X168417Y182970D02*
G75*
G02*
X174583I3083J0D01*
G01*
G75*
G02*
X168417I-3083J0D01*
G01*
X158417D02*
G75*
G02*
X164583I3083J0D01*
G01*
G75*
G02*
X158417I-3083J0D01*
G01*
X207648Y196094D02*
G75*
G02*
X215352I3852J0D01*
G01*
G75*
G02*
X207648I-3852J0D01*
G01*
X208417Y182970D02*
G75*
G02*
X214583I3083J0D01*
G01*
G75*
G02*
X208417I-3083J0D01*
G01*
X264149Y212444D02*
G75*
G02*
X269006Y211065I2233J-1379D01*
G01*
Y208624D01*
G75*
G02*
X264149Y207245I-2624J0D01*
G01*
G75*
G02*
X258772I-2689J1379D01*
G01*
G75*
G02*
X254079Y207713I-2233J1379D01*
G01*
G75*
G02*
X250316Y206346I-2461J911D01*
G01*
G75*
G02*
X250295Y206358I871J1533D01*
G01*
G75*
G02*
X249585Y206965I1322J2266D01*
G01*
G75*
G03*
X247239Y208242I-4227J-4972D01*
G01*
X235761D01*
G75*
G03*
X233415Y206965I1885J-6257D01*
G01*
G75*
G02*
X232705Y206358I-2032J1659D01*
G01*
G75*
G02*
X232684Y206346I-853J1455D01*
G01*
G75*
G02*
X229149Y207245I-1302J2278D01*
G01*
G75*
G02*
X223772I-2689J1379D01*
G01*
G75*
G02*
X219079Y207713I-2233J1379D01*
G01*
G75*
G02*
X213994Y208624I-2461J911D01*
G01*
Y211065D01*
G75*
G02*
X219079Y211976I2624J0D01*
G01*
G75*
G02*
X223772Y212444I2461J-911D01*
G01*
G75*
G02*
X229149I2689J-1379D01*
G01*
G75*
G02*
X232684Y213343I2233J-1379D01*
G01*
G75*
G02*
X232705Y213331I-871J-1533D01*
G01*
G75*
G02*
X233415Y212724I-1322J-2265D01*
G01*
G75*
G03*
X235761Y211447I4231J4979D01*
G01*
X247239D01*
G75*
G03*
X249585Y212723I-1885J6257D01*
G01*
G75*
G02*
X254079Y211976I2033J-1658D01*
G01*
G75*
G02*
X258772Y212444I2461J-911D01*
G01*
G75*
G02*
X264149I2689J-1379D01*
G01*
X298423Y182974D02*
G75*
G02*
X304577I3077J0D01*
G01*
G75*
G02*
X303513Y180647I-3077J0D01*
G01*
G75*
G03*
X302852Y179337I3558J-2614D01*
G01*
Y172404D01*
G75*
G02*
X302455Y171446I-1352J0D01*
G01*
X297261Y166252D01*
G75*
G02*
X296303Y165854I-957J955D01*
G01*
X286863D01*
X282852Y161843D01*
Y155665D01*
G75*
G02*
X282455Y154708I-1352J0D01*
G01*
X278511Y150763D01*
G75*
G02*
X277553Y150366I-957J955D01*
G01*
X275152D01*
G75*
G03*
X273830Y149700I1307J-4240D01*
G01*
G75*
G02*
X273079Y149071I-2331J2019D01*
G01*
G75*
G02*
X273004Y149028I-708J1148D01*
G01*
G75*
G02*
X268417Y151719I-1504J2691D01*
G01*
G75*
G02*
X273004Y154409I3083J0D01*
G01*
G75*
G02*
X273079Y154366I-632J-1191D01*
G01*
G75*
G02*
X273830Y153737I-1580J-2648D01*
G01*
G75*
G03*
X275152Y153071I2629J3574D01*
G01*
X276993D01*
X280148Y156226D01*
Y162404D01*
G75*
G02*
X280545Y163361I1352J0D01*
G01*
X285346Y168162D01*
G75*
G02*
X286303Y168559I957J-955D01*
G01*
X295743D01*
X300148Y172964D01*
Y179335D01*
G75*
G03*
X299487Y180648I-4223J-1304D01*
G01*
G75*
G02*
X298423Y182974I2013J2326D01*
G01*
Y151715D02*
G75*
G02*
X304577I3077J0D01*
G01*
G75*
G02*
X298423I-3077J0D01*
G01*
X308423Y182974D02*
G75*
G02*
X314577I3077J0D01*
G01*
G75*
G02*
X313513Y180647I-3077J0D01*
G01*
G75*
G03*
X312852Y179337I3558J-2614D01*
G01*
Y172344D01*
G75*
G02*
X312455Y171387I-1352J0D01*
G01*
X307862Y166794D01*
Y146094D01*
G75*
G03*
X308557Y144715I4400J1350D01*
G01*
G75*
G02*
X309200Y143949I-2048J-2371D01*
G01*
G75*
G02*
X309244Y143873I-1151J-719D01*
G01*
G75*
G02*
X309642Y142345I-2734J-1528D01*
G01*
Y142344D01*
G75*
G02*
X303378I-3132J0D01*
G01*
G75*
G02*
X304464Y144716I3132J0D01*
G01*
G75*
G03*
X305157Y146093I-3709J2731D01*
G01*
Y167354D01*
G75*
G02*
X305555Y168312I1352J0D01*
G01*
X310148Y172905D01*
Y179335D01*
G75*
G03*
X309487Y180648I-4223J-1304D01*
G01*
G75*
G02*
X308423Y182974I2013J2326D01*
G01*
Y151715D02*
G75*
G02*
X314577I3077J0D01*
G01*
G75*
G02*
X308423I-3077J0D01*
G01*
X318423Y182974D02*
G75*
G02*
X324577I3077J0D01*
G01*
G75*
G02*
X323513Y180647I-3077J0D01*
G01*
G75*
G03*
X322852Y179337I3558J-2614D01*
G01*
Y172344D01*
G75*
G02*
X322455Y171387I-1352J0D01*
G01*
X317862Y166794D01*
Y146094D01*
G75*
G03*
X318557Y144715I4400J1350D01*
G01*
G75*
G02*
X319200Y143949I-2048J-2371D01*
G01*
G75*
G02*
X319244Y143873I-1151J-719D01*
G01*
G75*
G02*
X319642Y142345I-2734J-1528D01*
G01*
Y142344D01*
G75*
G02*
X313378I-3132J0D01*
G01*
G75*
G02*
X314464Y144716I3132J0D01*
G01*
G75*
G03*
X315157Y146093I-3709J2731D01*
G01*
Y167354D01*
G75*
G02*
X315555Y168312I1352J0D01*
G01*
X320148Y172905D01*
Y179335D01*
G75*
G03*
X319487Y180648I-4223J-1304D01*
G01*
G75*
G02*
X318423Y182974I2013J2326D01*
G01*
X288026Y155189D02*
X294974D01*
Y148240D01*
X288026D01*
Y155189D01*
X293378Y142344D02*
G75*
G02*
X299642I3132J0D01*
G01*
G75*
G02*
X293378I-3132J0D01*
G01*
X268417Y182970D02*
G75*
G02*
X274583I3083J0D01*
G01*
G75*
G02*
X274185Y181456I-3083J0D01*
G01*
G75*
G02*
X274155Y181404I-1190J650D01*
G01*
G75*
G02*
X273517Y180640I-2655J1567D01*
G01*
G75*
G03*
X272852Y179319I3576J-2628D01*
G01*
Y159228D01*
G75*
G03*
X273001Y158940I1359J519D01*
G01*
G75*
G02*
X273691Y157344I-1501J-1596D01*
G01*
G75*
G02*
X269309I-2191J0D01*
G01*
G75*
G02*
X269581Y158402I2191J0D01*
G01*
G75*
G02*
X269624Y158476I1198J-641D01*
G01*
G75*
G02*
X269997Y158939I1877J-1131D01*
G01*
G75*
G03*
X270148Y159230I-1208J811D01*
G01*
Y179320D01*
G75*
G03*
X269484Y180639I-4239J-1307D01*
G01*
G75*
G02*
X268417Y182970I2017J2332D01*
G01*
X257250Y196094D02*
G75*
G02*
X265750I4250J0D01*
G01*
G75*
G02*
X257250I-4250J0D01*
G01*
X264185Y153233D02*
G75*
G02*
X264583Y151719I-2685J-1515D01*
G01*
G75*
G02*
X258417I-3083J0D01*
G01*
G75*
G02*
X259484Y154050I3083J0D01*
G01*
G75*
G03*
X260148Y155369I-3576J2626D01*
G01*
Y167959D01*
G75*
G03*
X259997Y168250I-1359J-520D01*
G01*
G75*
G02*
X259624Y168713I1504J1594D01*
G01*
G75*
G02*
X259581Y168787I1156J713D01*
G01*
G75*
G02*
X259309Y169844I1919J1058D01*
G01*
G75*
G02*
X263691I2191J0D01*
G01*
G75*
G02*
X263001Y168249I-2191J0D01*
G01*
G75*
G03*
X262852Y167961I1210J-807D01*
G01*
Y155370D01*
G75*
G03*
X263517Y154049I4240J1306D01*
G01*
G75*
G02*
X264155Y153285I-2017J-2331D01*
G01*
G75*
G02*
X264185Y153233I-1160J-702D01*
G01*
X263378Y82344D02*
G75*
G02*
X269642I3132J0D01*
G01*
G75*
G02*
X263378I-3132J0D01*
G01*
X258417Y182970D02*
G75*
G02*
X264583I3083J0D01*
G01*
G75*
G02*
X258417I-3083J0D01*
G01*
X236500Y197169D02*
G75*
G02*
X240213Y193457I0J-3713D01*
G01*
G75*
G02*
X236500Y189744I-3713J0D01*
G01*
G75*
G02*
X232787Y193457I0J3713D01*
G01*
G75*
G02*
X236500Y197169I3713J0D01*
G01*
X238417Y182970D02*
G75*
G02*
X244583I3083J0D01*
G01*
G75*
G02*
X238417I-3083J0D01*
G01*
X218417D02*
G75*
G02*
X224583I3083J0D01*
G01*
G75*
G02*
X218417I-3083J0D01*
G01*
X277648Y196094D02*
G75*
G02*
X285352I3852J0D01*
G01*
G75*
G02*
X277648I-3852J0D01*
G01*
X334149Y212444D02*
G75*
G02*
X339006Y211065I2233J-1379D01*
G01*
Y208624D01*
G75*
G02*
X334149Y207245I-2624J0D01*
G01*
G75*
G02*
X328772I-2689J1379D01*
G01*
G75*
G02*
X324079Y207713I-2233J1379D01*
G01*
G75*
G02*
X320316Y206346I-2461J911D01*
G01*
G75*
G02*
X320295Y206358I871J1533D01*
G01*
G75*
G02*
X319585Y206965I1322J2266D01*
G01*
G75*
G03*
X317239Y208242I-4227J-4972D01*
G01*
X305761D01*
G75*
G03*
X303415Y206965I1885J-6257D01*
G01*
G75*
G02*
X302705Y206358I-2032J1659D01*
G01*
G75*
G02*
X302684Y206346I-853J1455D01*
G01*
G75*
G02*
X299149Y207245I-1302J2278D01*
G01*
G75*
G02*
X293772I-2689J1379D01*
G01*
G75*
G02*
X289079Y207713I-2233J1379D01*
G01*
G75*
G02*
X283994Y208624I-2461J911D01*
G01*
Y211065D01*
G75*
G02*
X289079Y211976I2624J0D01*
G01*
G75*
G02*
X293772Y212444I2461J-911D01*
G01*
G75*
G02*
X299149I2689J-1379D01*
G01*
G75*
G02*
X302684Y213343I2233J-1379D01*
G01*
G75*
G02*
X302705Y213331I-871J-1533D01*
G01*
G75*
G02*
X303415Y212724I-1322J-2265D01*
G01*
G75*
G03*
X305761Y211447I4231J4979D01*
G01*
X317239D01*
G75*
G03*
X319585Y212723I-1885J6257D01*
G01*
G75*
G02*
X324079Y211976I2033J-1658D01*
G01*
G75*
G02*
X328772Y212444I2461J-911D01*
G01*
G75*
G02*
X334149I2689J-1379D01*
G01*
X338423Y182974D02*
G75*
G02*
X344577I3077J0D01*
G01*
G75*
G02*
X338423I-3077J0D01*
G01*
X328423D02*
G75*
G02*
X334577I3077J0D01*
G01*
G75*
G02*
X328423I-3077J0D01*
G01*
X288423D02*
G75*
G02*
X294577I3077J0D01*
G01*
G75*
G02*
X288423I-3077J0D01*
G01*
X348423D02*
G75*
G02*
X354577I3077J0D01*
G01*
G75*
G02*
X353513Y180647I-3077J0D01*
G01*
G75*
G03*
X352852Y179337I3558J-2614D01*
G01*
Y177344D01*
G75*
G02*
X352455Y176387I-1352J0D01*
G01*
X347457Y171389D01*
G75*
G02*
X346500Y170992I-957J955D01*
G01*
X332060D01*
X327862Y166794D01*
Y146094D01*
G75*
G03*
X328557Y144715I4400J1350D01*
G01*
G75*
G02*
X329200Y143949I-2048J-2371D01*
G01*
G75*
G02*
X329244Y143873I-1151J-719D01*
G01*
G75*
G02*
X329642Y142345I-2734J-1528D01*
G01*
Y142344D01*
G75*
G02*
X323378I-3132J0D01*
G01*
G75*
G02*
X324464Y144716I3132J0D01*
G01*
G75*
G03*
X325157Y146093I-3709J2731D01*
G01*
Y167354D01*
G75*
G02*
X325555Y168312I1352J0D01*
G01*
X330543Y173300D01*
G75*
G02*
X331500Y173697I957J-955D01*
G01*
X345940D01*
X350148Y177905D01*
Y179335D01*
G75*
G03*
X349487Y180648I-4223J-1304D01*
G01*
G75*
G02*
X348423Y182974I2013J2326D01*
G01*
X328423Y151715D02*
G75*
G02*
X334577I3077J0D01*
G01*
G75*
G02*
X328423I-3077J0D01*
G01*
X372585Y185854D02*
G75*
G02*
Y180095I-1085J-2879D01*
G01*
G75*
G02*
X372603Y179898I-1085J-197D01*
G01*
Y154791D01*
G75*
G02*
X372585Y154594I-1103J-1D01*
G01*
G75*
G02*
Y148835I-1085J-2879D01*
G01*
G75*
G02*
X372603Y148638I-1085J-197D01*
G01*
Y145421D01*
G75*
G02*
X372585Y145224I-1103J-1D01*
G01*
G75*
G02*
X374577Y142344I-1085J-2879D01*
G01*
G75*
G02*
X370231Y139541I-3077J0D01*
G01*
G75*
G02*
X370104Y139389I-907J626D01*
G01*
X367280Y136565D01*
G75*
G02*
X366498Y136242I-780J780D01*
G01*
X359002D01*
G75*
G02*
X358220Y136565I-2J1103D01*
G01*
X355720Y139065D01*
G75*
G02*
X355397Y139844I780J780D01*
G01*
Y139845D01*
G75*
G02*
Y139847I364J1D01*
G01*
Y141829D01*
X347457Y133889D01*
G75*
G02*
X346500Y133492I-957J955D01*
G01*
X339570D01*
X327862Y121784D01*
Y86094D01*
G75*
G03*
X328557Y84715I4400J1350D01*
G01*
G75*
G02*
X329200Y83949I-2048J-2371D01*
G01*
G75*
G02*
X329244Y83873I-1151J-719D01*
G01*
G75*
G02*
X329642Y82345I-2734J-1528D01*
G01*
Y82344D01*
G75*
G02*
X323378I-3132J0D01*
G01*
G75*
G02*
X324464Y84716I3132J0D01*
G01*
G75*
G03*
X325157Y86093I-3709J2731D01*
G01*
Y122344D01*
G75*
G02*
X325555Y123302I1352J0D01*
G01*
X338052Y135800D01*
G75*
G02*
X338294Y135992I957J-956D01*
G01*
X337060D01*
X317862Y116794D01*
Y86094D01*
G75*
G03*
X318557Y84715I4400J1350D01*
G01*
G75*
G02*
X319200Y83949I-2048J-2371D01*
G01*
G75*
G02*
X319244Y83873I-1151J-719D01*
G01*
G75*
G02*
X319642Y82345I-2734J-1528D01*
G01*
Y82344D01*
G75*
G02*
X313378I-3132J0D01*
G01*
G75*
G02*
X314464Y84716I3132J0D01*
G01*
G75*
G03*
X315157Y86093I-3709J2731D01*
G01*
Y117354D01*
G75*
G02*
X315555Y118312I1352J0D01*
G01*
X335543Y138300D01*
G75*
G02*
X336500Y138697I957J-955D01*
G01*
X344690D01*
X350148Y144155D01*
Y148076D01*
G75*
G03*
X349487Y149388I-4223J-1304D01*
G01*
G75*
G02*
X348423Y151715I2013J2326D01*
G01*
G75*
G02*
X354577I3077J0D01*
G01*
G75*
G02*
X354493Y151000I-3076J0D01*
G01*
X356163Y152670D01*
G75*
G02*
X357120Y153067I957J-955D01*
G01*
X357862D01*
G75*
G03*
X359173Y153727I-1304J4219D01*
G01*
G75*
G02*
X360415Y154594I2327J-2013D01*
G01*
G75*
G02*
X360397Y154791I1085J197D01*
G01*
Y169329D01*
X357457Y166389D01*
G75*
G02*
X356500Y165992I-957J955D01*
G01*
X342060D01*
X337862Y161794D01*
Y146094D01*
G75*
G03*
X338557Y144715I4400J1350D01*
G01*
G75*
G02*
X339200Y143949I-2048J-2371D01*
G01*
G75*
G02*
X339244Y143873I-1151J-719D01*
G01*
G75*
G02*
X339642Y142345I-2734J-1528D01*
G01*
Y142344D01*
G75*
G02*
X333378I-3132J0D01*
G01*
G75*
G02*
X334464Y144716I3132J0D01*
G01*
G75*
G03*
X335157Y146093I-3709J2731D01*
G01*
Y162354D01*
G75*
G02*
X335555Y163312I1352J0D01*
G01*
X340543Y168300D01*
G75*
G02*
X341500Y168697I957J-955D01*
G01*
X355940D01*
X360148Y172905D01*
Y180211D01*
G75*
G02*
X360415Y185854I1352J2764D01*
G01*
G75*
G02*
X360397Y186051I1085J197D01*
G01*
Y191092D01*
G75*
G02*
Y191094I367J1D01*
G01*
Y191094D01*
G75*
G02*
X360720Y191874I1103J0D01*
G01*
X363220Y194374D01*
G75*
G02*
X364002Y194697I780J-780D01*
G01*
X368998D01*
G75*
G02*
X369780Y194374I2J-1103D01*
G01*
X372280Y191874D01*
G75*
G02*
X372603Y191094I-780J-780D01*
G01*
Y191094D01*
G75*
G02*
Y191092I-364J-1D01*
G01*
Y186051D01*
G75*
G02*
X372585Y185854I-1103J-1D01*
G01*
X368423Y112344D02*
G75*
G02*
X374577I3077J0D01*
G01*
G75*
G02*
X368423I-3077J0D01*
G01*
X358423Y115421D02*
X364577D01*
Y109268D01*
X358423D01*
Y115421D01*
X354357Y72563D02*
G75*
G02*
X376613I11128J0D01*
G01*
G75*
G02*
X354357I-11128J0D01*
G01*
X332980Y82344D02*
G75*
G02*
X340039I3530J0D01*
G01*
G75*
G02*
X332980I-3530J0D01*
G01*
X338423Y151715D02*
G75*
G02*
X344577I3077J0D01*
G01*
G75*
G02*
X338423I-3077J0D01*
G01*
X404149Y212444D02*
G75*
G02*
X409006Y211065I2233J-1379D01*
G01*
Y208624D01*
G75*
G02*
X404149Y207245I-2624J0D01*
G01*
G75*
G02*
X398772I-2689J1379D01*
G01*
G75*
G02*
X394079Y207713I-2233J1379D01*
G01*
G75*
G02*
X390316Y206346I-2461J911D01*
G01*
G75*
G02*
X390295Y206358I871J1533D01*
G01*
G75*
G02*
X389585Y206965I1322J2266D01*
G01*
G75*
G03*
X387239Y208242I-4227J-4972D01*
G01*
X375761D01*
G75*
G03*
X373415Y206965I1885J-6257D01*
G01*
G75*
G02*
X372705Y206358I-2032J1659D01*
G01*
G75*
G02*
X372684Y206346I-853J1455D01*
G01*
G75*
G02*
X369149Y207245I-1302J2278D01*
G01*
G75*
G02*
X363772I-2689J1379D01*
G01*
G75*
G02*
X359079Y207713I-2233J1379D01*
G01*
G75*
G02*
X353994Y208624I-2461J911D01*
G01*
Y211065D01*
G75*
G02*
X359079Y211976I2624J0D01*
G01*
G75*
G02*
X363772Y212444I2461J-911D01*
G01*
G75*
G02*
X369149I2689J-1379D01*
G01*
G75*
G02*
X372684Y213343I2233J-1379D01*
G01*
G75*
G02*
X372705Y213331I-871J-1533D01*
G01*
G75*
G02*
X373415Y212724I-1322J-2265D01*
G01*
G75*
G03*
X375761Y211447I4231J4979D01*
G01*
X387239D01*
G75*
G03*
X389585Y212723I-1885J6257D01*
G01*
G75*
G02*
X394079Y211976I2033J-1658D01*
G01*
G75*
G02*
X398772Y212444I2461J-911D01*
G01*
G75*
G02*
X404149I2689J-1379D01*
G01*
X408423Y142344D02*
G75*
G02*
X414577I3077J0D01*
G01*
G75*
G02*
X408423I-3077J0D01*
G01*
X392648Y196094D02*
G75*
G02*
X400352I3852J0D01*
G01*
G75*
G02*
X392648I-3852J0D01*
G01*
X398423Y142344D02*
G75*
G02*
X404577I3077J0D01*
G01*
G75*
G02*
X398423I-3077J0D01*
G01*
X388423D02*
G75*
G02*
X394577I3077J0D01*
G01*
G75*
G02*
X388423I-3077J0D01*
G01*
X418530Y143148D02*
G75*
G02*
X424577Y142344I2970J-803D01*
G01*
G75*
G02*
X422340Y139385I-3077J0D01*
G01*
G75*
G02*
X422251Y139361I-392J1296D01*
G01*
G75*
G02*
X421280Y139276I-752J2983D01*
G01*
G75*
G03*
X419882Y138814I665J-4365D01*
G01*
X417320Y136252D01*
G75*
G02*
X416362Y135854I-957J955D01*
G01*
X388803D01*
G75*
G02*
X387846Y136252I0J1352D01*
G01*
X385348Y138749D01*
G75*
G02*
X384951Y139707I955J957D01*
G01*
Y151310D01*
G75*
G02*
X378026Y151715I-3451J404D01*
G01*
G75*
G02*
X384951Y152119I3474J0D01*
G01*
Y155396D01*
X380545Y159802D01*
G75*
G02*
X380148Y160760I955J957D01*
G01*
Y179335D01*
G75*
G03*
X379487Y180648I-4223J-1304D01*
G01*
G75*
G02*
X378423Y182974I2013J2326D01*
G01*
G75*
G02*
X384577I3077J0D01*
G01*
G75*
G02*
X383513Y180647I-3077J0D01*
G01*
G75*
G03*
X382852Y179337I3558J-2614D01*
G01*
Y161320D01*
X387258Y156914D01*
G75*
G02*
X387656Y155957I-955J-957D01*
G01*
Y140267D01*
X389363Y138559D01*
X415802D01*
X417970Y140727D01*
G75*
G03*
X418431Y142123I-3905J2062D01*
G01*
G75*
G02*
X418423Y142343I3070J220D01*
G01*
Y142344D01*
G75*
G02*
X418526Y143133I3077J0D01*
G01*
G75*
G02*
X418530Y143148I1216J-312D01*
G01*
X418026Y112344D02*
G75*
G02*
X424974I3474J0D01*
G01*
G75*
G02*
X418026I-3474J0D01*
G01*
X398423D02*
G75*
G02*
X404577I3077J0D01*
G01*
G75*
G02*
X398423I-3077J0D01*
G01*
X426191Y88594D02*
G75*
G02*
X422942Y86676I-2191J0D01*
G01*
G75*
G02*
X422869Y86718I641J1198D01*
G01*
G75*
G02*
X422406Y87091I1131J1877D01*
G01*
G75*
G03*
X422115Y87242I-811J-1208D01*
G01*
X421357D01*
G75*
G02*
X417750Y84742I-3607J1352D01*
G01*
X411852D01*
Y83697D01*
X417750D01*
G75*
G02*
X421313Y81309I0J-3852D01*
G01*
X422309D01*
G75*
G02*
X425994Y79707I1494J-1602D01*
G01*
G75*
G02*
X422309Y78104I-2191J0D01*
G01*
X421187D01*
G75*
G02*
X417750Y75992I-3437J1740D01*
G01*
X410250D01*
G75*
G02*
X408648Y83348I0J3852D01*
G01*
Y85091D01*
G75*
G02*
X406685Y87133I1602J3504D01*
G01*
G75*
G02*
X402862Y88594I-1632J1461D01*
G01*
G75*
G02*
X406685Y90056I2191J0D01*
G01*
G75*
G02*
X410250Y92447I3565J-1461D01*
G01*
X417750D01*
G75*
G02*
X421357Y89947I0J-3852D01*
G01*
X422115D01*
G75*
G03*
X422406Y90098I-520J1359D01*
G01*
G75*
G02*
X422869Y90471I1594J-1504D01*
G01*
G75*
G02*
X422942Y90513I713J-1156D01*
G01*
G75*
G02*
X426191Y88594I1058J-1919D01*
G01*
X408423Y112344D02*
G75*
G02*
X414577I3077J0D01*
G01*
G75*
G02*
X408423I-3077J0D01*
G01*
X388423D02*
G75*
G02*
X394577I3077J0D01*
G01*
G75*
G02*
X388423I-3077J0D01*
G01*
X378423D02*
G75*
G02*
X384577I3077J0D01*
G01*
G75*
G02*
X378423I-3077J0D01*
G01*
Y142344D02*
G75*
G02*
X384577I3077J0D01*
G01*
G75*
G02*
X378423I-3077J0D01*
G01*
X412250Y196094D02*
G75*
G02*
X420750I4250J0D01*
G01*
G75*
G02*
X412250I-4250J0D01*
G01*
X254185Y153233D02*
G75*
G02*
X254583Y151719I-2685J-1515D01*
G01*
G75*
G02*
X248417I-3083J0D01*
G01*
G75*
G02*
X249484Y154050I3083J0D01*
G01*
G75*
G03*
X250148Y155369I-3576J2626D01*
G01*
Y165459D01*
G75*
G03*
X249997Y165750I-1359J-520D01*
G01*
G75*
G02*
X249624Y166213I1504J1594D01*
G01*
G75*
G02*
X249581Y166287I1156J713D01*
G01*
G75*
G02*
X249309Y167344I1919J1058D01*
G01*
G75*
G02*
X253691I2191J0D01*
G01*
G75*
G02*
X253001Y165749I-2191J0D01*
G01*
G75*
G03*
X252852Y165461I1210J-807D01*
G01*
Y155370D01*
G75*
G03*
X253517Y154049I4240J1306D01*
G01*
G75*
G02*
X254155Y153285I-2017J-2331D01*
G01*
G75*
G02*
X254185Y153233I-1160J-702D01*
G01*
X248417Y182970D02*
G75*
G02*
X254583I3083J0D01*
G01*
G75*
G02*
X248417I-3083J0D01*
G01*
X244185Y153233D02*
G75*
G02*
X244583Y151719I-2685J-1515D01*
G01*
G75*
G02*
X238417I-3083J0D01*
G01*
G75*
G02*
X239484Y154050I3083J0D01*
G01*
G75*
G03*
X240148Y155369I-3576J2626D01*
G01*
Y162959D01*
G75*
G03*
X239997Y163250I-1359J-520D01*
G01*
G75*
G02*
X239624Y163713I1504J1594D01*
G01*
G75*
G02*
X239581Y163787I1156J713D01*
G01*
G75*
G02*
X239309Y164844I1919J1058D01*
G01*
G75*
G02*
X243691I2191J0D01*
G01*
G75*
G02*
X243001Y163249I-2191J0D01*
G01*
G75*
G03*
X242852Y162961I1210J-807D01*
G01*
Y155370D01*
G75*
G03*
X243517Y154049I4240J1306D01*
G01*
G75*
G02*
X244155Y153285I-2017J-2331D01*
G01*
G75*
G02*
X244185Y153233I-1160J-702D01*
G01*
X77509Y62344D02*
G36*
X77509Y62344D02*
Y62344D01*
G75*
G03*
X80041Y59813I2531J0D01*
G01*
X126220D01*
G75*
G02*
X128689Y57345I0J-2468D01*
G01*
G75*
G02*
Y57344I-3470J0D01*
G01*
Y51344D01*
X151369D01*
X151652Y51835D01*
Y54228D01*
G75*
G02*
X155004Y57580I3352J0D01*
G01*
X165004D01*
G75*
G02*
X168356Y54228I0J-3352D01*
G01*
Y51835D01*
X168639Y51344D01*
X181933D01*
G75*
G03*
X183402Y54187I-6617J5219D01*
G01*
Y55848D01*
Y55849D01*
G75*
G02*
X183873Y56983I1602J0D01*
G01*
X186615Y59726D01*
G75*
G02*
X187750Y60197I1135J-1130D01*
G01*
X190006D01*
G75*
G02*
X193691Y58594I1494J-1603D01*
G01*
G75*
G02*
X190006Y56992I-2191J0D01*
G01*
X188414D01*
X186606Y55185D01*
Y54189D01*
G75*
G03*
X188075Y51344I8091J2376D01*
G01*
X191933D01*
G75*
G03*
X193402Y54187I-6617J5219D01*
G01*
Y55848D01*
Y55849D01*
G75*
G02*
X193873Y56983I1602J0D01*
G01*
X196615Y59726D01*
G75*
G02*
X197750Y60197I1135J-1130D01*
G01*
X201256D01*
G75*
G02*
X204941Y58594I1494J-1602D01*
G01*
G75*
G02*
X204846Y57957I-2191J0D01*
G01*
X206615Y59726D01*
G75*
G02*
X207750Y60197I1135J-1130D01*
G01*
X211256D01*
G75*
G02*
X214941Y58594I1494J-1602D01*
G01*
G75*
G02*
X214846Y57957I-2191J0D01*
G01*
X216615Y59726D01*
G75*
G02*
X217750Y60197I1135J-1130D01*
G01*
X221256D01*
G75*
G02*
X224941Y58595I1494J-1602D01*
G01*
G75*
G02*
X224917Y58274I-2192J0D01*
G01*
X226369Y59726D01*
G75*
G02*
X227504Y60197I1135J-1130D01*
G01*
X228756D01*
G75*
G02*
X229028Y60413I1478J-1580D01*
G01*
X215555Y73887D01*
G75*
G02*
X215157Y74844I953J957D01*
G01*
Y78596D01*
G75*
G03*
X214464Y79973I-4411J-1358D01*
G01*
G75*
G02*
X213378Y82344I2046J2371D01*
G01*
Y82344D01*
X209642D01*
G75*
G02*
X203378I-3132J0D01*
G01*
X200039D01*
G75*
G02*
X192980I-3530J0D01*
G01*
X189642D01*
Y79213D01*
X188612D01*
Y77378D01*
G75*
G02*
X187988Y75883I-2102J0D01*
G01*
X187971Y75866D01*
G75*
G02*
X186476Y75242I-1495J1478D01*
G01*
X175978D01*
G75*
G02*
X174352Y73841I-3231J2106D01*
G01*
Y73348D01*
G75*
G02*
X176602Y69844I-1602J-3503D01*
G01*
G75*
G02*
X172750Y65992I-3852J0D01*
G01*
X169500D01*
Y65594D01*
X165250D01*
G75*
G02*
X161000Y69844I0J4250D01*
G01*
G75*
G02*
X163719Y73809I4250J0D01*
G01*
G75*
G02*
X162022Y75242I1532J3537D01*
G01*
X159617D01*
G75*
G02*
X156809Y77344I-617J2102D01*
G01*
G75*
G02*
X159617Y79447I2191J0D01*
G01*
X162022D01*
G75*
G02*
X165250Y81197I3228J-2103D01*
G01*
X172750D01*
G75*
G02*
X175978Y79447I0J-3853D01*
G01*
X183378D01*
Y82344D01*
X150729D01*
G75*
G02*
X138175I-6277J9189D01*
G01*
X121522D01*
G75*
G02*
X115691I-2915J3750D01*
G01*
X95931D01*
G75*
G02*
X90100I-2915J3750D01*
G01*
X77509D01*
Y62344D01*
G37*
X217862Y78594D02*
G36*
X217862Y78594D02*
Y75405D01*
X230820Y62447D01*
X232035D01*
G75*
G02*
X231793Y62639I708J1139D01*
G01*
X220545Y73887D01*
G75*
G02*
X220148Y74844I953J957D01*
G01*
Y82344D01*
X219642D01*
Y82344D01*
G75*
G02*
X219244Y80816I-3134J0D01*
G01*
G75*
G02*
X219200Y80740I-1092J583D01*
G01*
G75*
G02*
X218557Y79974I-2692J1606D01*
G01*
G75*
G03*
X217862Y78594I3698J-2727D01*
G01*
G37*
X222852Y82344D02*
G36*
X222852Y82344D02*
Y75405D01*
X233310Y64947D01*
X234535D01*
G75*
G02*
X234293Y65139I708J1139D01*
G01*
X225555Y73877D01*
G75*
G02*
X225157Y74834I953J957D01*
G01*
G75*
G02*
Y74835I1253J0D01*
G01*
Y78596D01*
G75*
G03*
X224464Y79973I-4411J-1358D01*
G01*
G75*
G02*
X223378Y82344I2046J2371D01*
G01*
Y82344D01*
X222852D01*
G37*
X227862Y78594D02*
G36*
X227862Y78594D02*
Y75395D01*
X235810Y67447D01*
X242044D01*
G75*
G02*
X241802Y67639I708J1139D01*
G01*
X235555Y73887D01*
G75*
G02*
X235157Y74844I953J957D01*
G01*
Y78596D01*
G75*
G03*
X234464Y79973I-4411J-1358D01*
G01*
G75*
G02*
X233378Y82344I2046J2371D01*
G01*
Y82344D01*
X229642D01*
Y82344D01*
G75*
G02*
X229244Y80816I-3134J0D01*
G01*
G75*
G02*
X229200Y80740I-1092J583D01*
G01*
G75*
G02*
X228557Y79974I-2692J1606D01*
G01*
G75*
G03*
X227862Y78594I3698J-2727D01*
G01*
G37*
X237862D02*
G36*
X237862Y78594D02*
Y75405D01*
X243320Y69947D01*
X245785D01*
G75*
G02*
X245543Y70139I708J1139D01*
G01*
X240545Y75137D01*
G75*
G02*
X240148Y76094I953J957D01*
G01*
Y82344D01*
X239642D01*
Y82344D01*
G75*
G02*
X239244Y80816I-3134J0D01*
G01*
G75*
G02*
X239200Y80740I-1092J583D01*
G01*
G75*
G02*
X238557Y79974I-2692J1606D01*
G01*
G75*
G03*
X237862Y78594I3698J-2727D01*
G01*
G37*
X242852Y82344D02*
G36*
X242852Y82344D02*
Y76655D01*
X247060Y72447D01*
X252035D01*
G75*
G02*
X251793Y72639I708J1139D01*
G01*
X249295Y75137D01*
G75*
G02*
X248898Y76094I953J957D01*
G01*
Y80318D01*
G75*
G02*
X243378Y82344I-2388J2026D01*
G01*
Y82344D01*
X242852D01*
G37*
X254102Y80341D02*
G36*
X254102Y80341D02*
Y77905D01*
X254560Y77447D01*
X269000D01*
G75*
G02*
X269957Y77050I1J-1350D01*
G01*
X279560Y67447D01*
X283365D01*
G75*
G03*
X283656Y67598I-533J1386D01*
G01*
G75*
G02*
X284119Y67971I1601J-1512D01*
G01*
G75*
G02*
X284192Y68013I665J-1070D01*
G01*
G75*
G02*
X287441Y66094I1058J-1919D01*
G01*
G75*
G02*
X287116Y64947I-2191J0D01*
G01*
X288365D01*
G75*
G03*
X288656Y65098I-533J1386D01*
G01*
G75*
G02*
X289119Y65471I1601J-1512D01*
G01*
G75*
G02*
X289192Y65513I665J-1070D01*
G01*
G75*
G02*
X292441Y63594I1058J-1919D01*
G01*
G75*
G02*
X291924Y62181I-2191J0D01*
G01*
X292648Y62905D01*
Y68034D01*
X290940Y69742D01*
X286303D01*
G75*
G02*
X285346Y70139I-1J1350D01*
G01*
X279098Y76387D01*
G75*
G02*
X278701Y77344I953J957D01*
G01*
Y80107D01*
G75*
G02*
X273378Y82344I-2191J2238D01*
G01*
X269642D01*
G75*
G02*
X263378I-3132J0D01*
G01*
X259642D01*
G75*
G02*
X254102Y80341I-3132J0D01*
G01*
G37*
X283906Y80605D02*
G36*
X283906Y80605D02*
Y79017D01*
X287976Y74947D01*
X292750D01*
G75*
G02*
X293707Y74550I1J-1350D01*
G01*
X297455Y70802D01*
G75*
G02*
X297852Y69845I-953J-957D01*
G01*
G75*
G02*
Y69844I-1253J0D01*
G01*
Y57344D01*
G75*
G02*
X297455Y56387I-1350J-1D01*
G01*
X296606Y55538D01*
Y54189D01*
G75*
G03*
X298075Y51344I8091J2376D01*
G01*
X311933D01*
G75*
G03*
X313402Y54187I-6617J5219D01*
G01*
Y57157D01*
Y57158D01*
G75*
G02*
X313873Y58293I1602J0D01*
G01*
X320363Y64783D01*
G75*
G02*
X324744Y64707I2190J-76D01*
G01*
G75*
G02*
X322630Y62517I-2191J0D01*
G01*
X316606Y56494D01*
Y54189D01*
G75*
G03*
X318075Y51344I8091J2376D01*
G01*
X361933D01*
G75*
G03*
X363402Y54187I-6617J5219D01*
G01*
Y55677D01*
X360586Y58492D01*
X348665D01*
G75*
G02*
X347708Y58889I-1J1350D01*
G01*
X342848Y63749D01*
G75*
G02*
X342451Y64706I953J957D01*
G01*
G75*
G02*
Y64707I1253J0D01*
G01*
Y74072D01*
G75*
G03*
X342300Y74363I-1386J-533D01*
G01*
G75*
G02*
X341927Y74826I1512J1601D01*
G01*
G75*
G02*
X341885Y74899I1070J665D01*
G01*
G75*
G02*
X341612Y75957I1921J1059D01*
G01*
G75*
G02*
X345994I2191J0D01*
G01*
G75*
G02*
X345304Y74361I-2191J0D01*
G01*
G75*
G03*
X345156Y74073I1222J-814D01*
G01*
Y65267D01*
X349226Y61197D01*
X360641D01*
G75*
G02*
X362633Y60978I859J-1352D01*
G01*
X366135Y57476D01*
G75*
G02*
X366606Y56341I-1130J-1135D01*
G01*
Y56341D01*
Y54189D01*
G75*
G03*
X368075Y51344I8091J2376D01*
G01*
X371933D01*
G75*
G03*
X373402Y54187I-6617J5219D01*
G01*
Y55848D01*
Y55849D01*
G75*
G02*
X373873Y56983I1602J0D01*
G01*
X376398Y59508D01*
Y62344D01*
G75*
G02*
Y62345I1253J0D01*
G01*
G75*
G02*
X376795Y63302I1350J0D01*
G01*
X379293Y65800D01*
G75*
G02*
X380250Y66197I957J-953D01*
G01*
X390940D01*
X393898Y69155D01*
Y75992D01*
X387750D01*
G75*
G02*
X383898Y79844I0J3852D01*
G01*
G75*
G02*
X384819Y82344I3852J0D01*
G01*
X370791D01*
G75*
G02*
X376613Y72563I-5306J-9781D01*
G01*
G75*
G02*
X354357I-11128J0D01*
G01*
G75*
G02*
X360179Y82344I11128J0D01*
G01*
X340039D01*
G75*
G02*
X332980I-3530J0D01*
G01*
X329642D01*
G75*
G02*
X323378I-3132J0D01*
G01*
X319642D01*
G75*
G02*
X313378I-3132J0D01*
G01*
X309642D01*
G75*
G02*
X303906Y80605I-3132J0D01*
G01*
Y80267D01*
X309677Y74496D01*
G75*
G03*
X309988Y74397I589J1314D01*
G01*
G75*
G02*
X310580Y74333I66J-2186D01*
G01*
G75*
G02*
X310660Y74312I-320J-1342D01*
G01*
G75*
G02*
X312244Y72207I-607J-2105D01*
G01*
G75*
G02*
X311919Y71059I-2191J0D01*
G01*
X313168D01*
G75*
G03*
X313459Y71210I-533J1386D01*
G01*
G75*
G02*
X313922Y71583I1601J-1512D01*
G01*
G75*
G02*
X313995Y71625I665J-1070D01*
G01*
G75*
G02*
X317244Y69706I1058J-1919D01*
G01*
G75*
G02*
X316920Y68560I-2191J0D01*
G01*
G75*
G03*
X317209Y68710I-520J1355D01*
G01*
G75*
G02*
X317672Y69083I1601J-1512D01*
G01*
G75*
G02*
X317745Y69125I665J-1070D01*
G01*
G75*
G02*
X320994Y67207I1058J-1918D01*
G01*
Y67207D01*
Y67206D01*
G75*
G02*
X317745Y65288I-2191J0D01*
G01*
G75*
G02*
X317672Y65330I591J1113D01*
G01*
G75*
G02*
X317209Y65704I1138J1885D01*
G01*
G75*
G03*
X316918Y65854I-824J-1235D01*
G01*
X303803D01*
G75*
G02*
X302846Y66252I-1J1350D01*
G01*
X292198Y76899D01*
G75*
G02*
X287862Y77344I-2145J446D01*
G01*
G75*
G02*
X288701Y79068I2192J-1D01*
G01*
Y80107D01*
G75*
G02*
X283906Y80605I-2191J2238D01*
G01*
G37*
X376606Y55185D02*
G36*
X376606Y55185D02*
Y54189D01*
G75*
G03*
X378075Y51344I8091J2376D01*
G01*
X381389D01*
Y57344D01*
G75*
G02*
Y57345I3470J0D01*
G01*
G75*
G02*
X383858Y59813I2469J0D01*
G01*
X426304D01*
G75*
G03*
X428586Y61247I0J2531D01*
G01*
Y82344D01*
X420681D01*
G75*
G02*
X421313Y81309I-2931J-2499D01*
G01*
X422309D01*
G75*
G02*
X425994Y79707I1494J-1603D01*
G01*
G75*
G02*
X422309Y78104I-2191J0D01*
G01*
X421187D01*
G75*
G02*
X417750Y75992I-3437J1740D01*
G01*
X410250D01*
G75*
G02*
X406398Y79844I0J3852D01*
G01*
G75*
G02*
X407319Y82344I3852J0D01*
G01*
X401406D01*
Y66728D01*
G75*
G03*
X401554Y66440I1371J526D01*
G01*
G75*
G02*
X402244Y64844I-1501J-1596D01*
G01*
G75*
G02*
X397862I-2191J0D01*
G01*
G75*
G02*
X398135Y65902I2194J-1D01*
G01*
G75*
G02*
X398177Y65976I1113J-591D01*
G01*
G75*
G02*
X398550Y66439I1885J-1138D01*
G01*
G75*
G03*
X398701Y66730I-1235J824D01*
G01*
Y78132D01*
G75*
G02*
X396602Y76237I-3450J1713D01*
G01*
Y68594D01*
G75*
G02*
X396205Y67637I-1350J-1D01*
G01*
X392457Y63889D01*
G75*
G02*
X391500Y63492I-957J953D01*
G01*
X380810D01*
X379102Y61784D01*
Y59454D01*
G75*
G02*
X379352Y58594I-1352J-859D01*
G01*
G75*
G02*
X378883Y57461I-1602J0D01*
G01*
X376606Y55185D01*
G37*
X37403Y103811D02*
G36*
X37403Y103811D02*
G75*
G03*
X40054Y102726I2651J2697D01*
G01*
X70041D01*
G75*
G02*
X77509Y95258I0J-7468D01*
G01*
Y95258D01*
Y82344D01*
X90100D01*
G75*
G02*
X88266Y86094I2915J3750D01*
G01*
G75*
G02*
X97766I4750J0D01*
G01*
G75*
G02*
X95931Y82344I-4750J0D01*
G01*
X115691D01*
G75*
G02*
X113856Y86094I2915J3750D01*
G01*
G75*
G02*
X123356I4750J0D01*
G01*
G75*
G02*
X121522Y82344I-4750J0D01*
G01*
X138175D01*
G75*
G02*
X133324Y91533I6277J9189D01*
G01*
G75*
G02*
X155580I11128J0D01*
G01*
G75*
G02*
X150729Y82344I-11128J0D01*
G01*
X183378D01*
Y85476D01*
X189642D01*
Y82344D01*
X192980D01*
G75*
G02*
X200039I3530J0D01*
G01*
X203378D01*
G75*
G02*
X204407Y84666I3131J0D01*
G01*
Y92714D01*
X203129Y93992D01*
X175978D01*
G75*
G02*
X174852Y92867I-3224J2098D01*
G01*
Y91822D01*
G75*
G02*
X176602Y88594I-2102J-3228D01*
G01*
G75*
G02*
X172750Y84742I-3852J0D01*
G01*
X165250D01*
G75*
G02*
X162022Y86492I0J3853D01*
G01*
X159420D01*
G75*
G02*
X156612Y88594I-617J2102D01*
G01*
G75*
G02*
X159420Y90697I2191J0D01*
G01*
X162022D01*
G75*
G02*
X164368Y92344I3228J-2103D01*
G01*
G75*
G02*
X161398Y96094I882J3750D01*
G01*
G75*
G02*
X163648Y99598I3852J0D01*
G01*
Y103811D01*
X122959D01*
G75*
G02*
X115277Y101008I-4352J0D01*
G01*
G75*
G03*
X112884Y102209I-4548J-6078D01*
G01*
X98738D01*
G75*
G03*
X96345Y101008I2162J-7295D01*
G01*
G75*
G02*
X88663Y103811I-3330J2803D01*
G01*
X37403D01*
G37*
X166852Y100742D02*
G36*
X166852Y100742D02*
Y99947D01*
X172750D01*
G75*
G02*
X175978Y98197I0J-3853D01*
G01*
X204000D01*
G75*
G02*
X205487Y97581I-1J-2104D01*
G01*
X207996Y95072D01*
G75*
G02*
X208612Y93585I-1488J-1488D01*
G01*
Y84666D01*
G75*
G02*
X209642Y82344I-2102J-2321D01*
G01*
X213378D01*
G75*
G02*
X219642I3132J0D01*
G01*
X220148D01*
Y91094D01*
G75*
G02*
Y91095I1253J0D01*
G01*
G75*
G02*
X220545Y92052I1350J0D01*
G01*
X232304Y103811D01*
X185628D01*
G75*
G02*
X186191Y102344I-1628J-1467D01*
G01*
G75*
G02*
X182506Y100742I-2191J0D01*
G01*
X166852D01*
G37*
X222852Y90534D02*
G36*
X222852Y90534D02*
Y82344D01*
X223378D01*
G75*
G02*
X229642I3132J0D01*
G01*
X233378D01*
G75*
G02*
X239642I3132J0D01*
G01*
X240148D01*
Y103811D01*
X236129D01*
X222852Y90534D01*
G37*
X242852Y103811D02*
G36*
X242852Y103811D02*
Y82344D01*
X243378D01*
Y82345D01*
G75*
G02*
X248898Y84371I3132J0D01*
G01*
Y90534D01*
X245555Y93877D01*
G75*
G02*
X245157Y94834I953J957D01*
G01*
G75*
G02*
Y94835I1253J0D01*
G01*
Y103811D01*
X242852D01*
G37*
X247862D02*
G36*
X247862Y103811D02*
Y95395D01*
X251205Y92052D01*
G75*
G02*
X251398Y91810I-947J-950D01*
G01*
Y103811D01*
X247862D01*
G37*
X254102D02*
G36*
X254102Y103811D02*
Y84348D01*
G75*
G02*
X259642Y82344I2407J-2003D01*
G01*
X263378D01*
G75*
G02*
X269642I3132J0D01*
G01*
X273378D01*
G75*
G02*
X278701Y84582I3132J0D01*
G01*
Y103811D01*
X254102D01*
G37*
X303906D02*
G36*
X303906Y103811D02*
Y84084D01*
G75*
G02*
X304464Y84716I2608J-1743D01*
G01*
G75*
G03*
X305157Y86093I-3718J2735D01*
G01*
Y103811D01*
X303906D01*
G37*
X307862D02*
G36*
X307862Y103811D02*
Y86094D01*
G75*
G03*
X308557Y84715I4393J1347D01*
G01*
G75*
G02*
X309200Y83949I-2050J-2372D01*
G01*
G75*
G02*
X309244Y83873I-1048J-659D01*
G01*
G75*
G02*
X309642Y82345I-2736J-1528D01*
G01*
Y82344D01*
X313378D01*
Y82345D01*
G75*
G02*
X314464Y84716I3131J0D01*
G01*
G75*
G03*
X315157Y86093I-3718J2735D01*
G01*
Y103811D01*
X307862D01*
G37*
X317862D02*
G36*
X317862Y103811D02*
Y86094D01*
G75*
G03*
X318557Y84715I4393J1347D01*
G01*
G75*
G02*
X319200Y83949I-2050J-2372D01*
G01*
G75*
G02*
X319244Y83873I-1048J-659D01*
G01*
G75*
G02*
X319642Y82345I-2736J-1528D01*
G01*
Y82344D01*
X323378D01*
Y82345D01*
G75*
G02*
X324464Y84716I3131J0D01*
G01*
G75*
G03*
X325157Y86093I-3718J2735D01*
G01*
Y103811D01*
X317862D01*
G37*
X327862D02*
G36*
X327862Y103811D02*
Y86094D01*
G75*
G03*
X328557Y84715I4393J1347D01*
G01*
G75*
G02*
X329200Y83949I-2050J-2372D01*
G01*
G75*
G02*
X329244Y83873I-1048J-659D01*
G01*
G75*
G02*
X329642Y82345I-2736J-1528D01*
G01*
Y82344D01*
X332980D01*
G75*
G02*
X340039I3530J0D01*
G01*
X360179D01*
G75*
G02*
X370791I5306J-9781D01*
G01*
X384819D01*
G75*
G02*
X386148Y83348I2931J-2500D01*
G01*
Y85091D01*
G75*
G02*
X384143Y87242I1603J3504D01*
G01*
X383027D01*
G75*
G02*
X379112Y88594I-1724J1352D01*
G01*
G75*
G02*
X383027Y89947I2191J0D01*
G01*
X384143D01*
G75*
G02*
X387750Y92447I3607J-1352D01*
G01*
X395250D01*
G75*
G02*
X399102Y88594I0J-3852D01*
G01*
G75*
G02*
X398646Y86776I-3852J0D01*
G01*
X401008Y84414D01*
G75*
G02*
X401406Y83457I-953J-957D01*
G01*
Y82344D01*
X407319D01*
G75*
G02*
X408648Y83348I2931J-2500D01*
G01*
Y85091D01*
G75*
G02*
X406685Y87133I1600J3502D01*
G01*
G75*
G02*
X402862Y88594I-1632J1461D01*
G01*
G75*
G02*
X406685Y90056I2191J0D01*
G01*
G75*
G02*
X410250Y92447I3565J-1462D01*
G01*
X417750D01*
G75*
G02*
X421357Y89947I0J-3852D01*
G01*
X422115D01*
G75*
G03*
X422406Y90098I-533J1386D01*
G01*
G75*
G02*
X422869Y90471I1601J-1512D01*
G01*
G75*
G02*
X422942Y90513I665J-1070D01*
G01*
G75*
G02*
X426191Y88595I1058J-1918D01*
G01*
Y88594D01*
Y88594D01*
G75*
G02*
X422942Y86676I-2191J0D01*
G01*
G75*
G02*
X422869Y86718I591J1113D01*
G01*
G75*
G02*
X422406Y87091I1138J1885D01*
G01*
G75*
G03*
X422115Y87242I-824J-1235D01*
G01*
X421357D01*
G75*
G02*
X417750Y84742I-3607J1352D01*
G01*
X411852D01*
Y83697D01*
X417750D01*
G75*
G02*
X420681Y82344I0J-3852D01*
G01*
X428586D01*
Y103811D01*
X327862D01*
G37*
X36523Y112344D02*
G36*
X36523Y112344D02*
Y105156D01*
G75*
G03*
X37403Y103811I3531J1352D01*
G01*
X88663D01*
G75*
G02*
X96345Y106614I4352J0D01*
G01*
G75*
G03*
X98738Y105413I4555J6094D01*
G01*
X112884D01*
G75*
G03*
X115277Y106614I-2156J7279D01*
G01*
G75*
G02*
X122959Y103811I3330J-2803D01*
G01*
X163648D01*
Y103841D01*
G75*
G02*
X161398Y107344I1602J3503D01*
G01*
G75*
G02*
X164368Y111094I3852J0D01*
G01*
G75*
G02*
X162319Y112344I882J3750D01*
G01*
X36523D01*
G37*
X174352Y111341D02*
G36*
X174352Y111341D02*
Y110848D01*
G75*
G02*
X176602Y107344I-1602J-3503D01*
G01*
G75*
G02*
X174566Y103947I-3853J0D01*
G01*
X182506D01*
G75*
G02*
X185628Y103811I1494J-1603D01*
G01*
X232304D01*
X235157Y106665D01*
Y112344D01*
X175681D01*
G75*
G02*
X174352Y111341I-2930J2499D01*
G01*
G37*
X237465Y105147D02*
G36*
X237465Y105147D02*
X236129Y103811D01*
X240148D01*
Y112344D01*
X237862D01*
Y106104D01*
G75*
G02*
X237465Y105147I-1350J-1D01*
G01*
G37*
X242852Y112344D02*
G36*
X242852Y112344D02*
Y103811D01*
X245157D01*
Y112344D01*
X242852D01*
G37*
X247862D02*
G36*
X247862Y112344D02*
Y103811D01*
X251398D01*
Y112344D01*
X247862D01*
G37*
X254102D02*
G36*
X254102Y112344D02*
Y103811D01*
X278701D01*
Y108044D01*
X275555Y111190D01*
G75*
G02*
X275157Y112147I953J957D01*
G01*
G75*
G02*
Y112148I1253J0D01*
G01*
Y112344D01*
X254102D01*
G37*
X303906D02*
G36*
X303906Y112344D02*
Y103811D01*
X305157D01*
Y112344D01*
X303906D01*
G37*
X307862Y111794D02*
G36*
X307862Y111794D02*
Y103811D01*
X315157D01*
Y112344D01*
X308413D01*
X307862Y111794D01*
G37*
X317862Y112344D02*
G36*
X317862Y112344D02*
Y103811D01*
X325157D01*
Y112344D01*
X317862D01*
G37*
X327862D02*
G36*
X327862Y112344D02*
Y103811D01*
X428586D01*
Y112344D01*
X424974D01*
G75*
G02*
X418026I-3474J0D01*
G01*
X414577D01*
G75*
G02*
X408423I-3077J0D01*
G01*
X404577D01*
G75*
G02*
X398423I-3077J0D01*
G01*
X394577D01*
G75*
G02*
X388423I-3077J0D01*
G01*
X384577D01*
G75*
G02*
X378423I-3077J0D01*
G01*
X374577D01*
G75*
G02*
X368423I-3077J0D01*
G01*
X364577D01*
Y109268D01*
X358423D01*
Y112344D01*
X327862D01*
G37*
X36523Y118457D02*
G36*
X36523Y118457D02*
Y112344D01*
X162319D01*
G75*
G02*
X161398Y114844I2931J2500D01*
G01*
G75*
G02*
X163898Y118452I3852J0D01*
G01*
Y118457D01*
X155157D01*
G75*
G02*
X150037Y115104I-3657J0D01*
G01*
X130393D01*
G75*
G02*
X128017Y116086I-4J3353D01*
G01*
X125647Y118457D01*
X60669D01*
G75*
G02*
X53354I-3657J0D01*
G01*
X36523D01*
G37*
X176253Y113242D02*
G36*
X176253Y113242D02*
G75*
G02*
X175681Y112344I-3502J1601D01*
G01*
X235157D01*
Y118457D01*
X210931D01*
X206188Y113713D01*
G75*
G02*
X205053Y113242I-1135J1130D01*
G01*
X176253D01*
G37*
X174089Y118457D02*
G36*
X174089Y118457D02*
G75*
G02*
X176253Y116447I-1339J-3612D01*
G01*
X204389D01*
X206399Y118457D01*
X185696D01*
G75*
G02*
X182942Y117926I-1695J1388D01*
G01*
G75*
G02*
X182869Y117968I591J1113D01*
G01*
G75*
G02*
X182406Y118341I1138J1885D01*
G01*
G75*
G03*
X182199Y118457I-824J-1235D01*
G01*
X174089D01*
G37*
X237862D02*
G36*
X237862Y118457D02*
Y112344D01*
X240148D01*
Y118457D01*
X237862D01*
G37*
X242852D02*
G36*
X242852Y118457D02*
Y112344D01*
X245157D01*
Y118457D01*
X242852D01*
G37*
X247862D02*
G36*
X247862Y118457D02*
Y112344D01*
X251398D01*
Y118457D01*
X247862D01*
G37*
X254102D02*
G36*
X254102Y118457D02*
Y112344D01*
X275157D01*
Y118457D01*
X254102D01*
G37*
X301966D02*
G36*
X301966Y118457D02*
X303508Y116914D01*
G75*
G02*
X303906Y115957I-953J-957D01*
G01*
Y112344D01*
X305157D01*
Y112354D01*
G75*
G02*
Y112355I1253J0D01*
G01*
G75*
G02*
X305555Y113312I1350J0D01*
G01*
X310700Y118457D01*
X301966D01*
G37*
X314525D02*
G36*
X314525Y118457D02*
X308413Y112344D01*
X315157D01*
Y117354D01*
G75*
G02*
Y117355I1253J0D01*
G01*
G75*
G02*
X315555Y118312I1350J0D01*
G01*
X315700Y118457D01*
X314525D01*
G37*
X317862Y116794D02*
G36*
X317862Y116794D02*
Y112344D01*
X325157D01*
Y118457D01*
X319525D01*
X317862Y116794D01*
G37*
X327862Y118457D02*
G36*
X327862Y118457D02*
Y112344D01*
X358423D01*
Y115421D01*
X364577D01*
Y112344D01*
X368423D01*
G75*
G02*
X374577I3077J0D01*
G01*
X378423D01*
G75*
G02*
X384577I3077J0D01*
G01*
X388423D01*
G75*
G02*
X394577I3077J0D01*
G01*
X398423D01*
G75*
G02*
X404577I3077J0D01*
G01*
X408423D01*
G75*
G02*
X414577I3077J0D01*
G01*
X418026D01*
G75*
G02*
X424974I3474J0D01*
G01*
X428586D01*
Y118457D01*
X327862D01*
G37*
X36523Y130957D02*
G36*
X36523Y130957D02*
Y118457D01*
X53354D01*
G75*
G02*
X60669I3657J0D01*
G01*
X125647D01*
X122683Y121421D01*
G75*
G02*
X121701Y123791I2369J2370D01*
G01*
Y123793D01*
Y123796D01*
Y130957D01*
X36523D01*
G37*
X128406Y128662D02*
G36*
X128406Y128662D02*
Y125180D01*
X131776Y121809D01*
X150037D01*
G75*
G02*
X155157Y118457I1463J-3352D01*
G01*
X163898D01*
Y118594D01*
G75*
G02*
Y118595I1253J0D01*
G01*
G75*
G02*
X164295Y119552I1350J0D01*
G01*
X165543Y120800D01*
G75*
G02*
X166500Y121197I957J-953D01*
G01*
X182115D01*
G75*
G03*
X182406Y121348I-533J1386D01*
G01*
G75*
G02*
X182869Y121721I1601J-1512D01*
G01*
G75*
G02*
X182942Y121763I665J-1070D01*
G01*
G75*
G02*
X186191Y119845I1058J-1918D01*
G01*
Y119844D01*
Y119844D01*
G75*
G02*
X185696Y118457I-2191J0D01*
G01*
X206399D01*
X214907Y126965D01*
Y130957D01*
X174352D01*
Y130848D01*
G75*
G02*
X176602Y127344I-1602J-3503D01*
G01*
G75*
G02*
X172750Y123492I-3852J0D01*
G01*
X169500D01*
Y123094D01*
X165250D01*
G75*
G02*
X161000Y127344I0J4250D01*
G01*
G75*
G02*
X163010Y130957I4250J0D01*
G01*
X155352D01*
G75*
G02*
X147648I-3852J0D01*
G01*
X135352D01*
G75*
G02*
X128406Y128662I-3852J0D01*
G01*
G37*
X173989Y118492D02*
G36*
X173989Y118492D02*
G75*
G02*
X174089Y118457I-1239J-3641D01*
G01*
X182199D01*
G75*
G03*
X182115Y118492I-618J-1351D01*
G01*
X173989D01*
G37*
X217641Y125166D02*
G36*
X217641Y125166D02*
X210931Y118457D01*
X235157D01*
Y130957D01*
X218112D01*
Y126301D01*
Y126301D01*
G75*
G02*
X217641Y125166I-1602J0D01*
G01*
G37*
X237862Y130957D02*
G36*
X237862Y130957D02*
Y118457D01*
X240148D01*
Y130957D01*
X237862D01*
G37*
X242852D02*
G36*
X242852Y130957D02*
Y118457D01*
X245157D01*
Y130957D01*
X242852D01*
G37*
X247862D02*
G36*
X247862Y130957D02*
Y118457D01*
X251398D01*
Y124844D01*
G75*
G02*
Y124845I1253J0D01*
G01*
G75*
G02*
X251795Y125802I1350J0D01*
G01*
X255157Y129165D01*
Y130957D01*
X247862D01*
G37*
X254102Y124284D02*
G36*
X254102Y124284D02*
Y118457D01*
X275157D01*
Y130957D01*
X257862D01*
Y128604D01*
G75*
G02*
X257465Y127647I-1350J-1D01*
G01*
X254102Y124284D01*
G37*
X282852Y130957D02*
G36*
X282852Y130957D02*
Y125070D01*
X289137Y118785D01*
G75*
G02*
X292899Y119958I2166J-329D01*
G01*
G75*
G03*
X293187Y119809I814J1222D01*
G01*
X296303D01*
G75*
G02*
X296957Y119641I-1J-1356D01*
G01*
X295536Y121061D01*
X290053D01*
G75*
G02*
X289096Y121458I-1J1350D01*
G01*
X285555Y124999D01*
G75*
G02*
X285157Y125956I953J957D01*
G01*
G75*
G02*
Y125957I1253J0D01*
G01*
Y130957D01*
X282852D01*
G37*
X287862D02*
G36*
X287862Y130957D02*
Y126517D01*
X290613Y123766D01*
X296096D01*
G75*
G02*
X297054Y123369I1J-1350D01*
G01*
X301966Y118457D01*
X310700D01*
X320148Y127905D01*
Y130957D01*
X287862D01*
G37*
X314525Y118457D02*
G36*
X314525Y118457D02*
X315700D01*
X328200Y130957D01*
X322852D01*
Y127344D01*
G75*
G02*
X322455Y126387I-1350J-1D01*
G01*
X314525Y118457D01*
G37*
X319525D02*
G36*
X319525Y118457D02*
X325157D01*
Y122344D01*
G75*
G02*
Y122345I1253J0D01*
G01*
G75*
G02*
X325555Y123302I1350J0D01*
G01*
X333209Y130957D01*
X332025D01*
X319525Y118457D01*
G37*
X327862Y121784D02*
G36*
X327862Y121784D02*
Y118457D01*
X428586D01*
Y130957D01*
X337035D01*
X327862Y121784D01*
G37*
X36523Y141341D02*
G36*
X36523Y141341D02*
Y130957D01*
X121701D01*
Y141341D01*
X112563D01*
G75*
G02*
X108313Y137091I-4250J0D01*
G01*
X104376D01*
G75*
G02*
X100126Y141341I0J4250D01*
G01*
X71134D01*
G75*
G02*
X61555I-4789J0D01*
G01*
X61134D01*
G75*
G02*
X51555I-4789J0D01*
G01*
X36523D01*
G37*
X128406Y138044D02*
G36*
X128406Y138044D02*
Y133251D01*
G75*
G02*
X135352Y130957I3094J-2294D01*
G01*
X147648D01*
G75*
G02*
X155352I3852J0D01*
G01*
X163010D01*
G75*
G02*
X163719Y131309I2239J-3613D01*
G01*
G75*
G02*
X162022Y132742I1532J3537D01*
G01*
X159617D01*
G75*
G02*
X156809Y134844I-617J2102D01*
G01*
G75*
G02*
X159617Y136947I2191J0D01*
G01*
X162022D01*
G75*
G02*
X165250Y138697I3228J-2103D01*
G01*
X172750D01*
G75*
G02*
X175978Y136947I0J-3853D01*
G01*
X182839D01*
X180720Y139065D01*
G75*
G02*
X180398Y139844I779J779D01*
G01*
Y139844D01*
Y141341D01*
X155333D01*
G75*
G02*
X155352Y140957I-3833J-385D01*
G01*
G75*
G02*
X147648I-3852J0D01*
G01*
G75*
G02*
X147667Y141341I3853J-1D01*
G01*
X135733D01*
G75*
G02*
X135750Y140957I-4233J-383D01*
G01*
G75*
G02*
X128406Y138044I-4250J0D01*
G01*
G37*
X174352Y131341D02*
G36*
X174352Y131341D02*
Y130957D01*
X214907D01*
Y139055D01*
G75*
G03*
X214425Y140007I-3341J-1094D01*
G01*
G75*
G02*
X213810Y140757I2084J2337D01*
G01*
G75*
G02*
X213785Y140801I1049J633D01*
G01*
G75*
G02*
X213543Y141341I2730J1545D01*
G01*
X209476D01*
G75*
G02*
X208612Y140023I-2967J1004D01*
G01*
Y137344D01*
G75*
G02*
X207870Y135742I-2103J1D01*
G01*
X205487Y133358D01*
G75*
G02*
X204000Y132742I-1488J1488D01*
G01*
X175978D01*
G75*
G02*
X174352Y131341I-3231J2106D01*
G01*
G37*
X218112Y139054D02*
G36*
X218112Y139054D02*
Y130957D01*
X235157D01*
Y138596D01*
G75*
G03*
X234464Y139973I-4411J-1358D01*
G01*
G75*
G02*
X233543Y141341I2046J2371D01*
G01*
X229476D01*
G75*
G02*
X223543I-2967J1004D01*
G01*
X219476D01*
G75*
G02*
X219253Y140833I-2966J1004D01*
G01*
G75*
G02*
X219190Y140725I-1506J798D01*
G01*
G75*
G02*
X218596Y140009I-2683J1621D01*
G01*
G75*
G03*
X218112Y139054I2852J-2046D01*
G01*
G37*
X237862Y138594D02*
G36*
X237862Y138594D02*
Y130957D01*
X240148D01*
Y141341D01*
X239476D01*
G75*
G02*
X239244Y140816I-2969J1003D01*
G01*
G75*
G02*
X239200Y140740I-1092J583D01*
G01*
G75*
G02*
X238557Y139974I-2692J1606D01*
G01*
G75*
G03*
X237862Y138594I3698J-2727D01*
G01*
G37*
X242852Y141341D02*
G36*
X242852Y141341D02*
Y130957D01*
X245157D01*
Y138596D01*
G75*
G03*
X244464Y139973I-4411J-1358D01*
G01*
G75*
G02*
X243543Y141341I2046J2371D01*
G01*
X242852D01*
G37*
X247862Y138594D02*
G36*
X247862Y138594D02*
Y130957D01*
X255157D01*
Y138596D01*
G75*
G03*
X254464Y139973I-4411J-1358D01*
G01*
G75*
G02*
X253543Y141341I2046J2371D01*
G01*
X249476D01*
G75*
G02*
X249244Y140816I-2969J1003D01*
G01*
G75*
G02*
X249200Y140740I-1092J583D01*
G01*
G75*
G02*
X248557Y139974I-2692J1606D01*
G01*
G75*
G03*
X247862Y138594I3698J-2727D01*
G01*
G37*
X257862D02*
G36*
X257862Y138594D02*
Y130957D01*
X275157D01*
Y138596D01*
G75*
G03*
X274464Y139973I-4411J-1358D01*
G01*
G75*
G02*
X273543Y141341I2046J2371D01*
G01*
X269476D01*
G75*
G02*
X263543I-2967J1004D01*
G01*
X259476D01*
G75*
G02*
X259244Y140816I-2969J1003D01*
G01*
G75*
G02*
X259200Y140740I-1092J583D01*
G01*
G75*
G02*
X258557Y139974I-2692J1606D01*
G01*
G75*
G03*
X257862Y138594I3698J-2727D01*
G01*
G37*
X282852Y141341D02*
G36*
X282852Y141341D02*
Y130957D01*
X285157D01*
Y138596D01*
G75*
G03*
X284464Y139973I-4411J-1358D01*
G01*
G75*
G02*
X283543Y141341I2046J2371D01*
G01*
X282852D01*
G37*
X287862Y138594D02*
G36*
X287862Y138594D02*
Y130957D01*
X320148D01*
Y141341D01*
X319476D01*
G75*
G02*
X313543I-2967J1004D01*
G01*
X309476D01*
G75*
G02*
X303543I-2967J1004D01*
G01*
X299476D01*
G75*
G02*
X293543I-2967J1004D01*
G01*
X289476D01*
G75*
G02*
X289244Y140816I-2969J1003D01*
G01*
G75*
G02*
X289200Y140740I-1092J583D01*
G01*
G75*
G02*
X288557Y139974I-2692J1606D01*
G01*
G75*
G03*
X287862Y138594I3698J-2727D01*
G01*
G37*
X322852Y141341D02*
G36*
X322852Y141341D02*
Y130957D01*
X328200D01*
X335543Y138300D01*
G75*
G02*
X336500Y138697I957J-953D01*
G01*
X344690D01*
X347333Y141341D01*
X339476D01*
G75*
G02*
X333543I-2967J1004D01*
G01*
X329476D01*
G75*
G02*
X323543I-2967J1004D01*
G01*
X322852D01*
G37*
X332025Y130957D02*
G36*
X332025Y130957D02*
X333209D01*
X338052Y135800D01*
G75*
G02*
X338294Y135992I950J-947D01*
G01*
X337060D01*
X332025Y130957D01*
G37*
X339570Y133492D02*
G36*
X339570Y133492D02*
X337035Y130957D01*
X428586D01*
Y141341D01*
X424408D01*
G75*
G02*
X422340Y139385I-2909J1004D01*
G01*
G75*
G02*
X422251Y139361I-360J1176D01*
G01*
G75*
G02*
X421280Y139276I-751J2975D01*
G01*
G75*
G03*
X419882Y138814I667J-4370D01*
G01*
X417320Y136252D01*
G75*
G02*
X416362Y135854I-957J953D01*
G01*
X388803D01*
G75*
G02*
X387846Y136252I-1J1350D01*
G01*
X385348Y138749D01*
G75*
G02*
X384951Y139706I953J957D01*
G01*
G75*
G02*
Y139707I1253J0D01*
G01*
Y141341D01*
X384408D01*
G75*
G02*
X378592I-2908J1004D01*
G01*
X374408D01*
G75*
G02*
X370231Y139541I-2908J1004D01*
G01*
G75*
G02*
X370104Y139389I-880J604D01*
G01*
X367280Y136565D01*
G75*
G02*
X366498Y136242I-780J781D01*
G01*
X359002D01*
G75*
G02*
X358220Y136565I-2J1104D01*
G01*
X355720Y139065D01*
G75*
G02*
X355397Y139844I780J780D01*
G01*
Y139845D01*
Y139847D01*
Y141341D01*
X354909D01*
X347457Y133889D01*
G75*
G02*
X346500Y133492I-957J953D01*
G01*
X339570D01*
G37*
X387656Y141341D02*
G36*
X387656Y141341D02*
Y140267D01*
X389363Y138559D01*
X415802D01*
X417970Y140727D01*
G75*
G03*
X418237Y141341I-3895J2060D01*
G01*
X414408D01*
G75*
G02*
X408592I-2908J1004D01*
G01*
X404408D01*
G75*
G02*
X398592I-2908J1004D01*
G01*
X394408D01*
G75*
G02*
X388592I-2908J1004D01*
G01*
X387656D01*
G37*
X36523Y151719D02*
G36*
X36523Y151719D02*
Y141341D01*
X51555D01*
G75*
G02*
X61134I4789J0D01*
G01*
X61555D01*
G75*
G02*
X71134I4789J0D01*
G01*
X100126D01*
G75*
G02*
X104376Y145591I4250J0D01*
G01*
X108313D01*
G75*
G02*
X112563Y141341I0J-4250D01*
G01*
X121701D01*
Y147488D01*
X121201D01*
Y151719D01*
X112147D01*
G75*
G02*
X112165Y151341I-3834J-377D01*
G01*
G75*
G02*
X108313Y147488I-3852J0D01*
G01*
X104376D01*
G75*
G02*
X100524Y151341I0J3852D01*
G01*
G75*
G02*
X100542Y151719I3852J1D01*
G01*
X36523D01*
G37*
X128406Y147488D02*
G36*
X128406Y147488D02*
Y143870D01*
G75*
G02*
X135733Y141341I3094J-2913D01*
G01*
X147667D01*
G75*
G02*
X155333I3833J-384D01*
G01*
X180398D01*
Y146094D01*
Y146095D01*
G75*
G02*
X180720Y146874I1102J0D01*
G01*
X182745Y148898D01*
G75*
G02*
X178417Y151719I-1245J2820D01*
G01*
X174583D01*
G75*
G02*
X168417I-3083J0D01*
G01*
X164583D01*
G75*
G02*
X158417I-3083J0D01*
G01*
X154583D01*
G75*
G02*
X148417I-3083J0D01*
G01*
X144583D01*
Y148636D01*
X138417D01*
Y151719D01*
X128906D01*
Y147488D01*
X128406D01*
G37*
X183813Y149681D02*
G36*
X183813Y149681D02*
G75*
G02*
X184001Y149697I188J-1113D01*
G01*
X188543D01*
X188875Y150029D01*
G75*
G02*
X188904Y150056I1021J-1036D01*
G01*
G75*
G02*
X188417Y151719I2596J1662D01*
G01*
X184583D01*
G75*
G02*
X183813Y149681I-3083J0D01*
G01*
G37*
X207602Y151719D02*
G36*
X207602Y151719D02*
Y145476D01*
G75*
G02*
Y145472I-1096J-2D01*
G01*
G75*
G02*
X207586Y145286I-1053J0D01*
G01*
G75*
G02*
X209642Y142344I-1076J-2941D01*
G01*
G75*
G02*
X209476Y141341I-3131J0D01*
G01*
X213543D01*
G75*
G02*
X213378Y142344I2970J1005D01*
G01*
G75*
G02*
X219642I3132J0D01*
G01*
G75*
G02*
X219476Y141341I-3131J0D01*
G01*
X223543D01*
G75*
G02*
X223378Y142344I2967J1004D01*
G01*
G75*
G02*
X226736Y145468I3132J0D01*
G01*
G75*
G03*
X228198Y145955I-698J4538D01*
G01*
X230543Y148300D01*
G75*
G02*
X231163Y148654I956J-952D01*
G01*
G75*
G02*
X228417Y151719I337J3064D01*
G01*
X224583D01*
G75*
G02*
X218417I-3083J0D01*
G01*
X214980D01*
G75*
G02*
X208020I-3480J0D01*
G01*
X207602D01*
G37*
X229642Y142344D02*
G36*
X229642Y142344D02*
G75*
G02*
X229476Y141341I-3132J0D01*
G01*
X233543D01*
G75*
G02*
X233378Y142344I2966J1004D01*
G01*
Y142344D01*
G75*
G02*
X239642I3132J0D01*
G01*
Y142344D01*
G75*
G02*
X239476Y141341I-3134J1D01*
G01*
X240148D01*
Y144284D01*
X238440Y145992D01*
X232060D01*
X230112Y144044D01*
G75*
G03*
X229633Y142582I4089J-2150D01*
G01*
G75*
G02*
X229642Y142344I-3264J-243D01*
G01*
G37*
X234583Y151719D02*
G36*
X234583Y151719D02*
G75*
G02*
X232110Y148697I-3083J0D01*
G01*
X239000D01*
G75*
G02*
X239957Y148300I1J-1350D01*
G01*
X242455Y145802D01*
G75*
G02*
X242852Y144845I-953J-957D01*
G01*
G75*
G02*
Y144844I-1253J0D01*
G01*
Y141341D01*
X243543D01*
G75*
G02*
X243378Y142344I2966J1004D01*
G01*
Y142344D01*
G75*
G02*
X249642I3132J0D01*
G01*
Y142344D01*
G75*
G02*
X249476Y141341I-3134J1D01*
G01*
X253543D01*
G75*
G02*
X253378Y142344I2966J1004D01*
G01*
Y142344D01*
G75*
G02*
X259642I3132J0D01*
G01*
Y142344D01*
G75*
G02*
X259476Y141341I-3134J1D01*
G01*
X263543D01*
G75*
G02*
X263378Y142344I2967J1004D01*
G01*
G75*
G02*
X266736Y145468I3132J0D01*
G01*
G75*
G03*
X268198Y145955I-698J4538D01*
G01*
X269293Y147050D01*
G75*
G02*
X270250Y147447I957J-953D01*
G01*
X279000D01*
G75*
G02*
X279957Y147050I1J-1350D01*
G01*
X282455Y144552D01*
G75*
G02*
X282852Y143595I-953J-957D01*
G01*
G75*
G02*
Y143594I-1253J0D01*
G01*
Y141341D01*
X283543D01*
G75*
G02*
X283378Y142344I2966J1004D01*
G01*
Y142344D01*
G75*
G02*
X289642I3132J0D01*
G01*
Y142344D01*
G75*
G02*
X289476Y141341I-3134J1D01*
G01*
X293543D01*
G75*
G02*
X293378Y142344I2967J1004D01*
G01*
G75*
G02*
X299642I3132J0D01*
G01*
G75*
G02*
X299476Y141341I-3132J0D01*
G01*
X303543D01*
G75*
G02*
X303378Y142344I2967J1004D01*
G01*
Y142345D01*
G75*
G02*
X304464Y144716I3131J0D01*
G01*
G75*
G03*
X305157Y146093I-3718J2735D01*
G01*
Y151719D01*
X304577D01*
G75*
G02*
Y151715I-3090J-2D01*
G01*
G75*
G02*
X298423I-3077J0D01*
G01*
G75*
G02*
Y151719I3090J2D01*
G01*
X294974D01*
Y148240D01*
X288026D01*
Y151719D01*
X279466D01*
X278511Y150763D01*
G75*
G02*
X277553Y150366I-957J953D01*
G01*
X275152D01*
G75*
G03*
X273830Y149700I1315J-4256D01*
G01*
G75*
G02*
X273079Y149071I-2327J2014D01*
G01*
G75*
G02*
X273004Y149028I-574J915D01*
G01*
G75*
G02*
X268417Y151719I-1504J2691D01*
G01*
X264583D01*
G75*
G02*
X258417I-3083J0D01*
G01*
X254583D01*
G75*
G02*
X248417I-3083J0D01*
G01*
X244583D01*
G75*
G02*
X238417I-3083J0D01*
G01*
X234583D01*
G37*
X269642Y142344D02*
G36*
X269642Y142344D02*
G75*
G02*
X269476Y141341I-3132J0D01*
G01*
X273543D01*
G75*
G02*
X273378Y142344I2967J1004D01*
G01*
G75*
G02*
X274495Y144742I3132J0D01*
G01*
X270810D01*
X270112Y144044D01*
G75*
G03*
X269633Y142582I4089J-2150D01*
G01*
G75*
G02*
X269642Y142344I-3264J-243D01*
G01*
G37*
X307862Y151719D02*
G36*
X307862Y151719D02*
Y146094D01*
G75*
G03*
X308557Y144715I4393J1347D01*
G01*
G75*
G02*
X309200Y143949I-2050J-2372D01*
G01*
G75*
G02*
X309244Y143873I-1048J-659D01*
G01*
G75*
G02*
X309642Y142345I-2736J-1528D01*
G01*
Y142344D01*
G75*
G02*
X309476Y141341I-3132J0D01*
G01*
X313543D01*
G75*
G02*
X313378Y142344I2967J1004D01*
G01*
Y142345D01*
G75*
G02*
X314464Y144716I3131J0D01*
G01*
G75*
G03*
X315157Y146093I-3718J2735D01*
G01*
Y151719D01*
X314577D01*
G75*
G02*
Y151715I-3090J-2D01*
G01*
G75*
G02*
X308423I-3077J0D01*
G01*
G75*
G02*
Y151719I3090J2D01*
G01*
X307862D01*
G37*
X317862D02*
G36*
X317862Y151719D02*
Y146094D01*
G75*
G03*
X318557Y144715I4393J1347D01*
G01*
G75*
G02*
X319200Y143949I-2050J-2372D01*
G01*
G75*
G02*
X319244Y143873I-1048J-659D01*
G01*
G75*
G02*
X319642Y142345I-2736J-1528D01*
G01*
Y142344D01*
G75*
G02*
X319476Y141341I-3132J0D01*
G01*
X320148D01*
Y148076D01*
G75*
G03*
X319487Y149388I-4227J-1306D01*
G01*
G75*
G02*
X318423Y151715I2013J2326D01*
G01*
G75*
G02*
Y151719I3090J2D01*
G01*
X317862D01*
G37*
X322852Y148077D02*
G36*
X322852Y148077D02*
Y141341D01*
X323543D01*
G75*
G02*
X323378Y142344I2967J1004D01*
G01*
Y142345D01*
G75*
G02*
X324464Y144716I3131J0D01*
G01*
G75*
G03*
X325157Y146093I-3718J2735D01*
G01*
Y151719D01*
X324577D01*
G75*
G02*
Y151715I-3090J-2D01*
G01*
G75*
G02*
X323513Y149387I-3077J0D01*
G01*
G75*
G03*
X322852Y148077I3550J-2610D01*
G01*
G37*
X327862Y151719D02*
G36*
X327862Y151719D02*
Y146094D01*
G75*
G03*
X328557Y144715I4393J1347D01*
G01*
G75*
G02*
X329200Y143949I-2050J-2372D01*
G01*
G75*
G02*
X329244Y143873I-1048J-659D01*
G01*
G75*
G02*
X329642Y142345I-2736J-1528D01*
G01*
Y142344D01*
G75*
G02*
X329476Y141341I-3132J0D01*
G01*
X333543D01*
G75*
G02*
X333378Y142344I2967J1004D01*
G01*
Y142345D01*
G75*
G02*
X334464Y144716I3131J0D01*
G01*
G75*
G03*
X335157Y146093I-3718J2735D01*
G01*
Y151719D01*
X334577D01*
G75*
G02*
Y151715I-3090J-2D01*
G01*
G75*
G02*
X328423I-3077J0D01*
G01*
G75*
G02*
Y151719I3090J2D01*
G01*
X327862D01*
G37*
X337862D02*
G36*
X337862Y151719D02*
Y146094D01*
G75*
G03*
X338557Y144715I4393J1347D01*
G01*
G75*
G02*
X339200Y143949I-2050J-2372D01*
G01*
G75*
G02*
X339244Y143873I-1048J-659D01*
G01*
G75*
G02*
X339642Y142345I-2736J-1528D01*
G01*
Y142344D01*
G75*
G02*
X339476Y141341I-3132J0D01*
G01*
X347333D01*
X350148Y144155D01*
Y148076D01*
G75*
G03*
X349487Y149388I-4227J-1306D01*
G01*
G75*
G02*
X348423Y151715I2013J2326D01*
G01*
G75*
G02*
Y151719I3090J2D01*
G01*
X344577D01*
G75*
G02*
Y151715I-3090J-2D01*
G01*
G75*
G02*
X338423I-3077J0D01*
G01*
G75*
G02*
Y151719I3090J2D01*
G01*
X337862D01*
G37*
X354577Y151715D02*
G36*
X354577Y151715D02*
G75*
G02*
X354493Y151000I-3096J2D01*
G01*
X355211Y151719D01*
X354577D01*
G75*
G02*
Y151715I-3090J-2D01*
G01*
G37*
X354909Y141341D02*
G36*
X354909Y141341D02*
X355397D01*
Y141829D01*
X354909Y141341D01*
G37*
X372603Y148638D02*
G36*
X372603Y148638D02*
Y145421D01*
G75*
G02*
Y145419I-1109J-1D01*
G01*
G75*
G02*
X372585Y145224I-1085J0D01*
G01*
G75*
G02*
X374577Y142344I-1085J-2879D01*
G01*
Y142344D01*
G75*
G02*
X374408Y141341I-3076J1D01*
G01*
X378592D01*
G75*
G02*
X378423Y142344I2908J1004D01*
G01*
G75*
G02*
X384577I3077J0D01*
G01*
G75*
G02*
X384408Y141341I-3077J0D01*
G01*
X384951D01*
Y151310D01*
G75*
G02*
X378026Y151715I-3451J404D01*
G01*
G75*
G02*
Y151719I3524J2D01*
G01*
X374577D01*
G75*
G02*
Y151715I-3090J-2D01*
G01*
G75*
G02*
X372585Y148835I-3077J0D01*
G01*
G75*
G02*
X372603Y148640I-1067J-195D01*
G01*
G75*
G02*
Y148638I-1109J-1D01*
G01*
G37*
X387656Y151719D02*
G36*
X387656Y151719D02*
Y141341D01*
X388592D01*
G75*
G02*
X388423Y142344I2908J1004D01*
G01*
G75*
G02*
X394577I3077J0D01*
G01*
G75*
G02*
X394408Y141341I-3077J0D01*
G01*
X398592D01*
G75*
G02*
X398423Y142344I2908J1004D01*
G01*
G75*
G02*
X404577I3077J0D01*
G01*
G75*
G02*
X404408Y141341I-3077J0D01*
G01*
X408592D01*
G75*
G02*
X408423Y142344I2908J1004D01*
G01*
G75*
G02*
X414577I3077J0D01*
G01*
G75*
G02*
X414408Y141341I-3077J0D01*
G01*
X418237D01*
G75*
G03*
X418431Y142123I-4162J1445D01*
G01*
G75*
G02*
X418423Y142343I3063J220D01*
G01*
Y142343D01*
Y142344D01*
G75*
G02*
X418526Y143133I3099J-3D01*
G01*
X418530Y143148D01*
G75*
G02*
X424577Y142344I2970J-803D01*
G01*
G75*
G02*
X424408Y141341I-3077J0D01*
G01*
X428586D01*
Y151719D01*
X387656D01*
G37*
X36523Y161341D02*
G36*
X36523Y161341D02*
Y151719D01*
X100542D01*
G75*
G02*
X104376Y155193I3834J-378D01*
G01*
X108313D01*
G75*
G02*
X112147Y151719I0J-3852D01*
G01*
X121201D01*
Y155193D01*
X128906D01*
Y151719D01*
X138417D01*
Y154801D01*
X139898D01*
Y161341D01*
X128906D01*
Y157488D01*
X121201D01*
Y157988D01*
X110211D01*
G75*
G02*
X108313Y157488I-1898J3354D01*
G01*
X104376D01*
G75*
G02*
X100524Y161341I0J3852D01*
G01*
X36523D01*
G37*
X143102D02*
G36*
X143102Y161341D02*
Y154801D01*
X144583D01*
Y151719D01*
X148417D01*
G75*
G02*
X149444Y154015I3084J-1D01*
G01*
G75*
G03*
X149898Y154910I-2714J1938D01*
G01*
Y160234D01*
X148791Y161341D01*
X143102D01*
G37*
X153102Y160898D02*
G36*
X153102Y160898D02*
Y154910D01*
G75*
G03*
X153556Y154015I3168J1043D01*
G01*
G75*
G02*
X154583Y151719I-2057J-2298D01*
G01*
X158417D01*
G75*
G02*
X159444Y154015I3084J-1D01*
G01*
G75*
G03*
X159898Y154910I-2714J1938D01*
G01*
Y158984D01*
X157541Y161341D01*
X153040D01*
G75*
G02*
X153102Y160898I-1539J-442D01*
G01*
Y160898D01*
G37*
X162073Y161341D02*
G36*
X162073Y161341D02*
X162631Y160783D01*
G75*
G02*
X163102Y159648I-1130J-1135D01*
G01*
Y159648D01*
Y154910D01*
G75*
G03*
X163556Y154015I3168J1043D01*
G01*
G75*
G02*
X164583Y151719I-2057J-2298D01*
G01*
X168417D01*
G75*
G02*
X174583I3083J0D01*
G01*
X178417D01*
G75*
G02*
X184583I3083J0D01*
G01*
X188417D01*
Y151719D01*
G75*
G02*
X193162Y154315I3082J0D01*
G01*
G75*
G02*
X193190Y154343I1064J-993D01*
G01*
X194148Y155301D01*
Y155992D01*
X173384D01*
G75*
G03*
X173096Y155843I526J-1371D01*
G01*
G75*
G02*
X169309Y157344I-1596J1501D01*
G01*
G75*
G02*
X173096Y158846I2191J0D01*
G01*
G75*
G03*
X173384Y158697I814J1222D01*
G01*
X194148D01*
Y158904D01*
G75*
G02*
X194183Y159181I1121J-2D01*
G01*
G75*
G02*
X194119Y159218I538J996D01*
G01*
G75*
G02*
X193656Y159591I1138J1885D01*
G01*
G75*
G03*
X193365Y159742I-824J-1235D01*
G01*
X183384D01*
G75*
G03*
X183096Y159593I526J-1371D01*
G01*
G75*
G02*
X179309Y161094I-1596J1501D01*
G01*
G75*
G02*
X179323Y161341I2191J1D01*
G01*
X162073D01*
G37*
X207602Y156888D02*
G36*
X207602Y156888D02*
Y151719D01*
X208020D01*
G75*
G02*
X214980I3480J0D01*
G01*
X218417D01*
G75*
G02*
X219444Y154015I3084J-1D01*
G01*
G75*
G03*
X219898Y154910I-2714J1938D01*
G01*
Y161341D01*
X219555D01*
X218530Y160315D01*
G75*
G02*
X217749Y159992I-780J782D01*
G01*
X210707D01*
X207602Y156888D01*
G37*
X223102Y161341D02*
G36*
X223102Y161341D02*
Y154910D01*
G75*
G03*
X223556Y154015I3168J1043D01*
G01*
G75*
G02*
X224583Y151719I-2057J-2298D01*
G01*
X228417D01*
G75*
G02*
X229444Y154015I3083J0D01*
G01*
G75*
G03*
X229898Y154910I-2714J1938D01*
G01*
Y161341D01*
X223102D01*
G37*
X233102D02*
G36*
X233102Y161341D02*
Y154910D01*
G75*
G03*
X233556Y154015I3168J1043D01*
G01*
G75*
G02*
X234583Y151719I-2056J-2297D01*
G01*
X238417D01*
G75*
G02*
X239484Y154050I3081J1D01*
G01*
G75*
G03*
X240148Y155369I-3580J2628D01*
G01*
Y161341D01*
X233102D01*
G37*
X242852D02*
G36*
X242852Y161341D02*
Y155370D01*
G75*
G03*
X243517Y154049I4247J1309D01*
G01*
G75*
G02*
X244155Y153285I-2018J-2332D01*
G01*
G75*
G02*
X244185Y153233I-1127J-683D01*
G01*
G75*
G02*
X244583Y151719I-2685J-1515D01*
G01*
X248417D01*
G75*
G02*
X249484Y154050I3081J1D01*
G01*
G75*
G03*
X250148Y155369I-3580J2628D01*
G01*
Y161341D01*
X242852D01*
G37*
X252852D02*
G36*
X252852Y161341D02*
Y155370D01*
G75*
G03*
X253517Y154049I4247J1309D01*
G01*
G75*
G02*
X254155Y153285I-2018J-2332D01*
G01*
G75*
G02*
X254185Y153233I-1127J-683D01*
G01*
G75*
G02*
X254583Y151719I-2685J-1515D01*
G01*
X258417D01*
G75*
G02*
X259484Y154050I3081J1D01*
G01*
G75*
G03*
X260148Y155369I-3580J2628D01*
G01*
Y161341D01*
X252852D01*
G37*
X262852D02*
G36*
X262852Y161341D02*
Y155370D01*
G75*
G03*
X263517Y154049I4247J1309D01*
G01*
G75*
G02*
X264155Y153285I-2018J-2332D01*
G01*
G75*
G02*
X264185Y153233I-1127J-683D01*
G01*
G75*
G02*
X264583Y151719I-2685J-1515D01*
G01*
X268417D01*
G75*
G02*
X273004Y154409I3083J0D01*
G01*
G75*
G02*
X273079Y154366I-499J-958D01*
G01*
G75*
G02*
X273830Y153737I-1576J-2643D01*
G01*
G75*
G03*
X275152Y153071I2637J3590D01*
G01*
X276993D01*
X280148Y156226D01*
Y161341D01*
X272852D01*
Y159228D01*
G75*
G03*
X273001Y158940I1371J526D01*
G01*
G75*
G02*
X273691Y157344I-1501J-1596D01*
G01*
G75*
G02*
X269309I-2191J0D01*
G01*
G75*
G02*
X269581Y158402I2194J-1D01*
G01*
G75*
G02*
X269624Y158476I1113J-591D01*
G01*
G75*
G02*
X269997Y158939I1885J-1138D01*
G01*
G75*
G03*
X270148Y159230I-1235J824D01*
G01*
Y161341D01*
X262852D01*
G37*
X282455Y154708D02*
G36*
X282455Y154708D02*
X279466Y151719D01*
X288026D01*
Y155189D01*
X294974D01*
Y151719D01*
X298423D01*
G75*
G02*
X304577I3077J-4D01*
G01*
X305157D01*
Y161341D01*
X282852D01*
Y155665D01*
G75*
G02*
X282455Y154708I-1350J-1D01*
G01*
G37*
X307862Y161341D02*
G36*
X307862Y161341D02*
Y151719D01*
X308423D01*
G75*
G02*
X314577I3077J-4D01*
G01*
X315157D01*
Y161341D01*
X307862D01*
G37*
X317862D02*
G36*
X317862Y161341D02*
Y151719D01*
X318423D01*
G75*
G02*
X324577I3077J-4D01*
G01*
X325157D01*
Y161341D01*
X317862D01*
G37*
X327862D02*
G36*
X327862Y161341D02*
Y151719D01*
X328423D01*
G75*
G02*
X334577I3077J-4D01*
G01*
X335157D01*
Y161341D01*
X327862D01*
G37*
X337862D02*
G36*
X337862Y161341D02*
Y151719D01*
X338423D01*
G75*
G02*
X344577I3077J-4D01*
G01*
X348423D01*
G75*
G02*
X354577I3077J-4D01*
G01*
X355211D01*
X356163Y152670D01*
G75*
G02*
X357120Y153067I957J-953D01*
G01*
X357862D01*
G75*
G03*
X359173Y153727I-1299J4210D01*
G01*
G75*
G02*
X360415Y154594I2326J-2010D01*
G01*
G75*
G02*
X360397Y154789I1067J195D01*
G01*
G75*
G02*
Y154791I1109J1D01*
G01*
Y161341D01*
X337862D01*
G37*
X372603D02*
G36*
X372603Y161341D02*
Y154791D01*
G75*
G02*
Y154789I-1109J-1D01*
G01*
G75*
G02*
X372585Y154594I-1085J0D01*
G01*
G75*
G02*
X374577Y151719I-1085J-2879D01*
G01*
X378026D01*
G75*
G02*
X384951Y152119I3474J-4D01*
G01*
Y155396D01*
X380545Y159802D01*
G75*
G02*
X380148Y160759I953J957D01*
G01*
G75*
G02*
Y160760I1253J0D01*
G01*
Y161341D01*
X372603D01*
G37*
X382852D02*
G36*
X382852Y161341D02*
Y161320D01*
X387258Y156914D01*
G75*
G02*
X387656Y155957I-953J-957D01*
G01*
Y151719D01*
X428586D01*
Y161341D01*
X382852D01*
G37*
X36523Y182970D02*
G36*
X36523Y182970D02*
Y161341D01*
X100524D01*
G75*
G02*
X104376Y165193I3852J0D01*
G01*
X108313D01*
G75*
G02*
X110211Y164693I0J-3854D01*
G01*
X121201D01*
Y165193D01*
X128906D01*
Y161341D01*
X139898D01*
Y162596D01*
X136889Y165604D01*
X130191D01*
G75*
G02*
X129056Y166076I0J1602D01*
G01*
X127261Y167871D01*
G75*
G03*
X125349Y168504I-2787J-5220D01*
G01*
G75*
G02*
X125053Y168492I-291J3690D01*
G01*
G75*
G02*
X121201Y172344I0J3852D01*
G01*
G75*
G02*
X123237Y175742I3852J0D01*
G01*
X121721D01*
X116188Y170209D01*
G75*
G02*
X115053Y169738I-1135J1130D01*
G01*
X113037D01*
G75*
G03*
X111237Y168833I1724J-5665D01*
G01*
G75*
G02*
X110248Y168009I-2932J2517D01*
G01*
G75*
G02*
X110231Y168000I-148J230D01*
G01*
G75*
G02*
X108313Y167488I-1917J3338D01*
G01*
X104376D01*
G75*
G02*
X100524Y171341I0J3852D01*
G01*
G75*
G02*
X104376Y175193I3852J0D01*
G01*
X108313D01*
G75*
G02*
X111239Y173846I0J-3852D01*
G01*
G75*
G03*
X113036Y172943I3515J4754D01*
G01*
X114389D01*
X119922Y178476D01*
G75*
G02*
X121057Y178947I1135J-1130D01*
G01*
X127750D01*
G75*
G02*
X128885Y178476I0J-1602D01*
G01*
X134664Y172697D01*
X141303D01*
G75*
G02*
X142438Y172226I0J-1602D01*
G01*
X152631Y162033D01*
G75*
G02*
X153040Y161341I-1130J-1135D01*
G01*
X157541D01*
X145639Y173242D01*
X135499D01*
G75*
G02*
X134363Y173711I-4J1601D01*
G01*
X128336Y179738D01*
X113037D01*
G75*
G03*
X111237Y178833I1724J-5665D01*
G01*
G75*
G02*
X110248Y178009I-2932J2517D01*
G01*
G75*
G02*
X110231Y178000I-148J230D01*
G01*
G75*
G02*
X108313Y177488I-1917J3338D01*
G01*
X104376D01*
G75*
G02*
X100524Y181341I0J3852D01*
G01*
G75*
G02*
X100885Y182970I3852J0D01*
G01*
X36523D01*
G37*
X112948D02*
G36*
X112948Y182970D02*
G75*
G03*
X113036Y182943I1806J5626D01*
G01*
X128997D01*
G75*
G02*
X130133Y182474I4J-1601D01*
G01*
X136160Y176447D01*
X146303D01*
G75*
G02*
X147438Y175976I0J-1602D01*
G01*
X162073Y161341D01*
X179323D01*
G75*
G02*
X183096Y162596I2177J-246D01*
G01*
G75*
G03*
X183384Y162447I814J1222D01*
G01*
X193365D01*
G75*
G03*
X193656Y162598I-533J1386D01*
G01*
G75*
G02*
X194119Y162971I1601J-1512D01*
G01*
G75*
G02*
X194183Y163008I602J-959D01*
G01*
G75*
G02*
X194148Y163285I1085J280D01*
G01*
Y168594D01*
Y168595D01*
G75*
G02*
X194470Y169374I1102J0D01*
G01*
X203220Y178124D01*
G75*
G02*
X204001Y178447I780J-782D01*
G01*
X217749D01*
G75*
G02*
X218530Y178124I0J-1105D01*
G01*
X221030Y175624D01*
G75*
G02*
X221352Y174845I-779J-779D01*
G01*
Y174844D01*
Y174306D01*
X225055Y178008D01*
Y182970D01*
X224583D01*
G75*
G02*
X218417I-3083J0D01*
G01*
X214583D01*
G75*
G02*
X208417I-3083J0D01*
G01*
X204980D01*
G75*
G02*
X198020I-3480J0D01*
G01*
X194583D01*
G75*
G02*
X193556Y180674I-3084J1D01*
G01*
G75*
G03*
X193102Y179779I2714J-1938D01*
G01*
Y177348D01*
Y177345D01*
Y177344D01*
G75*
G02*
X192633Y176211I-1603J0D01*
G01*
X188883Y172461D01*
G75*
G02*
X187747Y171992I-1133J1132D01*
G01*
X153803D01*
G75*
G02*
X152668Y172463I0J1602D01*
G01*
X148139Y176992D01*
X137750D01*
G75*
G02*
X136615Y177463I0J1602D01*
G01*
X131108Y182970D01*
X112948D01*
G37*
X127985Y174843D02*
G36*
X127985Y174843D02*
G75*
G02*
X128906Y172344I-2934J-2499D01*
G01*
G75*
G02*
Y172339I-3712J-2D01*
G01*
G75*
G02*
X128894Y172049I-3702J0D01*
G01*
G75*
G03*
X129526Y170137I5855J876D01*
G01*
X130855Y168809D01*
X137553D01*
G75*
G02*
X138688Y168338I0J-1602D01*
G01*
X142631Y164395D01*
G75*
G02*
X143102Y163260I-1130J-1135D01*
G01*
Y163260D01*
Y161341D01*
X148791D01*
X140639Y169492D01*
X134000D01*
G75*
G02*
X132865Y169963I0J1602D01*
G01*
X127985Y174843D01*
G37*
X135640Y182970D02*
G36*
X135640Y182970D02*
X138414Y180197D01*
X140155D01*
G75*
G02*
X138417Y182970I1345J2774D01*
G01*
X135640D01*
G37*
X144583D02*
G36*
X144583Y182970D02*
G75*
G02*
X142845Y180197I-3083J0D01*
G01*
X148803D01*
G75*
G02*
X149938Y179726I0J-1602D01*
G01*
X154467Y175197D01*
X187086D01*
X189898Y178008D01*
Y179779D01*
G75*
G03*
X189444Y180674I-3168J-1043D01*
G01*
G75*
G02*
X188417Y182970I2057J2298D01*
G01*
X184583D01*
G75*
G02*
X178417I-3083J0D01*
G01*
X174583D01*
G75*
G02*
X168417I-3083J0D01*
G01*
X164583D01*
G75*
G02*
X158417I-3083J0D01*
G01*
X154583D01*
G75*
G02*
X148417I-3083J0D01*
G01*
X144583D01*
G37*
X219555Y161341D02*
G36*
X219555Y161341D02*
X219898D01*
Y161683D01*
X219555Y161341D01*
G37*
X223102Y171523D02*
G36*
X223102Y171523D02*
Y161341D01*
X229898D01*
Y174844D01*
Y174845D01*
G75*
G02*
X230369Y175980I1602J0D01*
G01*
X232865Y178476D01*
G75*
G02*
X234000Y178947I1135J-1130D01*
G01*
X243179D01*
X244740Y180508D01*
Y182970D01*
X244583D01*
G75*
G02*
X238417I-3083J0D01*
G01*
X234583D01*
G75*
G02*
X228417I-3083J0D01*
G01*
X228260D01*
Y177344D01*
Y177344D01*
G75*
G02*
X227789Y176209I-1602J0D01*
G01*
X223102Y171523D01*
G37*
X233102Y174181D02*
G36*
X233102Y174181D02*
Y161341D01*
X240148D01*
Y162959D01*
G75*
G03*
X239997Y163250I-1386J-533D01*
G01*
G75*
G02*
X239624Y163713I1512J1601D01*
G01*
G75*
G02*
X239581Y163787I1070J665D01*
G01*
G75*
G02*
X239309Y164844I1921J1059D01*
G01*
G75*
G02*
X243691I2191J0D01*
G01*
G75*
G02*
X243001Y163249I-2191J0D01*
G01*
G75*
G03*
X242852Y162961I1222J-814D01*
G01*
Y161341D01*
X250148D01*
Y165459D01*
G75*
G03*
X249997Y165750I-1386J-533D01*
G01*
G75*
G02*
X249624Y166213I1512J1601D01*
G01*
G75*
G02*
X249581Y166287I1070J665D01*
G01*
G75*
G02*
X249309Y167344I1921J1059D01*
G01*
G75*
G02*
X253691I2191J0D01*
G01*
G75*
G02*
X253001Y165749I-2191J0D01*
G01*
G75*
G03*
X252852Y165461I1222J-814D01*
G01*
Y161341D01*
X260148D01*
Y167959D01*
G75*
G03*
X259997Y168250I-1386J-533D01*
G01*
G75*
G02*
X259624Y168713I1512J1601D01*
G01*
G75*
G02*
X259581Y168787I1070J665D01*
G01*
G75*
G02*
X259309Y169844I1921J1059D01*
G01*
G75*
G02*
X263691I2191J0D01*
G01*
G75*
G02*
X263001Y168249I-2191J0D01*
G01*
G75*
G03*
X262852Y167961I1222J-814D01*
G01*
Y161341D01*
X270148D01*
Y179320D01*
G75*
G03*
X269484Y180639I-4243J-1309D01*
G01*
G75*
G02*
X268417Y182970I2017J2333D01*
G01*
X264583D01*
G75*
G02*
X258417I-3083J0D01*
G01*
X254583D01*
G75*
G02*
X248417I-3083J0D01*
G01*
X247945D01*
Y179844D01*
Y179844D01*
G75*
G02*
X247474Y178709I-1602J0D01*
G01*
X244978Y176213D01*
G75*
G02*
X243843Y175742I-1135J1130D01*
G01*
X234664D01*
X233102Y174181D01*
G37*
X272852Y179319D02*
G36*
X272852Y179319D02*
Y161341D01*
X280148D01*
Y162404D01*
G75*
G02*
X280545Y163361I1350J1D01*
G01*
X285346Y168162D01*
G75*
G02*
X286303Y168559I957J-953D01*
G01*
X295743D01*
X300148Y172964D01*
Y179335D01*
G75*
G03*
X299487Y180648I-4227J-1306D01*
G01*
G75*
G02*
X298423Y182970I2013J2326D01*
G01*
X294577D01*
G75*
G02*
X288423I-3077J4D01*
G01*
X274583D01*
G75*
G02*
X274185Y181456I-3083J0D01*
G01*
G75*
G02*
X274155Y181404I-1157J631D01*
G01*
G75*
G02*
X273517Y180640I-2656J1568D01*
G01*
G75*
G03*
X272852Y179319I3582J-2631D01*
G01*
G37*
X282852Y161843D02*
G36*
X282852Y161843D02*
Y161341D01*
X305157D01*
Y167354D01*
G75*
G02*
Y167355I1253J0D01*
G01*
G75*
G02*
X305555Y168312I1350J0D01*
G01*
X310148Y172905D01*
Y179335D01*
G75*
G03*
X309487Y180648I-4227J-1306D01*
G01*
G75*
G02*
X308423Y182970I2013J2326D01*
G01*
X304577D01*
G75*
G02*
X303513Y180647I-3077J4D01*
G01*
G75*
G03*
X302852Y179337I3550J-2610D01*
G01*
Y172404D01*
G75*
G02*
Y172403I-1253J0D01*
G01*
G75*
G02*
X302455Y171446I-1350J0D01*
G01*
X297261Y166252D01*
G75*
G02*
X296303Y165854I-957J953D01*
G01*
X286863D01*
X282852Y161843D01*
G37*
X307862Y166794D02*
G36*
X307862Y166794D02*
Y161341D01*
X315157D01*
Y167354D01*
G75*
G02*
Y167355I1253J0D01*
G01*
G75*
G02*
X315555Y168312I1350J0D01*
G01*
X320148Y172905D01*
Y179335D01*
G75*
G03*
X319487Y180648I-4227J-1306D01*
G01*
G75*
G02*
X318423Y182970I2013J2326D01*
G01*
X314577D01*
G75*
G02*
X313513Y180647I-3077J4D01*
G01*
G75*
G03*
X312852Y179337I3550J-2610D01*
G01*
Y172344D01*
G75*
G02*
X312455Y171387I-1350J-1D01*
G01*
X307862Y166794D01*
G37*
X317862D02*
G36*
X317862Y166794D02*
Y161341D01*
X325157D01*
Y167354D01*
G75*
G02*
Y167355I1253J0D01*
G01*
G75*
G02*
X325555Y168312I1350J0D01*
G01*
X330543Y173300D01*
G75*
G02*
X331500Y173697I957J-953D01*
G01*
X345940D01*
X350148Y177905D01*
Y179335D01*
G75*
G03*
X349487Y180648I-4227J-1306D01*
G01*
G75*
G02*
X348423Y182970I2013J2326D01*
G01*
X344577D01*
G75*
G02*
X338423I-3077J4D01*
G01*
X334577D01*
G75*
G02*
X328423I-3077J4D01*
G01*
X324577D01*
G75*
G02*
X323513Y180647I-3077J4D01*
G01*
G75*
G03*
X322852Y179337I3550J-2610D01*
G01*
Y172344D01*
G75*
G02*
X322455Y171387I-1350J-1D01*
G01*
X317862Y166794D01*
G37*
X327862D02*
G36*
X327862Y166794D02*
Y161341D01*
X335157D01*
Y162354D01*
G75*
G02*
Y162355I1253J0D01*
G01*
G75*
G02*
X335555Y163312I1350J0D01*
G01*
X340543Y168300D01*
G75*
G02*
X341500Y168697I957J-953D01*
G01*
X355940D01*
X360148Y172905D01*
Y180211D01*
G75*
G02*
X358423Y182970I1352J2764D01*
G01*
X354577D01*
G75*
G02*
X353513Y180647I-3077J4D01*
G01*
G75*
G03*
X352852Y179337I3550J-2610D01*
G01*
Y177344D01*
G75*
G02*
X352455Y176387I-1350J-1D01*
G01*
X347457Y171389D01*
G75*
G02*
X346500Y170992I-957J953D01*
G01*
X332060D01*
X327862Y166794D01*
G37*
X337862Y161794D02*
G36*
X337862Y161794D02*
Y161341D01*
X360397D01*
Y169329D01*
X357457Y166389D01*
G75*
G02*
X356500Y165992I-957J953D01*
G01*
X342060D01*
X337862Y161794D01*
G37*
X372603Y179898D02*
G36*
X372603Y179898D02*
Y161341D01*
X380148D01*
Y179335D01*
G75*
G03*
X379487Y180648I-4227J-1306D01*
G01*
G75*
G02*
X378423Y182970I2013J2326D01*
G01*
X374577D01*
G75*
G02*
X372585Y180095I-3077J4D01*
G01*
G75*
G02*
X372603Y179900I-1067J-195D01*
G01*
G75*
G02*
Y179898I-1109J-1D01*
G01*
G37*
X382852Y179337D02*
G36*
X382852Y179337D02*
Y161341D01*
X428586D01*
Y182970D01*
X384577D01*
G75*
G02*
X383513Y180647I-3077J4D01*
G01*
G75*
G03*
X382852Y179337I3550J-2610D01*
G01*
G37*
X36523Y191341D02*
G36*
X36523Y191341D02*
Y182970D01*
X100885D01*
G75*
G02*
X102161Y184492I3491J-1630D01*
G01*
X85250D01*
G75*
G02*
X84115Y184963I0J1602D01*
G01*
X77738Y191341D01*
X71134D01*
G75*
G02*
X61555I-4789J0D01*
G01*
X61134D01*
G75*
G02*
X51555I-4789J0D01*
G01*
X36523D01*
G37*
X82270D02*
G36*
X82270Y191341D02*
X85914Y187697D01*
X103125D01*
G75*
G02*
X100524Y191341I1251J3644D01*
G01*
X82270D01*
G37*
X110231Y188000D02*
G36*
X110231Y188000D02*
G75*
G02*
X109564Y187697I-1912J3328D01*
G01*
X130250D01*
G75*
G02*
X131385Y187226I0J-1602D01*
G01*
X135640Y182970D01*
X138417D01*
G75*
G02*
X144583I3083J0D01*
G01*
X148417D01*
G75*
G02*
X154583I3083J0D01*
G01*
X158417D01*
G75*
G02*
X164583I3083J0D01*
G01*
X168417D01*
G75*
G02*
X174583I3083J0D01*
G01*
X178417D01*
G75*
G02*
X184583I3083J0D01*
G01*
X188417D01*
G75*
G02*
X194583I3083J0D01*
G01*
X198020D01*
G75*
G02*
X204980I3480J0D01*
G01*
X208417D01*
G75*
G02*
X214583I3083J0D01*
G01*
X218417D01*
G75*
G02*
X224583I3083J0D01*
G01*
X225055D01*
Y189804D01*
G75*
G03*
X224466Y190970I-3938J-1258D01*
G01*
G75*
G02*
X224106Y191341I2192J2487D01*
G01*
X128772D01*
G75*
G02*
X122128Y189837I-3719J1004D01*
G01*
G75*
G03*
X120329Y190742I-3520J-4759D01*
G01*
X117971D01*
X117436Y190207D01*
G75*
G02*
X116300Y189738I-1133J1132D01*
G01*
X113037D01*
G75*
G03*
X111237Y188833I1724J-5665D01*
G01*
G75*
G02*
X110248Y188009I-2932J2517D01*
G01*
G75*
G02*
X110231Y188000I-148J230D01*
G01*
G37*
X110528Y184492D02*
G36*
X110528Y184492D02*
G75*
G02*
X111239Y183846I-2197J-3132D01*
G01*
G75*
G03*
X112948Y182970I3515J4754D01*
G01*
X131108D01*
X129586Y184492D01*
X110528D01*
G37*
X228260Y189804D02*
G36*
X228260Y189804D02*
Y182970D01*
X228417D01*
G75*
G02*
X234583I3083J0D01*
G01*
X238417D01*
G75*
G02*
X244583I3083J0D01*
G01*
X244740D01*
Y189804D01*
G75*
G03*
X244151Y190970I-3938J-1258D01*
G01*
G75*
G02*
X243791Y191341I2192J2487D01*
G01*
X239550D01*
G75*
G02*
X236500Y189744I-3050J2116D01*
G01*
G75*
G02*
X233450Y191341I0J3713D01*
G01*
X229209D01*
G75*
G02*
X228849Y190970I-2552J2117D01*
G01*
G75*
G03*
X228260Y189804I3349J-2424D01*
G01*
G37*
X247945D02*
G36*
X247945Y189804D02*
Y182970D01*
X248417D01*
G75*
G02*
X254583I3083J0D01*
G01*
X258417D01*
G75*
G02*
X264583I3083J0D01*
G01*
X268417D01*
G75*
G02*
X274583I3083J0D01*
G01*
X288423D01*
G75*
G02*
Y182974I3090J2D01*
G01*
G75*
G02*
X294577I3077J0D01*
G01*
G75*
G02*
Y182970I-3090J-2D01*
G01*
X298423D01*
G75*
G02*
Y182974I3133J2D01*
G01*
G75*
G02*
X304577I3077J0D01*
G01*
G75*
G02*
Y182970I-3090J-2D01*
G01*
X308423D01*
G75*
G02*
Y182974I3133J2D01*
G01*
G75*
G02*
X314577I3077J0D01*
G01*
G75*
G02*
Y182970I-3090J-2D01*
G01*
X318423D01*
G75*
G02*
Y182974I3133J2D01*
G01*
G75*
G02*
X324577I3077J0D01*
G01*
G75*
G02*
Y182970I-3090J-2D01*
G01*
X328423D01*
G75*
G02*
Y182974I3090J2D01*
G01*
G75*
G02*
X334577I3077J0D01*
G01*
G75*
G02*
Y182970I-3090J-2D01*
G01*
X338423D01*
G75*
G02*
Y182974I3090J2D01*
G01*
G75*
G02*
X344577I3077J0D01*
G01*
G75*
G02*
Y182970I-3090J-2D01*
G01*
X348423D01*
G75*
G02*
Y182974I3133J2D01*
G01*
G75*
G02*
X354577I3077J0D01*
G01*
G75*
G02*
Y182970I-3090J-2D01*
G01*
X358423D01*
G75*
G02*
Y182974I3133J2D01*
G01*
G75*
G02*
X360415Y185854I3077J0D01*
G01*
G75*
G02*
X360397Y186049I1067J195D01*
G01*
G75*
G02*
Y186051I1109J1D01*
G01*
Y191092D01*
Y191094D01*
Y191094D01*
G75*
G02*
X360425Y191341I1104J1D01*
G01*
X248894D01*
G75*
G02*
X248534Y190970I-2552J2117D01*
G01*
G75*
G03*
X247945Y189804I3349J-2424D01*
G01*
G37*
X372603Y191092D02*
G36*
X372603Y191092D02*
Y186051D01*
G75*
G02*
Y186049I-1109J-1D01*
G01*
G75*
G02*
X372585Y185854I-1085J0D01*
G01*
G75*
G02*
X374577Y182974I-1085J-2879D01*
G01*
G75*
G02*
Y182970I-3090J-2D01*
G01*
X378423D01*
G75*
G02*
Y182974I3133J2D01*
G01*
G75*
G02*
X384577I3077J0D01*
G01*
G75*
G02*
Y182970I-3090J-2D01*
G01*
X428586D01*
Y191341D01*
X372575D01*
G75*
G02*
X372603Y191094I-1076J-245D01*
G01*
Y191094D01*
Y191092D01*
G37*
X36523Y196094D02*
G36*
X36523Y196094D02*
Y191341D01*
X51555D01*
G75*
G02*
X55763Y196094I4789J0D01*
G01*
X36523D01*
G37*
X56926D02*
G36*
X56926Y196094D02*
G75*
G02*
X61134Y191341I-581J-4754D01*
G01*
X61555D01*
G75*
G02*
X65763Y196094I4789J0D01*
G01*
X56926D01*
G37*
X66926D02*
G36*
X66926Y196094D02*
G75*
G02*
X71134Y191341I-581J-4754D01*
G01*
X77738D01*
X75487Y193591D01*
G75*
G02*
X75016Y194726I1130J1135D01*
G01*
Y194726D01*
Y196094D01*
X66926D01*
G37*
X78220D02*
G36*
X78220Y196094D02*
Y195390D01*
X82270Y191341D01*
X100524D01*
G75*
G02*
X104376Y195193I3852J0D01*
G01*
X108313D01*
G75*
G02*
X111239Y193846I0J-3852D01*
G01*
G75*
G03*
X113036Y192943I3515J4754D01*
G01*
X115639D01*
X116174Y193478D01*
G75*
G02*
X117310Y193947I1133J-1132D01*
G01*
X120329D01*
G75*
G03*
X122128Y194852I-1721J5664D01*
G01*
G75*
G02*
X124170Y196094I2925J-2507D01*
G01*
X78220D01*
G37*
X128906Y192344D02*
G36*
X128906Y192344D02*
G75*
G02*
X128772Y191341I-3852J0D01*
G01*
X224106D01*
G75*
G02*
X223343Y193457I2551J2116D01*
G01*
G75*
G02*
X224650Y196094I3315J0D01*
G01*
X215352D01*
G75*
G02*
X207648I-3852J0D01*
G01*
X195750D01*
G75*
G02*
X187250I-4250J0D01*
G01*
X169500D01*
G75*
G02*
X161000I-4250J0D01*
G01*
X149102D01*
G75*
G02*
X141398I-3852J0D01*
G01*
X125937D01*
G75*
G02*
X128906Y192345I-883J-3750D01*
G01*
Y192344D01*
G37*
X229972Y193457D02*
G36*
X229972Y193457D02*
G75*
G02*
X229209Y191341I-3315J0D01*
G01*
X233450D01*
G75*
G02*
X232787Y193457I3050J2116D01*
G01*
G75*
G02*
X233887Y196094I3713J0D01*
G01*
X228665D01*
G75*
G02*
X229972Y193457I-2008J-2638D01*
G01*
G37*
X240213D02*
G36*
X240213Y193457D02*
G75*
G02*
X239550Y191341I-3713J0D01*
G01*
X243791D01*
G75*
G02*
X243028Y193457I2551J2116D01*
G01*
G75*
G02*
X244335Y196094I3315J0D01*
G01*
X239113D01*
G75*
G02*
X240213Y193457I-2613J-2638D01*
G01*
G37*
X249657D02*
G36*
X249657Y193457D02*
G75*
G02*
X248894Y191341I-3315J0D01*
G01*
X360425D01*
G75*
G02*
X360720Y191874I1076J-246D01*
G01*
X363220Y194374D01*
G75*
G02*
X364002Y194697I780J-781D01*
G01*
X368998D01*
G75*
G02*
X369780Y194374I2J-1104D01*
G01*
X372280Y191874D01*
G75*
G02*
X372575Y191341I-780J-780D01*
G01*
X428586D01*
Y196094D01*
X420750D01*
G75*
G02*
X412250I-4250J0D01*
G01*
X400352D01*
G75*
G02*
X392648I-3852J0D01*
G01*
X285352D01*
G75*
G02*
X277648I-3852J0D01*
G01*
X265750D01*
G75*
G02*
X257250I-4250J0D01*
G01*
X248350D01*
G75*
G02*
X249657Y193457I-2008J-2638D01*
G01*
G37*
X36523Y209844D02*
G36*
X36523Y209844D02*
Y196094D01*
X55763D01*
G75*
G02*
X56926I581J-4754D01*
G01*
X65763D01*
G75*
G02*
X66926I581J-4754D01*
G01*
X75016D01*
Y206336D01*
G75*
G03*
X74822Y206711I-1695J-639D01*
G01*
G75*
G02*
X74352Y207301I1793J1911D01*
G01*
X74340Y207322D01*
G75*
G02*
X73994Y208624I2284J1304D01*
G01*
Y209844D01*
X36523D01*
G37*
X78220Y206336D02*
G36*
X78220Y206336D02*
Y196094D01*
X124170D01*
G75*
G02*
X125937I883J-3749D01*
G01*
X141398D01*
G75*
G02*
X149102I3852J0D01*
G01*
X161000D01*
G75*
G02*
X169500I4250J0D01*
G01*
X187250D01*
G75*
G02*
X195750I4250J0D01*
G01*
X207648D01*
G75*
G02*
X215352I3852J0D01*
G01*
X224650D01*
G75*
G02*
X226657Y196772I2007J-2637D01*
G01*
G75*
G02*
X228665Y196094I0J-3315D01*
G01*
X233887D01*
G75*
G02*
X236500Y197169I2613J-2638D01*
G01*
G75*
G02*
X239113Y196094I0J-3713D01*
G01*
X244335D01*
G75*
G02*
X246343Y196772I2007J-2637D01*
G01*
G75*
G02*
X248350Y196094I0J-3315D01*
G01*
X257250D01*
G75*
G02*
X265750I4250J0D01*
G01*
X277648D01*
G75*
G02*
X285352I3852J0D01*
G01*
X392648D01*
G75*
G02*
X400352I3852J0D01*
G01*
X412250D01*
G75*
G02*
X420750I4250J0D01*
G01*
X428586D01*
Y209844D01*
X409006D01*
Y208624D01*
G75*
G02*
X404149Y207245I-2624J0D01*
G01*
G75*
G02*
X398772I-2689J1378D01*
G01*
G75*
G02*
X394079Y207713I-2233J1379D01*
G01*
G75*
G02*
X390316Y206346I-2461J911D01*
G01*
X390295Y206358D01*
G75*
G02*
X389585Y206965I1315J2257D01*
G01*
G75*
G03*
X387239Y208242I-4231J-4980D01*
G01*
X375761D01*
G75*
G03*
X373415Y206965I1881J-6250D01*
G01*
G75*
G02*
X372705Y206358I-2033J1660D01*
G01*
X372684Y206346D01*
G75*
G02*
X369149Y207245I-1302J2278D01*
G01*
G75*
G02*
X363772I-2689J1379D01*
G01*
G75*
G02*
X359079Y207713I-2233J1379D01*
G01*
G75*
G02*
X353994Y208624I-2461J911D01*
G01*
Y209844D01*
X339006D01*
Y208624D01*
G75*
G02*
X334149Y207245I-2624J0D01*
G01*
G75*
G02*
X328772I-2689J1378D01*
G01*
G75*
G02*
X324079Y207713I-2233J1379D01*
G01*
G75*
G02*
X320316Y206346I-2461J911D01*
G01*
X320295Y206358D01*
G75*
G02*
X319585Y206965I1315J2257D01*
G01*
G75*
G03*
X317239Y208242I-4231J-4980D01*
G01*
X305761D01*
G75*
G03*
X303415Y206965I1881J-6250D01*
G01*
G75*
G02*
X302705Y206358I-2033J1660D01*
G01*
X302684Y206346D01*
G75*
G02*
X299149Y207245I-1302J2278D01*
G01*
G75*
G02*
X293772I-2689J1379D01*
G01*
G75*
G02*
X289079Y207713I-2233J1379D01*
G01*
G75*
G02*
X283994Y208624I-2461J911D01*
G01*
Y209844D01*
X269006D01*
Y208624D01*
G75*
G02*
X264149Y207245I-2624J0D01*
G01*
G75*
G02*
X258772I-2689J1378D01*
G01*
G75*
G02*
X254079Y207713I-2233J1379D01*
G01*
G75*
G02*
X250316Y206346I-2461J911D01*
G01*
X250295Y206358D01*
G75*
G02*
X249585Y206965I1315J2257D01*
G01*
G75*
G03*
X247239Y208242I-4231J-4980D01*
G01*
X235761D01*
G75*
G03*
X233415Y206965I1881J-6250D01*
G01*
G75*
G02*
X232705Y206358I-2033J1660D01*
G01*
X232684Y206346D01*
G75*
G02*
X229149Y207245I-1302J2278D01*
G01*
G75*
G02*
X223772I-2689J1379D01*
G01*
G75*
G02*
X219079Y207713I-2233J1379D01*
G01*
G75*
G02*
X213994Y208624I-2461J911D01*
G01*
Y209844D01*
X199006D01*
Y208624D01*
G75*
G02*
X194149Y207245I-2624J0D01*
G01*
G75*
G02*
X188772I-2689J1378D01*
G01*
G75*
G02*
X184079Y207713I-2233J1379D01*
G01*
G75*
G02*
X180316Y206346I-2461J911D01*
G01*
X180295Y206358D01*
G75*
G02*
X179585Y206965I1315J2257D01*
G01*
G75*
G03*
X177239Y208242I-4231J-4980D01*
G01*
X165761D01*
G75*
G03*
X163415Y206965I1881J-6250D01*
G01*
G75*
G02*
X162705Y206358I-2033J1660D01*
G01*
X162684Y206346D01*
G75*
G02*
X159149Y207245I-1302J2278D01*
G01*
G75*
G02*
X153772I-2689J1379D01*
G01*
G75*
G02*
X149079Y207713I-2233J1379D01*
G01*
G75*
G02*
X143994Y208624I-2461J911D01*
G01*
Y209844D01*
X129006D01*
Y208624D01*
G75*
G02*
X124149Y207245I-2624J0D01*
G01*
G75*
G02*
X118772I-2689J1378D01*
G01*
G75*
G02*
X114079Y207713I-2233J1379D01*
G01*
G75*
G02*
X110319Y206344I-2461J912D01*
G01*
G75*
G02*
X110294Y206359I182J338D01*
G01*
G75*
G02*
X109562Y206994I1321J2262D01*
G01*
G75*
G03*
X106776Y208492I-4918J-5806D01*
G01*
X96224D01*
G75*
G03*
X93438Y206994I2131J-7304D01*
G01*
G75*
G02*
X92706Y206359I-2053J1627D01*
G01*
G75*
G02*
X92681Y206344I-207J324D01*
G01*
G75*
G02*
X89149Y207245I-1299J2280D01*
G01*
G75*
G02*
X83772I-2689J1378D01*
G01*
G75*
G02*
X79079Y207713I-2233J1379D01*
G01*
G75*
G02*
X78896Y207322I-2507J933D01*
G01*
X78884Y207301D01*
G75*
G02*
X78414Y206711I-2263J1320D01*
G01*
G75*
G03*
X78220Y206336I1502J-1013D01*
G01*
G37*
X36523Y212447D02*
G36*
X36523Y212447D02*
Y209844D01*
X73994D01*
Y211065D01*
G75*
G02*
X79079Y211976I2624J0D01*
G01*
G75*
G02*
X83772Y212444I2461J-912D01*
G01*
G75*
G02*
X89149I2689J-1379D01*
G01*
G75*
G02*
X92681Y213345I2233J-1379D01*
G01*
G75*
G02*
X92706Y213330I-182J-338D01*
G01*
G75*
G02*
X93438Y212695I-1321J-2262D01*
G01*
G75*
G03*
X96224Y211197I4918J5806D01*
G01*
X106776D01*
G75*
G03*
X109562Y212695I-2131J7304D01*
G01*
G75*
G02*
X110294Y213330I2053J-1627D01*
G01*
G75*
G02*
X110319Y213345I207J-324D01*
G01*
G75*
G02*
X114079Y211976I1299J-2280D01*
G01*
G75*
G02*
X118772Y212444I2461J-912D01*
G01*
G75*
G02*
X124149I2689J-1378D01*
G01*
G75*
G02*
X129006Y211065I2233J-1379D01*
G01*
Y209844D01*
X143994D01*
Y211065D01*
G75*
G02*
X149079Y211976I2624J0D01*
G01*
G75*
G02*
X153772Y212444I2461J-912D01*
G01*
G75*
G02*
X159149I2689J-1379D01*
G01*
G75*
G02*
X162684Y213343I2233J-1379D01*
G01*
X162705Y213331D01*
G75*
G02*
X163415Y212724I-1323J-2267D01*
G01*
G75*
G03*
X165761Y211447I4236J4987D01*
G01*
X177239D01*
G75*
G03*
X179585Y212723I-1883J6254D01*
G01*
G75*
G02*
X184079Y211976I2033J-1658D01*
G01*
G75*
G02*
X188772Y212444I2461J-912D01*
G01*
G75*
G02*
X194149I2689J-1378D01*
G01*
G75*
G02*
X199006Y211065I2233J-1379D01*
G01*
Y209844D01*
X213994D01*
Y211065D01*
G75*
G02*
X219079Y211976I2624J0D01*
G01*
G75*
G02*
X223772Y212444I2461J-912D01*
G01*
G75*
G02*
X229149I2689J-1379D01*
G01*
G75*
G02*
X232684Y213343I2233J-1379D01*
G01*
X232705Y213331D01*
G75*
G02*
X233415Y212724I-1323J-2267D01*
G01*
G75*
G03*
X235761Y211447I4236J4987D01*
G01*
X247239D01*
G75*
G03*
X249585Y212723I-1883J6254D01*
G01*
G75*
G02*
X254079Y211976I2033J-1658D01*
G01*
G75*
G02*
X258772Y212444I2461J-912D01*
G01*
G75*
G02*
X264149I2689J-1378D01*
G01*
G75*
G02*
X269006Y211065I2233J-1379D01*
G01*
Y209844D01*
X283994D01*
Y211065D01*
G75*
G02*
X289079Y211976I2624J0D01*
G01*
G75*
G02*
X293772Y212444I2461J-912D01*
G01*
G75*
G02*
X299149I2689J-1379D01*
G01*
G75*
G02*
X302684Y213343I2233J-1379D01*
G01*
X302705Y213331D01*
G75*
G02*
X303415Y212724I-1323J-2267D01*
G01*
G75*
G03*
X305761Y211447I4236J4987D01*
G01*
X317239D01*
G75*
G03*
X319585Y212723I-1883J6254D01*
G01*
G75*
G02*
X324079Y211976I2033J-1658D01*
G01*
G75*
G02*
X328772Y212444I2461J-912D01*
G01*
G75*
G02*
X334149I2689J-1378D01*
G01*
G75*
G02*
X339006Y211065I2233J-1379D01*
G01*
Y209844D01*
X353994D01*
Y211065D01*
G75*
G02*
X359079Y211976I2624J0D01*
G01*
G75*
G02*
X363772Y212444I2461J-912D01*
G01*
G75*
G02*
X369149I2689J-1379D01*
G01*
G75*
G02*
X372684Y213343I2233J-1379D01*
G01*
X372705Y213331D01*
G75*
G02*
X373415Y212724I-1323J-2267D01*
G01*
G75*
G03*
X375761Y211447I4236J4987D01*
G01*
X387239D01*
G75*
G03*
X389585Y212723I-1883J6254D01*
G01*
G75*
G02*
X394079Y211976I2033J-1658D01*
G01*
G75*
G02*
X398772Y212444I2461J-912D01*
G01*
G75*
G02*
X404149I2689J-1378D01*
G01*
G75*
G02*
X409006Y211065I2233J-1379D01*
G01*
Y209844D01*
X428586D01*
Y212447D01*
G75*
G03*
X426407Y214626I-3531J-1352D01*
G01*
X38702D01*
G75*
G03*
X36523Y212447I1352J-3531D01*
G01*
G37*
X131500Y9707D02*
G75*
G02*
X126220Y14987I0J5280D01*
G01*
Y57344D01*
X80041D01*
G75*
G02*
X75041Y62344I0J5000D01*
G01*
Y95258D01*
G75*
G03*
X70041Y100258I-5000J0D01*
G01*
X40054D01*
G75*
G02*
X33804Y106508I0J6250D01*
G01*
Y211094D01*
G75*
G02*
X40054Y217344I6250J0D01*
G01*
X425054D01*
G75*
G02*
X431304Y211094I0J-6250D01*
G01*
Y62344D01*
G75*
G02*
X426304Y57344I-5000J0D01*
G01*
X383858D01*
Y15204D01*
G75*
G02*
X378361Y9707I-5497J0D01*
G01*
X131500D01*
X181500Y146094D02*
Y139844D01*
X184000Y137344D01*
X194000D01*
X195924Y139268D01*
G75*
G02*
X193378Y142344I586J3076D01*
G01*
G75*
G02*
X199642I3132J0D01*
G01*
X203378D01*
G75*
G02*
X206500Y145476I3132J0D01*
G01*
Y157344D01*
X210250Y161094D01*
X217750D01*
X219898Y163242D01*
Y172187D01*
G75*
G02*
X220250Y173189I1602J0D01*
G01*
Y174844D01*
X217750Y177344D01*
X204000D01*
X195250Y168594D01*
Y163285D01*
G75*
G02*
X197441Y161094I0J-2191D01*
G01*
G75*
G02*
X195250Y158904I-2191J0D01*
G01*
Y158697D01*
X196026D01*
G75*
G02*
X199941Y157344I1724J-1352D01*
G01*
G75*
G02*
X196026Y155992I-2191J0D01*
G01*
X195250D01*
Y154844D01*
X193969Y153564D01*
G75*
G02*
X189655Y149249I-2469J-1845D01*
G01*
X189000Y148594D01*
X184000D01*
X181500Y146094D01*
X198020Y151719D02*
G75*
G02*
X204980I3480J0D01*
G01*
G75*
G02*
X198020I-3480J0D01*
G01*
X182980Y142344D02*
G75*
G02*
X190039I3530J0D01*
G01*
G75*
G02*
X182980I-3530J0D01*
G01*
X181750D02*
G36*
X181750Y142344D02*
Y139594D01*
X183750Y137594D01*
X194250D01*
X195924Y139268D01*
G75*
G02*
X193378Y142344I586J3076D01*
G01*
X190039D01*
G75*
G02*
X182980I-3530J0D01*
G01*
X181750D01*
G37*
Y146344D02*
G36*
X181750Y146344D02*
Y142344D01*
X182980D01*
G75*
G02*
X190039I3530J0D01*
G01*
X193378D01*
G75*
G02*
X199642I3132J0D01*
G01*
X203378D01*
G75*
G02*
X206500Y145476I3132J0D01*
G01*
Y151719D01*
X204980D01*
G75*
G02*
X198020I-3480J0D01*
G01*
X194582D01*
G75*
G02*
X189655Y149249I-3083J0D01*
G01*
X189000Y148594D01*
X184000D01*
X181750Y146344D01*
G37*
X194582Y151719D02*
G36*
X194582Y151719D02*
Y151719D01*
X198020D01*
G75*
G02*
X204980I3480J0D01*
G01*
X206500D01*
Y157344D01*
X210250Y161094D01*
X217750D01*
X219898Y163242D01*
Y172187D01*
Y172187D01*
G75*
G02*
X220000Y172751I1601J0D01*
G01*
Y175094D01*
X218000Y177094D01*
X203750D01*
X195250Y168594D01*
Y163285D01*
G75*
G02*
X197441Y161094I0J-2191D01*
G01*
G75*
G02*
X195250Y158904I-2191J0D01*
G01*
Y158697D01*
X196026D01*
G75*
G02*
X199941Y157344I1724J-1352D01*
G01*
G75*
G02*
X196026Y155992I-2191J0D01*
G01*
X195250D01*
Y154844D01*
X193969Y153564D01*
G75*
G02*
X194582Y151719I-2469J-1845D01*
G01*
G37*
X356500Y143078D02*
Y139844D01*
X359000Y137344D01*
X366500D01*
X369324Y140169D01*
G75*
G02*
X371500Y145421I2176J2176D01*
G01*
Y148638D01*
G75*
G02*
X368423Y151715I0J3077D01*
G01*
G75*
G02*
X371500Y154791I3077J0D01*
G01*
Y179898D01*
G75*
G02*
X368423Y182974I0J3077D01*
G01*
G75*
G02*
X371500Y186051I3077J0D01*
G01*
Y191094D01*
X369000Y193594D01*
X364000D01*
X361500Y191094D01*
Y186051D01*
G75*
G02*
X362852Y180211I0J-3077D01*
G01*
Y172344D01*
G75*
G02*
X362455Y171387I-1352J0D01*
G01*
X361500Y170432D01*
Y154791D01*
G75*
G02*
X364577Y151715I0J-3077D01*
G01*
G75*
G02*
X359173Y149702I-3077J0D01*
G01*
G75*
G03*
X357862Y150362I-2614J-3558D01*
G01*
X357680D01*
X356602Y149284D01*
Y143594D01*
G75*
G02*
X356500Y143078I-1352J0D01*
G01*
X358026Y142344D02*
G75*
G02*
X364974I3474J0D01*
G01*
G75*
G02*
X358026I-3474J0D01*
G01*
X356750D02*
G36*
X356750Y142344D02*
Y139594D01*
X358750Y137594D01*
X366750D01*
X369324Y140169D01*
G75*
G02*
X368423Y142344I2176J2176D01*
G01*
X364974D01*
G75*
G02*
X358026I-3474J0D01*
G01*
X356750D01*
G37*
Y149432D02*
G36*
X356750Y149432D02*
Y142344D01*
X358026D01*
G75*
G02*
X364974I3474J0D01*
G01*
X368423D01*
G75*
G02*
X371250Y145411I3077J0D01*
G01*
Y148648D01*
G75*
G02*
X368423Y151715I250J3067D01*
G01*
G75*
G02*
X371250Y154781I3077J0D01*
G01*
Y179908D01*
G75*
G02*
X368423Y182974I250J3067D01*
G01*
G75*
G02*
X371250Y186041I3077J0D01*
G01*
Y191344D01*
X369250Y193344D01*
X363750D01*
X361500Y191094D01*
Y186051D01*
G75*
G02*
X364577Y182974I0J-3077D01*
G01*
G75*
G02*
X362852Y180211I-3077J0D01*
G01*
Y172344D01*
G75*
G02*
X362455Y171387I-1350J-1D01*
G01*
X361500Y170432D01*
Y154791D01*
G75*
G02*
X364577Y151715I0J-3077D01*
G01*
G75*
G02*
X359173Y149702I-3077J0D01*
G01*
G75*
G03*
X357862Y150362I-2610J-3550D01*
G01*
X357680D01*
X356750Y149432D01*
G37*
D02*
D74*
X86461Y207352D02*
Y205352D01*
Y212337D02*
Y214337D01*
X90016Y86094D02*
X88016D01*
X91382Y209844D02*
X111618D01*
X93016Y83094D02*
Y81094D01*
Y89094D02*
Y91094D01*
X96016Y86094D02*
X98016D01*
X96039Y209844D02*
G75*
G02*
X92018Y212166I2322J8665D01*
G01*
Y207523D01*
G75*
G02*
X96039Y209844I6343J-6343D01*
G01*
G36*
X96039Y209844D02*
G75*
G02*
X92018Y212166I2322J8665D01*
G01*
Y207523D01*
G75*
G02*
X96039Y209844I6343J-6343D01*
G01*
G37*
X101876Y141341D02*
X99876D01*
X106344Y138841D02*
Y136841D01*
Y143841D02*
Y145841D01*
X106961Y209844D02*
G75*
G02*
X110982Y207523I-2322J-8665D01*
G01*
Y212166D01*
G75*
G02*
X106961Y209844I-6343J6343D01*
G01*
G36*
X106961Y209844D02*
G75*
G02*
X110982Y207523I-2322J-8665D01*
G01*
Y212166D01*
G75*
G02*
X106961Y209844I-6343J6343D01*
G01*
G37*
X110813Y141341D02*
X112813D01*
X115606Y86094D02*
X113606D01*
X118606Y83094D02*
Y81094D01*
Y89094D02*
Y91094D01*
X121461Y207352D02*
Y205352D01*
Y212337D02*
Y214337D01*
X121606Y86094D02*
X123606D01*
X131500Y138457D02*
Y136457D01*
Y143457D02*
Y145457D01*
X134000Y140957D02*
X136000D01*
X156461Y207352D02*
Y205352D01*
Y212337D02*
Y214337D01*
X162750Y69844D02*
X160750D01*
X162750Y127344D02*
X160750D01*
X162750Y196094D02*
X160750D01*
X165250Y67344D02*
Y65344D01*
Y124844D02*
Y122844D01*
Y193594D02*
Y191594D01*
Y198594D02*
Y200594D01*
X167750Y196094D02*
X169750D01*
X173177Y157344D02*
G75*
G03*
X171919Y156618I726J-2710D01*
G01*
G75*
G03*
Y158071I-419J726D01*
G01*
G75*
G03*
X173177Y157344I1984J1984D01*
G01*
G36*
X173177Y157344D02*
G75*
G03*
X171919Y156618I726J-2710D01*
G01*
G75*
G03*
Y158071I-419J726D01*
G01*
G75*
G03*
X173177Y157344I1984J1984D01*
G01*
G37*
X182323Y119844D02*
G75*
G03*
X183581Y120571I-726J2710D01*
G01*
G75*
G03*
Y119118I419J-726D01*
G01*
G75*
G03*
X182323Y119844I-1984J-1984D01*
G01*
G36*
X182323Y119844D02*
G75*
G03*
X183581Y120571I-726J2710D01*
G01*
G75*
G03*
Y119118I419J-726D01*
G01*
G75*
G03*
X182323Y119844I-1984J-1984D01*
G01*
G37*
X183177Y161094D02*
G75*
G03*
X181919Y160368I726J-2710D01*
G01*
G75*
G03*
Y161821I-419J726D01*
G01*
G75*
G03*
X183177Y161094I1984J1984D01*
G01*
G36*
X183177Y161094D02*
G75*
G03*
X181919Y160368I726J-2710D01*
G01*
G75*
G03*
Y161821I-419J726D01*
G01*
G75*
G03*
X183177Y161094I1984J1984D01*
G01*
G37*
X184000Y119844D02*
X166500D01*
X165250Y118594D01*
Y114844D01*
X184730Y142344D02*
X182730D01*
X186510Y140565D02*
Y138565D01*
Y144124D02*
Y146124D01*
X188289Y142344D02*
X190289D01*
X189000Y196094D02*
X187000D01*
X191461Y207352D02*
Y205352D01*
Y212337D02*
Y214337D01*
X191500Y193594D02*
Y191594D01*
Y198594D02*
Y200594D01*
X193573Y161094D02*
G75*
G03*
X194831Y161821I-726J2710D01*
G01*
G75*
G03*
Y160368I419J-726D01*
G01*
G75*
G03*
X193573Y161094I-1984J-1984D01*
G01*
G36*
X193573Y161094D02*
G75*
G03*
X194831Y161821I-726J2710D01*
G01*
G75*
G03*
Y160368I419J-726D01*
G01*
G75*
G03*
X193573Y161094I-1984J-1984D01*
G01*
G37*
X194000Y196094D02*
X196000D01*
X194730Y82344D02*
X192730D01*
X195250Y161094D02*
X181500D01*
X196510Y80565D02*
Y78565D01*
Y84124D02*
Y86124D01*
X197750Y157344D02*
X171500D01*
X198289Y82344D02*
X200289D01*
X199770Y151719D02*
X197770D01*
X199770Y182970D02*
X197770D01*
X201500Y149988D02*
Y147988D01*
Y153449D02*
Y155449D01*
Y181240D02*
Y179240D01*
Y184701D02*
Y186701D01*
X203230Y151719D02*
X205230D01*
X203230Y182970D02*
X205230D01*
X210276Y150495D02*
X208862Y149081D01*
X210276Y152942D02*
X208862Y154356D01*
X212724Y150495D02*
X214138Y149081D01*
X212724Y152942D02*
X214138Y154356D01*
X216510Y78785D02*
G75*
G03*
X214969Y81455I-5752J-1541D01*
G01*
G75*
G03*
X218051I1541J890D01*
G01*
G75*
G03*
X216510Y78785I4211J-4210D01*
G01*
G36*
X216510Y78785D02*
G75*
G03*
X214969Y81455I-5752J-1541D01*
G01*
G75*
G03*
X218051I1541J890D01*
G01*
G75*
G03*
X216510Y78785I4211J-4210D01*
G01*
G37*
Y82344D02*
Y74844D01*
X230260Y61094D01*
X257750D01*
X260250Y58594D01*
X226461Y207352D02*
Y205352D01*
Y212337D02*
Y214337D01*
X226510Y78785D02*
G75*
G03*
X224969Y81455I-5752J-1541D01*
G01*
G75*
G03*
X228051I1541J890D01*
G01*
G75*
G03*
X226510Y78785I4211J-4210D01*
G01*
G36*
X226510Y78785D02*
G75*
G03*
X224969Y81455I-5752J-1541D01*
G01*
G75*
G03*
X228051I1541J890D01*
G01*
G75*
G03*
X226510Y78785I4211J-4210D01*
G01*
G37*
Y82344D02*
Y74835D01*
X235250Y66094D01*
X261500D01*
X269000Y58594D01*
X229022Y144866D02*
G75*
G03*
X228230Y141887I5162J-2967D01*
G01*
G75*
G03*
X226046Y144062I-1720J457D01*
G01*
G75*
G03*
X229022Y144866I-12J5954D01*
G01*
G36*
X229022Y144866D02*
G75*
G03*
X228230Y141887I5162J-2967D01*
G01*
G75*
G03*
X226046Y144062I-1720J457D01*
G01*
G75*
G03*
X229022Y144866I-12J5954D01*
G01*
G37*
X234537Y193457D02*
X232537D01*
X236500Y191494D02*
Y189494D01*
Y195419D02*
Y197419D01*
X236510Y78785D02*
G75*
G03*
X234969Y81455I-5752J-1541D01*
G01*
G75*
G03*
X238051I1541J890D01*
G01*
G75*
G03*
X236510Y78785I4211J-4210D01*
G01*
G36*
X236510Y78785D02*
G75*
G03*
X234969Y81455I-5752J-1541D01*
G01*
G75*
G03*
X238051I1541J890D01*
G01*
G75*
G03*
X236510Y78785I4211J-4210D01*
G01*
G37*
Y82344D02*
Y74844D01*
X242760Y68594D01*
X263754D01*
X275004Y57344D01*
X236510Y138785D02*
G75*
G03*
X234969Y141455I-5752J-1541D01*
G01*
G75*
G03*
X238051I1541J890D01*
G01*
G75*
G03*
X236510Y138785I4211J-4210D01*
G01*
G36*
X236510Y138785D02*
G75*
G03*
X234969Y141455I-5752J-1541D01*
G01*
G75*
G03*
X238051I1541J890D01*
G01*
G75*
G03*
X236510Y138785I4211J-4210D01*
G01*
G37*
Y142344D02*
Y106104D01*
X221500Y91094D01*
Y74844D01*
X232750Y63594D01*
X258754D01*
X265004Y57344D01*
X238463Y193457D02*
X240463D01*
X241500Y151719D02*
Y164844D01*
Y155179D02*
G75*
G03*
X242998Y152583I5593J1498D01*
G01*
G75*
G03*
X240002I-1498J-865D01*
G01*
G75*
G03*
X241500Y155179I-4094J4094D01*
G01*
G36*
X241500Y155179D02*
G75*
G03*
X242998Y152583I5593J1498D01*
G01*
G75*
G03*
X240002I-1498J-865D01*
G01*
G75*
G03*
X241500Y155179I-4094J4094D01*
G01*
G37*
Y163167D02*
G75*
G03*
X240774Y164425I-2710J-726D01*
G01*
G75*
G03*
X242226I726J419D01*
G01*
G75*
G03*
X241500Y163167I1984J-1984D01*
G01*
G36*
X241500Y163167D02*
G75*
G03*
X240774Y164425I-2710J-726D01*
G01*
G75*
G03*
X242226I726J419D01*
G01*
G75*
G03*
X241500Y163167I1984J-1984D01*
G01*
G37*
X246510Y138785D02*
G75*
G03*
X244969Y141455I-5752J-1541D01*
G01*
G75*
G03*
X248051I1541J890D01*
G01*
G75*
G03*
X246510Y138785I4211J-4210D01*
G01*
G36*
X246510Y138785D02*
G75*
G03*
X244969Y141455I-5752J-1541D01*
G01*
G75*
G03*
X248051I1541J890D01*
G01*
G75*
G03*
X246510Y138785I4211J-4210D01*
G01*
G37*
X251500Y151719D02*
Y167344D01*
Y155179D02*
G75*
G03*
X252998Y152583I5593J1498D01*
G01*
G75*
G03*
X250002I-1498J-865D01*
G01*
G75*
G03*
X251500Y155179I-4094J4094D01*
G01*
G36*
X251500Y155179D02*
G75*
G03*
X252998Y152583I5593J1498D01*
G01*
G75*
G03*
X250002I-1498J-865D01*
G01*
G75*
G03*
X251500Y155179I-4094J4094D01*
G01*
G37*
Y165667D02*
G75*
G03*
X250774Y166925I-2710J-726D01*
G01*
G75*
G03*
X252226I726J419D01*
G01*
G75*
G03*
X251500Y165667I1984J-1984D01*
G01*
G36*
X251500Y165667D02*
G75*
G03*
X250774Y166925I-2710J-726D01*
G01*
G75*
G03*
X252226I726J419D01*
G01*
G75*
G03*
X251500Y165667I1984J-1984D01*
G01*
G37*
X256510Y138785D02*
G75*
G03*
X254969Y141455I-5752J-1541D01*
G01*
G75*
G03*
X258051I1541J890D01*
G01*
G75*
G03*
X256510Y138785I4211J-4210D01*
G01*
G36*
X256510Y138785D02*
G75*
G03*
X254969Y141455I-5752J-1541D01*
G01*
G75*
G03*
X258051I1541J890D01*
G01*
G75*
G03*
X256510Y138785I4211J-4210D01*
G01*
G37*
X259000Y196094D02*
X257000D01*
X259064Y59780D02*
G75*
G03*
X260467Y59405I1402J2431D01*
G01*
G75*
G03*
X259440Y58377I-217J-810D01*
G01*
G75*
G03*
X259064Y59780I-2806J1D01*
G01*
G36*
X259064Y59780D02*
G75*
G03*
X260467Y59405I1402J2431D01*
G01*
G75*
G03*
X259440Y58377I-217J-810D01*
G01*
G75*
G03*
X259064Y59780I-2806J1D01*
G01*
G37*
X261461Y207352D02*
Y205352D01*
Y212337D02*
Y214337D01*
X261500Y151719D02*
Y169844D01*
Y155179D02*
G75*
G03*
X262998Y152583I5593J1498D01*
G01*
G75*
G03*
X260002I-1498J-865D01*
G01*
G75*
G03*
X261500Y155179I-4094J4094D01*
G01*
G36*
X261500Y155179D02*
G75*
G03*
X262998Y152583I5593J1498D01*
G01*
G75*
G03*
X260002I-1498J-865D01*
G01*
G75*
G03*
X261500Y155179I-4094J4094D01*
G01*
G37*
Y168167D02*
G75*
G03*
X260774Y169425I-2710J-726D01*
G01*
G75*
G03*
X262226I726J419D01*
G01*
G75*
G03*
X261500Y168167I1984J-1984D01*
G01*
G36*
X261500Y168167D02*
G75*
G03*
X260774Y169425I-2710J-726D01*
G01*
G75*
G03*
X262226I726J419D01*
G01*
G75*
G03*
X261500Y168167I1984J-1984D01*
G01*
G37*
Y193594D02*
Y191594D01*
Y198594D02*
Y200594D01*
X264000Y196094D02*
X266000D01*
X266510Y142344D02*
X266500D01*
X270250Y146094D01*
X279000D01*
X281500Y143594D01*
Y124510D01*
X292553Y113457D01*
Y78457D01*
X303803Y67207D01*
X318803D01*
X267814Y59780D02*
G75*
G03*
X269217Y59405I1402J2431D01*
G01*
G75*
G03*
X268190Y58377I-217J-810D01*
G01*
G75*
G03*
X267814Y59780I-2806J1D01*
G01*
G36*
X267814Y59780D02*
G75*
G03*
X269217Y59405I1402J2431D01*
G01*
G75*
G03*
X268190Y58377I-217J-810D01*
G01*
G75*
G03*
X267814Y59780I-2806J1D01*
G01*
G37*
X269022Y144866D02*
G75*
G03*
X268230Y141887I5162J-2967D01*
G01*
G75*
G03*
X266046Y144062I-1720J457D01*
G01*
G75*
G03*
X269022Y144866I-12J5954D01*
G01*
G36*
X269022Y144866D02*
G75*
G03*
X268230Y141887I5162J-2967D01*
G01*
G75*
G03*
X266046Y144062I-1720J457D01*
G01*
G75*
G03*
X269022Y144866I-12J5954D01*
G01*
G37*
X271500Y151719D02*
X277553D01*
X281500Y155665D01*
Y162404D01*
X286303Y167207D01*
X296303D01*
X301500Y172404D01*
Y182974D01*
X271500Y157344D02*
Y182970D01*
Y159022D02*
G75*
G03*
X272226Y157764I2710J726D01*
G01*
G75*
G03*
X270774I-726J-419D01*
G01*
G75*
G03*
X271500Y159022I-1984J1984D01*
G01*
G36*
X271500Y159022D02*
G75*
G03*
X272226Y157764I2710J726D01*
G01*
G75*
G03*
X270774I-726J-419D01*
G01*
G75*
G03*
X271500Y159022I-1984J1984D01*
G01*
G37*
Y179510D02*
G75*
G03*
X270002Y182106I-5593J-1498D01*
G01*
G75*
G03*
X272998I1498J865D01*
G01*
G75*
G03*
X271500Y179510I4094J-4094D01*
G01*
G36*
X271500Y179510D02*
G75*
G03*
X270002Y182106I-5593J-1498D01*
G01*
G75*
G03*
X272998I1498J865D01*
G01*
G75*
G03*
X271500Y179510I4094J-4094D01*
G01*
G37*
X274064Y62280D02*
G75*
G03*
X275467Y61905I1402J2431D01*
G01*
G75*
G03*
X274440Y60877I-217J-810D01*
G01*
G75*
G03*
X274064Y62280I-2806J1D01*
G01*
G36*
X274064Y62280D02*
G75*
G03*
X275467Y61905I1402J2431D01*
G01*
G75*
G03*
X274440Y60877I-217J-810D01*
G01*
G75*
G03*
X274064Y62280I-2806J1D01*
G01*
G37*
X274961Y151719D02*
G75*
G03*
X272365Y150220I1498J-5593D01*
G01*
G75*
G03*
Y153217I-865J1498D01*
G01*
G75*
G03*
X274961Y151719I4094J4094D01*
G01*
G36*
X274961Y151719D02*
G75*
G03*
X272365Y150220I1498J-5593D01*
G01*
G75*
G03*
Y153217I-865J1498D01*
G01*
G75*
G03*
X274961Y151719I4094J4094D01*
G01*
G37*
X275250Y61094D02*
X265250Y71094D01*
X246500D01*
X241500Y76094D01*
Y144844D01*
X239000Y147344D01*
X231500D01*
X226500Y142344D01*
X226510D01*
X276510Y138785D02*
G75*
G03*
X274969Y141455I-5752J-1541D01*
G01*
G75*
G03*
X278051I1541J890D01*
G01*
G75*
G03*
X276510Y138785I4211J-4210D01*
G01*
G36*
X276510Y138785D02*
G75*
G03*
X274969Y141455I-5752J-1541D01*
G01*
G75*
G03*
X278051I1541J890D01*
G01*
G75*
G03*
X276510Y138785I4211J-4210D01*
G01*
G37*
Y142344D02*
Y112148D01*
X280053Y108604D01*
Y77344D01*
X286303Y71094D01*
X291500D01*
X294000Y68594D01*
Y62344D01*
X290250Y58594D01*
X287504D01*
X285004Y56094D01*
X282553Y111917D02*
G75*
G03*
X281827Y113175I-2710J-726D01*
G01*
G75*
G03*
X283280I726J419D01*
G01*
G75*
G03*
X282553Y111917I1984J-1984D01*
G01*
G36*
X282553Y111917D02*
G75*
G03*
X281827Y113175I-2710J-726D01*
G01*
G75*
G03*
X283280I726J419D01*
G01*
G75*
G03*
X282553Y111917I1984J-1984D01*
G01*
G37*
X283573Y66094D02*
G75*
G03*
X284831Y66821I-726J2710D01*
G01*
G75*
G03*
Y65368I419J-726D01*
G01*
G75*
G03*
X283573Y66094I-1984J-1984D01*
G01*
G36*
X283573Y66094D02*
G75*
G03*
X284831Y66821I-726J2710D01*
G01*
G75*
G03*
Y65368I419J-726D01*
G01*
G75*
G03*
X283573Y66094I-1984J-1984D01*
G01*
G37*
X285250D02*
X279000D01*
X269000Y76094D01*
X254000D01*
X252750Y77344D01*
Y124844D01*
X256510Y128604D01*
Y142344D01*
X286510Y138785D02*
G75*
G03*
X284969Y141455I-5752J-1541D01*
G01*
G75*
G03*
X288051I1541J890D01*
G01*
G75*
G03*
X286510Y138785I4211J-4210D01*
G01*
G36*
X286510Y138785D02*
G75*
G03*
X284969Y141455I-5752J-1541D01*
G01*
G75*
G03*
X288051I1541J890D01*
G01*
G75*
G03*
X286510Y138785I4211J-4210D01*
G01*
G37*
Y142344D02*
Y125957D01*
X290053Y122413D01*
X296096D01*
X302553Y115957D01*
Y79707D01*
X310053Y72207D01*
X288573Y63594D02*
G75*
G03*
X289831Y64321I-726J2710D01*
G01*
G75*
G03*
Y62868I419J-726D01*
G01*
G75*
G03*
X288573Y63594I-1984J-1984D01*
G01*
G36*
X288573Y63594D02*
G75*
G03*
X289831Y64321I-726J2710D01*
G01*
G75*
G03*
Y62868I419J-726D01*
G01*
G75*
G03*
X288573Y63594I-1984J-1984D01*
G01*
G37*
X289776Y151715D02*
X287776D01*
X290053Y77344D02*
Y110957D01*
X285053Y115957D01*
X290250Y63594D02*
X277750D01*
X267750Y73594D01*
X252750D01*
X250250Y76094D01*
Y91094D01*
X246510Y94835D01*
Y142344D01*
X291303Y118457D02*
X296303D01*
X300053Y114707D01*
Y78457D01*
X308803Y69707D01*
X315053D01*
X291500Y149990D02*
Y147990D01*
Y153439D02*
Y155439D01*
X292980Y118457D02*
G75*
G03*
X291722Y117730I726J-2710D01*
G01*
G75*
G03*
Y119183I-419J726D01*
G01*
G75*
G03*
X292980Y118457I1984J1984D01*
G01*
G36*
X292980Y118457D02*
G75*
G03*
X291722Y117730I726J-2710D01*
G01*
G75*
G03*
Y119183I-419J726D01*
G01*
G75*
G03*
X292980Y118457I1984J1984D01*
G01*
G37*
X293224Y151715D02*
X295224D01*
X295004Y55848D02*
X296500Y57344D01*
Y69844D01*
X292750Y73594D01*
X287415D01*
X282553Y78457D01*
Y113594D01*
X296461Y207352D02*
Y205352D01*
Y212337D02*
Y214337D01*
X301500Y179526D02*
G75*
G03*
X300007Y182112I-5573J-1493D01*
G01*
G75*
G03*
X302993I1493J862D01*
G01*
G75*
G03*
X301500Y179526I4080J-4080D01*
G01*
G36*
X301500Y179526D02*
G75*
G03*
X300007Y182112I-5573J-1493D01*
G01*
G75*
G03*
X302993I1493J862D01*
G01*
G75*
G03*
X301500Y179526I4080J-4080D01*
G01*
G37*
X306510Y82344D02*
Y112354D01*
X321500Y127344D01*
Y151715D01*
X306510Y85904D02*
G75*
G03*
X308051Y83234I5752J1541D01*
G01*
G75*
G03*
X304969I-1541J-890D01*
G01*
G75*
G03*
X306510Y85904I-4211J4210D01*
G01*
G36*
X306510Y85904D02*
G75*
G03*
X308051Y83234I5752J1541D01*
G01*
G75*
G03*
X304969I-1541J-890D01*
G01*
G75*
G03*
X306510Y85904I-4211J4210D01*
G01*
G37*
Y142344D02*
Y167354D01*
X311500Y172344D01*
Y182974D01*
X306510Y145904D02*
G75*
G03*
X308051Y143234I5752J1541D01*
G01*
G75*
G03*
X304969I-1541J-890D01*
G01*
G75*
G03*
X306510Y145904I-4211J4210D01*
G01*
G36*
X306510Y145904D02*
G75*
G03*
X308051Y143234I5752J1541D01*
G01*
G75*
G03*
X304969I-1541J-890D01*
G01*
G75*
G03*
X306510Y145904I-4211J4210D01*
G01*
G37*
X308867Y73393D02*
G75*
G03*
X310270Y73017I1402J2431D01*
G01*
G75*
G03*
X309243Y71989I-217J-810D01*
G01*
G75*
G03*
X308867Y73393I-2806J1D01*
G01*
G36*
X308867Y73393D02*
G75*
G03*
X310270Y73017I1402J2431D01*
G01*
G75*
G03*
X309243Y71989I-217J-810D01*
G01*
G75*
G03*
X308867Y73393I-2806J1D01*
G01*
G37*
X311500Y179526D02*
G75*
G03*
X310007Y182112I-5573J-1493D01*
G01*
G75*
G03*
X312993I1493J862D01*
G01*
G75*
G03*
X311500Y179526I4080J-4080D01*
G01*
G36*
X311500Y179526D02*
G75*
G03*
X310007Y182112I-5573J-1493D01*
G01*
G75*
G03*
X312993I1493J862D01*
G01*
G75*
G03*
X311500Y179526I4080J-4080D01*
G01*
G37*
X313376Y69707D02*
G75*
G03*
X314634Y70433I-726J2710D01*
G01*
G75*
G03*
Y68980I419J-726D01*
G01*
G75*
G03*
X313376Y69707I-1984J-1984D01*
G01*
G36*
X313376Y69707D02*
G75*
G03*
X314634Y70433I-726J2710D01*
G01*
G75*
G03*
Y68980I419J-726D01*
G01*
G75*
G03*
X313376Y69707I-1984J-1984D01*
G01*
G37*
X316510Y82344D02*
Y117354D01*
X336500Y137344D01*
X345250D01*
X351500Y143594D01*
Y151715D01*
X316510Y85904D02*
G75*
G03*
X318051Y83234I5752J1541D01*
G01*
G75*
G03*
X314969I-1541J-890D01*
G01*
G75*
G03*
X316510Y85904I-4211J4210D01*
G01*
G36*
X316510Y85904D02*
G75*
G03*
X318051Y83234I5752J1541D01*
G01*
G75*
G03*
X314969I-1541J-890D01*
G01*
G75*
G03*
X316510Y85904I-4211J4210D01*
G01*
G37*
Y142344D02*
Y167354D01*
X321500Y172344D01*
Y182974D01*
X316510Y145904D02*
G75*
G03*
X318051Y143234I5752J1541D01*
G01*
G75*
G03*
X314969I-1541J-890D01*
G01*
G75*
G03*
X316510Y145904I-4211J4210D01*
G01*
G36*
X316510Y145904D02*
G75*
G03*
X318051Y143234I5752J1541D01*
G01*
G75*
G03*
X314969I-1541J-890D01*
G01*
G75*
G03*
X316510Y145904I-4211J4210D01*
G01*
G37*
X317126Y67207D02*
G75*
G03*
X318384Y67933I-726J2710D01*
G01*
G75*
G03*
Y66480I419J-726D01*
G01*
G75*
G03*
X317126Y67207I-1984J-1984D01*
G01*
G36*
X317126Y67207D02*
G75*
G03*
X318384Y67933I-726J2710D01*
G01*
G75*
G03*
Y66480I419J-726D01*
G01*
G75*
G03*
X317126Y67207I-1984J-1984D01*
G01*
G37*
X321500Y148266D02*
G75*
G03*
X320007Y150852I-5573J-1493D01*
G01*
G75*
G03*
X322993I1493J862D01*
G01*
G75*
G03*
X321500Y148266I4080J-4080D01*
G01*
G36*
X321500Y148266D02*
G75*
G03*
X320007Y150852I-5573J-1493D01*
G01*
G75*
G03*
X322993I1493J862D01*
G01*
G75*
G03*
X321500Y148266I4080J-4080D01*
G01*
G37*
Y179526D02*
G75*
G03*
X320007Y182112I-5573J-1493D01*
G01*
G75*
G03*
X322993I1493J862D01*
G01*
G75*
G03*
X321500Y179526I4080J-4080D01*
G01*
G36*
X321500Y179526D02*
G75*
G03*
X320007Y182112I-5573J-1493D01*
G01*
G75*
G03*
X322993I1493J862D01*
G01*
G75*
G03*
X321500Y179526I4080J-4080D01*
G01*
G37*
X326510Y82344D02*
Y122344D01*
X339010Y134844D01*
X346500D01*
X355250Y143594D01*
Y149844D01*
X357120Y151715D01*
X361500D01*
X326510Y85904D02*
G75*
G03*
X328051Y83234I5752J1541D01*
G01*
G75*
G03*
X324969I-1541J-890D01*
G01*
G75*
G03*
X326510Y85904I-4211J4210D01*
G01*
G36*
X326510Y85904D02*
G75*
G03*
X328051Y83234I5752J1541D01*
G01*
G75*
G03*
X324969I-1541J-890D01*
G01*
G75*
G03*
X326510Y85904I-4211J4210D01*
G01*
G37*
Y142344D02*
Y167354D01*
X331500Y172344D01*
X346500D01*
X351500Y177344D01*
Y182974D01*
X326510Y145904D02*
G75*
G03*
X328051Y143234I5752J1541D01*
G01*
G75*
G03*
X324969I-1541J-890D01*
G01*
G75*
G03*
X326510Y145904I-4211J4210D01*
G01*
G36*
X326510Y145904D02*
G75*
G03*
X328051Y143234I5752J1541D01*
G01*
G75*
G03*
X324969I-1541J-890D01*
G01*
G75*
G03*
X326510Y145904I-4211J4210D01*
G01*
G37*
X331461Y207352D02*
Y205352D01*
Y212337D02*
Y214337D01*
X334730Y82344D02*
X332730D01*
X336510Y80565D02*
Y78565D01*
Y84124D02*
Y86124D01*
Y142344D02*
Y162354D01*
X341500Y167344D01*
X356500D01*
X361500Y172344D01*
Y182974D01*
X336510Y145904D02*
G75*
G03*
X338051Y143234I5752J1541D01*
G01*
G75*
G03*
X334969I-1541J-890D01*
G01*
G75*
G03*
X336510Y145904I-4211J4210D01*
G01*
G36*
X336510Y145904D02*
G75*
G03*
X338051Y143234I5752J1541D01*
G01*
G75*
G03*
X334969I-1541J-890D01*
G01*
G75*
G03*
X336510Y145904I-4211J4210D01*
G01*
G37*
X338289Y82344D02*
X340289D01*
X343803Y74280D02*
G75*
G03*
X343077Y75537I-2710J-726D01*
G01*
G75*
G03*
X344530I726J419D01*
G01*
G75*
G03*
X343803Y74280I1984J-1984D01*
G01*
G36*
X343803Y74280D02*
G75*
G03*
X343077Y75537I-2710J-726D01*
G01*
G75*
G03*
X344530I726J419D01*
G01*
G75*
G03*
X343803Y74280I1984J-1984D01*
G01*
G37*
X351500Y148266D02*
G75*
G03*
X350007Y150852I-5573J-1493D01*
G01*
G75*
G03*
X352993I1493J862D01*
G01*
G75*
G03*
X351500Y148266I4080J-4080D01*
G01*
G36*
X351500Y148266D02*
G75*
G03*
X350007Y150852I-5573J-1493D01*
G01*
G75*
G03*
X352993I1493J862D01*
G01*
G75*
G03*
X351500Y148266I4080J-4080D01*
G01*
G37*
Y179526D02*
G75*
G03*
X350007Y182112I-5573J-1493D01*
G01*
G75*
G03*
X352993I1493J862D01*
G01*
G75*
G03*
X351500Y179526I4080J-4080D01*
G01*
G36*
X351500Y179526D02*
G75*
G03*
X350007Y182112I-5573J-1493D01*
G01*
G75*
G03*
X352993I1493J862D01*
G01*
G75*
G03*
X351500Y179526I4080J-4080D01*
G01*
G37*
X358051Y151715D02*
G75*
G03*
X360638Y153208I-1493J5573D01*
G01*
G75*
G03*
Y150221I862J-1493D01*
G01*
G75*
G03*
X358051Y151715I-4080J-4080D01*
G01*
G36*
X358051Y151715D02*
G75*
G03*
X360638Y153208I-1493J5573D01*
G01*
G75*
G03*
Y150221I862J-1493D01*
G01*
G75*
G03*
X358051Y151715I-4080J-4080D01*
G01*
G37*
X359776Y142344D02*
X357776D01*
X361500Y59844D02*
X348665D01*
X343803Y64707D01*
Y75957D01*
X361500Y140620D02*
Y138620D01*
Y144069D02*
Y146069D01*
X363224Y142344D02*
X365224D01*
X366461Y207352D02*
Y205352D01*
Y212337D02*
Y214337D01*
X377750Y58594D02*
Y62344D01*
X380250Y64844D01*
X391500D01*
X395250Y68594D01*
Y79844D01*
X380281Y150495D02*
X378867Y149081D01*
X380281Y152934D02*
X378867Y154348D01*
X381500Y179526D02*
G75*
G03*
X380007Y182112I-5573J-1493D01*
G01*
G75*
G03*
X382993I1493J862D01*
G01*
G75*
G03*
X381500Y179526I4080J-4080D01*
G01*
G36*
X381500Y179526D02*
G75*
G03*
X380007Y182112I-5573J-1493D01*
G01*
G75*
G03*
X382993I1493J862D01*
G01*
G75*
G03*
X381500Y179526I4080J-4080D01*
G01*
G37*
Y182974D02*
Y160760D01*
X386303Y155957D01*
Y139707D01*
X388803Y137207D01*
X416362D01*
X421500Y142344D01*
X382719Y150495D02*
X384133Y149081D01*
X382719Y152934D02*
X384133Y154348D01*
X387750Y88594D02*
X381303D01*
X400053Y64844D02*
Y83457D01*
X395250Y88260D01*
Y88594D01*
X400053Y66522D02*
G75*
G03*
X400780Y65264I2710J726D01*
G01*
G75*
G03*
X399327I-726J-419D01*
G01*
G75*
G03*
X400053Y66522I-1984J1984D01*
G01*
G36*
X400053Y66522D02*
G75*
G03*
X400780Y65264I2710J726D01*
G01*
G75*
G03*
X399327I-726J-419D01*
G01*
G75*
G03*
X400053Y66522I-1984J1984D01*
G01*
G37*
X401461Y207352D02*
Y205352D01*
Y212337D02*
Y214337D01*
X410250Y88594D02*
X405053D01*
X414000Y196094D02*
X412000D01*
X416500Y193594D02*
Y191594D01*
Y198594D02*
Y200594D01*
X419000Y196094D02*
X421000D01*
X419061Y139906D02*
G75*
G03*
X419834Y142791I-4996J2885D01*
G01*
G75*
G03*
X421946Y140679I1665J-446D01*
G01*
G75*
G03*
X419061Y139906I0J-5769D01*
G01*
G36*
X419061Y139906D02*
G75*
G03*
X419834Y142791I-4996J2885D01*
G01*
G75*
G03*
X421946Y140679I1665J-446D01*
G01*
G75*
G03*
X419061Y139906I0J-5769D01*
G01*
G37*
X419776Y112344D02*
X417776D01*
X421500Y110620D02*
Y108620D01*
Y114069D02*
Y116069D01*
X422323Y88594D02*
G75*
G03*
X423581Y89321I-726J2710D01*
G01*
G75*
G03*
Y87868I419J-726D01*
G01*
G75*
G03*
X422323Y88594I-1984J-1984D01*
G01*
G36*
X422323Y88594D02*
G75*
G03*
X423581Y89321I-726J2710D01*
G01*
G75*
G03*
Y87868I419J-726D01*
G01*
G75*
G03*
X422323Y88594I-1984J-1984D01*
G01*
G37*
X423224Y112344D02*
X425224D01*
X424000Y88594D02*
X417750D01*
D02*
D75*
X125053Y151341D02*
Y123791D01*
X130388Y118457D01*
X151500D01*
X125053Y161341D02*
X106344D01*
X155004Y50937D02*
G75*
G02*
X154157Y49470I-3159J846D01*
G01*
X155850D01*
G75*
G02*
X155004Y50937I2313J2313D01*
G01*
G36*
X155004Y50937D02*
G75*
G02*
X154157Y49470I-3159J846D01*
G01*
X155850D01*
G75*
G02*
X155004Y50937I2313J2313D01*
G01*
G37*
X165004Y34707D02*
Y54228D01*
X155004D01*
Y31754D01*
X165004Y50937D02*
G75*
G02*
X164157Y49470I-3159J846D01*
G01*
X165850D01*
G75*
G02*
X165004Y50937I2313J2313D01*
G01*
G36*
X165004Y50937D02*
G75*
G02*
X164157Y49470I-3159J846D01*
G01*
X165850D01*
G75*
G02*
X165004Y50937I2313J2313D01*
G01*
G37*
D02*
D76*
X76618Y206581D02*
G75*
G02*
X77503Y208113I3302J-885D01*
G01*
X75733D01*
G75*
G02*
X76618Y206581I-2417J-2417D01*
G01*
G36*
X76618Y206581D02*
G75*
G02*
X77503Y208113I3302J-885D01*
G01*
X75733D01*
G75*
G02*
X76618Y206581I-2417J-2417D01*
G01*
G37*
Y209844D02*
Y194726D01*
X85250Y186094D01*
X130250D01*
X137750Y178594D01*
X148803D01*
X153803Y173594D01*
X187750D01*
X191500Y177344D01*
Y182970D01*
X98516Y103811D02*
G75*
G03*
X94391Y101430I2381J-8889D01*
G01*
G75*
G03*
Y106193I-1375J2381D01*
G01*
G75*
G03*
X98516Y103811I6507J6507D01*
G01*
G36*
X98516Y103811D02*
G75*
G03*
X94391Y101430I2381J-8889D01*
G01*
G75*
G03*
Y106193I-1375J2381D01*
G01*
G75*
G03*
X98516Y103811I6507J6507D01*
G01*
G37*
X106344Y171341D02*
X115053D01*
X121057Y177344D01*
X127750D01*
X134000Y171094D01*
X141303D01*
X151500Y160898D01*
Y151719D01*
X106344Y181341D02*
X129000D01*
X135496Y174844D01*
X146303D01*
X161500Y159648D01*
Y151719D01*
X106344Y191341D02*
X116303D01*
X117307Y192344D01*
X125053D01*
X112813Y171341D02*
G75*
G02*
X109438Y173289I1948J7272D01*
G01*
Y169392D01*
G75*
G02*
X112813Y171341I5323J-5323D01*
G01*
G36*
X112813Y171341D02*
G75*
G02*
X109438Y173289I1948J7272D01*
G01*
Y169392D01*
G75*
G02*
X112813Y171341I5323J-5323D01*
G01*
G37*
Y181341D02*
G75*
G02*
X109438Y183289I1948J7272D01*
G01*
Y179392D01*
G75*
G02*
X112813Y181341I5323J-5323D01*
G01*
G36*
X112813Y181341D02*
G75*
G02*
X109438Y183289I1948J7272D01*
G01*
Y179392D01*
G75*
G02*
X112813Y181341I5323J-5323D01*
G01*
G37*
Y191341D02*
G75*
G02*
X109438Y193289I1948J7272D01*
G01*
Y189392D01*
G75*
G02*
X112813Y191341I5323J-5323D01*
G01*
G36*
X112813Y191341D02*
G75*
G02*
X109438Y193289I1948J7272D01*
G01*
Y189392D01*
G75*
G02*
X112813Y191341I5323J-5323D01*
G01*
G37*
X113106Y103811D02*
G75*
G03*
X117231Y106193I-2381J8889D01*
G01*
G75*
G03*
Y101430I1375J-2381D01*
G01*
G75*
G03*
X113106Y103811I-6507J-6507D01*
G01*
G36*
X113106Y103811D02*
G75*
G03*
X117231Y106193I-2381J8889D01*
G01*
G75*
G03*
Y101430I1375J-2381D01*
G01*
G75*
G03*
X113106Y103811I-6507J-6507D01*
G01*
G37*
X118606D02*
X93016D01*
X120553Y192344D02*
G75*
G03*
X123928Y194293I-1948J7272D01*
G01*
G75*
G03*
Y190396I1125J-1948D01*
G01*
G75*
G03*
X120553Y192344I-5323J-5324D01*
G01*
G36*
X120553Y192344D02*
G75*
G03*
X123928Y194293I-1948J7272D01*
G01*
G75*
G03*
Y190396I1125J-1948D01*
G01*
G75*
G03*
X120553Y192344I-5323J-5324D01*
G01*
G37*
X128235Y169163D02*
G75*
G03*
X124471Y170171I-3764J-6520D01*
G01*
G75*
G03*
X127226Y172927I582J2173D01*
G01*
G75*
G03*
X128235Y169163I7528J0D01*
G01*
G36*
X128235Y169163D02*
G75*
G03*
X124471Y170171I-3764J-6520D01*
G01*
G75*
G03*
X127226Y172927I582J2173D01*
G01*
G75*
G03*
X128235Y169163I7528J0D01*
G01*
G37*
X141500Y151719D02*
Y163260D01*
X137553Y167207D01*
X130191D01*
X125053Y172344D01*
X151500Y154679D02*
G75*
G03*
X152782Y152459I4784J1282D01*
G01*
G75*
G03*
X150218I-1282J-740D01*
G01*
G75*
G03*
X151500Y154679I-3502J3502D01*
G01*
G36*
X151500Y154679D02*
G75*
G03*
X152782Y152459I4784J1282D01*
G01*
G75*
G03*
X150218I-1282J-740D01*
G01*
G75*
G03*
X151500Y154679I-3502J3502D01*
G01*
G37*
X161382Y209844D02*
X181618D01*
X161500Y154679D02*
G75*
G03*
X162782Y152459I4784J1282D01*
G01*
G75*
G03*
X160218I-1282J-740D01*
G01*
G75*
G03*
X161500Y154679I-3502J3502D01*
G01*
G36*
X161500Y154679D02*
G75*
G03*
X162782Y152459I4784J1282D01*
G01*
G75*
G03*
X160218I-1282J-740D01*
G01*
G75*
G03*
X161500Y154679I-3502J3502D01*
G01*
G37*
X165250Y96094D02*
Y102344D01*
Y107344D01*
X165539Y209844D02*
G75*
G02*
X161893Y211950I2105J7856D01*
G01*
Y207739D01*
G75*
G02*
X165539Y209844I5751J-5751D01*
G01*
G36*
X165539Y209844D02*
G75*
G02*
X161893Y211950I2105J7856D01*
G01*
Y207739D01*
G75*
G02*
X165539Y209844I5751J-5751D01*
G01*
G37*
X172750Y69844D02*
Y77344D01*
Y114844D02*
Y107344D01*
Y134844D02*
Y127344D01*
X177461Y209844D02*
G75*
G02*
X181107Y207739I-2105J-7855D01*
G01*
X181107Y211950D01*
G75*
G02*
X177461Y209844I-5751J5751D01*
G01*
G36*
X177461Y209844D02*
G75*
G02*
X181107Y207739I-2105J-7855D01*
G01*
X181107Y211950D01*
G75*
G02*
X177461Y209844I-5751J5751D01*
G01*
G37*
X184000Y102344D02*
X165250D01*
X185004Y53968D02*
G75*
G02*
X182407Y49470I-9691J2596D01*
G01*
X187600D01*
G75*
G02*
X185004Y53968I7094J7094D01*
G01*
G36*
X185004Y53968D02*
G75*
G02*
X182407Y49470I-9691J2596D01*
G01*
X187600D01*
G75*
G02*
X185004Y53968I7094J7094D01*
G01*
G37*
X191500Y58594D02*
X187750D01*
X185004Y55848D01*
Y31754D01*
X191500Y180010D02*
G75*
G03*
X190218Y182230I-4784J-1282D01*
G01*
G75*
G03*
X192782I1282J740D01*
G01*
G75*
G03*
X191500Y180010I3502J-3502D01*
G01*
G36*
X191500Y180010D02*
G75*
G03*
X190218Y182230I-4784J-1282D01*
G01*
G75*
G03*
X192782I1282J740D01*
G01*
G75*
G03*
X191500Y180010I3502J-3502D01*
G01*
G37*
X195004Y53968D02*
G75*
G02*
X192407Y49470I-9691J2596D01*
G01*
X197600D01*
G75*
G02*
X195004Y53968I7094J7094D01*
G01*
G36*
X195004Y53968D02*
G75*
G02*
X192407Y49470I-9691J2596D01*
G01*
X197600D01*
G75*
G02*
X195004Y53968I7094J7094D01*
G01*
G37*
X202750Y58594D02*
X197750D01*
X195004Y55848D01*
Y31754D01*
X205004Y53968D02*
G75*
G02*
X202407Y49470I-9691J2596D01*
G01*
X207600D01*
G75*
G02*
X205004Y53968I7094J7094D01*
G01*
G36*
X205004Y53968D02*
G75*
G02*
X202407Y49470I-9691J2596D01*
G01*
X207600D01*
G75*
G02*
X205004Y53968I7094J7094D01*
G01*
G37*
X212750Y58594D02*
X207750D01*
X205004Y55848D01*
Y31754D01*
X215004D02*
Y55848D01*
X217750Y58594D01*
X222750D01*
X215004Y53968D02*
G75*
G02*
X212407Y49470I-9691J2596D01*
G01*
X217600D01*
G75*
G02*
X215004Y53968I7094J7094D01*
G01*
G36*
X215004Y53968D02*
G75*
G02*
X212407Y49470I-9691J2596D01*
G01*
X217600D01*
G75*
G02*
X215004Y53968I7094J7094D01*
G01*
G37*
X216510Y139285D02*
G75*
G03*
X215185Y141580I-4944J-1325D01*
G01*
G75*
G03*
X217835I1325J765D01*
G01*
G75*
G03*
X216510Y139285I3619J-3619D01*
G01*
G36*
X216510Y139285D02*
G75*
G03*
X215185Y141580I-4944J-1325D01*
G01*
G75*
G03*
X217835I1325J765D01*
G01*
G75*
G03*
X216510Y139285I3619J-3619D01*
G01*
G37*
Y142344D02*
Y126301D01*
X205053Y114844D01*
X172750D01*
X221500Y151719D02*
Y172187D01*
X226657Y177344D01*
Y193457D01*
X221500Y154679D02*
G75*
G03*
X222782Y152459I4784J1282D01*
G01*
G75*
G03*
X220218I-1282J-740D01*
G01*
G75*
G03*
X221500Y154679I-3502J3502D01*
G01*
G36*
X221500Y154679D02*
G75*
G03*
X222782Y152459I4784J1282D01*
G01*
G75*
G03*
X220218I-1282J-740D01*
G01*
G75*
G03*
X221500Y154679I-3502J3502D01*
G01*
G37*
X225004Y31754D02*
Y56094D01*
X227504Y58594D01*
X230250D01*
X225004Y53968D02*
G75*
G02*
X222407Y49470I-9691J2596D01*
G01*
X227600D01*
G75*
G02*
X225004Y53968I7094J7094D01*
G01*
G36*
X225004Y53968D02*
G75*
G02*
X222407Y49470I-9691J2596D01*
G01*
X227600D01*
G75*
G02*
X225004Y53968I7094J7094D01*
G01*
G37*
X226657Y190031D02*
G75*
G03*
X225174Y192600I-5535J-1483D01*
G01*
G75*
G03*
X228141I1483J856D01*
G01*
G75*
G03*
X226657Y190031I4052J-4052D01*
G01*
G36*
X226657Y190031D02*
G75*
G03*
X225174Y192600I-5535J-1483D01*
G01*
G75*
G03*
X228141I1483J856D01*
G01*
G75*
G03*
X226657Y190031I4052J-4052D01*
G01*
G37*
X231382Y209844D02*
X251618D01*
X231500Y151719D02*
Y174844D01*
X234000Y177344D01*
X243843D01*
X246343Y179844D01*
Y193457D01*
X231500Y154679D02*
G75*
G03*
X232782Y152459I4784J1282D01*
G01*
G75*
G03*
X230218I-1282J-740D01*
G01*
G75*
G03*
X231500Y154679I-3502J3502D01*
G01*
G36*
X231500Y154679D02*
G75*
G03*
X232782Y152459I4784J1282D01*
G01*
G75*
G03*
X230218I-1282J-740D01*
G01*
G75*
G03*
X231500Y154679I-3502J3502D01*
G01*
G37*
X235004Y31754D02*
Y56094D01*
X237504Y58594D01*
X240250D01*
X235004Y53968D02*
G75*
G02*
X232407Y49470I-9691J2596D01*
G01*
X237600D01*
G75*
G02*
X235004Y53968I7094J7094D01*
G01*
G36*
X235004Y53968D02*
G75*
G02*
X232407Y49470I-9691J2596D01*
G01*
X237600D01*
G75*
G02*
X235004Y53968I7094J7094D01*
G01*
G37*
X235539Y209844D02*
G75*
G02*
X231893Y211950I2105J7856D01*
G01*
Y207739D01*
G75*
G02*
X235539Y209844I5751J-5751D01*
G01*
G36*
X235539Y209844D02*
G75*
G02*
X231893Y211950I2105J7856D01*
G01*
Y207739D01*
G75*
G02*
X235539Y209844I5751J-5751D01*
G01*
G37*
X245004Y31754D02*
Y55848D01*
X247750Y58594D01*
X245004Y53968D02*
G75*
G02*
X242407Y49470I-9691J2596D01*
G01*
X247600D01*
G75*
G02*
X245004Y53968I7094J7094D01*
G01*
G36*
X245004Y53968D02*
G75*
G02*
X242407Y49470I-9691J2596D01*
G01*
X247600D01*
G75*
G02*
X245004Y53968I7094J7094D01*
G01*
G37*
X246343Y190031D02*
G75*
G03*
X244859Y192600I-5535J-1483D01*
G01*
G75*
G03*
X247826I1483J856D01*
G01*
G75*
G03*
X246343Y190031I4052J-4052D01*
G01*
G36*
X246343Y190031D02*
G75*
G03*
X244859Y192600I-5535J-1483D01*
G01*
G75*
G03*
X247826I1483J856D01*
G01*
G75*
G03*
X246343Y190031I4052J-4052D01*
G01*
G37*
X247461Y209844D02*
G75*
G02*
X251107Y207739I-2105J-7855D01*
G01*
X251107Y211950D01*
G75*
G02*
X247461Y209844I-5751J5751D01*
G01*
G36*
X247461Y209844D02*
G75*
G02*
X251107Y207739I-2105J-7855D01*
G01*
X251107Y211950D01*
G75*
G02*
X247461Y209844I-5751J5751D01*
G01*
G37*
X255004Y31754D02*
Y56094D01*
X255250Y56341D01*
Y58594D01*
X255004Y53968D02*
G75*
G02*
X252407Y49470I-9691J2596D01*
G01*
X257600D01*
G75*
G02*
X255004Y53968I7094J7094D01*
G01*
G36*
X255004Y53968D02*
G75*
G02*
X252407Y49470I-9691J2596D01*
G01*
X257600D01*
G75*
G02*
X255004Y53968I7094J7094D01*
G01*
G37*
X265004D02*
G75*
G02*
X262407Y49470I-9691J2596D01*
G01*
X267600D01*
G75*
G02*
X265004Y53968I7094J7094D01*
G01*
G36*
X265004Y53968D02*
G75*
G02*
X262407Y49470I-9691J2596D01*
G01*
X267600D01*
G75*
G02*
X265004Y53968I7094J7094D01*
G01*
G37*
Y57344D02*
Y31754D01*
X275004Y53968D02*
G75*
G02*
X272407Y49470I-9691J2596D01*
G01*
X277600D01*
G75*
G02*
X275004Y53968I7094J7094D01*
G01*
G36*
X275004Y53968D02*
G75*
G02*
X272407Y49470I-9691J2596D01*
G01*
X277600D01*
G75*
G02*
X275004Y53968I7094J7094D01*
G01*
G37*
Y57344D02*
Y31754D01*
X285004Y53968D02*
G75*
G02*
X282407Y49470I-9691J2596D01*
G01*
X287600D01*
G75*
G02*
X285004Y53968I7094J7094D01*
G01*
G36*
X285004Y53968D02*
G75*
G02*
X282407Y49470I-9691J2596D01*
G01*
X287600D01*
G75*
G02*
X285004Y53968I7094J7094D01*
G01*
G37*
Y56094D02*
Y31754D01*
X295004D02*
Y55848D01*
Y53968D02*
G75*
G02*
X292407Y49470I-9691J2596D01*
G01*
X297600D01*
G75*
G02*
X295004Y53968I7094J7094D01*
G01*
G36*
X295004Y53968D02*
G75*
G02*
X292407Y49470I-9691J2596D01*
G01*
X297600D01*
G75*
G02*
X295004Y53968I7094J7094D01*
G01*
G37*
X301382Y209844D02*
X321618D01*
X305539D02*
G75*
G02*
X301893Y211950I2105J7856D01*
G01*
Y207739D01*
G75*
G02*
X305539Y209844I5751J-5751D01*
G01*
G36*
X305539Y209844D02*
G75*
G02*
X301893Y211950I2105J7856D01*
G01*
Y207739D01*
G75*
G02*
X305539Y209844I5751J-5751D01*
G01*
G37*
X315004Y53968D02*
G75*
G02*
X312407Y49470I-9691J2596D01*
G01*
X317600D01*
G75*
G02*
X315004Y53968I7094J7094D01*
G01*
G36*
X315004Y53968D02*
G75*
G02*
X312407Y49470I-9691J2596D01*
G01*
X317600D01*
G75*
G02*
X315004Y53968I7094J7094D01*
G01*
G37*
X317461Y209844D02*
G75*
G02*
X321107Y207739I-2105J-7855D01*
G01*
X321107Y211950D01*
G75*
G02*
X317461Y209844I-5751J5751D01*
G01*
G36*
X317461Y209844D02*
G75*
G02*
X321107Y207739I-2105J-7855D01*
G01*
X321107Y211950D01*
G75*
G02*
X317461Y209844I-5751J5751D01*
G01*
G37*
X322553Y64707D02*
X315004Y57157D01*
Y31754D01*
X365004D02*
Y56341D01*
X361500Y59844D01*
X365004Y53968D02*
G75*
G02*
X362407Y49470I-9691J2596D01*
G01*
X367600D01*
G75*
G02*
X365004Y53968I7094J7094D01*
G01*
G36*
X365004Y53968D02*
G75*
G02*
X362407Y49470I-9691J2596D01*
G01*
X367600D01*
G75*
G02*
X365004Y53968I7094J7094D01*
G01*
G37*
X371382Y209844D02*
X391618D01*
X375004Y31754D02*
Y55848D01*
X377750Y58594D01*
X375004Y53968D02*
G75*
G02*
X372407Y49470I-9691J2596D01*
G01*
X377600D01*
G75*
G02*
X375004Y53968I7094J7094D01*
G01*
G36*
X375004Y53968D02*
G75*
G02*
X372407Y49470I-9691J2596D01*
G01*
X377600D01*
G75*
G02*
X375004Y53968I7094J7094D01*
G01*
G37*
X375539Y209844D02*
G75*
G02*
X371893Y211950I2105J7856D01*
G01*
Y207739D01*
G75*
G02*
X375539Y209844I5751J-5751D01*
G01*
G36*
X375539Y209844D02*
G75*
G02*
X371893Y211950I2105J7856D01*
G01*
Y207739D01*
G75*
G02*
X375539Y209844I5751J-5751D01*
G01*
G37*
X387461D02*
G75*
G02*
X391107Y207739I-2105J-7855D01*
G01*
X391107Y211950D01*
G75*
G02*
X387461Y209844I-5751J5751D01*
G01*
G36*
X387461Y209844D02*
G75*
G02*
X391107Y207739I-2105J-7855D01*
G01*
X391107Y211950D01*
G75*
G02*
X387461Y209844I-5751J5751D01*
G01*
G37*
X387750Y88594D02*
Y79844D01*
X410250Y88594D02*
Y79844D01*
X423803Y79707D02*
X417750D01*
Y79844D01*
D02*
D77*
X40250Y188594D03*
Y211094D03*
X41500Y107344D03*
Y132344D03*
X52750Y153594D03*
Y177344D03*
X61500Y153594D03*
Y177344D03*
X62750Y211094D03*
X71500Y107344D03*
X79000Y62344D03*
Y89844D03*
X97750Y114707D03*
Y122207D03*
X105250Y114707D03*
Y122207D03*
X107750Y62344D03*
Y88594D03*
X112750Y114707D03*
Y122207D03*
X134000Y59844D03*
Y68594D03*
Y78594D03*
X141303Y105957D03*
Y113594D03*
Y124707D03*
X156500Y189844D03*
X176500D03*
X177750Y82344D03*
X187553Y65957D03*
X191500Y121094D03*
Y131094D03*
X196500Y189844D03*
X198803Y65957D03*
X206500Y173594D03*
X211500Y137344D03*
X216303Y65957D03*
X216500Y173594D03*
X221500Y137344D03*
X231303Y75957D03*
X231500Y137344D03*
X251500D03*
X261500Y87344D03*
Y137344D03*
X266500Y189844D03*
X271500Y87344D03*
Y137344D03*
X291500D03*
X295250Y198594D03*
X305250Y56094D03*
X316303Y179707D03*
X325250Y56094D03*
X331500Y103594D03*
Y197344D03*
X336303Y179707D03*
X341500Y131094D03*
X345250Y56094D03*
X350250Y103594D03*
X356303Y179707D03*
X366500Y132344D03*
Y198594D03*
X367553Y103457D03*
X376500Y187344D03*
X386500Y68594D03*
Y103594D03*
X391500Y162344D03*
Y187344D03*
X407750Y103594D03*
Y132344D03*
X411500Y68594D03*
X424000Y209844D03*
X425053Y68457D03*
X426500Y103594D03*
Y132344D03*
Y162344D03*
Y187344D03*
D02*
D78*
X165004Y61094D03*
X175004D03*
X366500Y189844D03*
D02*
D79*
X165250Y77344D02*
X159000D01*
X165250Y88594D02*
X158803D01*
X165250Y134844D02*
X159000D01*
X172750Y77344D02*
X186476D01*
X186510Y77378D01*
Y82344D01*
X172750Y96094D02*
Y88594D01*
Y134844D02*
X204000D01*
X206500Y137344D01*
X206510D01*
Y142344D01*
Y82344D02*
Y93585D01*
X204000Y96094D01*
X172750D01*
D02*
D80*
X158803Y88594D03*
X159000Y77344D03*
Y134844D03*
X171500Y157344D03*
X181500Y161094D03*
X184000Y102344D03*
Y119844D03*
X191500Y58594D03*
X195250Y161094D03*
X197750Y157344D03*
X202750Y58594D03*
X212750D03*
X222750D03*
X230250D03*
X240250D03*
X241500Y164844D03*
X247750Y58594D03*
X251500Y167344D03*
X255250Y58594D03*
X260250D03*
X261500Y169844D03*
X269000Y58594D03*
X271500Y157344D03*
X275250Y61094D03*
X282553Y113594D03*
X285053Y115957D03*
X285250Y66094D03*
X290053Y77344D03*
X290250Y63594D03*
X291303Y118457D03*
X310053Y72207D03*
X315053Y69707D03*
X318803Y67207D03*
X322553Y64707D03*
X343803Y75957D03*
X381303Y88594D03*
X400053Y64844D03*
X405053Y88594D03*
X423803Y79707D03*
X424000Y88594D03*
D02*
D81*
X135004Y31754D03*
X145004D03*
X155004D03*
X175004D03*
X185004D03*
X195004D03*
X205004D03*
X215004D03*
X225004D03*
X235004D03*
X245004D03*
X255004D03*
X265004D03*
X275004D03*
X285004D03*
X295004D03*
X305004D03*
X315004D03*
X325004D03*
X335004D03*
X345004D03*
X355004D03*
X365004D03*
X375004D03*
D02*
D82*
X165004Y34707D03*
D02*
D83*
X186510Y82344D03*
D02*
D84*
Y142344D03*
X196510Y82344D03*
Y142344D03*
X206510Y82344D03*
Y142344D03*
X216510Y82344D03*
Y142344D03*
X226510Y82344D03*
Y142344D03*
X236510Y82344D03*
Y142344D03*
X246510Y82344D03*
Y142344D03*
X256510Y82344D03*
Y142344D03*
X266510Y82344D03*
Y142344D03*
X276510Y82344D03*
Y142344D03*
X286510Y82344D03*
Y142344D03*
X296510Y82344D03*
Y142344D03*
X306510Y82344D03*
Y142344D03*
X316510Y82344D03*
Y142344D03*
X326510Y82344D03*
Y142344D03*
X336510Y82344D03*
Y142344D03*
D02*
D85*
X166750Y69844D03*
D02*
D86*
X165250D03*
D02*
D85*
X166750Y77344D03*
D02*
D86*
X165250D03*
D02*
D85*
X166750Y88594D03*
D02*
D86*
X165250D03*
D02*
D85*
X166750Y96094D03*
D02*
D86*
X165250D03*
D02*
D85*
X166750Y107344D03*
D02*
D86*
X165250D03*
D02*
D85*
X166750Y114844D03*
D02*
D86*
X165250D03*
D02*
D85*
X166750Y127344D03*
D02*
D86*
X165250D03*
D02*
D85*
X166750Y134844D03*
D02*
D86*
X165250D03*
D02*
D85*
X389250Y79844D03*
D02*
D86*
X387750D03*
D02*
D85*
X389250Y88594D03*
D02*
D86*
X387750D03*
D02*
D85*
X411750Y79844D03*
D02*
D86*
X410250D03*
D02*
D85*
X411750Y88594D03*
D02*
D86*
X410250D03*
X125053Y172344D03*
Y192344D03*
X131500Y130957D03*
Y140957D03*
X145250Y196094D03*
X151500Y130957D03*
Y140957D03*
X165250Y196094D03*
X191500D03*
X211500D03*
X261500D03*
X281500D03*
X396500D03*
X416500D03*
D02*
D87*
X171250Y69844D03*
D02*
D86*
X172750D03*
D02*
D87*
X171250Y77344D03*
D02*
D86*
X172750D03*
D02*
D87*
X171250Y88594D03*
D02*
D86*
X172750D03*
D02*
D87*
X171250Y96094D03*
D02*
D86*
X172750D03*
D02*
D87*
X171250Y107344D03*
D02*
D86*
X172750D03*
D02*
D87*
X171250Y114844D03*
D02*
D86*
X172750D03*
D02*
D87*
X171250Y127344D03*
D02*
D86*
X172750D03*
D02*
D87*
X171250Y134844D03*
D02*
D86*
X172750D03*
D02*
D87*
X393750Y79844D03*
D02*
D86*
X395250D03*
D02*
D87*
X393750Y88594D03*
D02*
D86*
X395250D03*
D02*
D87*
X416250Y79844D03*
D02*
D86*
X417750D03*
D02*
D87*
X416250Y88594D03*
D02*
D86*
X417750D03*
D02*
D88*
X169000Y69844D03*
Y88594D03*
Y114844D03*
Y134844D03*
X391500Y88594D03*
D02*
D89*
X141500Y151719D03*
D02*
D90*
Y182970D03*
X151500Y151719D03*
Y182970D03*
X161500Y151719D03*
Y182970D03*
X171500Y151719D03*
Y182970D03*
X181500Y151719D03*
Y182970D03*
X191500Y151719D03*
Y182970D03*
X201500Y151719D03*
Y182970D03*
X211500Y151719D03*
Y182970D03*
X221500Y151719D03*
Y182970D03*
X231500Y151719D03*
Y182970D03*
X241500Y151719D03*
Y182970D03*
X251500Y151719D03*
Y182970D03*
X261500Y151719D03*
Y182970D03*
X271500Y151719D03*
Y182970D03*
D02*
D91*
X226657Y193457D03*
X236500D03*
X246343D03*
D02*
D92*
X291500Y151715D03*
X361500Y112344D03*
D02*
D93*
X291500Y182974D03*
X301500Y151715D03*
Y182974D03*
X311500Y151715D03*
Y182974D03*
X321500Y151715D03*
Y182974D03*
X331500Y151715D03*
Y182974D03*
X341500Y151715D03*
Y182974D03*
X351500Y151715D03*
Y182974D03*
X361500Y142344D03*
Y151715D03*
Y182974D03*
X371500Y112344D03*
Y142344D03*
Y151715D03*
Y182974D03*
X381500Y112344D03*
Y142344D03*
Y151715D03*
Y182974D03*
X391500Y112344D03*
Y142344D03*
X401500Y112344D03*
Y142344D03*
X411500Y112344D03*
Y142344D03*
X421500Y112344D03*
Y142344D03*
D02*
D94*
X93016Y86094D03*
Y103811D03*
X118606Y86094D03*
Y103811D03*
D02*
D95*
X106344Y141341D03*
Y151341D03*
Y161341D03*
Y171341D03*
Y181341D03*
Y191341D03*
D02*
D96*
X56344Y141341D03*
Y191341D03*
X66344Y141341D03*
Y191341D03*
D02*
D99*
X76618Y209844D03*
X81539D03*
X86461D03*
X91382D03*
X111618D03*
X116539D03*
X121461D03*
X126382D03*
X146618D03*
X151539D03*
X156461D03*
X161382D03*
X181618D03*
X186539D03*
X191461D03*
X196382D03*
X216618D03*
X221539D03*
X226461D03*
X231382D03*
X251618D03*
X256539D03*
X261461D03*
X266382D03*
X286618D03*
X291539D03*
X296461D03*
X301382D03*
X321618D03*
X326539D03*
X331461D03*
X336382D03*
X356618D03*
X361539D03*
X366461D03*
X371382D03*
X391618D03*
X396539D03*
X401461D03*
X406382D03*
D02*
D100*
X57012Y118457D03*
X151500D03*
D02*
D131*
X125053Y151341D03*
Y161341D03*
X0Y0D02*
M02*
