G04 DesignSpark PCB PRO Gerber Version 10.0 Build 5299*
G04 #@! TF.Part,Single*
G04 #@! TF.FileFunction,Legend,Top*
G04 #@! TF.FilePolarity,Positive*
%FSLAX35Y35*%
%MOIN*%
%ADD25C,0.00197*%
%ADD27C,0.00394*%
%ADD19C,0.00500*%
%ADD29C,0.00591*%
%ADD28C,0.00709*%
%ADD72C,0.00787*%
%ADD130C,0.00984*%
%ADD74C,0.01000*%
%ADD73C,0.01200*%
G04 #@! TD.AperFunction*
X0Y0D02*
D02*
D19*
X40250Y134844D02*
Y197837D01*
X115053D01*
Y134844D01*
X40250D01*
Y148841D02*
Y183841D01*
X33844D01*
Y148841D01*
X40250D01*
X43803Y203282D02*
Y200470D01*
X44116Y199844D01*
X44741Y199532D01*
X45991D01*
X46616Y199844D01*
X46928Y200470D01*
Y203282D01*
X49428Y199532D02*
X50678D01*
X50053D02*
Y203282D01*
X49428Y202657D01*
X46303Y168144D02*
X47866Y171894D01*
X49428Y168144D01*
X46928Y169707D02*
X48803D01*
X51303Y168144D02*
Y171894D01*
X54428D01*
X53803Y170019D02*
X51303D01*
Y168144D02*
X54428D01*
X56303Y169394D02*
X58803D01*
X49428Y162769D02*
X49116Y162457D01*
X48491Y162144D01*
X47553D01*
X46928Y162457D01*
X46616Y162769D01*
X46303Y163394D01*
Y164644D01*
X46616Y165269D01*
X46928Y165582D01*
X47553Y165894D01*
X48491D01*
X49116Y165582D01*
X49428Y165269D01*
X51303Y162144D02*
Y165894D01*
Y164019D02*
X54428D01*
Y162144D02*
Y165894D01*
X56616Y162457D02*
X57241Y162144D01*
X57866D01*
X58491Y162457D01*
X58803Y163082D01*
X58491Y163707D01*
X57866Y164019D01*
X57241D01*
X57866D02*
X58491Y164332D01*
X58803Y164957D01*
X58491Y165582D01*
X57866Y165894D01*
X57241D01*
X56616Y165582D01*
X62866Y162144D02*
Y165894D01*
X61303Y163394D01*
X63803D01*
X66616Y162457D02*
X67241Y162144D01*
X67866D01*
X68491Y162457D01*
X68803Y163082D01*
Y164957D01*
X68491Y165582D01*
X67866Y165894D01*
X67241D01*
X66616Y165582D01*
X66303Y164957D01*
Y163082D01*
X66616Y162457D01*
X68491Y165582D01*
X71303Y162144D02*
Y165894D01*
X74428D01*
X73803Y164019D02*
X71303D01*
Y162144D02*
X74428D01*
X76303Y163394D02*
X78803D01*
X47866Y156144D02*
Y159894D01*
X46303D02*
X49428D01*
X52866Y156144D02*
Y158019D01*
X51303Y159894D01*
X52866Y158019D02*
X54428Y159894D01*
X56303Y156144D02*
Y159894D01*
X58491D01*
X59116Y159582D01*
X59428Y158957D01*
X59116Y158332D01*
X58491Y158019D01*
X56303D01*
X61303Y156144D02*
Y159894D01*
X64428D01*
X63803Y158019D02*
X61303D01*
Y156144D02*
X64428D01*
X69428Y156769D02*
X69116Y156457D01*
X68491Y156144D01*
X67553D01*
X66928Y156457D01*
X66616Y156769D01*
X66303Y157394D01*
Y158644D01*
X66616Y159269D01*
X66928Y159582D01*
X67553Y159894D01*
X68491D01*
X69116Y159582D01*
X69428Y159269D01*
X65250Y212032D02*
Y208282D01*
X68375D01*
X70875D02*
X72125D01*
X71500D02*
Y212032D01*
X70875Y211407D01*
X71932Y214296D02*
G75*
G03*
X74413I1240J0D01*
G01*
G75*
G03*
X71932I-1240J0D01*
G01*
G36*
X71932Y214296D02*
G75*
G03*
X74413I1240J0D01*
G01*
G75*
G03*
X71932I-1240J0D01*
G01*
G37*
X75053Y120506D02*
Y124256D01*
X77241D01*
X77866Y123944D01*
X78178Y123319D01*
X77866Y122694D01*
X77241Y122381D01*
X75053D01*
X77241D02*
X78178Y120506D01*
X80678D02*
X81928D01*
X81303D02*
Y124256D01*
X80678Y123631D01*
X80991Y199394D02*
X80366Y200332D01*
Y202519D01*
X80991Y203144D01*
X83803Y200644D02*
Y201894D01*
X84116Y202519D01*
X84428Y202832D01*
X85053Y203144D01*
X85678D01*
X86303Y202832D01*
X86616Y202519D01*
X86928Y201894D01*
Y200644D01*
X86616Y200019D01*
X86303Y199707D01*
X85678Y199394D01*
X85053D01*
X84428Y199707D01*
X84116Y200019D01*
X83803Y200644D01*
X88803Y201894D02*
Y198457D01*
Y200332D02*
X89116Y199707D01*
X89741Y199394D01*
X90366D01*
X90991Y199707D01*
X91303Y200332D01*
Y200957D01*
X90991Y201582D01*
X90366Y201894D01*
X89741D01*
X89116Y201582D01*
X88803Y200957D01*
Y200332D01*
X94324Y201894D02*
X95782D01*
X95053Y202519D02*
Y199707D01*
X95366Y199394D01*
X95678D01*
X95991Y199707D01*
X100053Y199394D02*
Y201894D01*
Y202832D02*
X103803Y200332D02*
X104116Y199707D01*
X104741Y199394D01*
X105366D01*
X105991Y199707D01*
X106303Y200332D01*
Y200957D01*
X105991Y201582D01*
X105366Y201894D01*
X104741D01*
X104116Y201582D01*
X103803Y200957D01*
Y200332D01*
X108803Y199394D02*
Y201894D01*
Y200957D02*
X109116Y201582D01*
X109741Y201894D01*
X110366D01*
X110991Y201582D01*
X111303Y200957D01*
Y199394D01*
X114741D02*
X115366Y200332D01*
Y202519D01*
X114741Y203144D01*
X79000Y94220D02*
X79313Y93594D01*
X79937Y93282D01*
X81187D01*
X81813Y93594D01*
X82125Y94220D01*
X81813Y94844D01*
X81187Y95157D01*
X79937D01*
X79313Y95470D01*
X79000Y96094D01*
X79313Y96720D01*
X79937Y97032D01*
X81187D01*
X81813Y96720D01*
X82125Y96094D01*
X84000Y97032D02*
X84313Y93282D01*
X85563Y95157D01*
X86813Y93282D01*
X87125Y97032D01*
X89625Y93282D02*
X90875D01*
X90250D02*
Y97032D01*
X89625Y96407D01*
X85053Y190782D02*
Y194532D01*
X87241D01*
X87866Y194220D01*
X88178Y193594D01*
X87866Y192970D01*
X87241Y192657D01*
X85053D01*
X87241D02*
X88178Y190782D01*
X91616D02*
Y194532D01*
X90053D02*
X93178D01*
X95053Y191720D02*
X95366Y191094D01*
X95991Y190782D01*
X97241D01*
X97866Y191094D01*
X98178Y191720D01*
X97866Y192344D01*
X97241Y192657D01*
X95991D01*
X95366Y192970D01*
X95053Y193594D01*
X95366Y194220D01*
X95991Y194532D01*
X97241D01*
X97866Y194220D01*
X98178Y193594D01*
X85053Y180782D02*
Y184532D01*
X87241D01*
X87866Y184220D01*
X88178Y183594D01*
X87866Y182970D01*
X87241Y182657D01*
X85053D01*
X87241D02*
X88178Y180782D01*
X90053D02*
X93178Y184532D01*
X90053D02*
X93178Y180782D01*
X95053D02*
Y184532D01*
X96928D01*
X97553Y184220D01*
X97866Y183907D01*
X98178Y183282D01*
Y182032D01*
X97866Y181407D01*
X97553Y181094D01*
X96928Y180782D01*
X95053D01*
X86616Y170782D02*
Y174532D01*
X85053D02*
X88178D01*
X90053Y170782D02*
X93178Y174532D01*
X90053D02*
X93178Y170782D01*
X95053D02*
Y174532D01*
X96928D01*
X97553Y174220D01*
X97866Y173907D01*
X98178Y173282D01*
Y172032D01*
X97866Y171407D01*
X97553Y171094D01*
X96928Y170782D01*
X95053D01*
X85053Y164532D02*
X86616Y160782D01*
X88178Y164532D01*
X93178Y161407D02*
X92866Y161094D01*
X92241Y160782D01*
X91303D01*
X90678Y161094D01*
X90366Y161407D01*
X90053Y162032D01*
Y163282D01*
X90366Y163907D01*
X90678Y164220D01*
X91303Y164532D01*
X92241D01*
X92866Y164220D01*
X93178Y163907D01*
X98178Y161407D02*
X97866Y161094D01*
X97241Y160782D01*
X96303D01*
X95678Y161094D01*
X95366Y161407D01*
X95053Y162032D01*
Y163282D01*
X95366Y163907D01*
X95678Y164220D01*
X96303Y164532D01*
X97241D01*
X97866Y164220D01*
X98178Y163907D01*
X88178Y151407D02*
X87866Y151094D01*
X87241Y150782D01*
X86303D01*
X85678Y151094D01*
X85366Y151407D01*
X85053Y152032D01*
Y153282D01*
X85366Y153907D01*
X85678Y154220D01*
X86303Y154532D01*
X87241D01*
X87866Y154220D01*
X88178Y153907D01*
X91616Y150782D02*
Y154532D01*
X90053D02*
X93178D01*
X95053Y151720D02*
X95366Y151094D01*
X95991Y150782D01*
X97241D01*
X97866Y151094D01*
X98178Y151720D01*
X97866Y152344D01*
X97241Y152657D01*
X95991D01*
X95366Y152970D01*
X95053Y153594D01*
X95366Y154220D01*
X95991Y154532D01*
X97241D01*
X97866Y154220D01*
X98178Y153594D01*
X87241Y142344D02*
X88178D01*
Y142032D01*
X87866Y141407D01*
X87553Y141094D01*
X86928Y140782D01*
X86303D01*
X85678Y141094D01*
X85366Y141407D01*
X85053Y142032D01*
Y143282D01*
X85366Y143907D01*
X85678Y144220D01*
X86303Y144532D01*
X86928D01*
X87553Y144220D01*
X87866Y143907D01*
X88178Y143282D01*
X90053Y140782D02*
Y144532D01*
X93178Y140782D01*
Y144532D01*
X95053Y140782D02*
Y144532D01*
X96928D01*
X97553Y144220D01*
X97866Y143907D01*
X98178Y143282D01*
Y142032D01*
X97866Y141407D01*
X97553Y141094D01*
X96928Y140782D01*
X95053D01*
X100250Y212032D02*
Y208282D01*
X103375D01*
X107750D02*
X105250D01*
X107437Y210470D01*
X107750Y211094D01*
X107437Y211720D01*
X106813Y212032D01*
X105875D01*
X105250Y211720D01*
X100398Y87079D02*
X111224D01*
G75*
G03*
X114177Y90031I0J2953D01*
G01*
Y99874D01*
G75*
G03*
X111224Y102827I-2953J0D01*
G01*
X100398D01*
G75*
G03*
X97445Y99874I0J-2953D01*
G01*
Y90031D01*
G75*
G03*
X100398Y87079I2953J0D01*
G01*
X105811Y100839D02*
G75*
G03*
Y89028I0J-5906D01*
G01*
G75*
G03*
Y100839I0J5906D01*
G01*
X106932Y214296D02*
G75*
G03*
X109413I1240J0D01*
G01*
G75*
G03*
X106932I-1240J0D01*
G01*
G36*
X106932Y214296D02*
G75*
G03*
X109413I1240J0D01*
G01*
G75*
G03*
X106932I-1240J0D01*
G01*
G37*
X117553Y189844D02*
G75*
G03*
Y194044I0J2100D01*
G01*
G75*
G03*
Y189844I0J-2100D01*
G01*
G36*
X117553Y189844D02*
G75*
G03*
Y194044I0J2100D01*
G01*
G75*
G03*
Y189844I0J-2100D01*
G01*
G37*
X118803Y129394D02*
Y133144D01*
X120991D01*
X121616Y132832D01*
X121928Y132207D01*
X121616Y131582D01*
X120991Y131269D01*
X118803D01*
X120991D02*
X121928Y129394D01*
X126303D02*
X123803D01*
X125991Y131582D01*
X126303Y132207D01*
X125991Y132832D01*
X125366Y133144D01*
X124428D01*
X123803Y132832D01*
X121928Y140019D02*
X121616Y139707D01*
X120991Y139394D01*
X120053D01*
X119428Y139707D01*
X119116Y140019D01*
X118803Y140644D01*
Y141894D01*
X119116Y142519D01*
X119428Y142832D01*
X120053Y143144D01*
X120991D01*
X121616Y142832D01*
X121928Y142519D01*
X126303Y139394D02*
X123803D01*
X125991Y141582D01*
X126303Y142207D01*
X125991Y142832D01*
X125366Y143144D01*
X124428D01*
X123803Y142832D01*
X125053Y181094D02*
Y177094D01*
Y187594D02*
Y183594D01*
X128053Y181094D02*
X122053D01*
X128053Y183594D02*
X122053D01*
X131928Y176269D02*
X131616Y175957D01*
X130991Y175644D01*
X130053D01*
X129428Y175957D01*
X129116Y176269D01*
X128803Y176894D01*
Y178144D01*
X129116Y178769D01*
X129428Y179082D01*
X130053Y179394D01*
X130991D01*
X131616Y179082D01*
X131928Y178769D01*
X134428Y175644D02*
X135678D01*
X135053D02*
Y179394D01*
X134428Y178769D01*
X131500Y9707D02*
G75*
G02*
X126220Y14987I0J5280D01*
G01*
Y57344D01*
X80041D01*
G75*
G02*
X75041Y62344I0J5000D01*
G01*
Y95258D01*
G75*
G03*
X70041Y100258I-5000J0D01*
G01*
X40054D01*
G75*
G02*
X33804Y106508I0J6250D01*
G01*
Y211094D01*
G75*
G02*
X40054Y217344I6250J0D01*
G01*
X425054D01*
G75*
G02*
X431304Y211094I0J-6250D01*
G01*
Y62344D01*
G75*
G02*
X426304Y57344I-5000J0D01*
G01*
X383858D01*
Y15204D01*
G75*
G02*
X378361Y9707I-5497J0D01*
G01*
X131500D01*
X137125Y198907D02*
X136813Y198594D01*
X136187Y198282D01*
X135250D01*
X134625Y198594D01*
X134313Y198907D01*
X134000Y199532D01*
Y200782D01*
X134313Y201407D01*
X134625Y201720D01*
X135250Y202032D01*
X136187D01*
X136813Y201720D01*
X137125Y201407D01*
X139313Y198594D02*
X139937Y198282D01*
X140563D01*
X141187Y198594D01*
X141500Y199220D01*
X141187Y199844D01*
X140563Y200157D01*
X139937D01*
X140563D02*
X141187Y200470D01*
X141500Y201094D01*
X141187Y201720D01*
X140563Y202032D01*
X139937D01*
X139313Y201720D01*
X135250Y212032D02*
Y208282D01*
X138375D01*
X140563Y208594D02*
X141187Y208282D01*
X141813D01*
X142437Y208594D01*
X142750Y209220D01*
X142437Y209844D01*
X141813Y210157D01*
X141187D01*
X141813D02*
X142437Y210470D01*
X142750Y211094D01*
X142437Y211720D01*
X141813Y212032D01*
X141187D01*
X140563Y211720D01*
X136500Y128457D02*
X146500D01*
Y133457D01*
X136500D01*
Y128457D01*
Y130957D02*
X135250D01*
X137750Y163594D02*
X145250Y156094D01*
X138204D02*
X274989D01*
Y178594D01*
X138204D01*
Y156094D01*
X139937Y188282D02*
X141187D01*
X140563D02*
Y192032D01*
X139937D02*
X141187D01*
X147125Y188907D02*
X146813Y188594D01*
X146187Y188282D01*
X145250D01*
X144625Y188594D01*
X144313Y188907D01*
X144000Y189532D01*
Y190782D01*
X144313Y191407D01*
X144625Y191720D01*
X145250Y192032D01*
X146187D01*
X146813Y191720D01*
X147125Y191407D01*
X149625Y188282D02*
X150875D01*
X150250D02*
Y192032D01*
X149625Y191407D01*
X140250Y137957D02*
Y143957D01*
Y140957D02*
X136250D01*
X141932Y214296D02*
G75*
G03*
X144413I1240J0D01*
G01*
G75*
G03*
X141932I-1240J0D01*
G01*
G36*
X141932Y214296D02*
G75*
G03*
X144413I1240J0D01*
G01*
G75*
G03*
X141932I-1240J0D01*
G01*
G37*
X142750Y137957D02*
Y143957D01*
X146500Y130957D02*
X147750D01*
X146750Y140957D02*
X142750D01*
X150000Y196094D02*
X154000D01*
Y199094D02*
Y193094D01*
X156500Y196094D02*
X160500D01*
X156500Y199094D02*
Y193094D01*
X170250Y212032D02*
Y208282D01*
X173375D01*
X176813D02*
Y212032D01*
X175250Y209532D01*
X177750D01*
X176932Y214296D02*
G75*
G03*
X179413I1240J0D01*
G01*
G75*
G03*
X176932I-1240J0D01*
G01*
G36*
X176932Y214296D02*
G75*
G03*
X179413I1240J0D01*
G01*
G75*
G03*
X176932I-1240J0D01*
G01*
G37*
X180875Y198907D02*
X180563Y198594D01*
X179937Y198282D01*
X179000D01*
X178375Y198594D01*
X178063Y198907D01*
X177750Y199532D01*
Y200782D01*
X178063Y201407D01*
X178375Y201720D01*
X179000Y202032D01*
X179937D01*
X180563Y201720D01*
X180875Y201407D01*
X184313Y198282D02*
Y202032D01*
X182750Y199532D01*
X185250D01*
X200250Y193094D02*
Y199094D01*
Y196094D02*
X196250D01*
X202750Y193094D02*
Y199094D01*
X204000Y212032D02*
Y208282D01*
X207125D01*
X209000Y208594D02*
X209625Y208282D01*
X210563D01*
X211187Y208594D01*
X211500Y209220D01*
Y209532D01*
X211187Y210157D01*
X210563Y210470D01*
X209000D01*
Y212032D01*
X211500D01*
X206750Y196094D02*
X202750D01*
X211932Y214296D02*
G75*
G03*
X214413I1240J0D01*
G01*
G75*
G03*
X211932I-1240J0D01*
G01*
G36*
X211932Y214296D02*
G75*
G03*
X214413I1240J0D01*
G01*
G75*
G03*
X211932I-1240J0D01*
G01*
G37*
X239000Y212032D02*
Y208282D01*
X242125D01*
X244000Y209220D02*
X244313Y209844D01*
X244937Y210157D01*
X245563D01*
X246187Y209844D01*
X246500Y209220D01*
X246187Y208594D01*
X245563Y208282D01*
X244937D01*
X244313Y208594D01*
X244000Y209220D01*
Y210157D01*
X244313Y211094D01*
X244937Y211720D01*
X245563Y212032D01*
X246932Y214296D02*
G75*
G03*
X249413I1240J0D01*
G01*
G75*
G03*
X246932I-1240J0D01*
G01*
G36*
X246932Y214296D02*
G75*
G03*
X249413I1240J0D01*
G01*
G75*
G03*
X246932I-1240J0D01*
G01*
G37*
X255129Y55139D02*
X254817Y54827D01*
X254191Y54514D01*
X253254D01*
X252629Y54827D01*
X252317Y55139D01*
X252004Y55764D01*
Y57014D01*
X252317Y57639D01*
X252629Y57952D01*
X253254Y58264D01*
X254191D01*
X254817Y57952D01*
X255129Y57639D01*
X257004Y55764D02*
Y57014D01*
X257317Y57639D01*
X257629Y57952D01*
X258254Y58264D01*
X258879D01*
X259504Y57952D01*
X259817Y57639D01*
X260129Y57014D01*
Y55764D01*
X259817Y55139D01*
X259504Y54827D01*
X258879Y54514D01*
X258254D01*
X257629Y54827D01*
X257317Y55139D01*
X257004Y55764D01*
X262004Y54514D02*
Y58264D01*
X265129Y54514D01*
Y58264D01*
X267004Y54514D02*
Y58264D01*
X270129Y54514D01*
Y58264D01*
X272629Y54514D02*
X273879D01*
X273254D02*
Y58264D01*
X272629Y57639D01*
X255563Y188144D02*
Y190019D01*
X254000Y191894D01*
X255563Y190019D02*
X257125Y191894D01*
X259625Y188144D02*
X260875D01*
X260250D02*
Y191894D01*
X259625Y191269D01*
X270250Y193094D02*
Y199094D01*
Y196094D02*
X266250D01*
X272750Y193094D02*
Y199094D01*
X274000Y212032D02*
Y208282D01*
X277125D01*
X279000D02*
X281500Y212032D01*
X279000D01*
X276750Y196094D02*
X272750D01*
X281932Y214296D02*
G75*
G03*
X284413I1240J0D01*
G01*
G75*
G03*
X281932I-1240J0D01*
G01*
G36*
X281932Y214296D02*
G75*
G03*
X284413I1240J0D01*
G01*
G75*
G03*
X281932I-1240J0D01*
G01*
G37*
X282750Y163594D02*
X290250Y156094D01*
X283204D02*
X389000D01*
Y178594D01*
X283204D01*
Y156094D01*
X284937Y187032D02*
X286187D01*
X285563D02*
Y190782D01*
X284937D02*
X286187D01*
X292125Y187657D02*
X291813Y187344D01*
X291187Y187032D01*
X290250D01*
X289625Y187344D01*
X289313Y187657D01*
X289000Y188282D01*
Y189532D01*
X289313Y190157D01*
X289625Y190470D01*
X290250Y190782D01*
X291187D01*
X291813Y190470D01*
X292125Y190157D01*
X294313Y187344D02*
X294937Y187032D01*
X295563D01*
X296187Y187344D01*
X296500Y187970D01*
X296187Y188594D01*
X295563Y188907D01*
X294937D01*
X295563D02*
X296187Y189220D01*
X296500Y189844D01*
X296187Y190470D01*
X295563Y190782D01*
X294937D01*
X294313Y190470D01*
X289625Y200157D02*
X289313Y199844D01*
X288687Y199532D01*
X287750D01*
X287125Y199844D01*
X286813Y200157D01*
X286500Y200782D01*
Y202032D01*
X286813Y202657D01*
X287125Y202970D01*
X287750Y203282D01*
X288687D01*
X289313Y202970D01*
X289625Y202657D01*
X291500Y199844D02*
X292125Y199532D01*
X293063D01*
X293687Y199844D01*
X294000Y200470D01*
Y200782D01*
X293687Y201407D01*
X293063Y201720D01*
X291500D01*
Y203282D01*
X294000D01*
X309000Y212032D02*
Y208282D01*
X312125D01*
X314937Y210157D02*
X315563D01*
X316187Y210470D01*
X316500Y211094D01*
X316187Y211720D01*
X315563Y212032D01*
X314937D01*
X314313Y211720D01*
X314000Y211094D01*
X314313Y210470D01*
X314937Y210157D01*
X314313Y209844D01*
X314000Y209220D01*
X314313Y208594D01*
X314937Y208282D01*
X315563D01*
X316187Y208594D01*
X316500Y209220D01*
X316187Y209844D01*
X315563Y210157D01*
X316932Y214296D02*
G75*
G03*
X319413I1240J0D01*
G01*
G75*
G03*
X316932I-1240J0D01*
G01*
G36*
X316932Y214296D02*
G75*
G03*
X319413I1240J0D01*
G01*
G75*
G03*
X316932I-1240J0D01*
G01*
G37*
X344000Y212032D02*
Y208282D01*
X347125D01*
X349937D02*
X350563Y208594D01*
X351187Y209220D01*
X351500Y210157D01*
Y211094D01*
X351187Y211720D01*
X350563Y212032D01*
X349937D01*
X349313Y211720D01*
X349000Y211094D01*
X349313Y210470D01*
X349937Y210157D01*
X350563D01*
X351187Y210470D01*
X351500Y211094D01*
X347437Y89532D02*
X348687D01*
X348063D02*
Y93282D01*
X347437D02*
X348687D01*
X354625Y90157D02*
X354313Y89844D01*
X353687Y89532D01*
X352750D01*
X352125Y89844D01*
X351813Y90157D01*
X351500Y90782D01*
Y92032D01*
X351813Y92657D01*
X352125Y92970D01*
X352750Y93282D01*
X353687D01*
X354313Y92970D01*
X354625Y92657D01*
X359000Y89532D02*
X356500D01*
X358687Y91720D01*
X359000Y92344D01*
X358687Y92970D01*
X358063Y93282D01*
X357125D01*
X356500Y92970D01*
X351932Y214296D02*
G75*
G03*
X354413I1240J0D01*
G01*
G75*
G03*
X351932I-1240J0D01*
G01*
G36*
X351932Y214296D02*
G75*
G03*
X354413I1240J0D01*
G01*
G75*
G03*
X351932I-1240J0D01*
G01*
G37*
X375250Y212032D02*
Y208282D01*
X378375D01*
X380875D02*
X382125D01*
X381500D02*
Y212032D01*
X380875Y211407D01*
X385563Y208594D02*
X386187Y208282D01*
X386813D01*
X387437Y208594D01*
X387750Y209220D01*
Y211094D01*
X387437Y211720D01*
X386813Y212032D01*
X386187D01*
X385563Y211720D01*
X385250Y211094D01*
Y209220D01*
X385563Y208594D01*
X387437Y211720D01*
X386932Y214296D02*
G75*
G03*
X389413I1240J0D01*
G01*
G75*
G03*
X386932I-1240J0D01*
G01*
G36*
X386932Y214296D02*
G75*
G03*
X389413I1240J0D01*
G01*
G75*
G03*
X386932I-1240J0D01*
G01*
G37*
X394625Y187657D02*
X394313Y187344D01*
X393687Y187032D01*
X392750D01*
X392125Y187344D01*
X391813Y187657D01*
X391500Y188282D01*
Y189532D01*
X391813Y190157D01*
X392125Y190470D01*
X392750Y190782D01*
X393687D01*
X394313Y190470D01*
X394625Y190157D01*
X396500Y187970D02*
X396813Y188594D01*
X397437Y188907D01*
X398063D01*
X398687Y188594D01*
X399000Y187970D01*
X398687Y187344D01*
X398063Y187032D01*
X397437D01*
X396813Y187344D01*
X396500Y187970D01*
Y188907D01*
X396813Y189844D01*
X397437Y190470D01*
X398063Y190782D01*
X401250Y196094D02*
X405250D01*
Y199094D02*
Y193094D01*
X407750Y196094D02*
X411750D01*
X407750Y199094D02*
Y193094D01*
X411187Y104532D02*
X412437D01*
X411813D02*
Y108282D01*
X411187D02*
X412437D01*
X418375Y105157D02*
X418063Y104844D01*
X417437Y104532D01*
X416500D01*
X415875Y104844D01*
X415563Y105157D01*
X415250Y105782D01*
Y107032D01*
X415563Y107657D01*
X415875Y107970D01*
X416500Y108282D01*
X417437D01*
X418063Y107970D01*
X418375Y107657D01*
X421813Y104532D02*
Y108282D01*
X420250Y105782D01*
X422750D01*
D02*
D25*
X396500Y154044D02*
X424800D01*
X396500Y154544D02*
X424800D01*
X396500Y155044D02*
X424800D01*
X396500Y155844D02*
X424800D01*
X396500Y156344D02*
X424800D01*
X396500Y156844D02*
X400300D01*
X396500Y157344D02*
X399400D01*
X396500Y157844D02*
X399100D01*
X396500Y158344D02*
X399100D01*
X396500Y158844D02*
X399200D01*
X396500Y159344D02*
X399399D01*
X396500Y159644D02*
X399800D01*
X396500Y160144D02*
X405500D01*
X396500Y160644D02*
X405200D01*
X396500Y161144D02*
X424800D01*
X396500Y161644D02*
X424800D01*
X396500Y162144D02*
X424800D01*
X396500Y162644D02*
X399500Y162645D01*
X396500Y163144D02*
X399500Y163145D01*
X396500Y163444D02*
X399500Y163444D01*
X396500Y163944D02*
X399500Y163944D01*
X396500Y164444D02*
X399500D01*
X396500Y164944D02*
X399000D01*
X396500Y165444D02*
X399500D01*
X396500Y165944D02*
X399600Y165945D01*
X396500Y166444D02*
X424800D01*
X396500Y166944D02*
X407700Y166944D01*
X396500Y167244D02*
X407000D01*
X396500Y167744D02*
X404500D01*
X396500Y168244D02*
X399200D01*
X396500Y168744D02*
X399200D01*
X396500Y169244D02*
X399200D01*
X396500Y169744D02*
X399200D01*
X396500Y170244D02*
X398900D01*
X396500Y170744D02*
X400700D01*
X396500Y171544D02*
X399100D01*
X396500Y172044D02*
X424800D01*
X396500Y172544D02*
X424800D01*
X396500Y173044D02*
X424800D01*
X396500Y173544D02*
X424800D01*
X396500Y174044D02*
X424800D01*
X396500Y174544D02*
X424800D01*
X396500Y175344D02*
X424800D01*
X396500Y175844D02*
X424800D01*
X396500Y176344D02*
X424800D01*
X396500Y176844D02*
X424800D01*
X396500Y177344D02*
X424800D01*
X396500Y177844D02*
X424800D01*
X396500Y178344D02*
X424800D01*
X396500Y178844D02*
X424800D01*
X396500Y179144D02*
X424800D01*
X396500Y179644D02*
X424800D01*
X396500Y180144D02*
X424800D01*
X396500Y180644D02*
X424800D01*
X396500Y181144D02*
X424800D01*
X396500Y181644D02*
X424800D01*
X396500Y182144D02*
X424800D01*
X396500Y154144D02*
X424800Y154144D01*
X396500Y154244D02*
X424800D01*
X396500Y154344D02*
X424800Y154345D01*
X396500Y154444D02*
X424800D01*
X396500Y154644D02*
X424800D01*
X396500Y154744D02*
X424800D01*
X396500Y154844D02*
X424800Y154844D01*
X396500Y154944D02*
X424800D01*
X396500Y155144D02*
X424800D01*
X396500Y155244D02*
X424800Y155244D01*
X396500Y155344D02*
X424800Y155344D01*
X396500Y155444D02*
X424800D01*
X396500Y155544D02*
X424800D01*
X396500Y155644D02*
X424800D01*
X396500Y155744D02*
X424800Y155744D01*
X396500Y155944D02*
X424800D01*
X396500Y156044D02*
X424800D01*
X396500Y156144D02*
X424800D01*
X396500Y156244D02*
X424800Y156244D01*
X396500Y156444D02*
X424800Y156445D01*
X396500Y156544D02*
X424800D01*
X396500Y156644D02*
X424800D01*
X396500Y156744D02*
X424800Y156744D01*
X396500Y156944D02*
X399900Y156945D01*
X396500Y157044D02*
X399700D01*
X396500Y157144D02*
X399500Y157145D01*
X396500Y157244D02*
X399400Y157244D01*
X396500Y157444D02*
X399300D01*
X396500Y157544D02*
X399200D01*
X396500Y157644D02*
X399200Y157644D01*
X396500Y157744D02*
X399200D01*
X396500Y157944D02*
X399100D01*
X396500Y158044D02*
X399100D01*
X396500Y158144D02*
X399100D01*
X396500Y158244D02*
X399100D01*
X396500Y158444D02*
X399100D01*
X396500Y158544D02*
X399100D01*
X396500Y158644D02*
X399100Y158644D01*
X396500Y158744D02*
X399100D01*
X396500Y158944D02*
X399200D01*
X396500Y159044D02*
X399200D01*
X396500Y159144D02*
X399300Y159144D01*
X396500Y159244D02*
X399400D01*
X396500Y159444D02*
X399500D01*
X396500Y159544D02*
X399700D01*
X396500Y159744D02*
X400100D01*
X396500Y159844D02*
X405500D01*
X396500Y159944D02*
X405500D01*
X396500Y160044D02*
X405500Y160044D01*
X396500Y160244D02*
X405500D01*
X396500Y160344D02*
X405200Y160344D01*
X396500Y160444D02*
X405200D01*
X396500Y160544D02*
X405200Y160545D01*
X396500Y160744D02*
X405200Y160745D01*
X396500Y160844D02*
X424800D01*
X396500Y160944D02*
X424800D01*
X396500Y161044D02*
X424800D01*
X396500Y161244D02*
X424800Y161244D01*
X396500Y161344D02*
X424800D01*
X396500Y161444D02*
X424800Y161445D01*
X396500Y161544D02*
X424800D01*
X396500Y161744D02*
X424800Y161744D01*
X396500Y161844D02*
X424800D01*
X396500Y161944D02*
X424800Y161945D01*
X396500Y162044D02*
X424800D01*
X396500Y162244D02*
X424800D01*
X396500Y162344D02*
X401900Y162345D01*
X396500Y162444D02*
X399500Y162445D01*
X396500Y162544D02*
X399500D01*
X396500Y162744D02*
X399500Y162744D01*
X396500Y162844D02*
X399500D01*
X396500Y162944D02*
X399500D01*
X396500Y163044D02*
X399500D01*
X396500Y163244D02*
X399500Y163244D01*
X396500Y163344D02*
X399500D01*
X396500Y163544D02*
X399500D01*
X396500Y163644D02*
X399500D01*
X396500Y163744D02*
X399500D01*
X396500Y163844D02*
X399500D01*
X396500Y164044D02*
X399500D01*
X396500Y164144D02*
X399500D01*
X396500Y164244D02*
X399500Y164245D01*
X396500Y164344D02*
X399500D01*
X396500Y164544D02*
X399000D01*
X396500Y164644D02*
X399000D01*
X396500Y164744D02*
X399000Y164745D01*
X396500Y164844D02*
X399000D01*
X396500Y165044D02*
X399000Y165044D01*
X396500Y165144D02*
X399500D01*
X396500Y165244D02*
X399500Y165245D01*
X396500Y165344D02*
X399500D01*
X396500Y165544D02*
X399500Y165544D01*
X396500Y165644D02*
X399500D01*
X396500Y165744D02*
X399500Y165745D01*
X396500Y165844D02*
X399500D01*
X396500Y166044D02*
X399600D01*
X396500Y166144D02*
X399700D01*
X396500Y166244D02*
X400000Y166245D01*
X396500Y166344D02*
X413600D01*
X396500Y166544D02*
X424800D01*
X396500Y166644D02*
X424800Y166644D01*
X396500Y166744D02*
X424800Y166744D01*
X396500Y166844D02*
X424800D01*
X396500Y167044D02*
X407300D01*
X396500Y167144D02*
X407100D01*
X396500Y167344D02*
X407000D01*
X396500Y167444D02*
X406900D01*
X396500Y167544D02*
X406900D01*
X396500Y167644D02*
X406900D01*
X396500Y167844D02*
X399200D01*
X396500Y167944D02*
X399200D01*
X396500Y168044D02*
X399200D01*
X396500Y168144D02*
X399200D01*
X396500Y168344D02*
X399200D01*
X396500Y168444D02*
X399200D01*
X396500Y168544D02*
X399200Y168544D01*
X396500Y168644D02*
X399200D01*
X396500Y168844D02*
X399200D01*
X396500Y168944D02*
X399200D01*
X396500Y169044D02*
X399200D01*
X396500Y169144D02*
X399200D01*
X396500Y169344D02*
X399200D01*
X396500Y169444D02*
X399200D01*
X396500Y169544D02*
X399200Y169544D01*
X396500Y169644D02*
X399200D01*
X396500Y169844D02*
X399200D01*
X396500Y169944D02*
X398900D01*
X396500Y170044D02*
X398900Y170044D01*
X396500Y170144D02*
X398900D01*
X396500Y170344D02*
X398900D01*
X396500Y170444D02*
X398900Y170444D01*
X396500Y170544D02*
X400700Y170544D01*
X396500Y170644D02*
X400700D01*
X396500Y170844D02*
X400700D01*
X396500Y170944D02*
X399300D01*
X396500Y171044D02*
X399200Y171044D01*
X396500Y171144D02*
X399100D01*
X396500Y171244D02*
X399100Y171244D01*
X396500Y171344D02*
X399100D01*
X396500Y171444D02*
X399100Y171445D01*
X396500Y171644D02*
X399200D01*
X396500Y171744D02*
X399300D01*
X396500Y171844D02*
X424800D01*
X396500Y171944D02*
X424800Y171944D01*
X396500Y172144D02*
X424800Y172145D01*
X396500Y172244D02*
X424800D01*
X396500Y172344D02*
X424800D01*
X396500Y172444D02*
X424800Y172444D01*
X396500Y172644D02*
X424800Y172644D01*
X396500Y172744D02*
X424800D01*
X396500Y172844D02*
X424800D01*
X396500Y172944D02*
X424800D01*
X396500Y173144D02*
X424800Y173144D01*
X396500Y173244D02*
X424800D01*
X396500Y173344D02*
X424800Y173345D01*
X396500Y173444D02*
X424800D01*
X396500Y173644D02*
X424800Y173644D01*
X396500Y173744D02*
X424800D01*
X396500Y173844D02*
X424800Y173845D01*
X396500Y173944D02*
X424800D01*
X396500Y174144D02*
X424800D01*
X396500Y174244D02*
X424800D01*
X396500Y174344D02*
X424800Y174344D01*
X396500Y174444D02*
X424800D01*
X396500Y174644D02*
X424800D01*
X396500Y174744D02*
X424800Y174744D01*
X396500Y174844D02*
X424800Y174844D01*
X396500Y174944D02*
X424800D01*
X396500Y175044D02*
X424800D01*
X396500Y175144D02*
X424800D01*
X396500Y175244D02*
X424800Y175244D01*
X396500Y175444D02*
X424800D01*
X396500Y175544D02*
X424800D01*
X396500Y175644D02*
X424800D01*
X396500Y175744D02*
X424800Y175744D01*
X396500Y175944D02*
X424800Y175945D01*
X396500Y176044D02*
X424800D01*
X396500Y176144D02*
X424800D01*
X396500Y176244D02*
X424800Y176244D01*
X396500Y176444D02*
X424800Y176444D01*
X396500Y176544D02*
X424800D01*
X396500Y176644D02*
X424800D01*
X396500Y176744D02*
X424800D01*
X396500Y176944D02*
X424800Y176944D01*
X396500Y177044D02*
X424800D01*
X396500Y177144D02*
X424800Y177145D01*
X396500Y177244D02*
X424800D01*
X396500Y177444D02*
X424800Y177444D01*
X396500Y177544D02*
X424800D01*
X396500Y177644D02*
X424800Y177645D01*
X396500Y177744D02*
X424800D01*
X396500Y177944D02*
X424800D01*
X396500Y178044D02*
X424800D01*
X396500Y178144D02*
X424800Y178145D01*
X396500Y178244D02*
X424800D01*
X396500Y178444D02*
X424800D01*
X396500Y178544D02*
X424800Y178544D01*
X396500Y178644D02*
X424800Y178644D01*
X396500Y178744D02*
X424800D01*
X396500Y178944D02*
X424800D01*
X396500Y179044D02*
X424800Y179044D01*
X396500Y179244D02*
X424800D01*
X396500Y179344D02*
X424800D01*
X396500Y179444D02*
X424800D01*
X396500Y179544D02*
X424800Y179544D01*
X396500Y179744D02*
X424800Y179745D01*
X396500Y179844D02*
X424800D01*
X396500Y179944D02*
X424800D01*
X396500Y180044D02*
X424800Y180044D01*
X396500Y180244D02*
X424800D01*
X396500Y180344D02*
X424800D01*
X396500Y180444D02*
X424800D01*
X396500Y180544D02*
X424800D01*
X396500Y180744D02*
X424800Y180744D01*
X396500Y180844D02*
X424800D01*
X396500Y180944D02*
X424800Y180945D01*
X396500Y181044D02*
X424800D01*
X396500Y181244D02*
X424800Y181244D01*
X396500Y181344D02*
X424800D01*
X396500Y181444D02*
X424800Y181445D01*
X396500Y181544D02*
X424800D01*
X396500Y181744D02*
X424800D01*
X396500Y181844D02*
X424800D01*
X396500Y181944D02*
X424800Y181945D01*
X396500Y182044D02*
X424800D01*
X396500Y182244D02*
X424800D01*
X400000Y158145D02*
X402400Y158144D01*
X400000Y158244D02*
X402500D01*
X400000Y158044D02*
X402300D01*
X400000Y158344D02*
X402600D01*
X400000Y158444D02*
X402800Y158444D01*
X400000Y158544D02*
X403000D01*
X400000Y170944D02*
X400700D01*
X400000Y171744D02*
X424800D01*
X400100Y168244D02*
X400700D01*
X400100Y168744D02*
X400700D01*
X400100Y169244D02*
X400700D01*
X400100Y171544D02*
X400400D01*
X400100Y157744D02*
X401100D01*
X400100Y157845D02*
X401100Y157844D01*
X400100Y157944D02*
X401100D01*
X400100Y158644D02*
X401100Y158644D01*
X400100Y158744D02*
X401100D01*
X400100Y158844D02*
X401100Y158844D01*
X400100Y167844D02*
X400700D01*
X400100Y168044D02*
X400700D01*
X400100Y168145D02*
X400700Y168144D01*
X400100Y168344D02*
X400700D01*
X400100Y168544D02*
X400700Y168544D01*
X400100Y168644D02*
X400700D01*
X400100Y168844D02*
X400700D01*
X400100Y169044D02*
X400700Y169044D01*
X400100Y169144D02*
X400700D01*
X400100Y169344D02*
X400700D01*
X400100Y169544D02*
X400700Y169544D01*
X400100Y169644D02*
X400700D01*
X400100Y169745D02*
X400700Y169744D01*
X400100Y169844D02*
X400700D01*
X400100Y170044D02*
X400700Y170044D01*
X400100Y170144D02*
X400700D01*
X400100Y170245D02*
X400700Y170244D01*
X400100Y170344D02*
X400700D01*
X400100Y171044D02*
X400700Y171044D01*
X400100Y171144D02*
X400400Y171145D01*
X400100Y171644D02*
X400400Y171645D01*
X400100Y167944D02*
X400700D01*
X400100Y168444D02*
X400700D01*
X400100Y168944D02*
X400700D01*
X400100Y169444D02*
X400700D01*
X400100Y169944D02*
X400700D01*
X400100Y170444D02*
X400700D01*
X400100Y171444D02*
X400400Y171445D01*
X400200Y158944D02*
X401000D01*
X400200Y157644D02*
X401000Y157645D01*
X400200Y159044D02*
X401000D01*
X400200Y171244D02*
X400400Y171244D01*
X400200Y171344D02*
X400400D01*
X400300Y157544D02*
X400900D01*
X400399Y165144D02*
X405800D01*
X400400Y159144D02*
X400800Y159144D01*
X400400Y162444D02*
X401700D01*
X400400Y162544D02*
X401600Y162544D01*
X400400Y162644D02*
X401500D01*
X400400Y162844D02*
X401400Y162845D01*
X400400Y162944D02*
X401400D01*
X400400Y163044D02*
X401400Y163044D01*
X400400Y163345D02*
X401400D01*
X400400Y163444D02*
X401400D01*
X400400Y163744D02*
X401400D01*
X400400Y163845D02*
X401400D01*
X400400Y163944D02*
X401400D01*
X400400Y164144D02*
X401400D01*
X400400Y164244D02*
X401400D01*
X400400Y164345D02*
X401400D01*
X400400Y164444D02*
X401400D01*
X400400Y165244D02*
X411500Y165244D01*
X400400Y165444D02*
X411500D01*
X400400Y165644D02*
X411500D01*
X400400Y162744D02*
X401500D01*
X400400Y163144D02*
X401400D01*
X400400Y163244D02*
X401400D01*
X400400Y163545D02*
X401400Y163544D01*
X400400Y163644D02*
X401400D01*
X400400Y164045D02*
X401400Y164044D01*
X400400Y165344D02*
X411500Y165344D01*
X400400Y165544D02*
X411500D01*
X400500Y157444D02*
X400800Y157444D01*
X400900Y156844D02*
X403000D01*
X401000Y164844D02*
X401100D01*
X401000Y165745D02*
X411500Y165744D01*
X401000Y165844D02*
X411500D01*
X401000Y166245D02*
X413500Y166244D01*
X401000Y164544D02*
X401100D01*
X401000Y164644D02*
X401100D01*
X401000Y164944D02*
X401100D01*
X401000Y165044D02*
X401100Y165044D01*
X401000Y165944D02*
X411500Y165945D01*
X401000Y166044D02*
X413400Y166044D01*
X401000Y166144D02*
X413400D01*
X401000Y164744D02*
X401100Y164744D01*
X401100Y159744D02*
X403100D01*
X401300Y156944D02*
X402600Y156944D01*
X401400Y159644D02*
X402800Y159644D01*
X401400Y157044D02*
X402500Y157044D01*
X401500Y159544D02*
X402600Y159544D01*
X401600Y157144D02*
X402400Y157144D01*
X401600Y167944D02*
X402200D01*
X401600Y168244D02*
X402200D01*
X401600Y168444D02*
X402200D01*
X401600Y168544D02*
X402200D01*
X401600Y168744D02*
X402200D01*
X401600Y168944D02*
X402200D01*
X401600Y169044D02*
X402200D01*
X401600Y169244D02*
X402200D01*
X401600Y169444D02*
X402200D01*
X401600Y169544D02*
X402200D01*
X401600Y169744D02*
X402200D01*
X401600Y170044D02*
X402200D01*
X401600Y170244D02*
X402200D01*
X401600Y170544D02*
X402200D01*
X401600Y170744D02*
X402200D01*
X401600Y171044D02*
X402200D01*
X401600Y171244D02*
X401900Y171244D01*
X401600Y171544D02*
X401900D01*
X401600Y167844D02*
X402200D01*
X401600Y168044D02*
X402200D01*
X401600Y168144D02*
X402200Y168144D01*
X401600Y168344D02*
X402200D01*
X401600Y168644D02*
X402200Y168644D01*
X401600Y168844D02*
X402200D01*
X401600Y169144D02*
X402200D01*
X401600Y169344D02*
X402200D01*
X401600Y169644D02*
X402200D01*
X401600Y169844D02*
X402200D01*
X401600Y169944D02*
X402200D01*
X401600Y170144D02*
X402200D01*
X401600Y170344D02*
X402200D01*
X401600Y170444D02*
X402200Y170444D01*
X401600Y170644D02*
X402200D01*
X401600Y170844D02*
X402200D01*
X401600Y170944D02*
X402200Y170944D01*
X401600Y171144D02*
X401900D01*
X401600Y171344D02*
X401900D01*
X401600Y171444D02*
X401900Y171445D01*
X401600Y171644D02*
X401900D01*
X401700Y157244D02*
X402300D01*
X401700Y157344D02*
X402300Y157344D01*
X401700Y159444D02*
X402500D01*
X401800Y157544D02*
X402200D01*
X401800Y159244D02*
X402300D01*
X401800Y157444D02*
X402300D01*
X401800Y159345D02*
X402400Y159344D01*
X401900Y157644D02*
X402200D01*
X401900Y157844D02*
X402300Y157845D01*
X401900Y158644D02*
X403300Y158645D01*
X401900Y159045D02*
X402300Y159044D01*
X401900Y159144D02*
X402300Y159144D01*
X401900Y157744D02*
X402200Y157744D01*
X401900Y157944D02*
X402300Y157944D01*
X401900Y158744D02*
X402300D01*
X401900Y158844D02*
X402300Y158845D01*
X401900Y158944D02*
X402299D01*
Y163244D02*
X403200D01*
X402300Y163044D02*
X403100D01*
X402300Y163344D02*
X403200D01*
X402300Y163544D02*
X403200D01*
X402300Y163744D02*
X403200D01*
X402300Y163844D02*
X403200D01*
X402300Y163944D02*
X403200Y163944D01*
X402300Y164044D02*
X403200D01*
X402300Y164244D02*
X403200D01*
X402300Y164344D02*
X403200Y164345D01*
X402300Y164444D02*
X403200Y164444D01*
X402300Y164544D02*
X403200Y164545D01*
X402300Y164744D02*
X403200D01*
X402300Y164844D02*
X403200Y164844D01*
X402300Y164944D02*
X403200Y164944D01*
X402300Y163145D02*
X403199Y163144D01*
X402300Y163444D02*
X403200Y163444D01*
X402300Y163644D02*
X403199D01*
X402300Y164144D02*
X403199D01*
X402300Y164644D02*
X403199D01*
X402300Y165044D02*
X403200Y165045D01*
X402400Y162944D02*
X402900D01*
X402500Y162844D02*
X402700Y162844D01*
X403100Y167944D02*
X404000D01*
X403100Y168244D02*
X403800D01*
X403100Y168744D02*
X403600D01*
X403100Y169244D02*
X403600D01*
X403100Y169744D02*
X403700D01*
X403100Y170044D02*
X403800Y170045D01*
X403100Y170244D02*
X404000D01*
X403100Y170544D02*
X404500D01*
X403100Y170744D02*
X413400D01*
X403100Y171044D02*
X413400D01*
X403100Y171244D02*
X413100D01*
X403100Y171544D02*
X413100D01*
X403100Y158744D02*
X403800D01*
X403100Y162344D02*
X408699D01*
X403100Y167844D02*
X404200Y167845D01*
X403100Y168044D02*
X403900D01*
X403100Y168144D02*
X403800D01*
X403100Y168344D02*
X403700Y168345D01*
X403100Y168444D02*
X403699D01*
X403100Y168544D02*
X403600D01*
X403100Y168644D02*
X403600D01*
X403100Y168844D02*
X403600D01*
X403100Y168944D02*
X403600D01*
X403100Y169044D02*
X403600D01*
X403100Y169144D02*
X403600D01*
X403100Y169344D02*
X403600D01*
X403100Y169444D02*
X403600D01*
X403100Y169544D02*
X403600D01*
X403100Y169644D02*
X403600D01*
X403100Y169844D02*
X403700D01*
X403100Y169944D02*
X403700D01*
X403100Y170144D02*
X403900D01*
X403100Y170344D02*
X404100D01*
X403100Y170444D02*
X404200D01*
X403100Y170644D02*
X413400D01*
X403100Y170844D02*
X413400D01*
X403100Y170944D02*
X413400Y170944D01*
X403100Y171144D02*
X413100D01*
X403100Y171344D02*
X413100D01*
X403100Y171444D02*
X413100Y171444D01*
X403100Y171644D02*
X413100D01*
X403199Y157544D02*
X403800D01*
X403200Y157644D02*
X403900Y157644D01*
X403200Y157744D02*
X404000Y157744D01*
X403200Y157844D02*
X404100D01*
X403200Y158844D02*
X404100Y158844D01*
X403200Y158944D02*
X404000D01*
X403300Y159044D02*
X404000Y159044D01*
X403300Y162445D02*
X403300Y157444D02*
X403500Y157444D01*
X403300Y157944D02*
X404100Y157944D01*
X403400Y159144D02*
X403800Y159144D01*
X403500Y156844D02*
X424800D01*
X403500Y158044D02*
X404100D01*
X403800Y158145D02*
X404100Y158144D01*
X403900Y156944D02*
X424800Y156944D01*
X404100Y162644D02*
X404700D01*
X404100Y163144D02*
X404700Y163144D01*
X404100Y163444D02*
X404700D01*
X404100Y163944D02*
X404700D01*
X404100Y164444D02*
X404700D01*
X404100Y164944D02*
X404400D01*
X404100Y157044D02*
X404199D01*
X404100Y159744D02*
X405500D01*
X404100Y162444D02*
X404700Y162444D01*
X404100Y162544D02*
X404700Y162544D01*
X404100Y162744D02*
X404700D01*
X404100Y162844D02*
X404700Y162845D01*
X404100Y162944D02*
X404700Y162944D01*
X404100Y163044D02*
X404700D01*
X404100Y163244D02*
X404700D01*
X404100Y163344D02*
X404700Y163345D01*
X404100Y163544D02*
X404700D01*
X404100Y163644D02*
X404700Y163644D01*
X404100Y163744D02*
X404700D01*
X404100Y163844D02*
X404700Y163845D01*
X404100Y164044D02*
X404700Y164045D01*
X404100Y164144D02*
X404700Y164144D01*
X404100Y164244D02*
X404700D01*
X404100Y164344D02*
X404700Y164345D01*
X404100Y164544D02*
X404400D01*
X404100Y164644D02*
X404400D01*
X404100Y164744D02*
X404400D01*
X404100Y164844D02*
X404400D01*
X404100Y165044D02*
X404400D01*
Y159644D02*
X405500Y159644D01*
X404500Y168844D02*
X407200D01*
X404500Y168744D02*
X405700D01*
X404500Y168944D02*
X407300D01*
X404600Y169744D02*
X405500D01*
X404600Y159544D02*
X405500Y159544D01*
X404600Y168544D02*
X405700D01*
X404600Y168644D02*
X405700Y168644D01*
X404600Y169644D02*
X405500D01*
X404700Y168444D02*
X405600Y168444D01*
X404700Y159444D02*
X405500D01*
X404700Y169844D02*
X405400D01*
X404800Y168344D02*
X405500D01*
X404800Y159344D02*
X405500D01*
X404800Y169944D02*
X405300D01*
X404900Y159144D02*
X405500D01*
X404900Y159044D02*
X405500Y159044D01*
X404900Y159244D02*
X405500D01*
X405000Y157244D02*
X405500D01*
X405000Y157444D02*
X405500D01*
X405000Y157744D02*
X405500D01*
X405000Y157944D02*
X405500D01*
X405000Y158244D02*
X405500D01*
X405000Y158444D02*
X405500D01*
X405000Y158744D02*
X405500D01*
X405000Y157144D02*
X405500D01*
X405000Y157344D02*
X405500D01*
X405000Y157544D02*
X405500D01*
X405000Y157644D02*
X405500D01*
X405000Y157844D02*
X405500D01*
X405000Y158044D02*
X405500D01*
X405000Y158144D02*
X405500D01*
X405000Y158344D02*
X405500D01*
X405000Y158544D02*
X405500D01*
X405000Y158644D02*
X405500D01*
X405000Y158844D02*
X405500D01*
X405000Y158944D02*
X405500D01*
X405000Y170044D02*
X405100D01*
X405100Y157044D02*
X405500D01*
X405500Y165044D02*
X405600Y165044D01*
X405599Y162744D02*
X406500D01*
X405599Y163244D02*
X406500D01*
X405599Y163744D02*
X406500D01*
X405600Y162445D02*
X406500Y162444D01*
X405600Y162544D02*
X406500D01*
X405600Y162844D02*
X406500Y162844D01*
X405600Y163044D02*
X406500D01*
X405600Y163344D02*
X406500D01*
X405600Y163444D02*
X406500Y163444D01*
X405600Y163544D02*
X406500D01*
X405600Y163844D02*
X406500Y163844D01*
X405600Y163944D02*
X406500Y163944D01*
X405600Y164044D02*
X406500D01*
X405600Y164244D02*
X406500D01*
X405600Y162645D02*
X406500Y162644D01*
X405600Y162944D02*
X406500Y162944D01*
X405600Y163145D02*
X406500Y163144D01*
X405600Y163644D02*
X406500D01*
X405600Y164144D02*
X406500D01*
X405600Y170544D02*
X407600D01*
X405700Y164345D02*
X406500Y164344D01*
X405700Y167744D02*
X406900D01*
X405800Y164444D02*
X406500D01*
X405900Y164544D02*
X406400D01*
X405900Y167844D02*
X406900D01*
X405900Y170444D02*
X407400D01*
X406000Y170344D02*
X407200D01*
X406100Y167944D02*
X406999D01*
X406100Y170245D02*
X407200D01*
X406200Y168044D02*
X407000D01*
X406200Y170144D02*
X407100D01*
X406300Y168144D02*
X407200Y168145D01*
X406300Y170044D02*
X407000Y170044D01*
X406400Y157044D02*
X406999D01*
X406400Y157344D02*
X407000D01*
X406400Y157644D02*
X407000D01*
X406400Y157844D02*
X407000D01*
X406400Y158144D02*
X407000D01*
X406400Y158344D02*
X407000D01*
X406400Y158644D02*
X407000D01*
X406400Y158844D02*
X407000Y158844D01*
X406400Y159144D02*
X407000D01*
X406400Y159344D02*
X406999D01*
X406400Y159644D02*
X407000D01*
X406400Y159844D02*
X406999D01*
X406400Y160144D02*
X407000D01*
X406400Y160344D02*
X406700Y160344D01*
X406400Y160644D02*
X406700D01*
X406400Y168244D02*
X407200D01*
X406400Y168444D02*
X407100D01*
X406400Y169744D02*
X407000D01*
X406400Y157144D02*
X407000Y157144D01*
X406400Y157244D02*
X407000Y157244D01*
X406400Y157444D02*
X407000Y157445D01*
X406400Y157544D02*
X406999D01*
X406400Y157744D02*
X407000Y157744D01*
X406400Y157944D02*
X407000D01*
X406400Y158044D02*
X406999D01*
X406400Y158244D02*
X407000D01*
X406400Y158444D02*
X407000D01*
X406400Y158544D02*
X406999D01*
X406400Y158744D02*
X407000D01*
X406400Y158944D02*
X407000D01*
X406400Y159044D02*
X407000D01*
X406400Y159244D02*
X407000D01*
X406400Y159444D02*
X407000D01*
X406400Y159544D02*
X407000D01*
X406400Y159744D02*
X407000D01*
X406400Y159944D02*
X407000D01*
X406400Y160044D02*
X407000D01*
X406400Y160244D02*
X407000D01*
X406400Y160444D02*
X406700D01*
X406400Y160544D02*
X406700Y160545D01*
X406400Y160744D02*
X406700D01*
X406400Y168344D02*
X407100D01*
X406400Y169844D02*
X407000D01*
X406400Y169944D02*
X406999D01*
X406500Y169644D02*
X407000Y169644D01*
X406500Y168544D02*
X407100Y168545D01*
X406500Y168644D02*
X407100Y168644D01*
X406500Y168744D02*
X407100D01*
X406500Y169044D02*
X407300D01*
X406500Y169144D02*
X407200Y169144D01*
X406500Y169244D02*
X407100D01*
X406500Y169344D02*
X407000D01*
X406500Y169444D02*
X406999D01*
X406500Y169544D02*
X407000D01*
X406900Y165144D02*
X408900D01*
X407100Y165044D02*
X408600Y165044D01*
X407200Y164944D02*
X408400D01*
X407300Y164844D02*
X408300D01*
X407300Y164744D02*
X408200Y164744D01*
X407400Y162644D02*
X408300D01*
X407400Y162944D02*
X408100Y162944D01*
X407400Y163144D02*
X408000Y163144D01*
X407400Y163444D02*
X407900D01*
X407400Y163644D02*
X407900D01*
X407400Y163944D02*
X407900D01*
X407400Y164444D02*
X408000D01*
X407400Y162444D02*
X408500Y162444D01*
X407400Y162544D02*
X408400D01*
X407400Y162744D02*
X408200D01*
X407400Y162844D02*
X408100Y162844D01*
X407400Y163044D02*
X408000Y163044D01*
X407400Y163244D02*
X408000D01*
X407400Y163344D02*
X407900D01*
X407400Y163544D02*
X407900D01*
X407400Y163744D02*
X407900D01*
X407400Y163844D02*
X407900D01*
X407400Y164044D02*
X407900D01*
X407400Y164144D02*
X407900D01*
X407400Y164244D02*
X408000D01*
X407400Y164344D02*
X408000Y164345D01*
X407400Y164544D02*
X408100D01*
X407400Y164644D02*
X408100D01*
X407800Y167644D02*
X408900D01*
X407800Y167844D02*
X408800D01*
X407800Y167744D02*
X408900Y167744D01*
X407900Y157344D02*
X424800D01*
X407900Y157844D02*
X424800D01*
X407900Y158344D02*
X424800D01*
X407900Y158844D02*
X424800D01*
X407900Y159144D02*
X424800D01*
X407900Y159344D02*
X424800D01*
X407900Y159644D02*
X424800D01*
X407900Y160144D02*
X424800D01*
X407900Y160644D02*
X424800D01*
X407900Y169744D02*
X408500D01*
X407900Y157044D02*
X424800D01*
X407900Y157144D02*
X424800D01*
X407900Y157244D02*
X424800D01*
X407900Y157444D02*
X424800Y157444D01*
X407900Y157544D02*
X424800D01*
X407900Y157644D02*
X424800Y157645D01*
X407900Y157744D02*
X424800D01*
X407900Y157944D02*
X424800Y157944D01*
X407900Y158044D02*
X424800D01*
X407900Y158144D02*
X424800Y158145D01*
X407900Y158244D02*
X424800D01*
X407900Y158444D02*
X424800D01*
X407900Y158544D02*
X424800D01*
X407900Y158644D02*
X424800Y158645D01*
X407900Y158744D02*
X424800D01*
X407900Y158944D02*
X424800D01*
X407900Y159044D02*
X424800Y159044D01*
X407900Y159244D02*
X424800D01*
X407900Y159444D02*
X424800D01*
X407900Y159544D02*
X424800Y159544D01*
X407900Y159744D02*
X424800D01*
X407900Y159844D02*
X424800D01*
X407900Y159944D02*
X424800D01*
X407900Y160044D02*
X424800Y160044D01*
X407900Y160244D02*
X424800Y160245D01*
X407900Y160344D02*
X424800D01*
X407900Y160444D02*
X424800D01*
X407900Y160544D02*
X424800Y160544D01*
X407900Y160744D02*
X424800D01*
X407900Y167944D02*
X408400D01*
X407900Y169544D02*
X408500Y169544D01*
X407900Y169644D02*
X408500Y169644D01*
X407900Y169844D02*
X408500D01*
X407999Y169444D02*
X408400D01*
X408000Y167544D02*
X408700D01*
X408000Y168744D02*
X410100D01*
X408000Y169944D02*
X408400D01*
X408200Y170044D02*
X408500Y168644D02*
X410100D01*
X408700Y168844D02*
X410200D01*
X408800Y163544D02*
X411500D01*
X408800Y163644D02*
X411500Y163644D01*
X408800Y163744D02*
X411500D01*
X408800Y163844D02*
X411500Y163845D01*
X408800Y163944D02*
X411500D01*
X408800Y170544D02*
X409200D01*
X408899Y164244D02*
X409900D01*
X408899Y163244D02*
X409899D01*
X408900Y163344D02*
X409900D01*
X408900Y163444D02*
X410000Y163444D01*
X408900Y164044D02*
X409900D01*
X408900Y164144D02*
X409900D01*
X408900Y166945D02*
X424800Y166944D01*
X409000Y164345D02*
X409900Y164344D01*
X409000Y164444D02*
X409800D01*
X409000Y168944D02*
X410200D01*
X409000Y170445D02*
X409100Y170444D01*
X409000Y163044D02*
X409800D01*
X409000Y163144D02*
X409900Y163145D01*
X409100Y169045D02*
X410300Y169044D01*
X409100Y162944D02*
X409700D01*
X409200Y168544D02*
X410100Y168544D01*
X409200Y164544D02*
X409700D01*
X409200Y169144D02*
X410400D01*
X409300Y169344D02*
X410700D01*
X409300Y162844D02*
X409500Y162845D01*
X409300Y167044D02*
X424800D01*
X409300Y169244D02*
X410600D01*
X409399Y169844D02*
X410200D01*
X409400Y169444D02*
X411000D01*
X409400Y169544D02*
X410200D01*
X409400Y169644D02*
X410200D01*
X409400Y169744D02*
X410200D01*
X409400Y168444D02*
X410100D01*
X409500Y167145D02*
X424800Y167144D01*
X409600Y167244D02*
X424800D01*
X409600Y168344D02*
X410100D01*
X409600Y169944D02*
X410200D01*
X409700Y167444D02*
X424800D01*
X409700Y168244D02*
X410100D01*
X409700Y167344D02*
X424800D01*
X409700Y168044D02*
X410200D01*
X409700Y168144D02*
X410200D01*
X409800Y167844D02*
X410400D01*
X409800Y170144D02*
X410300D01*
X409800Y167544D02*
X424800D01*
X409800Y167644D02*
X424800D01*
X409800Y167744D02*
X410600D01*
X409800Y167944D02*
X410300D01*
X409800Y170044D02*
X410200D01*
X409800Y170244D02*
X410300D01*
X409800Y170344D02*
X410500D01*
X409800Y170444D02*
X410600Y170444D01*
X409800Y170544D02*
X410800D01*
X410000Y162345D02*
X415700Y162344D01*
X410000Y165144D02*
X411500Y165144D01*
X410200Y162444D02*
X411800D01*
X410200Y165044D02*
X411000D01*
X410300Y162544D02*
X411600D01*
X410400Y164944D02*
X411000Y164944D01*
X410400Y162645D02*
X411600Y162644D01*
X410500Y162744D02*
X411500D01*
X410500Y164844D02*
X411000Y164844D01*
X410599Y164744D02*
X411000Y164744D01*
X410600Y162844D02*
X411500Y162844D01*
X410600Y162944D02*
X411500Y162944D01*
X410700Y163144D02*
X411500Y163144D01*
X410700Y163444D02*
X411500D01*
X410700Y164144D02*
X411500D01*
X410700Y164444D02*
X411500D01*
X410700Y164644D02*
X411000D01*
X410700Y163044D02*
X411500D01*
X410700Y163244D02*
X411500D01*
X410700Y163344D02*
X411500Y163344D01*
X410700Y164044D02*
X411500D01*
X410700Y164244D02*
X411500D01*
X410700Y164344D02*
X411500Y164345D01*
X410700Y164544D02*
X411000D01*
Y168544D02*
X411800Y168544D01*
X411000Y169544D02*
X411400Y169545D01*
X411000Y169644D02*
X412000D01*
X411100Y168344D02*
X411600D01*
X411100Y168644D02*
X412000D01*
X411100Y169844D02*
X411900Y169844D01*
X411100Y168444D02*
X411700D01*
X411100Y168744D02*
X412000D01*
X411100Y169744D02*
X411900D01*
X411200Y169944D02*
X411800D01*
X411300Y168845D02*
X412000Y168844D01*
X411400Y170045D02*
X411600Y170044D01*
X411500Y168944D02*
X412000D01*
X411700Y167744D02*
X424800D01*
X411900Y167844D02*
X412100D01*
X411900Y169045D02*
X412000Y169044D01*
X412100Y170544D02*
X413400D01*
X412400Y163044D02*
X413500D01*
X412400Y163544D02*
X413500D01*
X412400Y164044D02*
X413500D01*
X412400Y164344D02*
X413500D01*
X412400Y165245D02*
X424800D01*
X412400Y165344D02*
X424800D01*
X412400Y165745D02*
X413400Y165745D01*
X412400Y165844D02*
X413400D01*
X412400Y163144D02*
X413500D01*
X412400Y163344D02*
X413500Y163344D01*
X412400Y163444D02*
X413500D01*
X412400Y163644D02*
X413500D01*
X412400Y163844D02*
X413500Y163844D01*
X412400Y163944D02*
X413500D01*
X412400Y164144D02*
X413500D01*
X412400Y164444D02*
X413500D01*
X412400Y165144D02*
X415800D01*
X412400Y165444D02*
X413700D01*
X412400Y165544D02*
X413500Y165544D01*
X412400Y165644D02*
X413400D01*
X412400Y165944D02*
X413400D01*
X412400Y170444D02*
X413400D01*
X412400Y163244D02*
X413500D01*
X412400Y163744D02*
X413500D01*
X412400Y164244D02*
X413500D01*
X412500Y170344D02*
X413400D01*
X412600Y162944D02*
X413500D01*
X412600Y170244D02*
X413400D01*
X412700Y170144D02*
X413400D01*
X412800Y169744D02*
X413400D01*
X412800Y169944D02*
X413400D01*
X412800Y170044D02*
X413400Y170045D01*
X412800Y169844D02*
X413400D01*
X412900Y167844D02*
X413400Y167845D01*
X412900Y168644D02*
X413400Y168644D01*
X412900Y169045D02*
X413400Y169044D01*
X412900Y169144D02*
X413400D01*
X412900Y169545D02*
X413400Y169545D01*
X412900Y169644D02*
X413400D01*
X412900Y167944D02*
X413400D01*
X412900Y168144D02*
X413400D01*
X412900Y168244D02*
X413400D01*
X412900Y168344D02*
X413400D01*
X412900Y168444D02*
X413400D01*
X412900Y168744D02*
X413400D01*
X412900Y168844D02*
X413400D01*
X412900Y168944D02*
X413400D01*
X412900Y169244D02*
X413400D01*
X412900Y169344D02*
X413400D01*
X412900Y169444D02*
X413400D01*
X412900Y168044D02*
X413400D01*
X412900Y168544D02*
X413400D01*
X413100Y162544D02*
X413500D01*
X413100Y164544D02*
X413200D01*
X413100Y164844D02*
X413200D01*
X413100Y165044D02*
X413200Y165044D01*
X413100Y162444D02*
X413500D01*
X413100Y162644D02*
X413500D01*
X413100Y162744D02*
X413500D01*
X413100Y162844D02*
X413500Y162844D01*
X413100Y164644D02*
X413200D01*
X413100Y164744D02*
X413200D01*
X413100Y164944D02*
X413200D01*
X414100Y165444D02*
X424800D01*
X414200Y166344D02*
X424800D01*
X414300Y166244D02*
X424800Y166245D01*
X414300Y168145D02*
X424800Y168144D01*
X414300Y168244D02*
X424800D01*
X414300Y168744D02*
X424800D01*
X414300Y169244D02*
X424800D01*
X414300Y169744D02*
X424800D01*
X414300Y170044D02*
X424800Y170045D01*
X414300Y170244D02*
X424800D01*
X414300Y170445D02*
X424800Y170444D01*
X414300Y170544D02*
X424800D01*
X414300Y170945D02*
X424800Y170944D01*
X414300Y171044D02*
X424800D01*
X414300Y171445D02*
X424800Y171444D01*
X414300Y171544D02*
X424800D01*
X414300Y165544D02*
X424800Y165544D01*
X414300Y167844D02*
X424800D01*
X414300Y167944D02*
X424800Y167944D01*
X414300Y168044D02*
X424800D01*
X414300Y168344D02*
X424800D01*
X414300Y168444D02*
X424800Y168444D01*
X414300Y168544D02*
X424800D01*
X414300Y168644D02*
X424800Y168644D01*
X414300Y168844D02*
X424800Y168844D01*
X414300Y169044D02*
X424800Y169045D01*
X414300Y169144D02*
X424800D01*
X414300Y169344D02*
X424800Y169344D01*
X414300Y169544D02*
X424800Y169545D01*
X414300Y169644D02*
X424800D01*
X414300Y169844D02*
X424800Y169844D01*
X414300Y170144D02*
X424800D01*
X414300Y170344D02*
X424800D01*
X414300Y170644D02*
X424800D01*
X414300Y170744D02*
X424800Y170744D01*
X414300Y170844D02*
X424800D01*
X414300Y171144D02*
X424800D01*
X414300Y171244D02*
X424800Y171244D01*
X414300Y171344D02*
X424800D01*
X414300Y171644D02*
X424800D01*
X414300Y168944D02*
X424800D01*
X414300Y169444D02*
X424800D01*
X414300Y169944D02*
X424800D01*
X414400Y162544D02*
X415300D01*
X414400Y162844D02*
X415100D01*
X414400Y163044D02*
X415000D01*
X414400Y163344D02*
X414900D01*
X414400Y163544D02*
X414900D01*
X414400Y163844D02*
X414900D01*
X414400Y164044D02*
X414900D01*
X414400Y164344D02*
X415000D01*
X414400Y164544D02*
X415000D01*
X414400Y164844D02*
X415300D01*
X414400Y165644D02*
X424800D01*
X414400Y165844D02*
X424800D01*
X414400Y166144D02*
X424800D01*
X414400Y162644D02*
X415200Y162645D01*
X414400Y162944D02*
X415000D01*
X414400Y163144D02*
X414900D01*
X414400Y163444D02*
X414900D01*
X414400Y163644D02*
X414900D01*
X414400Y163944D02*
X414900D01*
X414400Y164144D02*
X414900D01*
X414400Y164444D02*
X415000D01*
X414400Y164644D02*
X415099D01*
X414400Y164944D02*
X415400D01*
X414400Y165944D02*
X424800D01*
X414400Y162444D02*
X415500D01*
X414400Y162744D02*
X415100D01*
X414400Y163244D02*
X414900D01*
X414400Y163744D02*
X414900D01*
X414400Y164244D02*
X414900D01*
X414400Y164744D02*
X415200Y164745D01*
X414400Y165044D02*
X415500D01*
X414400Y165744D02*
X424800Y165745D01*
X414400Y166044D02*
X424800Y166044D01*
X415800Y163944D02*
X416900D01*
X415800Y163444D02*
X416900Y163444D01*
X415800Y163544D02*
X416900D01*
X415800Y163744D02*
X416900D01*
X415800Y164044D02*
X416900D01*
X415800Y163344D02*
X416900Y163344D01*
X415800Y163644D02*
X416900D01*
X415800Y163844D02*
X416900D01*
X415800Y164144D02*
X416900D01*
X415900Y163244D02*
X416800D01*
X415900Y164344D02*
X416800D01*
X415900Y163144D02*
X416800D01*
X415900Y164244D02*
X416800D01*
X416000Y164444D02*
X416700D01*
X416000Y163044D02*
X416700D01*
X416100Y162944D02*
X416600D01*
X416100Y164545D02*
X416600D01*
X416200Y162844D02*
X416400D01*
X416900Y165144D02*
X419500D01*
X417000Y162344D02*
X424800D01*
X417200Y162445D02*
X418300Y162444D01*
X417200Y165044D02*
X418000Y165044D01*
X417300Y164944D02*
X418000Y164944D01*
X417400Y162544D02*
X418300D01*
X417400Y164844D02*
X418000D01*
X417500Y164744D02*
X418000D01*
X417500Y162645D02*
X418300Y162644D01*
X417600Y162845D02*
X418300Y162844D01*
X417600Y162744D02*
X418300D01*
X417600Y164644D02*
X418000Y164644D01*
X417700Y163044D02*
X418300D01*
X417700Y162944D02*
X418300D01*
X417700Y164444D02*
X418300D01*
X417700Y164544D02*
X418000D01*
X417800Y163144D02*
X418300D01*
X417800Y163444D02*
X418300D01*
X417800Y163644D02*
X418300D01*
X417800Y163944D02*
X418300D01*
X417800Y164144D02*
X418300D01*
X417800Y163244D02*
X418300D01*
X417800Y163344D02*
X418300D01*
X417800Y163544D02*
X418300D01*
X417800Y163744D02*
X418300D01*
X417800Y163844D02*
X418300D01*
X417800Y164044D02*
X418300D01*
X417800Y164244D02*
X418300D01*
X417800Y164344D02*
X418300D01*
X419100Y164944D02*
X419100Y165044D02*
X419200D01*
Y162544D02*
X420200D01*
X419200Y162744D02*
X420200D01*
X419200Y162844D02*
X420200Y162844D01*
X419200Y163044D02*
X420200D01*
X419200Y163244D02*
X420200D01*
X419200Y163344D02*
X420200Y163344D01*
X419200Y163544D02*
X420200D01*
X419200Y163744D02*
X420200D01*
X419200Y163844D02*
X420200D01*
X419200Y164044D02*
X420200D01*
X419200Y162444D02*
X420200D01*
X419200Y162644D02*
X420200D01*
X419200Y162944D02*
X420200D01*
X419200Y163144D02*
X420200D01*
X419200Y163444D02*
X420200D01*
X419200Y163644D02*
X420200D01*
X419200Y163944D02*
X420200D01*
X419200Y164144D02*
X420200D01*
X419200Y164244D02*
X420100D01*
X419300Y164344D02*
X420100Y164345D01*
X419400Y164444D02*
X420100D01*
X419500Y164544D02*
X420000D01*
X420500Y165144D02*
X424800D01*
X420700Y165044D02*
X424800Y165044D01*
X420800Y164944D02*
X424800D01*
X420900Y164844D02*
X424800Y164844D01*
X421000Y162544D02*
X424800D01*
X421000Y163044D02*
X424800D01*
X421000Y163544D02*
X424800D01*
X421000Y162445D02*
X424800D01*
X421000Y162644D02*
X424800D01*
X421000Y162844D02*
X424800D01*
X421000Y162944D02*
X424800D01*
X421000Y163144D02*
X424800D01*
X421000Y163344D02*
X424800D01*
X421000Y163444D02*
X424800D01*
X421000Y163644D02*
X424800D01*
X421000Y163844D02*
X424800D01*
X421000Y163944D02*
X424800D01*
X421000Y164045D02*
X424800Y164044D01*
X421000Y164144D02*
X424800D01*
X421000Y164344D02*
X424800D01*
X421000Y164444D02*
X424800D01*
X421000Y164544D02*
X424800D01*
X421000Y164644D02*
X424800D01*
X421000Y162744D02*
X424800D01*
X421000Y163244D02*
X424800D01*
X421000Y163744D02*
X424800D01*
X421000Y164244D02*
X424800D01*
X421000Y164744D02*
X424800D01*
D02*
D27*
X226657Y200543D02*
Y200937D02*
G75*
G03*
Y200543I0J-197D01*
G01*
Y200937D02*
G75*
G02*
Y200543I0J-197D01*
G01*
X252248Y187551D02*
X220752D01*
Y199362D01*
X252248D01*
Y187551D01*
X354000Y117344D02*
Y137344D01*
X429000D01*
Y117344D01*
X354000D01*
X359000D02*
X354000Y122344D01*
D02*
D28*
X201500Y92344D02*
X207750Y86094D01*
X201500Y138594D02*
Y86094D01*
X294803Y61707D02*
X296303D01*
X294803Y62207D02*
X296303D01*
X294803Y62707D02*
X296303D01*
X294803Y63207D02*
X296303D01*
X296803Y63707D02*
X309303D01*
X296803Y64207D02*
X309303D01*
X296803Y64707D02*
X309303D01*
X296803Y65207D02*
X309303D01*
X296803Y65707D02*
X309303D01*
X296803Y66207D02*
X309303D01*
X296803Y66707D02*
X309303D01*
X296803Y67207D02*
X299803D01*
X296803Y67707D02*
X299803D01*
X296803Y68207D02*
X299803D01*
X296803Y68707D02*
X299803D01*
X298803Y61707D02*
X307303D01*
X298803Y62207D02*
X307303D01*
X298803Y62707D02*
X307303D01*
X298803Y63207D02*
X307303D01*
X298803Y69207D02*
X307303D01*
X298803Y69707D02*
X307303D01*
X298803Y70207D02*
X307303D01*
X298803Y70707D02*
X307303D01*
X300303Y59707D02*
X301803D01*
X300303Y60207D02*
X301803D01*
X300303Y60707D02*
X301803D01*
X300303Y61207D02*
X301803D01*
X300303Y71207D02*
X305803D01*
X300303Y71707D02*
X305803D01*
X300303Y72207D02*
X305803D01*
X300303Y72707D02*
X305803D01*
X300303Y73207D02*
X301803D01*
X300303Y73707D02*
X301803D01*
X300303Y74207D02*
X301803D01*
X300303Y74707D02*
X301803D01*
X302303Y67207D02*
X303803D01*
X302303Y67707D02*
X303803D01*
X302303Y68207D02*
X303803D01*
X302303Y68707D02*
X303803D01*
X304303Y59707D02*
X305803D01*
X304303Y60207D02*
X305803D01*
X304303Y60707D02*
X305803D01*
X304303Y61207D02*
X305803D01*
X304303Y73207D02*
X305803D01*
X304303Y73707D02*
X305803D01*
X304303Y74207D02*
X305803D01*
X304303Y74707D02*
X305803D01*
X306303Y67207D02*
X309303D01*
X306303Y67707D02*
X309303D01*
X306303Y68207D02*
X309303D01*
X306303Y68707D02*
X309303D01*
X309803Y61707D02*
X311303D01*
X309803Y62207D02*
X311303D01*
X309803Y62707D02*
X311303D01*
X309803Y63207D02*
X311303D01*
X313803Y59707D02*
X315303D01*
X313803Y60207D02*
X315303D01*
X313803Y60707D02*
X315303D01*
X313803Y61207D02*
X315303D01*
X313803Y61707D02*
X326303D01*
X313803Y62207D02*
X326303D01*
X313803Y62707D02*
X326303D01*
X313803Y63207D02*
X326303D01*
X313803Y63707D02*
X326303D01*
X313803Y64207D02*
X326303D01*
X313803Y64707D02*
X326303D01*
X313803Y65207D02*
X316803D01*
X313803Y65707D02*
X316803D01*
X313803Y66207D02*
X316803D01*
X313803Y66707D02*
X316803D01*
X315803Y67207D02*
X324303D01*
X315803Y67707D02*
X324303D01*
X315803Y68207D02*
X324303D01*
X315803Y68707D02*
X324303D01*
X317303Y59707D02*
X318803D01*
X317303Y60207D02*
X318803D01*
X317303Y60707D02*
X318803D01*
X317303Y61207D02*
X318803D01*
X317303Y69207D02*
X322803D01*
X317303Y69707D02*
X322803D01*
X317303Y70207D02*
X322803D01*
X317303Y70707D02*
X322803D01*
X319303Y65207D02*
X320803D01*
X319303Y65707D02*
X320803D01*
X319303Y66207D02*
X320803D01*
X319303Y66707D02*
X320803D01*
X321303Y59707D02*
X322803D01*
X321303Y60207D02*
X322803D01*
X321303Y60707D02*
X322803D01*
X321303Y61207D02*
X322803D01*
X323303Y65207D02*
X326303D01*
X323303Y65707D02*
X326303D01*
X323303Y66207D02*
X326303D01*
X323303Y66707D02*
X326303D01*
X324803Y59707D02*
X326303D01*
X324803Y60207D02*
X326303D01*
X324803Y60707D02*
X326303D01*
X324803Y61207D02*
X326303D01*
X328803Y61707D02*
X330303D01*
X328803Y62207D02*
X330303D01*
X328803Y62707D02*
X330303D01*
X330803Y59707D02*
X333803D01*
X330803Y60207D02*
X333803D01*
X330803Y60707D02*
X333803D01*
X330803Y61207D02*
X333803D01*
X332803Y61707D02*
X333803D01*
X332803Y62207D02*
X333803D01*
X332803Y62707D02*
X333803D01*
X332803Y63207D02*
X345303D01*
X332803Y63707D02*
X345303D01*
X332803Y64207D02*
X345303D01*
X332803Y64707D02*
X345303D01*
X332803Y65207D02*
X345303D01*
X332803Y65707D02*
X345303D01*
X332803Y66207D02*
X345303D01*
X332803Y66707D02*
X345303D01*
X332803Y67207D02*
X335803D01*
X332803Y67707D02*
X335803D01*
X332803Y68207D02*
X335803D01*
X332803Y68707D02*
X335803D01*
X332803Y69207D02*
X345303D01*
X332803Y69707D02*
X345303D01*
X332803Y70207D02*
X345303D01*
X332803Y70707D02*
X345303D01*
X334303Y71207D02*
X343303D01*
X334303Y71707D02*
X343303D01*
X334303Y72207D02*
X343303D01*
X336303Y59707D02*
X337803D01*
X336303Y60207D02*
X337803D01*
X336303Y60707D02*
X337803D01*
X336303Y61207D02*
X337803D01*
X336303Y61707D02*
X337803D01*
X336303Y62207D02*
X337803D01*
X336303Y62707D02*
X337803D01*
X336303Y72707D02*
X341303D01*
X336303Y73207D02*
X341303D01*
X336303Y73707D02*
X341303D01*
X336303Y74207D02*
X341303D01*
X338303Y67207D02*
X339803D01*
X338303Y67707D02*
X339803D01*
X338303Y68207D02*
X339803D01*
X338303Y68707D02*
X339803D01*
X340303Y59707D02*
X341303D01*
X340303Y60207D02*
X341303D01*
X340303Y60707D02*
X341303D01*
X340303Y61207D02*
X341303D01*
X340303Y61707D02*
X341303D01*
X340303Y62207D02*
X341303D01*
X340303Y62707D02*
X341303D01*
X341803Y67207D02*
X345303D01*
X341803Y67707D02*
X345303D01*
X341803Y68207D02*
X345303D01*
X341803Y68707D02*
X345303D01*
X343803Y59707D02*
X345303D01*
X343803Y60207D02*
X345303D01*
X343803Y60707D02*
X345303D01*
X343803Y61207D02*
X345303D01*
X343803Y61707D02*
X345303D01*
X343803Y62207D02*
X345303D01*
X343803Y62707D02*
X345303D01*
D02*
D29*
X131579Y147207D02*
X134413D01*
X135043Y147459D01*
X135358Y147963D01*
Y148970D01*
X135043Y149474D01*
X134413Y149726D01*
X131579D01*
X134413Y150230D02*
X135043Y150482D01*
X135358Y150986D01*
Y151994D01*
X135043Y152498D01*
X134413Y152750D01*
X133783Y152498D01*
X133469Y151994D01*
Y150986D01*
X133154Y150482D01*
X132524Y150230D01*
X131894Y150482D01*
X131579Y150986D01*
Y151994D01*
X131894Y152498D01*
X132524Y152750D01*
X133469Y155018D02*
X133783Y155522D01*
X134413Y155774D01*
X135043Y155522D01*
X135358Y155018D01*
Y153254D01*
X131579D01*
Y155018D01*
X131894Y155522D01*
X132524Y155774D01*
X133154Y155522D01*
X133469Y155018D01*
Y153254D01*
X135358Y158092D02*
X131579D01*
Y159856D01*
X131894Y160359D01*
X132524Y160611D01*
X133154Y160359D01*
X133469Y159856D01*
Y158092D01*
X131579Y161115D02*
X135358Y161367D01*
X133469Y162375D01*
X135358Y163383D01*
X131579Y163635D01*
X135358Y164139D02*
X131579D01*
Y165903D01*
X131894Y166407D01*
X132524Y166659D01*
X133154Y166407D01*
X133469Y165903D01*
Y164139D01*
Y165903D02*
X135358Y166659D01*
X164000Y81174D02*
X165230Y84127D01*
X166461Y81174D01*
X164492Y82405D02*
X165969D01*
X168429Y81174D02*
X169413D01*
X168921D02*
Y84127D01*
X168429Y83635D01*
X172612Y82651D02*
X173104D01*
X173596Y82897D01*
X173843Y83389D01*
X173596Y83881D01*
X173104Y84127D01*
X172612D01*
X172120Y83881D01*
X171874Y83389D01*
X172120Y82897D01*
X172612Y82651D01*
X172120Y82405D01*
X171874Y81913D01*
X172120Y81420D01*
X172612Y81174D01*
X173104D01*
X173596Y81420D01*
X173843Y81913D01*
X173596Y82405D01*
X173104Y82651D01*
X164000Y100583D02*
X165230Y103535D01*
X166461Y100583D01*
X164492Y101813D02*
X165969D01*
X168429Y100583D02*
X169413D01*
X168921D02*
Y103535D01*
X168429Y103043D01*
X171874Y100829D02*
X172366Y100583D01*
X173104D01*
X173596Y100829D01*
X173843Y101321D01*
Y101567D01*
X173596Y102059D01*
X173104Y102305D01*
X171874D01*
Y103535D01*
X173843D01*
X164000Y119333D02*
X165230Y122285D01*
X166461Y119333D01*
X164492Y120563D02*
X165969D01*
X168429Y119333D02*
X169413D01*
X168921D02*
Y122285D01*
X168429Y121793D01*
X173104Y119333D02*
Y122285D01*
X171874Y120317D01*
X173843D01*
X164000Y139333D02*
X165230Y142285D01*
X166461Y139333D01*
X164492Y140563D02*
X165969D01*
X168429Y139333D02*
X169413D01*
X168921D02*
Y142285D01*
X168429Y141793D01*
X171874Y139333D02*
X173843Y142285D01*
X171874D01*
X228803Y174096D02*
X229055Y173467D01*
X229559Y173152D01*
X230063D01*
X230567Y173467D01*
X230819Y174096D01*
Y174726D01*
X230567Y175356D01*
X230063Y175671D01*
X229559D01*
X229055Y175356D01*
X228803Y174726D01*
Y173152D02*
Y176931D01*
X231302Y174096D02*
X231554Y173467D01*
X232058Y173152D01*
X232562D01*
X233066Y173467D01*
X233318Y174096D01*
Y174726D01*
X233066Y175356D01*
X232562Y175671D01*
X232058D01*
X231554Y175356D01*
X231302Y174726D01*
Y174096D01*
X233802D02*
X234054Y173467D01*
X234557Y173152D01*
X235061D01*
X235565Y173467D01*
X235817Y174096D01*
Y174726D01*
X235565Y175356D01*
X235061Y175671D01*
X234557D01*
X234054Y175356D01*
X233802Y174726D01*
Y174096D01*
X236301Y175671D02*
X237476D01*
X236889Y176301D02*
Y173467D01*
X237141Y173152D01*
X237393D01*
X237645Y173467D01*
X238367Y173152D02*
X238115D01*
Y176931D01*
X238841Y174096D02*
X239093Y173467D01*
X239596Y173152D01*
X240100D01*
X240604Y173467D01*
X240856Y174096D01*
Y174726D01*
X240604Y175356D01*
X240100Y175671D01*
X239596D01*
X239093Y175356D01*
X238841Y174726D01*
Y174096D01*
X241340Y175356D02*
X241844Y175671D01*
X242600D01*
X243104Y175356D01*
X243356Y174726D01*
Y173781D01*
X243104Y173467D01*
X242600Y173152D01*
X242096D01*
X241592Y173467D01*
X241340Y173781D01*
Y174096D01*
X241592Y174411D01*
X242096Y174726D01*
X242600D01*
X243104Y174411D01*
X243356Y174096D01*
Y173781D02*
Y173152D01*
X245855Y174726D02*
X245603Y175356D01*
X245099Y175671D01*
X244595D01*
X244091Y175356D01*
X243839Y174726D01*
Y174096D01*
X244091Y173467D01*
X244595Y173152D01*
X245099D01*
X245603Y173467D01*
X245855Y174096D01*
Y173152D02*
Y176931D01*
X248354Y173467D02*
X248102Y173152D01*
X247598D01*
X247094D01*
X246590Y173467D01*
X246338Y174096D01*
Y175041D01*
X246590Y175356D01*
X247094Y175671D01*
X247598D01*
X248102Y175356D01*
X248354Y175041D01*
Y174726D01*
X248102Y174411D01*
X247598Y174096D01*
X247094D01*
X246590Y174411D01*
X246338Y174726D01*
X248837Y173152D02*
Y175671D01*
Y174726D02*
X249089Y175356D01*
X249593Y175671D01*
X250097D01*
X250601Y175356D01*
X252909Y173467D02*
X253413Y173152D01*
X254169D01*
X254673Y173467D01*
X254925Y174096D01*
Y174411D01*
X254673Y175041D01*
X254169Y175356D01*
X252909D01*
Y176931D01*
X254925D01*
X255408D02*
X256668Y173152D01*
X257928Y176931D01*
X260246Y173152D02*
X261254D01*
X260750D02*
Y176931D01*
X260246Y176301D01*
X261737Y174096D02*
X261989Y174726D01*
X262493Y175041D01*
X262997D01*
X263501Y174726D01*
X263753Y174096D01*
X263501Y173467D01*
X262997Y173152D01*
X262493D01*
X261989Y173467D01*
X261737Y174096D01*
Y175041D01*
X261989Y175986D01*
X262493Y176616D01*
X262997Y176931D01*
X264237Y173152D02*
Y176931D01*
X265496Y175041D01*
X266756Y176931D01*
Y173152D01*
X267260D02*
Y176931D01*
Y175041D02*
X269780D01*
Y173152D02*
Y176931D01*
X270284Y175671D02*
X272300D01*
X270284Y173152D01*
X272300D01*
X280053Y133144D02*
Y136894D01*
X281928D01*
X282553Y136582D01*
X282866Y136269D01*
X283178Y135644D01*
Y134394D01*
X282866Y133769D01*
X282553Y133457D01*
X281928Y133144D01*
X280053D01*
X286303Y133457D02*
X285991Y133144D01*
X285366D01*
X284741D01*
X284116Y133457D01*
X283803Y134082D01*
Y135019D01*
X284116Y135332D01*
X284741Y135644D01*
X285366D01*
X285991Y135332D01*
X286303Y135019D01*
Y134707D01*
X285991Y134394D01*
X285366Y134082D01*
X284741D01*
X284116Y134394D01*
X283803Y134707D01*
X287528Y133144D02*
Y136269D01*
X287841Y136582D01*
X288153D01*
X288466Y136269D01*
X286903Y135332D02*
X288153D01*
X289053D02*
X289678Y135644D01*
X290616D01*
X291241Y135332D01*
X291553Y134707D01*
Y133769D01*
X291241Y133457D01*
X290616Y133144D01*
X289991D01*
X289366Y133457D01*
X289053Y133769D01*
Y134082D01*
X289366Y134394D01*
X289991Y134707D01*
X290616D01*
X291241Y134394D01*
X291553Y134082D01*
Y133769D02*
Y133144D01*
X292153Y135644D02*
Y134082D01*
X292466Y133457D01*
X293091Y133144D01*
X293716D01*
X294341Y133457D01*
X294653Y134082D01*
Y135644D02*
Y133144D01*
X295566D02*
X295253D01*
Y136894D01*
X296153Y135644D02*
X297611D01*
X296882Y136269D02*
Y133457D01*
X297195Y133144D01*
X297507D01*
X297820Y133457D01*
X282553Y127144D02*
X280053D01*
X282241Y129332D01*
X282553Y129957D01*
X282241Y130582D01*
X281616Y130894D01*
X280678D01*
X280053Y130582D01*
X283153Y127144D02*
X285653Y130894D01*
X283153D01*
X289378Y127769D02*
X289066Y127457D01*
X288441Y127144D01*
X287503D01*
X286878Y127457D01*
X286566Y127769D01*
X286253Y128394D01*
Y129644D01*
X286566Y130269D01*
X286878Y130582D01*
X287503Y130894D01*
X288441D01*
X289066Y130582D01*
X289378Y130269D01*
X292503Y127144D02*
X290003D01*
X292191Y129332D01*
X292503Y129957D01*
X292191Y130582D01*
X291566Y130894D01*
X290628D01*
X290003Y130582D01*
X293103Y127457D02*
X293728Y127144D01*
X294666D01*
X295291Y127457D01*
X295603Y128082D01*
Y128394D01*
X295291Y129019D01*
X294666Y129332D01*
X293103D01*
Y130894D01*
X295603D01*
X296203Y128082D02*
X296516Y128707D01*
X297141Y129019D01*
X297766D01*
X298391Y128707D01*
X298703Y128082D01*
X298391Y127457D01*
X297766Y127144D01*
X297141D01*
X296516Y127457D01*
X296203Y128082D01*
Y129019D01*
X296516Y129957D01*
X297141Y130582D01*
X297766Y130894D01*
X301553Y128082D02*
X301866Y127457D01*
X302491Y127144D01*
X303741D01*
X304366Y127457D01*
X304678Y128082D01*
X304366Y128707D01*
X303741Y129019D01*
X302491D01*
X301866Y129332D01*
X301553Y129957D01*
X301866Y130582D01*
X302491Y130894D01*
X303741D01*
X304366Y130582D01*
X304678Y129957D01*
X307803Y127457D02*
X307491Y127144D01*
X306866D01*
X306241D01*
X305616Y127457D01*
X305303Y128082D01*
Y129019D01*
X305616Y129332D01*
X306241Y129644D01*
X306866D01*
X307491Y129332D01*
X307803Y129019D01*
Y128707D01*
X307491Y128394D01*
X306866Y128082D01*
X306241D01*
X305616Y128394D01*
X305303Y128707D01*
X308403Y129644D02*
X309861D01*
X309132Y130269D02*
Y127457D01*
X309445Y127144D01*
X309757D01*
X310070Y127457D01*
X310653Y129644D02*
X312111D01*
X311382Y130269D02*
Y127457D01*
X311695Y127144D01*
X312007D01*
X312320Y127457D01*
X312903Y127144D02*
Y129644D01*
Y130582D02*
X313503Y127144D02*
Y129644D01*
Y128707D02*
X313816Y129332D01*
X314441Y129644D01*
X315066D01*
X315691Y129332D01*
X316003Y128707D01*
Y127144D01*
X319103Y128707D02*
X318791Y129332D01*
X318166Y129644D01*
X317541D01*
X316916Y129332D01*
X316603Y128707D01*
Y128394D01*
X316916Y127769D01*
X317541Y127457D01*
X318166D01*
X318791Y127769D01*
X319103Y128394D01*
Y129644D02*
Y127144D01*
X318791Y126519D01*
X318166Y126207D01*
X317228D01*
X316603Y126519D01*
X321953Y130894D02*
X323516Y127144D01*
X325078Y130894D01*
X328203Y127457D02*
X327891Y127144D01*
X327266D01*
X326641D01*
X326016Y127457D01*
X325703Y128082D01*
Y129019D01*
X326016Y129332D01*
X326641Y129644D01*
X327266D01*
X327891Y129332D01*
X328203Y129019D01*
Y128707D01*
X327891Y128394D01*
X327266Y128082D01*
X326641D01*
X326016Y128394D01*
X325703Y128707D01*
X328803Y127144D02*
Y129644D01*
Y128707D02*
X329116Y129332D01*
X329741Y129644D01*
X330366D01*
X330991Y129332D01*
X331603Y127457D02*
X332228Y127144D01*
X333478D01*
X334103Y127457D01*
Y128082D01*
X333478Y128394D01*
X332228D01*
X331603Y128707D01*
Y129332D01*
X332228Y129644D01*
X333478D01*
X334103Y129332D01*
X334703Y127144D02*
Y129644D01*
Y130582D02*
X335303Y128082D02*
X335616Y127457D01*
X336241Y127144D01*
X336866D01*
X337491Y127457D01*
X337803Y128082D01*
Y128707D01*
X337491Y129332D01*
X336866Y129644D01*
X336241D01*
X335616Y129332D01*
X335303Y128707D01*
Y128082D01*
X338403Y127144D02*
Y129644D01*
Y128707D02*
X338716Y129332D01*
X339341Y129644D01*
X339966D01*
X340591Y129332D01*
X340903Y128707D01*
Y127144D01*
X380014Y97187D02*
X379768Y96941D01*
X379276Y96695D01*
X378537D01*
X378045Y96941D01*
X377799Y97187D01*
X377553Y97679D01*
Y98663D01*
X377799Y99156D01*
X378045Y99402D01*
X378537Y99648D01*
X379276D01*
X379768Y99402D01*
X380014Y99156D01*
X381490Y97433D02*
X381736Y96941D01*
X382228Y96695D01*
X383213D01*
X383705Y96941D01*
X383951Y97433D01*
X383705Y97925D01*
X383213Y98171D01*
X382228D01*
X381736Y98417D01*
X381490Y98909D01*
X381736Y99402D01*
X382228Y99648D01*
X383213D01*
X383705Y99402D01*
X383951Y98909D01*
X378045Y91970D02*
X379030D01*
X378537D02*
Y94923D01*
X378045Y94431D01*
X383459Y91970D02*
X381490D01*
X383213Y93693D01*
X383459Y94185D01*
X383213Y94677D01*
X382720Y94923D01*
X381982D01*
X381490Y94677D01*
X383459Y82522D02*
X381490D01*
X383213Y84244D01*
X383459Y84736D01*
X383213Y85228D01*
X382720Y85474D01*
X381982D01*
X381490Y85228D01*
X402711Y97187D02*
X402465Y96941D01*
X401972Y96695D01*
X401234D01*
X400742Y96941D01*
X400496Y97187D01*
X400250Y97679D01*
Y98663D01*
X400496Y99156D01*
X400742Y99402D01*
X401234Y99648D01*
X401972D01*
X402465Y99402D01*
X402711Y99156D01*
X404187Y97433D02*
X404433Y96941D01*
X404925Y96695D01*
X405909D01*
X406402Y96941D01*
X406648Y97433D01*
X406402Y97925D01*
X405909Y98171D01*
X404925D01*
X404433Y98417D01*
X404187Y98909D01*
X404433Y99402D01*
X404925Y99648D01*
X405909D01*
X406402Y99402D01*
X406648Y98909D01*
X404679Y91970D02*
X405663D01*
X405171D02*
Y94923D01*
X404679Y94431D01*
X400250Y82522D02*
Y85474D01*
X401972D01*
X402465Y85228D01*
X402711Y84736D01*
X402465Y84244D01*
X401972Y83998D01*
X400250D01*
X401972D02*
X402711Y82522D01*
X404187D02*
Y85474D01*
X405663D01*
X406156Y85228D01*
X406402Y84982D01*
X406648Y84490D01*
Y83506D01*
X406402Y83014D01*
X406156Y82768D01*
X405663Y82522D01*
X404187D01*
D02*
D72*
X84571Y118457D02*
X61193D01*
X105687Y49329D02*
X126187D01*
X123941Y111567D02*
X84571D01*
Y125346D01*
X123941D01*
Y111567D01*
X126185Y56827D02*
Y49346D01*
X132004Y54837D02*
X132634Y54522D01*
X133579D01*
X134209Y54837D01*
X134524Y55467D01*
Y55781D01*
X134209Y56411D01*
X133579Y56726D01*
X132004D01*
Y58301D01*
X134524D01*
X137358Y54837D02*
X137988Y54522D01*
X138618D01*
X139248Y54837D01*
X139563Y55467D01*
Y57356D01*
X139248Y57986D01*
X138618Y58301D01*
X137988D01*
X137358Y57986D01*
X137043Y57356D01*
Y55467D01*
X137358Y54837D01*
X139248Y57986D01*
X138000Y149490D02*
Y182093D01*
X147319Y118457D02*
X123941D01*
X178762Y86029D02*
Y138512D01*
X344258D01*
Y86029D01*
X178762D01*
X178803Y164564D02*
X180649Y168993D01*
X182494Y164564D01*
X179541Y166409D02*
X181756D01*
X186554Y164564D02*
Y168993D01*
X184709D02*
X188400D01*
X190614Y164564D02*
Y168993D01*
X192460Y166779D01*
X194305Y168993D01*
Y164564D01*
X196520D02*
Y168993D01*
X200211D01*
X199472Y166779D02*
X196520D01*
Y164564D02*
X200211D01*
X205009Y166409D02*
X206116D01*
Y166041D01*
X205747Y165302D01*
X205378Y164933D01*
X204640Y164564D01*
X203902D01*
X203163Y164933D01*
X202794Y165302D01*
X202425Y166041D01*
Y167517D01*
X202794Y168255D01*
X203163Y168624D01*
X203902Y168993D01*
X204640D01*
X205378Y168624D01*
X205747Y168255D01*
X206116Y167517D01*
X208331Y164564D02*
X210176Y168993D01*
X212022Y164564D01*
X209069Y166409D02*
X211283D01*
X214606Y164933D02*
X215344Y164564D01*
X216082D01*
X216820Y164933D01*
X217189Y165671D01*
X216820Y166409D01*
X216082Y166779D01*
X215344D01*
X216082D02*
X216820Y167148D01*
X217189Y167886D01*
X216820Y168624D01*
X216082Y168993D01*
X215344D01*
X214606Y168624D01*
X223094Y164564D02*
X220142D01*
X222726Y167148D01*
X223094Y167886D01*
X222726Y168624D01*
X221987Y168993D01*
X220880D01*
X220142Y168624D01*
X227155Y166779D02*
X227893D01*
X228631Y167148D01*
X229000Y167886D01*
X228631Y168624D01*
X227893Y168993D01*
X227155D01*
X226417Y168624D01*
X226047Y167886D01*
X226417Y167148D01*
X227155Y166779D01*
X226417Y166409D01*
X226047Y165671D01*
X226417Y164933D01*
X227155Y164564D01*
X227893D01*
X228631Y164933D01*
X229000Y165671D01*
X228631Y166409D01*
X227893Y166779D01*
X183760Y86029D02*
X178760Y91029D01*
X185240Y90159D02*
X185555Y90789D01*
Y91419D01*
X185240Y92049D01*
X184610Y92364D01*
X183980Y92049D01*
X183665Y91419D01*
Y90789D01*
Y91419D02*
X183350Y92049D01*
X182720Y92364D01*
X182091Y92049D01*
X181776Y91419D01*
Y90789D01*
X182091Y90159D01*
X185555Y95829D02*
X185240Y96459D01*
X184610Y97089D01*
X183665Y97404D01*
X182720D01*
X182091Y97089D01*
X181776Y96459D01*
Y95829D01*
X182091Y95199D01*
X182720Y94884D01*
X183350Y95199D01*
X183665Y95829D01*
Y96459D01*
X183350Y97089D01*
X182720Y97404D01*
X184610Y99923D02*
X185240Y100238D01*
X185555Y100868D01*
Y102128D01*
X185240Y102758D01*
X184610Y103073D01*
X183980Y102758D01*
X183665Y102128D01*
Y100868D01*
X183350Y100238D01*
X182720Y99923D01*
X182091Y100238D01*
X181776Y100868D01*
Y102128D01*
X182091Y102758D01*
X182720Y103073D01*
X185555Y104963D02*
X181776D01*
Y108112D01*
X183665Y107482D02*
Y104963D01*
X185240Y110317D02*
X185555Y110947D01*
Y111577D01*
X185240Y112207D01*
X184610Y112522D01*
X182720D01*
X182091Y112207D01*
X181776Y111577D01*
Y110947D01*
X182091Y110317D01*
X182720Y110002D01*
X184610D01*
X185240Y110317D01*
X182091Y112207D01*
X185555Y115041D02*
X183035Y117561D01*
X185555D02*
X183035Y115041D01*
X185240Y120396D02*
X185555Y121026D01*
Y121656D01*
X185240Y122285D01*
X184610Y122600D01*
X182720D01*
X182091Y122285D01*
X181776Y121656D01*
Y121026D01*
X182091Y120396D01*
X182720Y120081D01*
X184610D01*
X185240Y120396D01*
X182091Y122285D01*
X191602Y92364D02*
Y89844D01*
X189398Y92049D01*
X188768Y92364D01*
X188138Y92049D01*
X187823Y91419D01*
Y90474D01*
X188138Y89844D01*
X191602Y94884D02*
X187823Y97404D01*
Y94884D01*
X190972Y103073D02*
X191287Y102758D01*
X191602Y102128D01*
Y101183D01*
X191287Y100553D01*
X190972Y100238D01*
X190343Y99923D01*
X189083D01*
X188453Y100238D01*
X188138Y100553D01*
X187823Y101183D01*
Y102128D01*
X188138Y102758D01*
X188453Y103073D01*
X191287Y105278D02*
X191602Y105907D01*
Y106537D01*
X191287Y107167D01*
X190657Y107482D01*
X188768D01*
X188138Y107167D01*
X187823Y106537D01*
Y105907D01*
X188138Y105278D01*
X188768Y104963D01*
X190657D01*
X191287Y105278D01*
X188138Y107167D01*
X191602Y110002D02*
X189083Y112522D01*
X191602D02*
X189083Y110002D01*
X191287Y115356D02*
X191602Y115986D01*
Y116616D01*
X191287Y117246D01*
X190657Y117561D01*
X188768D01*
X188138Y117246D01*
X187823Y116616D01*
Y115986D01*
X188138Y115356D01*
X188768Y115041D01*
X190657D01*
X191287Y115356D01*
X188138Y117246D01*
X197650Y92364D02*
Y89844D01*
X195445Y92049D01*
X194815Y92364D01*
X194185Y92049D01*
X193870Y91419D01*
Y90474D01*
X194185Y89844D01*
X197650Y94884D02*
X193870Y97404D01*
Y94884D01*
X197650Y99923D02*
X193870D01*
Y103073D01*
X195760Y102443D02*
Y99923D01*
X197335Y105278D02*
X197650Y105907D01*
Y106537D01*
X197335Y107167D01*
X196705Y107482D01*
X194815D01*
X194185Y107167D01*
X193870Y106537D01*
Y105907D01*
X194185Y105278D01*
X194815Y104963D01*
X196705D01*
X197335Y105278D01*
X194185Y107167D01*
X197650Y110002D02*
X195130Y112522D01*
X197650D02*
X195130Y110002D01*
X197335Y115356D02*
X197650Y115986D01*
Y116616D01*
X197335Y117246D01*
X196705Y117561D01*
X194815D01*
X194185Y117246D01*
X193870Y116616D01*
Y115986D01*
X194185Y115356D01*
X194815Y115041D01*
X196705D01*
X197335Y115356D01*
X194185Y117246D01*
X206805Y100799D02*
Y98280D01*
X204600Y100484D01*
X203970Y100799D01*
X203341Y100484D01*
X203026Y99854D01*
Y98909D01*
X203341Y98280D01*
X206805Y103319D02*
X203026Y105839D01*
Y103319D01*
X206175Y111508D02*
X206490Y111193D01*
X206805Y110563D01*
Y109618D01*
X206490Y108988D01*
X206175Y108673D01*
X205545Y108358D01*
X204285D01*
X203656Y108673D01*
X203341Y108988D01*
X203026Y109618D01*
Y110563D01*
X203341Y111193D01*
X203656Y111508D01*
X206490Y113713D02*
X206805Y114343D01*
Y114972D01*
X206490Y115602D01*
X205860Y115917D01*
X205230Y115602D01*
X204915Y114972D01*
Y114343D01*
Y114972D02*
X204600Y115602D01*
X203970Y115917D01*
X203341Y115602D01*
X203026Y114972D01*
Y114343D01*
X203341Y113713D01*
X206805Y120957D02*
Y118437D01*
X204600Y120642D01*
X203970Y120957D01*
X203341Y120642D01*
X203026Y120012D01*
Y119067D01*
X203341Y118437D01*
X206805Y123476D02*
X203026Y126626D01*
X205860Y128516D02*
X205230Y128831D01*
X204915Y129461D01*
Y130091D01*
X205230Y130720D01*
X205860Y131035D01*
X206490Y130720D01*
X206805Y130091D01*
Y129461D01*
X206490Y128831D01*
X205860Y128516D01*
X204915D01*
X203970Y128831D01*
X203341Y129461D01*
X203026Y130091D01*
X206805Y135130D02*
X203026D01*
X205545Y133555D01*
Y136075D01*
X212852Y103949D02*
Y105209D01*
Y104579D02*
X209073D01*
X209703Y103949D01*
X212852Y110878D02*
Y108358D01*
X210648Y110563D01*
X210018Y110878D01*
X209388Y110563D01*
X209073Y109933D01*
Y108988D01*
X209388Y108358D01*
X210963Y114343D02*
Y114972D01*
X210648Y115602D01*
X210018Y115917D01*
X209388Y115602D01*
X209073Y114972D01*
Y114343D01*
X209388Y113713D01*
X210018Y113398D01*
X210648Y113713D01*
X210963Y114343D01*
X211278Y113713D01*
X211907Y113398D01*
X212537Y113713D01*
X212852Y114343D01*
Y114972D01*
X212537Y115602D01*
X211907Y115917D01*
X211278Y115602D01*
X210963Y114972D01*
X212852Y118437D02*
X209073Y121587D01*
X212852Y125996D02*
Y123476D01*
X210648Y125681D01*
X210018Y125996D01*
X209388Y125681D01*
X209073Y125051D01*
Y124106D01*
X209388Y123476D01*
X212537Y128516D02*
X212852Y129146D01*
Y130091D01*
X212537Y130720D01*
X211907Y131035D01*
X211593D01*
X210963Y130720D01*
X210648Y130091D01*
Y128516D01*
X209073D01*
Y131035D01*
X211907Y133555D02*
X211278Y133870D01*
X210963Y134500D01*
Y135130D01*
X211278Y135760D01*
X211907Y136075D01*
X212537Y135760D01*
X212852Y135130D01*
Y134500D01*
X212537Y133870D01*
X211907Y133555D01*
X210963D01*
X210018Y133870D01*
X209388Y134500D01*
X209073Y135130D01*
X218900Y110878D02*
Y108358D01*
X216695Y110563D01*
X216065Y110878D01*
X215435Y110563D01*
X215120Y109933D01*
Y108988D01*
X215435Y108358D01*
X218900Y113398D02*
X215120Y115917D01*
Y113398D01*
X218900Y118437D02*
X215120D01*
Y121587D01*
X217010Y120957D02*
Y118437D01*
X218585Y123476D02*
X218900Y124106D01*
Y125051D01*
X218585Y125681D01*
X217955Y125996D01*
X217640D01*
X217010Y125681D01*
X216695Y125051D01*
Y123476D01*
X215120D01*
Y125996D01*
X218900Y129146D02*
Y130406D01*
Y129776D02*
X215120D01*
X215750Y129146D01*
X218900Y136075D02*
Y133555D01*
X216695Y135760D01*
X216065Y136075D01*
X215435Y135760D01*
X215120Y135130D01*
Y134185D01*
X215435Y133555D01*
X275000Y152596D02*
Y182093D01*
X283508Y149490D02*
Y180337D01*
X315250Y164702D02*
X318203Y169131D01*
X315250D01*
X323001Y164702D02*
Y169131D01*
X321156Y166178D01*
X324108D01*
X327061Y164702D02*
Y169131D01*
Y166917D02*
X330752D01*
Y164702D02*
Y169131D01*
X336657Y165440D02*
X336289Y165071D01*
X335550Y164702D01*
X334443D01*
X333705Y165071D01*
X333336Y165440D01*
X332967Y166178D01*
Y167655D01*
X333336Y168393D01*
X333705Y168762D01*
X334443Y169131D01*
X335550D01*
X336289Y168762D01*
X336657Y168393D01*
X339241Y165071D02*
X339980Y164702D01*
X340718D01*
X341456Y165071D01*
X341825Y165809D01*
X341456Y166547D01*
X340718Y166917D01*
X339980D01*
X340718D02*
X341456Y167285D01*
X341825Y168024D01*
X341456Y168762D01*
X340718Y169131D01*
X339980D01*
X339241Y168762D01*
X344778Y164702D02*
X347730Y169131D01*
X344778D01*
X351052Y165071D02*
X351791Y164702D01*
X352529D01*
X353267Y165071D01*
X353636Y165809D01*
X353267Y166547D01*
X352529Y166917D01*
X351791D01*
X352529D02*
X353267Y167285D01*
X353636Y168024D01*
X353267Y168762D01*
X352529Y169131D01*
X351791D01*
X351052Y168762D01*
X354000Y137344D02*
Y109844D01*
X374000Y124702D02*
X376953Y129131D01*
X374000D01*
X381751Y124702D02*
Y129131D01*
X379906Y126178D01*
X382858D01*
X385811Y124702D02*
Y129131D01*
Y126917D02*
X389502D01*
Y124702D02*
Y129131D01*
X395407Y125440D02*
X395039Y125071D01*
X394300Y124702D01*
X393193D01*
X392455Y125071D01*
X392086Y125440D01*
X391717Y126178D01*
Y127655D01*
X392086Y128393D01*
X392455Y128762D01*
X393193Y129131D01*
X394300D01*
X395039Y128762D01*
X395407Y128393D01*
X397991Y125071D02*
X398730Y124702D01*
X399468D01*
X400206Y125071D01*
X400575Y125809D01*
Y128024D01*
X400206Y128762D01*
X399468Y129131D01*
X398730D01*
X397991Y128762D01*
X397622Y128024D01*
Y125809D01*
X397991Y125071D01*
X400206Y128762D01*
X403897Y125071D02*
X404635Y124702D01*
X405373D01*
X406111Y125071D01*
X406480Y125809D01*
Y128024D01*
X406111Y128762D01*
X405373Y129131D01*
X404635D01*
X403897Y128762D01*
X403528Y128024D01*
Y125809D01*
X403897Y125071D01*
X406111Y128762D01*
X379524Y52022D02*
X377004D01*
X379209Y54226D01*
X379524Y54856D01*
X379209Y55486D01*
X378579Y55801D01*
X377634D01*
X377004Y55486D01*
X383754Y56827D02*
Y49346D01*
X389492Y154352D02*
Y180337D01*
X404254Y49327D02*
X383754D01*
X429000Y117344D02*
Y137344D01*
D02*
D73*
X71746Y217158D02*
X93766D01*
Y221201D01*
X71746D01*
Y217158D01*
X74358Y221263D02*
X93766D01*
Y241853D01*
G75*
G03*
X74358I-9704J0D01*
G01*
Y221263D01*
X76505Y214848D02*
Y216722D01*
X81504Y214848D02*
Y216722D01*
X86502Y214848D02*
Y216722D01*
X91500Y214848D02*
Y216722D01*
X106746Y217158D02*
X128766D01*
Y221201D01*
X106746D01*
Y217158D01*
X109358Y221263D02*
X128766D01*
Y241853D01*
G75*
G03*
X109358I-9704J0D01*
G01*
Y221263D01*
X111505Y214848D02*
Y216722D01*
X116504Y214848D02*
Y216722D01*
X121502Y214848D02*
Y216722D01*
X126500Y214848D02*
Y216722D01*
X141746Y217158D02*
X163766D01*
Y221201D01*
X141746D01*
Y217158D01*
X144358Y221263D02*
X163766D01*
Y241853D01*
G75*
G03*
X144358I-9704J0D01*
G01*
Y221263D01*
X146505Y214848D02*
Y216722D01*
X151504Y214848D02*
Y216722D01*
X156502Y214848D02*
Y216722D01*
X161500Y214848D02*
Y216722D01*
X176746Y217158D02*
X198766D01*
Y221201D01*
X176746D01*
Y217158D01*
X179358Y221263D02*
X198766D01*
Y241853D01*
G75*
G03*
X179358I-9704J0D01*
G01*
Y221263D01*
X181505Y214848D02*
Y216722D01*
X186504Y214848D02*
Y216722D01*
X191502Y214848D02*
Y216722D01*
X196500Y214848D02*
Y216722D01*
X211746Y217158D02*
X233766D01*
Y221201D01*
X211746D01*
Y217158D01*
X214358Y221263D02*
X233766D01*
Y241853D01*
G75*
G03*
X214358I-9704J0D01*
G01*
Y221263D01*
X216505Y214848D02*
Y216722D01*
X221504Y214848D02*
Y216722D01*
X226502Y214848D02*
Y216722D01*
X231500Y214848D02*
Y216722D01*
X246746Y217158D02*
X268766D01*
Y221201D01*
X246746D01*
Y217158D01*
X249358Y221263D02*
X268766D01*
Y241853D01*
G75*
G03*
X249358I-9704J0D01*
G01*
Y221263D01*
X251505Y214848D02*
Y216722D01*
X256504Y214848D02*
Y216722D01*
X261502Y214848D02*
Y216722D01*
X266500Y214848D02*
Y216722D01*
X281746Y217158D02*
X303766D01*
Y221201D01*
X281746D01*
Y217158D01*
X284358Y221263D02*
X303766D01*
Y241853D01*
G75*
G03*
X284358I-9704J0D01*
G01*
Y221263D01*
X286505Y214848D02*
Y216722D01*
X291504Y214848D02*
Y216722D01*
X296502Y214848D02*
Y216722D01*
X301500Y214848D02*
Y216722D01*
X316746Y217158D02*
X338766D01*
Y221201D01*
X316746D01*
Y217158D01*
X319358Y221263D02*
X338766D01*
Y241853D01*
G75*
G03*
X319358I-9704J0D01*
G01*
Y221263D01*
X321505Y214848D02*
Y216722D01*
X326504Y214848D02*
Y216722D01*
X331502Y214848D02*
Y216722D01*
X336500Y214848D02*
Y216722D01*
X351746Y217158D02*
X373766D01*
Y221201D01*
X351746D01*
Y217158D01*
X354358Y221263D02*
X373766D01*
Y241853D01*
G75*
G03*
X354358I-9704J0D01*
G01*
Y221263D01*
X356505Y214848D02*
Y216722D01*
X361504Y214848D02*
Y216722D01*
X366502Y214848D02*
Y216722D01*
X371500Y214848D02*
Y216722D01*
X386746Y217158D02*
X408766D01*
Y221201D01*
X386746D01*
Y217158D01*
X389358Y221263D02*
X408766D01*
Y241853D01*
G75*
G03*
X389358I-9704J0D01*
G01*
Y221263D01*
X391505Y214848D02*
Y216722D01*
X396504Y214848D02*
Y216722D01*
X401502Y214848D02*
Y216722D01*
X406500Y214848D02*
Y216722D01*
D02*
D74*
X120053Y166341D02*
Y146341D01*
X130053D01*
Y166341D01*
X120053D01*
D02*
D130*
X85250Y71690D02*
Y79072D01*
X88326Y75381D01*
X91402Y79072D01*
Y71690D01*
X92632Y73535D02*
X93247Y72305D01*
X94478Y71690D01*
X96938D01*
X98169Y72305D01*
X98783Y73535D01*
X98169Y74766D01*
X96938Y75381D01*
X94478D01*
X93247Y75996D01*
X92632Y77226D01*
X93247Y78457D01*
X94478Y79072D01*
X96938D01*
X98169Y78457D01*
X98783Y77226D01*
X100014Y71690D02*
X106165Y79072D01*
X100014D02*
X106165Y71690D01*
X116131Y74766D02*
X117976D01*
Y74151D01*
X117361Y72920D01*
X116746Y72305D01*
X115516Y71690D01*
X114285D01*
X113055Y72305D01*
X112440Y72920D01*
X111825Y74151D01*
Y76611D01*
X112440Y77842D01*
X113055Y78457D01*
X114285Y79072D01*
X115516D01*
X116746Y78457D01*
X117361Y77842D01*
X117976Y76611D01*
X119207Y75996D02*
X120437Y76611D01*
X122283D01*
X123513Y75996D01*
X124128Y74766D01*
Y72920D01*
X123513Y72305D01*
X122283Y71690D01*
X121052D01*
X119822Y72305D01*
X119207Y72920D01*
Y73535D01*
X119822Y74151D01*
X121052Y74766D01*
X122283D01*
X123513Y74151D01*
X124128Y73535D01*
Y72920D02*
Y71690D01*
X125309D02*
Y76611D01*
Y75996D02*
X125924Y76611D01*
X127155D01*
X127770Y75996D01*
Y74151D01*
Y75996D02*
X128385Y76611D01*
X129615D01*
X130230Y75996D01*
Y71690D01*
X131411D02*
Y76611D01*
Y78457D02*
X132593Y71690D02*
Y76611D01*
Y74766D02*
X133208Y75996D01*
X134438Y76611D01*
X135669D01*
X136899Y75996D01*
X137514Y74766D01*
Y71690D01*
X143616Y74766D02*
X143001Y75996D01*
X141771Y76611D01*
X140541D01*
X139310Y75996D01*
X138695Y74766D01*
Y74151D01*
X139310Y72920D01*
X140541Y72305D01*
X141771D01*
X143001Y72920D01*
X143616Y74151D01*
Y76611D02*
Y71690D01*
X143001Y70460D01*
X141771Y69844D01*
X139925D01*
X138695Y70460D01*
X91402Y64062D02*
X90787Y63447D01*
X89556Y62832D01*
X87711D01*
X86480Y63447D01*
X85865Y64062D01*
X85250Y65293D01*
Y67753D01*
X85865Y68983D01*
X86480Y69598D01*
X87711Y70214D01*
X89556D01*
X90787Y69598D01*
X91402Y68983D01*
X92632Y67138D02*
X93862Y67753D01*
X95708D01*
X96938Y67138D01*
X97553Y65907D01*
Y64062D01*
X96938Y63447D01*
X95708Y62832D01*
X94478D01*
X93247Y63447D01*
X92632Y64062D01*
Y64677D01*
X93247Y65293D01*
X94478Y65907D01*
X95708D01*
X96938Y65293D01*
X97553Y64677D01*
Y64062D02*
Y62832D01*
X98734D02*
Y67753D01*
Y65907D02*
X99350Y67138D01*
X100580Y67753D01*
X101810D01*
X103041Y67138D01*
X104246Y67753D02*
X107117D01*
X105681Y68983D02*
Y63447D01*
X106296Y62832D01*
X106912D01*
X107527Y63447D01*
X108675Y62832D02*
Y67753D01*
Y65907D02*
X109291Y67138D01*
X110521Y67753D01*
X111751D01*
X112981Y67138D01*
X114187Y62832D02*
Y67753D01*
Y69598D02*
X120289Y65907D02*
X119674Y67138D01*
X118444Y67753D01*
X117214D01*
X115983Y67138D01*
X115368Y65907D01*
Y64677D01*
X115983Y63447D01*
X117214Y62832D01*
X118444D01*
X119674Y63447D01*
X120289Y64677D01*
Y62832D02*
Y70214D01*
X126392Y65907D02*
X125777Y67138D01*
X124546Y67753D01*
X123316D01*
X122086Y67138D01*
X121470Y65907D01*
Y65293D01*
X122086Y64062D01*
X123316Y63447D01*
X124546D01*
X125777Y64062D01*
X126392Y65293D01*
Y67753D02*
Y62832D01*
X125777Y61602D01*
X124546Y60986D01*
X122701D01*
X121470Y61602D01*
X132494Y63447D02*
X131879Y62832D01*
X130649D01*
X129419D01*
X128188Y63447D01*
X127573Y64677D01*
Y66523D01*
X128188Y67138D01*
X129419Y67753D01*
X130649D01*
X131879Y67138D01*
X132494Y66523D01*
Y65907D01*
X131879Y65293D01*
X130649Y64677D01*
X129419D01*
X128188Y65293D01*
X127573Y65907D01*
X0Y0D02*
M02*
