G04 DesignSpark PCB PRO Gerber Version 10.0 Build 5299*
G04 #@! TF.Part,Single*
G04 #@! TF.FileFunction,Copper,L2,Bot*
G04 #@! TF.FilePolarity,Positive*
%FSLAX35Y35*%
%MOIN*%
G04 #@! TA.AperFunction,SMDPad,CuDef*
%AMT97*0 Bullet Pad at angle 0*21,1,0.06000,0.03000,0,0,0*%
%ADD97T97*%
G04 #@! TA.AperFunction,ComponentPad*
%ADD99O,0.03543X0.05984*%
G04 #@! TA.AperFunction,SMDPad,CuDef*
%ADD81R,0.06693X0.35433*%
G04 #@! TA.AperFunction,ComponentPad*
%ADD92R,0.04449X0.04449*%
%ADD89R,0.04461X0.04461*%
%ADD83R,0.04559X0.04559*%
%ADD131R,0.06000X0.06000*%
G04 #@! TD.AperFunction*
%ADD19C,0.00500*%
G04 #@! TA.AperFunction,ComponentPad*
%ADD95O,0.09937X0.06000*%
G04 #@! TD.AperFunction*
%ADD74C,0.01000*%
%ADD76C,0.01500*%
%ADD121C,0.02000*%
G04 #@! TA.AperFunction,ViaPad*
%ADD80C,0.02677*%
%ADD77C,0.03200*%
G04 #@! TA.AperFunction,ComponentPad*
%ADD93C,0.04449*%
%ADD90C,0.04461*%
%ADD84C,0.04559*%
G04 #@! TA.AperFunction,ViaPad*
%ADD78C,0.04800*%
G04 #@! TA.AperFunction,ComponentPad*
%ADD91C,0.04925*%
G04 #@! TD.AperFunction*
%ADD75C,0.05000*%
G04 #@! TA.AperFunction,ComponentPad*
%ADD100C,0.05610*%
G04 #@! TA.AperFunction,SMDPad,CuDef*
%ADD86C,0.06000*%
G04 #@! TA.AperFunction,ComponentPad*
%ADD94C,0.07000*%
%ADD96C,0.07874*%
G04 #@! TD.AperFunction*
X0Y0D02*
D02*
D19*
X36273Y148365D02*
Y106508D01*
G75*
G03*
X40054Y102726I3781J0D01*
G01*
X70041D01*
G75*
G02*
X77509Y95258I0J-7469D01*
G01*
Y62344D01*
G75*
G03*
X80041Y59813I2531J0D01*
G01*
X126220D01*
G75*
G02*
X128689Y57344I0J-2469D01*
G01*
Y51094D01*
X140397D01*
Y80804D01*
G75*
G02*
X140452Y81149I1103J0D01*
G01*
G75*
G02*
X145397Y102620I4000J10384D01*
G01*
Y118010D01*
G75*
G02*
Y118904I1797J447D01*
G01*
Y146092D01*
G75*
G02*
Y146094I367J1D01*
G01*
Y146094D01*
G75*
G02*
X145720Y146874I1103J0D01*
G01*
X148220Y149374D01*
G75*
G02*
X149002Y149697I780J-780D01*
G01*
X149172D01*
G75*
G02*
X148417Y151719I2328J2021D01*
G01*
G75*
G02*
X154583I3083J0D01*
G01*
G75*
G02*
X153828Y149697I-3083J0D01*
G01*
X159172D01*
G75*
G02*
X158417Y151719I2328J2021D01*
G01*
G75*
G02*
X164583I3083J0D01*
G01*
G75*
G02*
X163828Y149697I-3083J0D01*
G01*
X169172D01*
G75*
G02*
X169484Y154050I2328J2021D01*
G01*
G75*
G03*
X170148Y155369I-3576J2626D01*
G01*
Y155459D01*
G75*
G03*
X169997Y155750I-1359J-520D01*
G01*
G75*
G02*
X169624Y156213I1504J1594D01*
G01*
G75*
G02*
X169581Y156287I1156J713D01*
G01*
G75*
G02*
X169733Y158639I1919J1058D01*
G01*
G75*
G02*
X169488Y159246I854J697D01*
G01*
X168025Y160709D01*
G75*
G02*
X167997Y160739I779J776D01*
G01*
G75*
G02*
X166843Y159969I-1154J480D01*
G01*
X150752D01*
G75*
G02*
X149502Y161219I0J1250D01*
G01*
Y164868D01*
G75*
G02*
X150752Y166118I1250J0D01*
G01*
X151722D01*
Y169707D01*
G75*
G02*
X154222Y173314I3852J0D01*
G01*
Y174261D01*
X152768Y175717D01*
X147405D01*
G75*
G02*
X146446Y176113I-2J1353D01*
G01*
X143126Y179432D01*
G75*
G03*
X141723Y179896I-2074J-3924D01*
G01*
G75*
G02*
X138417Y182970I-223J3075D01*
G01*
G75*
G02*
X144583I3083J0D01*
G01*
Y182968D01*
G75*
G02*
X144575Y182748I-3080J0D01*
G01*
G75*
G03*
X145037Y181346I4385J670D01*
G01*
X147963Y178421D01*
X153328D01*
G75*
G02*
X154286Y178024I0J-1352D01*
G01*
X156530Y175778D01*
G75*
G02*
X156927Y174821I-956J-957D01*
G01*
Y173947D01*
X162077D01*
Y174520D01*
X160743Y175854D01*
X157264D01*
G75*
G02*
X156306Y176252I0J1352D01*
G01*
X153125Y179433D01*
G75*
G03*
X151723Y179896I-2072J-3925D01*
G01*
G75*
G02*
X148417Y182970I-223J3075D01*
G01*
G75*
G02*
X154583I3083J0D01*
G01*
Y182968D01*
G75*
G02*
X154575Y182748I-3080J0D01*
G01*
G75*
G03*
X155038Y181345I4385J670D01*
G01*
X157824Y178559D01*
X161303D01*
G75*
G02*
X162261Y178162I0J-1352D01*
G01*
X164384Y176038D01*
G75*
G02*
X164781Y175081I-955J-957D01*
G01*
Y173947D01*
X178449D01*
Y173894D01*
G75*
G02*
X183427Y169707I728J-4187D01*
G01*
Y165457D01*
X175863D01*
X177083Y164237D01*
G75*
G02*
X177406Y163457I-780J-780D01*
G01*
Y163456D01*
G75*
G02*
Y163454I-364J-1D01*
G01*
Y151551D01*
X178909Y150048D01*
G75*
G02*
X179484Y154050I2591J1670D01*
G01*
G75*
G03*
X180148Y155369I-3576J2626D01*
G01*
Y159209D01*
G75*
G03*
X179997Y159500I-1359J-520D01*
G01*
G75*
G02*
X179624Y159963I1504J1594D01*
G01*
G75*
G02*
X179581Y160037I1156J713D01*
G01*
G75*
G02*
X179309Y161094I1919J1058D01*
G01*
G75*
G02*
X183691I2191J0D01*
G01*
G75*
G02*
X183001Y159499I-2191J0D01*
G01*
G75*
G03*
X182852Y159211I1210J-807D01*
G01*
Y155370D01*
G75*
G03*
X183517Y154049I4240J1306D01*
G01*
G75*
G02*
X184155Y153285I-2017J-2331D01*
G01*
G75*
G02*
X184185Y153233I-1160J-702D01*
G01*
G75*
G02*
X183828Y149697I-2685J-1515D01*
G01*
X189172D01*
G75*
G02*
X189484Y154050I2328J2021D01*
G01*
G75*
G03*
X190148Y155369I-3576J2626D01*
G01*
Y162344D01*
G75*
G02*
X190545Y163302I1352J0D01*
G01*
X193043Y165800D01*
G75*
G02*
X194000Y166197I957J-955D01*
G01*
X202750D01*
G75*
G02*
X203707Y165800I0J-1352D01*
G01*
X205810Y163697D01*
X239634D01*
G75*
G02*
X243096Y166346I1866J1148D01*
G01*
G75*
G03*
X243384Y166197I807J1210D01*
G01*
X249634D01*
G75*
G02*
X253096Y168846I1866J1148D01*
G01*
G75*
G03*
X253384Y168697I807J1210D01*
G01*
X259634D01*
G75*
G02*
X259309Y169844I1866J1148D01*
G01*
G75*
G02*
X259314Y169992I2191J-2D01*
G01*
X209002D01*
G75*
G02*
X208220Y170315I-2J1103D01*
G01*
X207269Y171266D01*
G75*
G02*
X205397Y175785I-769J2329D01*
G01*
Y198592D01*
G75*
G02*
Y198594I367J1D01*
G01*
Y198594D01*
G75*
G02*
X205720Y199374I1103J0D01*
G01*
X206338Y199992D01*
X193195D01*
G75*
G02*
X195750Y196094I-1695J-3897D01*
G01*
G75*
G02*
X187250I-4250J0D01*
G01*
G75*
G02*
X189805Y199992I4250J0D01*
G01*
X166945D01*
G75*
G02*
X169500Y196094I-1695J-3897D01*
G01*
G75*
G02*
X161000I-4250J0D01*
G01*
G75*
G02*
X163555Y199992I4250J0D01*
G01*
X153207D01*
X152603Y199388D01*
Y192347D01*
G75*
G02*
Y192345I-367J-1D01*
G01*
Y192344D01*
G75*
G02*
X152280Y191565I-1103J0D01*
G01*
X151030Y190315D01*
G75*
G02*
X150248Y189992I-780J780D01*
G01*
X140252D01*
G75*
G02*
X139470Y190315I-2J1103D01*
G01*
X138220Y191565D01*
G75*
G02*
X137897Y192344I780J780D01*
G01*
Y192345D01*
G75*
G02*
Y192347I364J1D01*
G01*
Y199388D01*
X137293Y199992D01*
X98010D01*
X93333Y195315D01*
X92406Y194388D01*
Y114847D01*
G75*
G02*
Y114845I-367J-1D01*
G01*
Y114844D01*
G75*
G02*
X92083Y114065I-1103J0D01*
G01*
X88333Y110315D01*
G75*
G02*
X87551Y109992I-780J780D01*
G01*
X55252D01*
G75*
G02*
X54470Y110315I-2J1103D01*
G01*
X50720Y114065D01*
G75*
G02*
X50397Y114844I780J780D01*
G01*
Y114845D01*
G75*
G02*
Y114847I364J1D01*
G01*
Y123454D01*
G75*
G02*
Y123456I367J1D01*
G01*
Y123457D01*
G75*
G02*
X50720Y124237I1103J0D01*
G01*
X54470Y127987D01*
G75*
G02*
X55252Y128309I780J-780D01*
G01*
X62096D01*
X65200Y131413D01*
Y136551D01*
G75*
G02*
X65209Y136688I1103J-1D01*
G01*
G75*
G02*
Y145993I1135J4653D01*
G01*
G75*
G02*
X65200Y146130I1094J138D01*
G01*
Y186551D01*
G75*
G02*
X65209Y186688I1103J-1D01*
G01*
G75*
G02*
Y195993I1135J4653D01*
G01*
G75*
G02*
X65200Y196130I1094J138D01*
G01*
Y211092D01*
G75*
G02*
Y211094I367J1D01*
G01*
Y211094D01*
G75*
G02*
X65523Y211874I1103J0D01*
G01*
X68525Y214876D01*
X40054D01*
G75*
G03*
X36273Y211094I0J-3781D01*
G01*
Y176324D01*
G75*
G02*
X36500Y176344I228J-1229D01*
G01*
X41250D01*
Y185094D01*
G75*
G02*
X42500Y186344I1250J0D01*
G01*
X49000D01*
G75*
G02*
X50250Y185094I0J-1250D01*
G01*
Y149594D01*
G75*
G02*
X49000Y148344I-1250J0D01*
G01*
X36500D01*
G75*
G02*
X36273Y148365I0J1250D01*
G01*
X198020Y182970D02*
G75*
G02*
X204980I3480J0D01*
G01*
G75*
G02*
X198020I-3480J0D01*
G01*
X188417D02*
G75*
G02*
X194583I3083J0D01*
G01*
G75*
G02*
X188417I-3083J0D01*
G01*
X178417D02*
G75*
G02*
X184583I3083J0D01*
G01*
G75*
G02*
X178417I-3083J0D01*
G01*
X168417D02*
G75*
G02*
X174583I3083J0D01*
G01*
G75*
G02*
X168417I-3083J0D01*
G01*
X158417D02*
G75*
G02*
X164583I3083J0D01*
G01*
G75*
G02*
X158417I-3083J0D01*
G01*
X138417Y154801D02*
X144583D01*
Y148636D01*
X143102D01*
Y134844D01*
G75*
G02*
X142631Y133709I-1602J0D01*
G01*
X138747Y129826D01*
G75*
G02*
X137612Y129354I-1135J1131D01*
G01*
X136223D01*
G75*
G03*
X134427Y128452I1724J-5669D01*
G01*
G75*
G02*
X134006Y128031I-2927J2507D01*
G01*
G75*
G03*
X133102Y126232I4766J-3521D01*
G01*
Y106511D01*
G75*
G02*
Y106509I-621J-1D01*
G01*
G75*
G02*
Y106508I-627J0D01*
G01*
G75*
G02*
X132633Y105375I-1602J0D01*
G01*
X129936Y102678D01*
G75*
G02*
X128800Y102209I-1133J1133D01*
G01*
X124329D01*
G75*
G03*
X121936Y101008I2158J-7288D01*
G01*
G75*
G02*
X114254Y103811I-3330J2803D01*
G01*
G75*
G02*
X121936Y106614I4352J0D01*
G01*
G75*
G03*
X124329Y105413I4551J6087D01*
G01*
X128139D01*
X129898Y107172D01*
Y126232D01*
G75*
G03*
X128994Y128031I-5669J-1723D01*
G01*
G75*
G02*
X127648Y130956I2506J2926D01*
G01*
Y130957D01*
G75*
G02*
X134427Y133462I3852J0D01*
G01*
G75*
G03*
X136223Y132559I3520J4766D01*
G01*
X136948D01*
X139898Y135508D01*
Y148636D01*
X138417D01*
Y154801D01*
X108313Y145591D02*
G75*
G02*
Y137091I0J-4250D01*
G01*
X104376D01*
G75*
G02*
Y145591I0J4250D01*
G01*
X108313D01*
Y155193D02*
G75*
G02*
Y147488I0J-3852D01*
G01*
X104376D01*
G75*
G02*
Y155193I0J3852D01*
G01*
X108313D01*
Y165193D02*
G75*
G02*
Y157488I0J-3852D01*
G01*
X104376D01*
G75*
G02*
Y165193I0J3852D01*
G01*
X108313D01*
Y175193D02*
G75*
G02*
Y167488I0J-3852D01*
G01*
X104376D01*
G75*
G02*
Y175193I0J3852D01*
G01*
X108313D01*
Y185193D02*
G75*
G02*
Y177488I0J-3852D01*
G01*
X104376D01*
G75*
G02*
Y185193I0J3852D01*
G01*
X108313D01*
Y195193D02*
G75*
G02*
Y187488I0J-3852D01*
G01*
X104376D01*
G75*
G02*
Y195193I0J3852D01*
G01*
X108313D01*
X113856Y86094D02*
G75*
G02*
X123356I4750J0D01*
G01*
G75*
G02*
X113856I-4750J0D01*
G01*
X121201Y155193D02*
X128906D01*
Y147488D01*
X121201D01*
Y155193D01*
X127250Y140957D02*
G75*
G02*
X135750I4250J0D01*
G01*
G75*
G02*
X127250I-4250J0D01*
G01*
X121201Y165193D02*
X128906D01*
Y157488D01*
X121201D01*
Y165193D01*
Y172344D02*
G75*
G02*
X128906I3852J0D01*
G01*
G75*
G02*
X121201I-3852J0D01*
G01*
Y192344D02*
G75*
G02*
X128906I3852J0D01*
G01*
G75*
G02*
X121201I-3852J0D01*
G01*
X88663Y103811D02*
G75*
G02*
X97368I4352J0D01*
G01*
G75*
G02*
X88663I-4352J0D01*
G01*
X88266Y86094D02*
G75*
G02*
X97766I4750J0D01*
G01*
G75*
G02*
X88266I-4750J0D01*
G01*
X51555Y141341D02*
G75*
G02*
X61134I4789J0D01*
G01*
G75*
G02*
X51555I-4789J0D01*
G01*
Y191341D02*
G75*
G02*
X61134I4789J0D01*
G01*
G75*
G02*
X51555I-4789J0D01*
G01*
X77509Y62344D02*
G36*
X77509Y62344D02*
Y62344D01*
G75*
G03*
X80041Y59813I2531J0D01*
G01*
X126220D01*
G75*
G02*
X128689Y57345I0J-2468D01*
G01*
G75*
G02*
Y57344I-3470J0D01*
G01*
Y51344D01*
X140397D01*
Y80804D01*
G75*
G02*
Y80806I1236J1D01*
G01*
G75*
G02*
X140452Y81149I1097J0D01*
G01*
G75*
G02*
X134744Y86094I4000J10384D01*
G01*
X123356D01*
G75*
G02*
X113856I-4750J0D01*
G01*
X97766D01*
G75*
G02*
X88266I-4750J0D01*
G01*
X77509D01*
Y62344D01*
G37*
X37403Y103811D02*
G36*
X37403Y103811D02*
G75*
G03*
X40054Y102726I2651J2697D01*
G01*
X70041D01*
G75*
G02*
X77509Y95258I0J-7468D01*
G01*
Y95258D01*
Y86094D01*
X88266D01*
G75*
G02*
X97766I4750J0D01*
G01*
X113856D01*
G75*
G02*
X123356I4750J0D01*
G01*
X134744D01*
G75*
G02*
X133324Y91533I9708J5439D01*
G01*
G75*
G02*
X145397Y102620I11128J0D01*
G01*
Y103811D01*
X131069D01*
X129936Y102678D01*
G75*
G02*
X128800Y102209I-1133J1132D01*
G01*
X124329D01*
G75*
G03*
X121936Y101008I2162J-7295D01*
G01*
G75*
G02*
X114254Y103811I-3330J2803D01*
G01*
X97368D01*
G75*
G02*
X88663I-4352J0D01*
G01*
X37403D01*
G37*
X36523Y127130D02*
G36*
X36523Y127130D02*
Y105156D01*
G75*
G03*
X37403Y103811I3531J1352D01*
G01*
X88663D01*
G75*
G02*
X97368I4352J0D01*
G01*
X114254D01*
G75*
G02*
X121936Y106614I4352J0D01*
G01*
G75*
G03*
X124329Y105413I4555J6094D01*
G01*
X128139D01*
X129898Y107172D01*
Y126232D01*
G75*
G03*
X129543Y127130I-5680J-1728D01*
G01*
X92406D01*
Y114847D01*
Y114845D01*
Y114844D01*
G75*
G02*
X92083Y114065I-1103J0D01*
G01*
X88333Y110315D01*
G75*
G02*
X87551Y109992I-780J781D01*
G01*
X55252D01*
G75*
G02*
X54470Y110315I-2J1104D01*
G01*
X50720Y114065D01*
G75*
G02*
X50397Y114844I780J780D01*
G01*
Y114845D01*
Y114847D01*
Y123454D01*
Y123456D01*
Y123457D01*
G75*
G02*
X50720Y124237I1103J0D01*
G01*
X53613Y127130D01*
X36523D01*
G37*
X132633Y105375D02*
G36*
X132633Y105375D02*
X131069Y103811D01*
X145397D01*
Y118010D01*
G75*
G02*
X145343Y118457I1797J447D01*
G01*
G75*
G02*
X145397Y118904I1852J0D01*
G01*
Y127130D01*
X133457D01*
G75*
G03*
X133102Y126232I5322J-2624D01*
G01*
Y106511D01*
Y106509D01*
Y106508D01*
G75*
G02*
X132633Y105375I-1603J0D01*
G01*
G37*
X36523Y141341D02*
G36*
X36523Y141341D02*
Y127130D01*
X53613D01*
X54470Y127987D01*
G75*
G02*
X55252Y128309I780J-781D01*
G01*
X62096D01*
X65200Y131413D01*
Y136551D01*
G75*
G02*
X65209Y136688I1186J-7D01*
G01*
G75*
G02*
X61555Y141341I1135J4653D01*
G01*
X61134D01*
G75*
G02*
X51555I-4789J0D01*
G01*
X36523D01*
G37*
X92406D02*
G36*
X92406Y141341D02*
Y127130D01*
X129543D01*
G75*
G03*
X128994Y128031I-5325J-2627D01*
G01*
G75*
G02*
X127648Y130956I2507J2926D01*
G01*
Y130957D01*
G75*
G02*
X134427Y133462I3852J0D01*
G01*
G75*
G03*
X136223Y132559I3528J4781D01*
G01*
X136948D01*
X139898Y135508D01*
Y141341D01*
X135733D01*
G75*
G02*
X135750Y140957I-4233J-383D01*
G01*
G75*
G02*
X127250I-4250J0D01*
G01*
G75*
G02*
X127267Y141341I4251J0D01*
G01*
X112563D01*
G75*
G02*
X108313Y137091I-4250J0D01*
G01*
X104376D01*
G75*
G02*
X100126Y141341I0J4250D01*
G01*
X92406D01*
G37*
X134006Y128031D02*
G36*
X134006Y128031D02*
G75*
G03*
X133457Y127130I4773J-3524D01*
G01*
X145397D01*
Y141341D01*
X143102D01*
Y134844D01*
Y134844D01*
G75*
G02*
X142631Y133709I-1602J0D01*
G01*
X138747Y129826D01*
G75*
G02*
X137612Y129354I-1135J1130D01*
G01*
X136223D01*
G75*
G03*
X134427Y128452I1720J-5663D01*
G01*
G75*
G02*
X134006Y128031I-2879J2459D01*
G01*
G37*
X36523Y148344D02*
G36*
X36523Y148344D02*
Y141341D01*
X51555D01*
G75*
G02*
X61134I4789J0D01*
G01*
X61555D01*
G75*
G02*
X65209Y145993I4789J0D01*
G01*
G75*
G02*
X65200Y146130I1177J143D01*
G01*
Y151341D01*
X50250D01*
Y149594D01*
G75*
G02*
X49000Y148344I-1250J0D01*
G01*
X36523D01*
G37*
X92406Y151341D02*
G36*
X92406Y151341D02*
Y141341D01*
X100126D01*
G75*
G02*
X104376Y145591I4250J0D01*
G01*
X108313D01*
G75*
G02*
X112563Y141341I0J-4250D01*
G01*
X127267D01*
G75*
G02*
X135733I4233J-384D01*
G01*
X139898D01*
Y148636D01*
X138417D01*
Y151341D01*
X128906D01*
Y147488D01*
X121201D01*
Y151341D01*
X112165D01*
G75*
G02*
X108313Y147488I-3852J0D01*
G01*
X104376D01*
G75*
G02*
X100524Y151341I0J3852D01*
G01*
X92406D01*
G37*
X143102Y148636D02*
G36*
X143102Y148636D02*
Y141341D01*
X145397D01*
Y146092D01*
Y146094D01*
Y146094D01*
G75*
G02*
X145720Y146874I1103J0D01*
G01*
X148220Y149374D01*
G75*
G02*
X149002Y149697I780J-781D01*
G01*
X149172D01*
G75*
G02*
X148441Y151341I2328J2021D01*
G01*
X144583D01*
Y148636D01*
X143102D01*
G37*
X154559Y151341D02*
G36*
X154559Y151341D02*
G75*
G02*
X153828Y149697I-3059J378D01*
G01*
X159172D01*
G75*
G02*
X158441Y151341I2328J2021D01*
G01*
X154559D01*
G37*
X164559D02*
G36*
X164559Y151341D02*
G75*
G02*
X163828Y149697I-3059J378D01*
G01*
X169172D01*
G75*
G02*
X168441Y151341I2328J2021D01*
G01*
X164559D01*
G37*
X178441D02*
G36*
X178441Y151341D02*
X177617D01*
X178909Y150048D01*
G75*
G02*
X178441Y151341I2592J1670D01*
G01*
G37*
X184559D02*
G36*
X184559Y151341D02*
G75*
G02*
X183828Y149697I-3060J378D01*
G01*
X189172D01*
G75*
G02*
X188441Y151341I2328J2021D01*
G01*
X184559D01*
G37*
X50250Y161341D02*
G36*
X50250Y161341D02*
Y151341D01*
X65200D01*
Y161341D01*
X50250D01*
G37*
X92406D02*
G36*
X92406Y161341D02*
Y151341D01*
X100524D01*
G75*
G02*
X104376Y155193I3852J0D01*
G01*
X108313D01*
G75*
G02*
X112165Y151341I0J-3852D01*
G01*
X121201D01*
Y155193D01*
X128906D01*
Y151341D01*
X138417D01*
Y154801D01*
X144583D01*
Y151341D01*
X148441D01*
G75*
G02*
X148417Y151719I3060J378D01*
G01*
G75*
G02*
X154583I3083J0D01*
G01*
G75*
G02*
X154559Y151341I-3083J0D01*
G01*
X158441D01*
G75*
G02*
X158417Y151719I3060J378D01*
G01*
G75*
G02*
X164583I3083J0D01*
G01*
G75*
G02*
X164559Y151341I-3083J0D01*
G01*
X168441D01*
G75*
G02*
X168417Y151719I3060J378D01*
G01*
G75*
G02*
X169484Y154050I3083J0D01*
G01*
G75*
G03*
X170148Y155369I-3580J2628D01*
G01*
Y155459D01*
G75*
G03*
X169997Y155750I-1386J-533D01*
G01*
G75*
G02*
X169624Y156213I1512J1601D01*
G01*
G75*
G02*
X169581Y156287I1070J665D01*
G01*
G75*
G02*
X169309Y157344I1920J1057D01*
G01*
G75*
G02*
X169733Y158639I2192J0D01*
G01*
G75*
G02*
X169488Y159246I856J698D01*
G01*
X168025Y160709D01*
G75*
G02*
X167997Y160739I1094J1079D01*
G01*
G75*
G02*
X166843Y159969I-1155J481D01*
G01*
X150752D01*
G75*
G02*
X149502Y161219I0J1250D01*
G01*
Y161341D01*
X128906D01*
Y157488D01*
X121201D01*
Y161341D01*
X112165D01*
G75*
G02*
X108313Y157488I-3852J0D01*
G01*
X104376D01*
G75*
G02*
X100524Y161341I0J3852D01*
G01*
X92406D01*
G37*
X177406D02*
G36*
X177406Y161341D02*
Y151551D01*
X177617Y151341D01*
X178441D01*
G75*
G02*
X178417Y151718I3059J378D01*
G01*
G75*
G02*
X179484Y154050I3083J0D01*
G01*
G75*
G03*
X180148Y155369I-3580J2628D01*
G01*
Y159209D01*
G75*
G03*
X179997Y159500I-1386J-533D01*
G01*
G75*
G02*
X179624Y159963I1512J1601D01*
G01*
G75*
G02*
X179581Y160037I1070J665D01*
G01*
G75*
G02*
X179309Y161094I1921J1059D01*
G01*
G75*
G02*
X179323Y161341I2191J1D01*
G01*
X177406D01*
G37*
X182852Y159211D02*
G36*
X182852Y159211D02*
Y155370D01*
G75*
G03*
X183517Y154049I4247J1309D01*
G01*
G75*
G02*
X184155Y153285I-2018J-2332D01*
G01*
G75*
G02*
X184185Y153233I-1127J-683D01*
G01*
G75*
G02*
X184583Y151719I-2685J-1515D01*
G01*
G75*
G02*
X184559Y151341I-3084J0D01*
G01*
X188441D01*
G75*
G02*
X188417Y151719I3060J378D01*
G01*
G75*
G02*
X189484Y154050I3083J0D01*
G01*
G75*
G03*
X190148Y155369I-3580J2628D01*
G01*
Y161341D01*
X183677D01*
G75*
G02*
X183691Y161094I-2177J-245D01*
G01*
G75*
G02*
X183001Y159499I-2191J0D01*
G01*
G75*
G03*
X182852Y159211I1222J-814D01*
G01*
G37*
X50250Y171341D02*
G36*
X50250Y171341D02*
Y161341D01*
X65200D01*
Y171341D01*
X50250D01*
G37*
X92406D02*
G36*
X92406Y171341D02*
Y161341D01*
X100524D01*
G75*
G02*
X104376Y165193I3852J0D01*
G01*
X108313D01*
G75*
G02*
X112165Y161341I0J-3852D01*
G01*
X121201D01*
Y165193D01*
X128906D01*
Y161341D01*
X149502D01*
Y164868D01*
G75*
G02*
X150752Y166118I1250J0D01*
G01*
X151722D01*
Y169707D01*
G75*
G02*
X152086Y171341I3853J0D01*
G01*
X128772D01*
G75*
G02*
X121334I-3719J1004D01*
G01*
X112165D01*
G75*
G02*
X108313Y167488I-3852J0D01*
G01*
X104376D01*
G75*
G02*
X100524Y171341I0J3852D01*
G01*
X92406D01*
G37*
X175863Y165457D02*
G36*
X175863Y165457D02*
X177083Y164237D01*
G75*
G02*
X177406Y163457I-780J-780D01*
G01*
Y163456D01*
Y163454D01*
Y161341D01*
X179323D01*
G75*
G02*
X183677I2177J-246D01*
G01*
X190148D01*
Y162344D01*
G75*
G02*
Y162345I1253J0D01*
G01*
G75*
G02*
X190545Y163302I1350J0D01*
G01*
X193043Y165800D01*
G75*
G02*
X194000Y166197I957J-953D01*
G01*
X202750D01*
G75*
G02*
X203707Y165800I1J-1350D01*
G01*
X205810Y163697D01*
X239634D01*
G75*
G02*
X239309Y164844I1866J1148D01*
G01*
G75*
G02*
X243096Y166346I2191J0D01*
G01*
G75*
G03*
X243384Y166197I814J1222D01*
G01*
X249634D01*
G75*
G02*
X249309Y167344I1866J1148D01*
G01*
G75*
G02*
X253096Y168846I2191J0D01*
G01*
G75*
G03*
X253384Y168697I814J1222D01*
G01*
X259384D01*
Y169277D01*
G75*
G02*
X259309Y169844I2112J567D01*
G01*
G75*
G02*
Y169850I1942J4D01*
G01*
G75*
G02*
X259314Y169992I1972J0D01*
G01*
X209002D01*
G75*
G02*
X208220Y170315I-2J1104D01*
G01*
X207269Y171266D01*
G75*
G02*
X205533Y171341I-769J2329D01*
G01*
X183100D01*
G75*
G02*
X183427Y169707I-3924J-1634D01*
G01*
Y165457D01*
X175863D01*
G37*
X36523Y182970D02*
G36*
X36523Y182970D02*
Y176344D01*
X41250D01*
Y182970D01*
X36523D01*
G37*
X50250D02*
G36*
X50250Y182970D02*
Y171341D01*
X65200D01*
Y182970D01*
X50250D01*
G37*
X92406D02*
G36*
X92406Y182970D02*
Y171341D01*
X100524D01*
G75*
G02*
X104376Y175193I3852J0D01*
G01*
X108313D01*
G75*
G02*
X112165Y171341I0J-3852D01*
G01*
X121334D01*
G75*
G02*
X121201Y172344I3719J1004D01*
G01*
G75*
G02*
X128906I3852J0D01*
G01*
G75*
G02*
X128772Y171341I-3852J0D01*
G01*
X152086D01*
G75*
G02*
X154222Y173314I3489J-1634D01*
G01*
Y174261D01*
X152768Y175717D01*
X147405D01*
G75*
G02*
X146446Y176113I-3J1351D01*
G01*
X143126Y179432D01*
G75*
G03*
X141723Y179896I-2074J-3923D01*
G01*
G75*
G02*
X138417Y182970I-222J3075D01*
G01*
X111804D01*
G75*
G02*
X112165Y181341I-3491J-1630D01*
G01*
G75*
G02*
X108313Y177488I-3852J0D01*
G01*
X104376D01*
G75*
G02*
X100524Y181341I0J3852D01*
G01*
G75*
G02*
X100885Y182970I3852J0D01*
G01*
X92406D01*
G37*
X144583D02*
G36*
X144583Y182970D02*
Y182968D01*
Y182967D01*
G75*
G02*
X144575Y182748I-3070J0D01*
G01*
G75*
G03*
X145037Y181346I4377J667D01*
G01*
X147963Y178421D01*
X153328D01*
G75*
G02*
X154286Y178024I-1J-1353D01*
G01*
X156530Y175778D01*
G75*
G02*
X156927Y174821I-956J-957D01*
G01*
Y173947D01*
X162077D01*
Y174520D01*
X160743Y175854D01*
X157264D01*
G75*
G02*
X156306Y176252I-1J1350D01*
G01*
X153125Y179433D01*
G75*
G03*
X151723Y179896I-2070J-3919D01*
G01*
G75*
G02*
X148417Y182970I-222J3075D01*
G01*
X144583D01*
G37*
X154583D02*
G36*
X154583Y182970D02*
Y182968D01*
Y182967D01*
G75*
G02*
X154575Y182748I-3070J0D01*
G01*
G75*
G03*
X155038Y181345I4393J672D01*
G01*
X157824Y178559D01*
X161303D01*
G75*
G02*
X162261Y178162I1J-1350D01*
G01*
X164384Y176038D01*
G75*
G02*
X164781Y175081I-953J-957D01*
G01*
Y173947D01*
X178449D01*
Y173894D01*
G75*
G02*
X183100Y171341I728J-4187D01*
G01*
X205533D01*
G75*
G02*
X204048Y173594I967J2254D01*
G01*
G75*
G02*
X205397Y175785I2452J0D01*
G01*
Y182970D01*
X204980D01*
G75*
G02*
X198020I-3480J0D01*
G01*
X194583D01*
G75*
G02*
X188417I-3083J0D01*
G01*
X184583D01*
G75*
G02*
X178417I-3083J0D01*
G01*
X174583D01*
G75*
G02*
X168417I-3083J0D01*
G01*
X164583D01*
G75*
G02*
X158417I-3083J0D01*
G01*
X154583D01*
G37*
X36523Y191341D02*
G36*
X36523Y191341D02*
Y182970D01*
X41250D01*
Y185094D01*
G75*
G02*
X42500Y186344I1250J0D01*
G01*
X49000D01*
G75*
G02*
X50250Y185094I0J-1250D01*
G01*
Y182970D01*
X65200D01*
Y186551D01*
G75*
G02*
X65209Y186688I1186J-7D01*
G01*
G75*
G02*
X61555Y191341I1135J4653D01*
G01*
X61134D01*
G75*
G02*
X51555I-4789J0D01*
G01*
X36523D01*
G37*
X92406D02*
G36*
X92406Y191341D02*
Y182970D01*
X100885D01*
G75*
G02*
X104376Y185193I3491J-1630D01*
G01*
X108313D01*
G75*
G02*
X111804Y182970I0J-3852D01*
G01*
X138417D01*
G75*
G02*
X144583I3083J0D01*
G01*
X148417D01*
G75*
G02*
X154583I3083J0D01*
G01*
X158417D01*
G75*
G02*
X164583I3083J0D01*
G01*
X168417D01*
G75*
G02*
X174583I3083J0D01*
G01*
X178417D01*
G75*
G02*
X184583I3083J0D01*
G01*
X188417D01*
G75*
G02*
X194583I3083J0D01*
G01*
X198020D01*
G75*
G02*
X204980I3480J0D01*
G01*
X205397D01*
Y191341D01*
X152056D01*
X151030Y190315D01*
G75*
G02*
X150248Y189992I-780J781D01*
G01*
X140252D01*
G75*
G02*
X139470Y190315I-2J1104D01*
G01*
X138444Y191341D01*
X128772D01*
G75*
G02*
X121334I-3719J1004D01*
G01*
X112165D01*
G75*
G02*
X108313Y187488I-3852J0D01*
G01*
X104376D01*
G75*
G02*
X100524Y191341I0J3852D01*
G01*
X92406D01*
G37*
X36523Y212447D02*
G36*
X36523Y212447D02*
Y191341D01*
X51555D01*
G75*
G02*
X61134I4789J0D01*
G01*
X61555D01*
G75*
G02*
X65209Y195993I4789J0D01*
G01*
G75*
G02*
X65200Y196130I1177J143D01*
G01*
Y211092D01*
Y211094D01*
Y211094D01*
G75*
G02*
X65523Y211874I1103J0D01*
G01*
X68275Y214626D01*
X38702D01*
G75*
G03*
X36523Y212447I1352J-3531D01*
G01*
G37*
X92406Y194388D02*
G36*
X92406Y194388D02*
Y191341D01*
X100524D01*
G75*
G02*
X104376Y195193I3852J0D01*
G01*
X108313D01*
G75*
G02*
X112165Y191341I0J-3852D01*
G01*
X121334D01*
G75*
G02*
X121201Y192344I3719J1004D01*
G01*
G75*
G02*
X128906I3852J0D01*
G01*
G75*
G02*
X128772Y191341I-3852J0D01*
G01*
X138444D01*
X138220Y191565D01*
G75*
G02*
X137897Y192344I780J780D01*
G01*
Y192345D01*
Y192347D01*
Y199388D01*
X137293Y199992D01*
X98010D01*
X93333Y195315D01*
X92406Y194388D01*
G37*
X152280Y191565D02*
G36*
X152280Y191565D02*
X152056Y191341D01*
X205397D01*
Y198592D01*
Y198594D01*
Y198594D01*
G75*
G02*
X205720Y199374I1103J0D01*
G01*
X206338Y199992D01*
X193195D01*
G75*
G02*
X195750Y196094I-1696J-3898D01*
G01*
G75*
G02*
X187250I-4250J0D01*
G01*
G75*
G02*
X189805Y199992I4250J0D01*
G01*
X166945D01*
G75*
G02*
X169500Y196094I-1696J-3898D01*
G01*
G75*
G02*
X161000I-4250J0D01*
G01*
G75*
G02*
X163555Y199992I4250J0D01*
G01*
X153207D01*
X152603Y199388D01*
Y192347D01*
Y192345D01*
Y192344D01*
G75*
G02*
X152280Y191565I-1103J0D01*
G01*
G37*
X43687Y152344D02*
Y149844D01*
X45875Y152032D01*
X46500Y152344D01*
X47125Y152032D01*
X47437Y151407D01*
Y150470D01*
X47125Y149844D01*
X44000Y155157D02*
X43687Y155782D01*
Y156407D01*
X44000Y157032D01*
X44625Y157344D01*
X46500D01*
X47125Y157032D01*
X47437Y156407D01*
Y155782D01*
X47125Y155157D01*
X46500Y154844D01*
X44625D01*
X44000Y155157D01*
X47125Y157032D01*
X43687Y162344D02*
Y159844D01*
X45875Y162032D01*
X46500Y162344D01*
X47125Y162032D01*
X47437Y161407D01*
Y160470D01*
X47125Y159844D01*
X44000Y165157D02*
X43687Y165782D01*
Y166407D01*
X44000Y167032D01*
X44625Y167344D01*
X45250Y167032D01*
X45563Y166407D01*
Y165782D01*
Y166407D02*
X45875Y167032D01*
X46500Y167344D01*
X47125Y167032D01*
X47437Y166407D01*
Y165782D01*
X47125Y165157D01*
X43687Y169844D02*
X47437Y172970D01*
X44000Y175157D02*
X43687Y175782D01*
Y176407D01*
X44000Y177032D01*
X44625Y177344D01*
X46500D01*
X47125Y177032D01*
X47437Y176407D01*
Y175782D01*
X47125Y175157D01*
X46500Y174844D01*
X44625D01*
X44000Y175157D01*
X47125Y177032D01*
X43687Y182344D02*
Y179844D01*
X45875Y182032D01*
X46500Y182344D01*
X47125Y182032D01*
X47437Y181407D01*
Y180470D01*
X47125Y179844D01*
X37687Y149844D02*
X41437D01*
Y152032D01*
X41125Y152657D01*
X40500Y152970D01*
X39875Y152657D01*
X39563Y152032D01*
Y149844D01*
Y152032D02*
X37687Y152970D01*
X38000Y157344D02*
X37687Y157032D01*
Y156407D01*
Y155782D01*
X38000Y155157D01*
X38625Y154844D01*
X39563D01*
X39875Y155157D01*
X40187Y155782D01*
Y156407D01*
X39875Y157032D01*
X39563Y157344D01*
X39250D01*
X38937Y157032D01*
X38625Y156407D01*
Y155782D01*
X38937Y155157D01*
X39250Y154844D01*
X40187Y159844D02*
X37687Y161094D01*
X40187Y162344D01*
X37687Y166407D02*
X38000Y166720D01*
X38313Y166407D01*
X38000Y166094D01*
X37687Y166407D01*
X39250D02*
X39563Y166720D01*
X39875Y166407D01*
X39563Y166094D01*
X39250Y166407D01*
X39563Y172032D02*
X39250Y172657D01*
X38625Y172970D01*
X38000Y172657D01*
X37687Y172032D01*
Y169844D01*
X41437D01*
Y172032D01*
X41125Y172657D01*
X40500Y172970D01*
X39875Y172657D01*
X39563Y172032D01*
Y169844D01*
X51500Y123457D02*
Y114844D01*
X55250Y111094D01*
X87553D01*
X91303Y114844D01*
Y194844D01*
X97553Y201094D01*
X137750D01*
X139000Y199844D01*
Y192344D01*
X140250Y191094D01*
X150250D01*
X151500Y192344D01*
Y199844D01*
X152750Y201094D01*
X207441D01*
X208220Y201874D01*
G75*
G02*
X209002Y202197I780J-780D01*
G01*
X216498D01*
G75*
G02*
X217280Y201874I2J-1103D01*
G01*
X218059Y201094D01*
X276191D01*
X276970Y201874D01*
G75*
G02*
X277752Y202197I780J-780D01*
G01*
X288998D01*
G75*
G02*
X289780Y201874I2J-1103D01*
G01*
X290559Y201094D01*
X389000D01*
X390250Y199844D01*
Y192344D01*
X391500Y191094D01*
X401500D01*
X402750Y192344D01*
Y199844D01*
X404000Y201094D01*
X414000D01*
X416500Y203594D01*
Y212344D01*
X414000Y214844D01*
X70053D01*
X66303Y211094D01*
Y196130D01*
G75*
G02*
X66344I21J-4794D01*
G01*
G75*
G02*
Y186551I0J-4789D01*
G01*
G75*
G02*
X66303I-20J4794D01*
G01*
Y146130D01*
G75*
G02*
X66344I21J-4794D01*
G01*
G75*
G02*
Y136551I0J-4789D01*
G01*
G75*
G02*
X66303I-20J4794D01*
G01*
Y130957D01*
X62553Y127207D01*
X55250D01*
X51500Y123457D01*
X88921Y211976D02*
G75*
G02*
X94006Y211065I2461J-911D01*
G01*
Y208624D01*
G75*
G02*
X88921Y207713I-2624J0D01*
G01*
G75*
G02*
X84228Y207245I-2461J911D01*
G01*
G75*
G02*
X78851I-2689J1379D01*
G01*
G75*
G02*
X73994Y208624I-2233J1379D01*
G01*
Y211065D01*
G75*
G02*
X78851Y212444I2624J0D01*
G01*
G75*
G02*
X84228I2689J-1379D01*
G01*
G75*
G02*
X88921Y211976I2233J-1379D01*
G01*
X158921D02*
G75*
G02*
X164006Y211065I2461J-911D01*
G01*
Y208624D01*
G75*
G02*
X158921Y207713I-2624J0D01*
G01*
G75*
G02*
X154228Y207245I-2461J911D01*
G01*
G75*
G02*
X148851I-2689J1379D01*
G01*
G75*
G02*
X145319Y206344I-2233J1379D01*
G01*
G75*
G02*
X145294Y206359I641J1119D01*
G01*
G75*
G02*
X144562Y206994I1324J2266D01*
G01*
G75*
G03*
X141776Y208492I-4922J-5813D01*
G01*
X131224D01*
G75*
G03*
X128438Y206994I2135J-7311D01*
G01*
G75*
G02*
X127706Y206359I-2056J1631D01*
G01*
G75*
G02*
X127681Y206344I-710J1181D01*
G01*
G75*
G02*
X123921Y207713I-1299J2280D01*
G01*
G75*
G02*
X119228Y207245I-2461J911D01*
G01*
G75*
G02*
X113851I-2689J1379D01*
G01*
G75*
G02*
X108994Y208624I-2233J1379D01*
G01*
Y211065D01*
G75*
G02*
X113851Y212444I2624J0D01*
G01*
G75*
G02*
X119228I2689J-1379D01*
G01*
G75*
G02*
X123921Y211976I2233J-1379D01*
G01*
G75*
G02*
X127681Y213345I2461J-911D01*
G01*
G75*
G02*
X127706Y213330I-641J-1119D01*
G01*
G75*
G02*
X128438Y212695I-1324J-2266D01*
G01*
G75*
G03*
X131224Y211197I4922J5813D01*
G01*
X141776D01*
G75*
G03*
X144562Y212695I-2135J7311D01*
G01*
G75*
G02*
X145294Y213330I2056J-1631D01*
G01*
G75*
G02*
X145319Y213345I710J-1181D01*
G01*
G75*
G02*
X148851Y212444I1299J-2280D01*
G01*
G75*
G02*
X154228I2689J-1379D01*
G01*
G75*
G02*
X158921Y211976I2233J-1379D01*
G01*
X141000Y196094D02*
G75*
G02*
X149500I4250J0D01*
G01*
G75*
G02*
X141000I-4250J0D01*
G01*
X228921Y211976D02*
G75*
G02*
X234006Y211065I2461J-911D01*
G01*
Y208624D01*
G75*
G02*
X228921Y207713I-2624J0D01*
G01*
G75*
G02*
X224228Y207245I-2461J911D01*
G01*
G75*
G02*
X218851I-2689J1379D01*
G01*
G75*
G02*
X215316Y206346I-2233J1379D01*
G01*
G75*
G02*
X215295Y206358I871J1533D01*
G01*
G75*
G02*
X214585Y206965I1322J2266D01*
G01*
G75*
G03*
X212239Y208242I-4227J-4972D01*
G01*
X200761D01*
G75*
G03*
X198415Y206965I1885J-6257D01*
G01*
G75*
G02*
X197705Y206358I-2032J1659D01*
G01*
G75*
G02*
X197684Y206346I-853J1455D01*
G01*
G75*
G02*
X193921Y207713I-1302J2278D01*
G01*
G75*
G02*
X189228Y207245I-2461J911D01*
G01*
G75*
G02*
X183851I-2689J1379D01*
G01*
G75*
G02*
X178994Y208624I-2233J1379D01*
G01*
Y211065D01*
G75*
G02*
X183851Y212444I2624J0D01*
G01*
G75*
G02*
X189228I2689J-1379D01*
G01*
G75*
G02*
X193921Y211976I2233J-1379D01*
G01*
G75*
G02*
X197684Y213343I2461J-911D01*
G01*
G75*
G02*
X197705Y213331I-871J-1533D01*
G01*
G75*
G02*
X198415Y212724I-1322J-2265D01*
G01*
G75*
G03*
X200761Y211447I4231J4979D01*
G01*
X212239D01*
G75*
G03*
X214585Y212723I-1885J6257D01*
G01*
G75*
G02*
X218851Y212444I2033J-1658D01*
G01*
G75*
G02*
X224228I2689J-1379D01*
G01*
G75*
G02*
X228921Y211976I2233J-1379D01*
G01*
X298921D02*
G75*
G02*
X304006Y211065I2461J-911D01*
G01*
Y208624D01*
G75*
G02*
X298921Y207713I-2624J0D01*
G01*
G75*
G02*
X294228Y207245I-2461J911D01*
G01*
G75*
G02*
X288851I-2689J1379D01*
G01*
G75*
G02*
X285316Y206346I-2233J1379D01*
G01*
G75*
G02*
X285295Y206358I871J1533D01*
G01*
G75*
G02*
X284585Y206965I1322J2266D01*
G01*
G75*
G03*
X282239Y208242I-4227J-4972D01*
G01*
X270761D01*
G75*
G03*
X268415Y206965I1885J-6257D01*
G01*
G75*
G02*
X267705Y206358I-2032J1659D01*
G01*
G75*
G02*
X267684Y206346I-853J1455D01*
G01*
G75*
G02*
X263921Y207713I-1302J2278D01*
G01*
G75*
G02*
X259228Y207245I-2461J911D01*
G01*
G75*
G02*
X253851I-2689J1379D01*
G01*
G75*
G02*
X248994Y208624I-2233J1379D01*
G01*
Y211065D01*
G75*
G02*
X253851Y212444I2624J0D01*
G01*
G75*
G02*
X259228I2689J-1379D01*
G01*
G75*
G02*
X263921Y211976I2233J-1379D01*
G01*
G75*
G02*
X267684Y213343I2461J-911D01*
G01*
G75*
G02*
X267705Y213331I-871J-1533D01*
G01*
G75*
G02*
X268415Y212724I-1322J-2265D01*
G01*
G75*
G03*
X270761Y211447I4231J4979D01*
G01*
X282239D01*
G75*
G03*
X284585Y212723I-1885J6257D01*
G01*
G75*
G02*
X288851Y212444I2033J-1658D01*
G01*
G75*
G02*
X294228I2689J-1379D01*
G01*
G75*
G02*
X298921Y211976I2233J-1379D01*
G01*
X368921D02*
G75*
G02*
X374006Y211065I2461J-911D01*
G01*
Y208624D01*
G75*
G02*
X368921Y207713I-2624J0D01*
G01*
G75*
G02*
X364228Y207245I-2461J911D01*
G01*
G75*
G02*
X358851I-2689J1379D01*
G01*
G75*
G02*
X355316Y206346I-2233J1379D01*
G01*
G75*
G02*
X355295Y206358I871J1533D01*
G01*
G75*
G02*
X354585Y206965I1322J2266D01*
G01*
G75*
G03*
X352239Y208242I-4227J-4972D01*
G01*
X340761D01*
G75*
G03*
X338415Y206965I1885J-6257D01*
G01*
G75*
G02*
X337705Y206358I-2032J1659D01*
G01*
G75*
G02*
X337684Y206346I-853J1455D01*
G01*
G75*
G02*
X333921Y207713I-1302J2278D01*
G01*
G75*
G02*
X329228Y207245I-2461J911D01*
G01*
G75*
G02*
X323851I-2689J1379D01*
G01*
G75*
G02*
X318994Y208624I-2233J1379D01*
G01*
Y211065D01*
G75*
G02*
X323851Y212444I2624J0D01*
G01*
G75*
G02*
X329228I2689J-1379D01*
G01*
G75*
G02*
X333921Y211976I2233J-1379D01*
G01*
G75*
G02*
X337684Y213343I2461J-911D01*
G01*
G75*
G02*
X337705Y213331I-871J-1533D01*
G01*
G75*
G02*
X338415Y212724I-1322J-2265D01*
G01*
G75*
G03*
X340761Y211447I4231J4979D01*
G01*
X352239D01*
G75*
G03*
X354585Y212723I-1885J6257D01*
G01*
G75*
G02*
X358851Y212444I2033J-1658D01*
G01*
G75*
G02*
X364228I2689J-1379D01*
G01*
G75*
G02*
X368921Y211976I2233J-1379D01*
G01*
X403921D02*
G75*
G02*
X409006Y211065I2461J-911D01*
G01*
Y208624D01*
G75*
G02*
X403921Y207713I-2624J0D01*
G01*
G75*
G02*
X399228Y207245I-2461J911D01*
G01*
G75*
G02*
X393851I-2689J1379D01*
G01*
G75*
G02*
X388994Y208624I-2233J1379D01*
G01*
Y211065D01*
G75*
G02*
X393851Y212444I2624J0D01*
G01*
G75*
G02*
X399228I2689J-1379D01*
G01*
G75*
G02*
X403921Y211976I2233J-1379D01*
G01*
X392250Y196094D02*
G75*
G02*
X400750I4250J0D01*
G01*
G75*
G02*
X392250I-4250J0D01*
G01*
X52957Y118457D02*
G75*
G02*
X61067I4055J0D01*
G01*
G75*
G02*
X52957I-4055J0D01*
G01*
X51750D02*
G36*
X51750Y118457D02*
Y114594D01*
X55000Y111344D01*
X87803D01*
X91303Y114844D01*
Y118457D01*
X61067D01*
G75*
G02*
X52957I-4055J0D01*
G01*
X51750D01*
G37*
Y123707D02*
G36*
X51750Y123707D02*
Y118457D01*
X52957D01*
G75*
G02*
X61067I4055J0D01*
G01*
X91303D01*
Y194844D01*
X92553Y196094D01*
X66926D01*
G75*
G02*
X71134Y191341I-581J-4754D01*
G01*
G75*
G02*
X66344Y186551I-4789J0D01*
G01*
X66303D01*
Y146130D01*
X66344D01*
G75*
G02*
X71134Y141341I0J-4789D01*
G01*
G75*
G02*
X66344Y136551I-4789J0D01*
G01*
X66303D01*
Y130957D01*
X62553Y127207D01*
X55250D01*
X51750Y123707D01*
G37*
X139000Y196094D02*
G36*
X139000Y196094D02*
Y192344D01*
X140250Y191094D01*
X150250D01*
X151500Y192344D01*
Y196094D01*
X149500D01*
G75*
G02*
X141000I-4250J0D01*
G01*
X139000D01*
G37*
X390250D02*
G36*
X390250Y196094D02*
Y192344D01*
X391500Y191094D01*
X401500D01*
X402750Y192344D01*
Y196094D01*
X400750D01*
G75*
G02*
X392250I-4250J0D01*
G01*
X390250D01*
G37*
X66303Y209844D02*
G36*
X66303Y209844D02*
Y196130D01*
X66344D01*
G75*
G02*
X66926Y196094I0J-4790D01*
G01*
X92553D01*
X97553Y201094D01*
X137750D01*
X139000Y199844D01*
Y196094D01*
X141000D01*
G75*
G02*
X149500I4250J0D01*
G01*
X151500D01*
Y199844D01*
X152750Y201094D01*
X207441D01*
X208220Y201874D01*
G75*
G02*
X209002Y202197I780J-781D01*
G01*
X216498D01*
G75*
G02*
X217280Y201874I2J-1104D01*
G01*
X218059Y201094D01*
X276191D01*
X276970Y201874D01*
G75*
G02*
X277752Y202197I780J-781D01*
G01*
X288998D01*
G75*
G02*
X289780Y201874I2J-1104D01*
G01*
X290559Y201094D01*
X389000D01*
X390250Y199844D01*
Y196094D01*
X392250D01*
G75*
G02*
X400750I4250J0D01*
G01*
X402750D01*
Y199844D01*
X404000Y201094D01*
X414000D01*
X416250Y203344D01*
Y209844D01*
X409006D01*
Y208624D01*
G75*
G02*
X403921Y207713I-2624J0D01*
G01*
G75*
G02*
X399228Y207245I-2461J912D01*
G01*
G75*
G02*
X393851I-2689J1378D01*
G01*
G75*
G02*
X388994Y208624I-2233J1379D01*
G01*
Y209844D01*
X374006D01*
Y208624D01*
G75*
G02*
X368921Y207713I-2624J0D01*
G01*
G75*
G02*
X364228Y207245I-2461J912D01*
G01*
G75*
G02*
X358851I-2689J1379D01*
G01*
G75*
G02*
X355316Y206346I-2233J1379D01*
G01*
X355295Y206358D01*
G75*
G02*
X354585Y206965I1315J2257D01*
G01*
G75*
G03*
X352239Y208242I-4231J-4980D01*
G01*
X340761D01*
G75*
G03*
X338415Y206965I1881J-6250D01*
G01*
G75*
G02*
X337705Y206358I-2033J1660D01*
G01*
X337684Y206346D01*
G75*
G02*
X333921Y207713I-1302J2278D01*
G01*
G75*
G02*
X329228Y207245I-2461J912D01*
G01*
G75*
G02*
X323851I-2689J1378D01*
G01*
G75*
G02*
X318994Y208624I-2233J1379D01*
G01*
Y209844D01*
X304006D01*
Y208624D01*
G75*
G02*
X298921Y207713I-2624J0D01*
G01*
G75*
G02*
X294228Y207245I-2461J912D01*
G01*
G75*
G02*
X288851I-2689J1379D01*
G01*
G75*
G02*
X285316Y206346I-2233J1379D01*
G01*
X285295Y206358D01*
G75*
G02*
X284585Y206965I1315J2257D01*
G01*
G75*
G03*
X282239Y208242I-4231J-4980D01*
G01*
X270761D01*
G75*
G03*
X268415Y206965I1881J-6250D01*
G01*
G75*
G02*
X267705Y206358I-2033J1660D01*
G01*
X267684Y206346D01*
G75*
G02*
X263921Y207713I-1302J2278D01*
G01*
G75*
G02*
X259228Y207245I-2461J912D01*
G01*
G75*
G02*
X253851I-2689J1378D01*
G01*
G75*
G02*
X248994Y208624I-2233J1379D01*
G01*
Y209844D01*
X234006D01*
Y208624D01*
G75*
G02*
X228921Y207713I-2624J0D01*
G01*
G75*
G02*
X224228Y207245I-2461J912D01*
G01*
G75*
G02*
X218851I-2689J1379D01*
G01*
G75*
G02*
X215316Y206346I-2233J1379D01*
G01*
X215295Y206358D01*
G75*
G02*
X214585Y206965I1315J2257D01*
G01*
G75*
G03*
X212239Y208242I-4231J-4980D01*
G01*
X200761D01*
G75*
G03*
X198415Y206965I1881J-6250D01*
G01*
G75*
G02*
X197705Y206358I-2033J1660D01*
G01*
X197684Y206346D01*
G75*
G02*
X193921Y207713I-1302J2278D01*
G01*
G75*
G02*
X189228Y207245I-2461J912D01*
G01*
G75*
G02*
X183851I-2689J1378D01*
G01*
G75*
G02*
X178994Y208624I-2233J1379D01*
G01*
Y209844D01*
X164006D01*
Y208624D01*
G75*
G02*
X158921Y207713I-2624J0D01*
G01*
G75*
G02*
X154228Y207245I-2461J912D01*
G01*
G75*
G02*
X148851I-2689J1379D01*
G01*
G75*
G02*
X145319Y206344I-2233J1379D01*
G01*
G75*
G02*
X145294Y206359I182J338D01*
G01*
G75*
G02*
X144562Y206994I1321J2262D01*
G01*
G75*
G03*
X141776Y208492I-4918J-5806D01*
G01*
X131224D01*
G75*
G03*
X128438Y206994I2131J-7304D01*
G01*
G75*
G02*
X127706Y206359I-2053J1627D01*
G01*
G75*
G02*
X127681Y206344I-207J324D01*
G01*
G75*
G02*
X123921Y207713I-1299J2280D01*
G01*
G75*
G02*
X119228Y207245I-2461J912D01*
G01*
G75*
G02*
X113851I-2689J1378D01*
G01*
G75*
G02*
X108994Y208624I-2233J1379D01*
G01*
Y209844D01*
X94006D01*
Y208624D01*
G75*
G02*
X88921Y207713I-2624J0D01*
G01*
G75*
G02*
X84228Y207245I-2461J912D01*
G01*
G75*
G02*
X78851I-2689J1378D01*
G01*
G75*
G02*
X73994Y208624I-2233J1379D01*
G01*
Y209844D01*
X66303D01*
G37*
Y211094D02*
G36*
X66303Y211094D02*
Y209844D01*
X73994D01*
Y211065D01*
G75*
G02*
X78851Y212444I2624J0D01*
G01*
G75*
G02*
X84228I2689J-1378D01*
G01*
G75*
G02*
X88921Y211976I2233J-1379D01*
G01*
G75*
G02*
X94006Y211065I2461J-911D01*
G01*
Y209844D01*
X108994D01*
Y211065D01*
G75*
G02*
X113851Y212444I2624J0D01*
G01*
G75*
G02*
X119228I2689J-1378D01*
G01*
G75*
G02*
X123921Y211976I2233J-1379D01*
G01*
G75*
G02*
X127681Y213345I2461J-912D01*
G01*
G75*
G02*
X127706Y213330I-182J-338D01*
G01*
G75*
G02*
X128438Y212695I-1321J-2262D01*
G01*
G75*
G03*
X131224Y211197I4918J5806D01*
G01*
X141776D01*
G75*
G03*
X144562Y212695I-2131J7304D01*
G01*
G75*
G02*
X145294Y213330I2053J-1627D01*
G01*
G75*
G02*
X145319Y213345I207J-324D01*
G01*
G75*
G02*
X148851Y212444I1299J-2280D01*
G01*
G75*
G02*
X154228I2689J-1378D01*
G01*
G75*
G02*
X158921Y211976I2233J-1379D01*
G01*
G75*
G02*
X164006Y211065I2461J-911D01*
G01*
Y209844D01*
X178994D01*
Y211065D01*
G75*
G02*
X183851Y212444I2624J0D01*
G01*
G75*
G02*
X189228I2689J-1378D01*
G01*
G75*
G02*
X193921Y211976I2233J-1379D01*
G01*
G75*
G02*
X197684Y213343I2461J-911D01*
G01*
X197705Y213331D01*
G75*
G02*
X198415Y212724I-1323J-2267D01*
G01*
G75*
G03*
X200761Y211447I4236J4987D01*
G01*
X212239D01*
G75*
G03*
X214585Y212723I-1883J6254D01*
G01*
G75*
G02*
X218851Y212444I2033J-1658D01*
G01*
G75*
G02*
X224228I2689J-1379D01*
G01*
G75*
G02*
X228921Y211976I2233J-1379D01*
G01*
G75*
G02*
X234006Y211065I2461J-911D01*
G01*
Y209844D01*
X248994D01*
Y211065D01*
G75*
G02*
X253851Y212444I2624J0D01*
G01*
G75*
G02*
X259228I2689J-1378D01*
G01*
G75*
G02*
X263921Y211976I2233J-1379D01*
G01*
G75*
G02*
X267684Y213343I2461J-911D01*
G01*
X267705Y213331D01*
G75*
G02*
X268415Y212724I-1323J-2267D01*
G01*
G75*
G03*
X270761Y211447I4236J4987D01*
G01*
X282239D01*
G75*
G03*
X284585Y212723I-1883J6254D01*
G01*
G75*
G02*
X288851Y212444I2033J-1658D01*
G01*
G75*
G02*
X294228I2689J-1379D01*
G01*
G75*
G02*
X298921Y211976I2233J-1379D01*
G01*
G75*
G02*
X304006Y211065I2461J-911D01*
G01*
Y209844D01*
X318994D01*
Y211065D01*
G75*
G02*
X323851Y212444I2624J0D01*
G01*
G75*
G02*
X329228I2689J-1378D01*
G01*
G75*
G02*
X333921Y211976I2233J-1379D01*
G01*
G75*
G02*
X337684Y213343I2461J-911D01*
G01*
X337705Y213331D01*
G75*
G02*
X338415Y212724I-1323J-2267D01*
G01*
G75*
G03*
X340761Y211447I4236J4987D01*
G01*
X352239D01*
G75*
G03*
X354585Y212723I-1883J6254D01*
G01*
G75*
G02*
X358851Y212444I2033J-1658D01*
G01*
G75*
G02*
X364228I2689J-1379D01*
G01*
G75*
G02*
X368921Y211976I2233J-1379D01*
G01*
G75*
G02*
X374006Y211065I2461J-911D01*
G01*
Y209844D01*
X388994D01*
Y211065D01*
G75*
G02*
X393851Y212444I2624J0D01*
G01*
G75*
G02*
X399228I2689J-1378D01*
G01*
G75*
G02*
X403921Y211976I2233J-1379D01*
G01*
G75*
G02*
X409006Y211065I2461J-911D01*
G01*
Y209844D01*
X416250D01*
Y212594D01*
X414250Y214594D01*
X69803D01*
X66303Y211094D01*
G37*
X131500Y9707D02*
G75*
G02*
X126220Y14987I0J5280D01*
G01*
Y57344D01*
X80041D01*
G75*
G02*
X75041Y62344I0J5000D01*
G01*
Y95258D01*
G75*
G03*
X70041Y100258I-5000J0D01*
G01*
X40054D01*
G75*
G02*
X33804Y106508I0J6250D01*
G01*
Y211094D01*
G75*
G02*
X40054Y217344I6250J0D01*
G01*
X425054D01*
G75*
G02*
X431304Y211094I0J-6250D01*
G01*
Y62344D01*
G75*
G02*
X426304Y57344I-5000J0D01*
G01*
X383858D01*
Y15204D01*
G75*
G02*
X378361Y9707I-5497J0D01*
G01*
X131500D01*
X141500Y80804D02*
Y51094D01*
X159000D01*
Y72344D01*
X162750Y76094D01*
Y137344D01*
X192750D01*
X194818Y139412D01*
G75*
G03*
X194464Y139973I-4063J-2171D01*
G01*
G75*
G02*
X193378Y142344I2046J2371D01*
G01*
G75*
G02*
X199642I3132J0D01*
G01*
X203378D01*
G75*
G02*
X206500Y145476I3132J0D01*
G01*
Y154844D01*
X205352Y155992D01*
X199474D01*
G75*
G02*
X195951Y156094I-1724J1352D01*
G01*
X195250D01*
X194000Y154844D01*
Y153522D01*
G75*
G02*
X194155Y153285I-2501J-1804D01*
G01*
G75*
G02*
X194185Y153233I-1160J-702D01*
G01*
G75*
G02*
X190469Y148813I-2685J-1515D01*
G01*
X190250Y148594D01*
X178803D01*
X176303Y151094D01*
Y163457D01*
X174303Y165457D01*
X168803D01*
Y161491D01*
X170587Y159707D01*
Y159336D01*
G75*
G02*
X173001Y155749I913J-1992D01*
G01*
G75*
G03*
X172852Y155461I1210J-807D01*
G01*
Y155370D01*
G75*
G03*
X173517Y154049I4240J1306D01*
G01*
G75*
G02*
X174155Y153285I-2017J-2331D01*
G01*
G75*
G02*
X174185Y153233I-1160J-702D01*
G01*
G75*
G02*
X170587Y148774I-2685J-1515D01*
G01*
Y148594D01*
X149000D01*
X146500Y146094D01*
Y102470D01*
G75*
G02*
X153202Y84658I-2048J-10938D01*
G01*
G75*
G02*
X141500Y80804I-8750J6875D01*
G01*
X198020Y151719D02*
G75*
G02*
X204980I3480J0D01*
G01*
G75*
G02*
X198020I-3480J0D01*
G01*
X182980Y142344D02*
G75*
G02*
X190039I3530J0D01*
G01*
G75*
G02*
X182980I-3530J0D01*
G01*
X147250Y130957D02*
G75*
G02*
X155750I4250J0D01*
G01*
G75*
G02*
X147250I-4250J0D01*
G01*
X147445Y118457D02*
G75*
G02*
X155555I4055J0D01*
G01*
G75*
G02*
X147445I-4055J0D01*
G01*
X147250Y140957D02*
G75*
G02*
X155750I4250J0D01*
G01*
G75*
G02*
X147250I-4250J0D01*
G01*
X141750Y80738D02*
G36*
X141750Y80738D02*
Y51344D01*
X159000D01*
Y72344D01*
X162750Y76094D01*
Y118457D01*
X155555D01*
G75*
G02*
X147445I-4055J0D01*
G01*
X146500D01*
Y102470D01*
G75*
G02*
X155580Y91533I-2048J-10938D01*
G01*
G75*
G02*
X153202Y84658I-11128J0D01*
G01*
G75*
G02*
X141750Y80738I-8750J6876D01*
G01*
G37*
X146500Y130957D02*
G36*
X146500Y130957D02*
Y118457D01*
X147445D01*
G75*
G02*
X155555I4055J0D01*
G01*
X162750D01*
Y130957D01*
X155750D01*
G75*
G02*
X147250I-4250J0D01*
G01*
X146500D01*
G37*
Y142344D02*
G36*
X146500Y142344D02*
Y130957D01*
X147250D01*
G75*
G02*
X155750I4250J0D01*
G01*
X162750D01*
Y137344D01*
X192750D01*
X194818Y139412D01*
G75*
G03*
X194464Y139973I-4063J-2171D01*
G01*
G75*
G02*
X193378Y142344I2046J2371D01*
G01*
Y142344D01*
X190039D01*
G75*
G02*
X182980I-3530J0D01*
G01*
X155517D01*
G75*
G02*
X155750Y140957I-4017J-1388D01*
G01*
G75*
G02*
X147250I-4250J0D01*
G01*
G75*
G02*
X147483Y142344I4250J0D01*
G01*
X146500D01*
G37*
Y146094D02*
G36*
X146500Y146094D02*
Y142344D01*
X147483D01*
G75*
G02*
X155517I4017J-1388D01*
G01*
X182980D01*
G75*
G02*
X190039I3530J0D01*
G01*
X193378D01*
G75*
G02*
X199642I3132J0D01*
G01*
X203378D01*
G75*
G02*
X206250Y145466I3132J0D01*
G01*
Y151719D01*
X204980D01*
G75*
G02*
X198020I-3480J0D01*
G01*
X194582D01*
G75*
G02*
X190469Y148813I-3083J0D01*
G01*
X190250Y148594D01*
X178803D01*
X176303Y151094D01*
Y151719D01*
X174583D01*
G75*
G02*
X170587Y148774I-3083J0D01*
G01*
Y148594D01*
X149000D01*
X146500Y146094D01*
G37*
X168803Y165207D02*
G36*
X168803Y165207D02*
Y161491D01*
X170587Y159707D01*
Y159336D01*
G75*
G02*
X173691Y157344I913J-1992D01*
G01*
G75*
G02*
X173001Y155749I-2191J0D01*
G01*
G75*
G03*
X172852Y155461I1222J-814D01*
G01*
Y155370D01*
G75*
G03*
X173517Y154049I4247J1309D01*
G01*
G75*
G02*
X174155Y153285I-2018J-2332D01*
G01*
G75*
G02*
X174185Y153233I-1127J-683D01*
G01*
G75*
G02*
X174583Y151719I-2685J-1515D01*
G01*
X176303D01*
Y163457D01*
X174553Y165207D01*
X168803D01*
G37*
X194000Y154844D02*
G36*
X194000Y154844D02*
Y153522D01*
G75*
G02*
X194155Y153285I-2609J-1875D01*
G01*
G75*
G02*
X194185Y153233I-1127J-683D01*
G01*
G75*
G02*
X194582Y151719I-2685J-1514D01*
G01*
Y151719D01*
X198020D01*
G75*
G02*
X204980I3480J0D01*
G01*
X206250D01*
Y155094D01*
X205352Y155992D01*
X199474D01*
G75*
G02*
X195951Y156094I-1724J1353D01*
G01*
X195250D01*
X194000Y154844D01*
G37*
X160103Y71888D02*
Y51094D01*
X181728D01*
G75*
G03*
X183402Y54187I-6415J5470D01*
G01*
Y57280D01*
X181795Y58887D01*
G75*
G02*
X181398Y59844I955J957D01*
G01*
Y91094D01*
G75*
G02*
X181795Y92052I1352J0D01*
G01*
X200543Y110800D01*
G75*
G02*
X201500Y111197I957J-955D01*
G01*
X289702D01*
X295157Y116656D01*
Y138596D01*
G75*
G03*
X294464Y139973I-4400J-1352D01*
G01*
G75*
G02*
X293378Y142344I2046J2371D01*
G01*
Y142344D01*
G75*
G02*
X294464Y144716I3132J0D01*
G01*
G75*
G03*
X295157Y146093I-3709J2731D01*
G01*
Y146094D01*
G75*
G02*
X295555Y147052I1352J0D01*
G01*
X296802Y148300D01*
G75*
G02*
X297760Y148697I957J-955D01*
G01*
X300900D01*
G75*
G02*
X299487Y154041I600J3018D01*
G01*
G75*
G03*
X300148Y155354I-3562J2617D01*
G01*
Y155534D01*
X299690Y155992D01*
X273384D01*
G75*
G03*
X273096Y155843I519J-1359D01*
G01*
G75*
G02*
X269334Y157016I-1596J1501D01*
G01*
X268707Y156389D01*
G75*
G02*
X267750Y155992I-957J955D01*
G01*
X206912D01*
X207280Y155624D01*
G75*
G02*
X207603Y154844I-780J-780D01*
G01*
Y154844D01*
G75*
G02*
Y154842I-364J-1D01*
G01*
Y145476D01*
G75*
G02*
X207586Y145286I-1102J0D01*
G01*
G75*
G02*
X209642Y142344I-1076J-2941D01*
G01*
G75*
G02*
X203572Y141259I-3132J0D01*
G01*
G75*
G02*
X203378Y141242I-194J1085D01*
G01*
X199642D01*
G75*
G02*
X199448Y141259I1J1103D01*
G01*
G75*
G02*
X199244Y140816I-2939J1085D01*
G01*
G75*
G02*
X199200Y140740I-1190J640D01*
G01*
G75*
G02*
X198557Y139974I-2691J1605D01*
G01*
G75*
G03*
X197862Y138594I3705J-2730D01*
G01*
Y124017D01*
X202070Y119809D01*
X289418D01*
G75*
G03*
X289709Y119960I-520J1359D01*
G01*
G75*
G02*
X290172Y120333I1594J-1504D01*
G01*
G75*
G02*
X290245Y120375I713J-1156D01*
G01*
G75*
G02*
X293494Y118457I1058J-1919D01*
G01*
G75*
G02*
X290245Y116538I-2191J0D01*
G01*
G75*
G02*
X290172Y116580I641J1198D01*
G01*
G75*
G02*
X289709Y116954I1131J1877D01*
G01*
G75*
G03*
X289418Y117104I-811J-1208D01*
G01*
X286919D01*
G75*
G02*
X284735Y113789I-1866J-1148D01*
G01*
G75*
G02*
X284744Y113594I-2183J-194D01*
G01*
G75*
G02*
X281495Y111676I-2191J0D01*
G01*
G75*
G02*
X281422Y111718I641J1198D01*
G01*
G75*
G02*
X280959Y112091I1131J1877D01*
G01*
G75*
G03*
X280668Y112242I-811J-1208D01*
G01*
X195810D01*
X186290Y102722D01*
G75*
G03*
X186191Y102408I1320J-590D01*
G01*
G75*
G02*
X186191Y102376I-2191J-43D01*
G01*
G75*
G02*
X186191Y102344I-2191J11D01*
G01*
Y102344D01*
G75*
G02*
X186133Y101844I-2192J0D01*
G01*
G75*
G02*
X186097Y101711I-1320J285D01*
G01*
G75*
G02*
X181809Y102344I-2097J633D01*
G01*
G75*
G02*
X183367Y104442I2191J0D01*
G01*
G75*
G02*
X183499Y104478I418J-1284D01*
G01*
G75*
G02*
X184064Y104535I501J-2134D01*
G01*
G75*
G03*
X184377Y104634I-277J1420D01*
G01*
X194293Y114550D01*
G75*
G02*
X194535Y114742I957J-956D01*
G01*
X187750D01*
G75*
G02*
X186793Y115139I0J1352D01*
G01*
X184377Y117555D01*
G75*
G03*
X184064Y117654I-591J-1321D01*
G01*
G75*
G02*
X183499Y117711I-64J2191D01*
G01*
G75*
G02*
X183367Y117747I285J1320D01*
G01*
G75*
G02*
X181809Y119844I633J2097D01*
G01*
G75*
G02*
X186097Y120478I2191J0D01*
G01*
G75*
G02*
X186133Y120345I-1284J-418D01*
G01*
G75*
G02*
X186190Y119848I-2134J-497D01*
G01*
G75*
G02*
Y119844I-2278J-2D01*
G01*
G75*
G02*
X186191Y119813I-2191J-43D01*
G01*
G75*
G02*
X186190Y119781I-2191J11D01*
G01*
G75*
G03*
X186289Y119467I1420J277D01*
G01*
X188310Y117447D01*
X200610D01*
G75*
G02*
X200552Y117502I899J1009D01*
G01*
X195555Y122499D01*
G75*
G02*
X195157Y123457I955J957D01*
G01*
Y138193D01*
X193530Y136565D01*
G75*
G02*
X192748Y136242I-780J780D01*
G01*
X163853D01*
Y76097D01*
G75*
G02*
Y76095I-367J-1D01*
G01*
Y76094D01*
G75*
G02*
X163530Y75315I-1103J0D01*
G01*
X160103Y71888D01*
X283378Y142344D02*
G75*
G02*
X289642I3132J0D01*
G01*
G75*
G02*
X283378I-3132J0D01*
G01*
X288026Y155189D02*
X294974D01*
Y148240D01*
X288026D01*
Y155189D01*
X268417Y151719D02*
G75*
G02*
X274583I3083J0D01*
G01*
G75*
G02*
X268417I-3083J0D01*
G01*
X273378Y142344D02*
G75*
G02*
X279642I3132J0D01*
G01*
G75*
G02*
X273378I-3132J0D01*
G01*
X208020Y151719D02*
G75*
G02*
X214980I3480J0D01*
G01*
G75*
G02*
X208020I-3480J0D01*
G01*
X213378Y142344D02*
G75*
G02*
X219642I3132J0D01*
G01*
G75*
G02*
X213378I-3132J0D01*
G01*
X218417Y151719D02*
G75*
G02*
X224583I3083J0D01*
G01*
G75*
G02*
X218417I-3083J0D01*
G01*
X223378Y142344D02*
G75*
G02*
X229642I3132J0D01*
G01*
G75*
G02*
X223378I-3132J0D01*
G01*
X228417Y151719D02*
G75*
G02*
X234583I3083J0D01*
G01*
G75*
G02*
X228417I-3083J0D01*
G01*
X233378Y142344D02*
G75*
G02*
X239642I3132J0D01*
G01*
G75*
G02*
X233378I-3132J0D01*
G01*
X238417Y151719D02*
G75*
G02*
X244583I3083J0D01*
G01*
G75*
G02*
X238417I-3083J0D01*
G01*
X243378Y142344D02*
G75*
G02*
X249642I3132J0D01*
G01*
G75*
G02*
X243378I-3132J0D01*
G01*
X248417Y151719D02*
G75*
G02*
X254583I3083J0D01*
G01*
G75*
G02*
X248417I-3083J0D01*
G01*
X253378Y142344D02*
G75*
G02*
X259642I3132J0D01*
G01*
G75*
G02*
X253378I-3132J0D01*
G01*
X258417Y151719D02*
G75*
G02*
X264583I3083J0D01*
G01*
G75*
G02*
X258417I-3083J0D01*
G01*
X263378Y142344D02*
G75*
G02*
X269642I3132J0D01*
G01*
G75*
G02*
X263378I-3132J0D01*
G01*
X160353Y72138D02*
G36*
X160353Y72138D02*
Y51344D01*
X181933D01*
G75*
G03*
X183402Y54187I-6617J5219D01*
G01*
Y57280D01*
X181795Y58887D01*
G75*
G02*
X181398Y59844I953J957D01*
G01*
Y91094D01*
G75*
G02*
Y91095I1253J0D01*
G01*
G75*
G02*
X181795Y92052I1350J0D01*
G01*
X200543Y110800D01*
G75*
G02*
X201500Y111197I957J-953D01*
G01*
X289702D01*
X295157Y116656D01*
Y138596D01*
G75*
G03*
X294464Y139973I-4389J-1347D01*
G01*
G75*
G02*
X293378Y142343I2044J2370D01*
G01*
G75*
G02*
Y142344I3759J0D01*
G01*
Y142344D01*
X289642D01*
G75*
G02*
X283378I-3132J0D01*
G01*
X279642D01*
G75*
G02*
X273378I-3132J0D01*
G01*
X269642D01*
G75*
G02*
X263378I-3132J0D01*
G01*
X259642D01*
G75*
G02*
X253378I-3132J0D01*
G01*
X249642D01*
G75*
G02*
X243378I-3132J0D01*
G01*
X239642D01*
G75*
G02*
X233378I-3132J0D01*
G01*
X229642D01*
G75*
G02*
X223378I-3132J0D01*
G01*
X219642D01*
G75*
G02*
X213378I-3132J0D01*
G01*
X209642D01*
G75*
G02*
X203572Y141259I-3132J0D01*
G01*
G75*
G02*
X203378Y141242I-194J1081D01*
G01*
X199642D01*
G75*
G02*
X199448Y141259I0J1098D01*
G01*
G75*
G02*
X199244Y140816I-2911J1072D01*
G01*
G75*
G02*
X199200Y140740I-1092J583D01*
G01*
G75*
G02*
X198557Y139974I-2692J1606D01*
G01*
G75*
G03*
X197862Y138594I3698J-2727D01*
G01*
Y124017D01*
X202070Y119809D01*
X289418D01*
G75*
G03*
X289709Y119960I-533J1386D01*
G01*
G75*
G02*
X290172Y120333I1601J-1512D01*
G01*
G75*
G02*
X290245Y120375I665J-1070D01*
G01*
G75*
G02*
X293494Y118457I1058J-1918D01*
G01*
Y118457D01*
Y118456D01*
G75*
G02*
X290245Y116538I-2191J0D01*
G01*
G75*
G02*
X290172Y116580I591J1113D01*
G01*
G75*
G02*
X289709Y116954I1138J1885D01*
G01*
G75*
G03*
X289418Y117104I-824J-1235D01*
G01*
X286919D01*
G75*
G02*
X287244Y115957I-1866J-1148D01*
G01*
G75*
G02*
X284735Y113789I-2191J0D01*
G01*
G75*
G02*
X284744Y113594I-2402J-204D01*
G01*
Y113594D01*
G75*
G02*
X281495Y111676I-2191J0D01*
G01*
G75*
G02*
X281422Y111718I591J1113D01*
G01*
G75*
G02*
X280959Y112091I1138J1885D01*
G01*
G75*
G03*
X280668Y112242I-824J-1235D01*
G01*
X195810D01*
X186290Y102722D01*
G75*
G03*
X186191Y102408I1301J-584D01*
G01*
G75*
G02*
X186191Y102385I-632J-22D01*
G01*
G75*
G02*
Y102376I-654J-4D01*
G01*
G75*
G02*
Y102369I-623J-4D01*
G01*
G75*
G02*
X186191Y102344I-643J-2D01*
G01*
Y102344D01*
G75*
G02*
X186133Y101844I-2198J1D01*
G01*
G75*
G02*
X186097Y101711I-1240J263D01*
G01*
G75*
G02*
X181809Y102344I-2097J633D01*
G01*
Y102345D01*
G75*
G02*
X183367Y104442I2190J0D01*
G01*
G75*
G02*
X183499Y104478I396J-1204D01*
G01*
G75*
G02*
X184064Y104535I501J-2137D01*
G01*
G75*
G03*
X184377Y104634I-272J1406D01*
G01*
X194293Y114550D01*
G75*
G02*
X194535Y114742I950J-947D01*
G01*
X187750D01*
G75*
G02*
X186793Y115139I-1J1350D01*
G01*
X184377Y117555D01*
G75*
G03*
X184064Y117654I-586J-1306D01*
G01*
G75*
G02*
X183499Y117711I-63J2194D01*
G01*
G75*
G02*
X183367Y117747I263J1240D01*
G01*
G75*
G02*
X181809Y119844I633J2097D01*
G01*
Y119844D01*
G75*
G02*
X186097Y120478I2191J0D01*
G01*
G75*
G02*
X186133Y120345I-1204J-396D01*
G01*
G75*
G02*
X186190Y119851I-2113J-494D01*
G01*
G75*
G02*
Y119848I-2183J-1D01*
G01*
Y119844D01*
G75*
G02*
X186191Y119821I-632J-22D01*
G01*
G75*
G02*
Y119813I-654J-4D01*
G01*
G75*
G02*
Y119805I-623J-4D01*
G01*
G75*
G02*
X186190Y119781I-643J-2D01*
G01*
G75*
G03*
X186289Y119467I1406J272D01*
G01*
X188310Y117447D01*
X200610D01*
G75*
G02*
X200552Y117502I624J717D01*
G01*
X195555Y122499D01*
G75*
G02*
X195157Y123456I953J957D01*
G01*
G75*
G02*
Y123457I1253J0D01*
G01*
Y138193D01*
X193530Y136565D01*
G75*
G02*
X192748Y136242I-780J781D01*
G01*
X163853D01*
Y76097D01*
Y76095D01*
Y76094D01*
G75*
G02*
X163530Y75315I-1103J0D01*
G01*
X160353Y72138D01*
G37*
X207603Y151715D02*
G36*
X207603Y151715D02*
Y145476D01*
G75*
G02*
Y145472I-1096J-2D01*
G01*
G75*
G02*
X207586Y145286I-1053J0D01*
G01*
G75*
G02*
X209642Y142345I-1076J-2941D01*
G01*
Y142344D01*
X213378D01*
G75*
G02*
X219642I3132J0D01*
G01*
X223378D01*
G75*
G02*
X229642I3132J0D01*
G01*
X233378D01*
G75*
G02*
X239642I3132J0D01*
G01*
X243378D01*
G75*
G02*
X249642I3132J0D01*
G01*
X253378D01*
G75*
G02*
X259642I3132J0D01*
G01*
X263378D01*
G75*
G02*
X269642I3132J0D01*
G01*
X273378D01*
G75*
G02*
X279642I3132J0D01*
G01*
X283378D01*
G75*
G02*
X289642I3132J0D01*
G01*
X293378D01*
Y142345D01*
G75*
G02*
X294464Y144716I3131J0D01*
G01*
G75*
G03*
X295157Y146093I-3718J2735D01*
G01*
Y146094D01*
G75*
G02*
Y146095I1253J0D01*
G01*
G75*
G02*
X295555Y147052I1350J0D01*
G01*
X296802Y148300D01*
G75*
G02*
X297760Y148697I957J-953D01*
G01*
X300650D01*
Y148757D01*
G75*
G02*
X298423Y151715I850J2957D01*
G01*
X294974D01*
Y148240D01*
X288026D01*
Y151715D01*
X274583D01*
G75*
G02*
X268417I-3083J4D01*
G01*
X264583D01*
G75*
G02*
X258417I-3083J4D01*
G01*
X254583D01*
G75*
G02*
X248417I-3083J4D01*
G01*
X244583D01*
G75*
G02*
X238417I-3083J4D01*
G01*
X234583D01*
G75*
G02*
X228417I-3083J4D01*
G01*
X224583D01*
G75*
G02*
X218417I-3083J4D01*
G01*
X214980D01*
G75*
G02*
X208020I-3480J4D01*
G01*
X207603D01*
G37*
X206912Y155992D02*
G36*
X206912Y155992D02*
X207280Y155624D01*
G75*
G02*
X207603Y154844I-780J-780D01*
G01*
Y154844D01*
Y154842D01*
Y151715D01*
X208020D01*
G75*
G02*
Y151719I3524J2D01*
G01*
G75*
G02*
X214980I3480J0D01*
G01*
G75*
G02*
Y151715I-3524J-2D01*
G01*
X218417D01*
G75*
G02*
Y151719I3090J2D01*
G01*
G75*
G02*
X224583I3083J0D01*
G01*
G75*
G02*
Y151715I-3090J-2D01*
G01*
X228417D01*
G75*
G02*
Y151719I3090J2D01*
G01*
G75*
G02*
X234583I3083J0D01*
G01*
G75*
G02*
Y151715I-3090J-2D01*
G01*
X238417D01*
G75*
G02*
Y151719I3090J2D01*
G01*
G75*
G02*
X244583I3083J0D01*
G01*
G75*
G02*
Y151715I-3090J-2D01*
G01*
X248417D01*
G75*
G02*
Y151719I3090J2D01*
G01*
G75*
G02*
X254583I3083J0D01*
G01*
G75*
G02*
Y151715I-3090J-2D01*
G01*
X258417D01*
G75*
G02*
Y151719I3090J2D01*
G01*
G75*
G02*
X264583I3083J0D01*
G01*
G75*
G02*
Y151715I-3090J-2D01*
G01*
X268417D01*
G75*
G02*
Y151719I3090J2D01*
G01*
G75*
G02*
X274583I3083J0D01*
G01*
G75*
G02*
Y151715I-3090J-2D01*
G01*
X288026D01*
Y155189D01*
X294974D01*
Y151715D01*
X298423D01*
G75*
G02*
X299487Y154041I3077J0D01*
G01*
G75*
G03*
X300148Y155354I-3566J2619D01*
G01*
Y155534D01*
X299690Y155992D01*
X273384D01*
G75*
G03*
X273096Y155843I526J-1371D01*
G01*
G75*
G02*
X269387Y156766I-1596J1501D01*
G01*
X269084D01*
X268707Y156389D01*
G75*
G02*
X267750Y155992I-957J953D01*
G01*
X206912D01*
G37*
X166594Y162648D02*
X166397Y162255D01*
X166003Y162058D01*
X165216D01*
X164822Y162255D01*
X164625Y162648D01*
X164822Y163042D01*
X165216Y163239D01*
X166003D01*
X166397Y163436D01*
X166594Y163830D01*
X166397Y164223D01*
X166003Y164420D01*
X165216D01*
X164822Y164223D01*
X164625Y163830D01*
X164231Y162058D02*
Y164420D01*
X163050D01*
X162657Y164223D01*
X162460Y164026D01*
X162263Y163633D01*
Y162845D01*
X162460Y162452D01*
X162657Y162255D01*
X163050Y162058D01*
X164231D01*
X161869D02*
X160885Y164420D01*
X159901Y162058D01*
X161476Y163042D02*
X160294D01*
X158090Y162648D02*
X157893Y162255D01*
X157499Y162058D01*
X156712D01*
X156318Y162255D01*
X156121Y162648D01*
X156318Y163042D01*
X156712Y163239D01*
X157499D01*
X157893Y163436D01*
X158090Y163830D01*
X157893Y164223D01*
X157499Y164420D01*
X156712D01*
X156318Y164223D01*
X156121Y163830D01*
X153759Y162452D02*
X153956Y162255D01*
X154350Y162058D01*
X154940D01*
X155334Y162255D01*
X155531Y162452D01*
X155728Y162845D01*
Y163633D01*
X155531Y164026D01*
X155334Y164223D01*
X154940Y164420D01*
X154350D01*
X153956Y164223D01*
X153759Y164026D01*
X153365Y164420D02*
Y162058D01*
X151397D01*
X184102Y79213D02*
Y60405D01*
X185352Y59155D01*
G75*
G02*
X186606Y57591I-348J-1564D01*
G01*
Y54189D01*
G75*
G03*
X188280Y51094I8090J2376D01*
G01*
X191809D01*
G75*
G03*
X193652Y54585I-7424J6149D01*
G01*
Y58181D01*
G75*
G02*
X189309Y58594I-2152J413D01*
G01*
G75*
G02*
X189581Y59652I2191J0D01*
G01*
G75*
G02*
X189624Y59726I1198J-641D01*
G01*
G75*
G02*
X189997Y60189I1877J-1131D01*
G01*
G75*
G03*
X190148Y60480I-1208J811D01*
G01*
Y89844D01*
G75*
G02*
X190545Y90802I1352J0D01*
G01*
X208043Y108300D01*
G75*
G02*
X208285Y108492I957J-956D01*
G01*
X202060D01*
X184102Y90534D01*
Y85476D01*
X189642D01*
Y79213D01*
X184102D01*
G36*
X184102Y79213D02*
Y60405D01*
X185352Y59155D01*
G75*
G02*
X186606Y57591I-348J-1564D01*
G01*
Y54189D01*
G75*
G03*
X188280Y51094I8090J2376D01*
G01*
X191809D01*
G75*
G03*
X193652Y54585I-7424J6149D01*
G01*
Y58181D01*
G75*
G02*
X189309Y58594I-2152J413D01*
G01*
G75*
G02*
X189581Y59652I2191J0D01*
G01*
G75*
G02*
X189624Y59726I1198J-641D01*
G01*
G75*
G02*
X189997Y60189I1877J-1131D01*
G01*
G75*
G03*
X190148Y60480I-1208J811D01*
G01*
Y89844D01*
G75*
G02*
X190545Y90802I1352J0D01*
G01*
X208043Y108300D01*
G75*
G02*
X208285Y108492I957J-956D01*
G01*
X202060D01*
X184102Y90534D01*
Y85476D01*
X189642D01*
Y79213D01*
X184102D01*
G37*
X192852Y89284D02*
Y60478D01*
G75*
G03*
X193001Y60190I1359J519D01*
G01*
G75*
G02*
X193652Y59008I-1501J-1596D01*
G01*
Y72344D01*
G75*
G02*
X194049Y73302I1352J0D01*
G01*
X198898Y78151D01*
Y79745D01*
G75*
G02*
X192980Y82344I-2388J2599D01*
G01*
G75*
G02*
X198898Y84944I3530J0D01*
G01*
Y93594D01*
G75*
G02*
X199295Y94552I1352J0D01*
G01*
X210543Y105800D01*
G75*
G02*
X210785Y105992I957J-956D01*
G01*
X209560D01*
X192852Y89284D01*
G36*
X192852Y89284D02*
Y60478D01*
G75*
G03*
X193001Y60190I1359J519D01*
G01*
G75*
G02*
X193652Y59008I-1501J-1596D01*
G01*
Y72344D01*
G75*
G02*
X194049Y73302I1352J0D01*
G01*
X198898Y78151D01*
Y79745D01*
G75*
G02*
X192980Y82344I-2388J2599D01*
G01*
G75*
G02*
X198898Y84944I3530J0D01*
G01*
Y93594D01*
G75*
G02*
X199295Y94552I1352J0D01*
G01*
X210543Y105800D01*
G75*
G02*
X210785Y105992I957J-956D01*
G01*
X209560D01*
X192852Y89284D01*
G37*
X196356Y71784D02*
Y54585D01*
G75*
G03*
X198199Y51094I9275J2664D01*
G01*
X201728D01*
G75*
G03*
X203402Y54187I-6415J5470D01*
G01*
Y55848D01*
G75*
G02*
X203570Y56563I1602J0D01*
G01*
G75*
G02*
X200831Y59652I-820J2031D01*
G01*
G75*
G02*
X200874Y59726I1198J-641D01*
G01*
G75*
G02*
X201247Y60189I1877J-1131D01*
G01*
G75*
G03*
X201398Y60480I-1208J811D01*
G01*
Y76875D01*
G75*
G02*
X201205Y76633I-1148J715D01*
G01*
X196356Y71784D01*
G36*
X196356Y71784D02*
Y54585D01*
G75*
G03*
X198199Y51094I9275J2664D01*
G01*
X201728D01*
G75*
G03*
X203402Y54187I-6415J5470D01*
G01*
Y55848D01*
G75*
G02*
X203570Y56563I1602J0D01*
G01*
G75*
G02*
X200831Y59652I-820J2031D01*
G01*
G75*
G02*
X200874Y59726I1198J-641D01*
G01*
G75*
G02*
X201247Y60189I1877J-1131D01*
G01*
G75*
G03*
X201398Y60480I-1208J811D01*
G01*
Y76875D01*
G75*
G02*
X201205Y76633I-1148J715D01*
G01*
X196356Y71784D01*
G37*
X206500Y198594D02*
Y173594D01*
X209000Y171094D01*
X259701D01*
G75*
G02*
X260867Y171942I1799J-1250D01*
G01*
G75*
G02*
X260999Y171978I418J-1284D01*
G01*
G75*
G02*
X261564Y172035I501J-2134D01*
G01*
G75*
G03*
X261877Y172134I-277J1420D01*
G01*
X263043Y173300D01*
G75*
G02*
X264000Y173697I957J-955D01*
G01*
X295352D01*
X299000Y177344D01*
Y181181D01*
G75*
G02*
X301456Y186051I2500J1793D01*
G01*
X301500Y186094D01*
X370250D01*
X371500Y187344D01*
Y193594D01*
X370250Y194844D01*
X292750D01*
X291500Y196094D01*
Y198594D01*
X289000Y201094D01*
X277750D01*
X275250Y198594D01*
Y182344D01*
X272750Y179844D01*
X227612D01*
X226500Y180957D01*
Y185760D01*
X223803Y188457D01*
X221303D01*
X219000Y190760D01*
Y198594D01*
X216500Y201094D01*
X209000D01*
X206500Y198594D01*
X288026Y182974D02*
G75*
G02*
X294974I3474J0D01*
G01*
G75*
G02*
X288026I-3474J0D01*
G01*
X277250Y196094D02*
G75*
G02*
X285750I4250J0D01*
G01*
G75*
G02*
X277250I-4250J0D01*
G01*
X218020Y182970D02*
G75*
G02*
X224980I3480J0D01*
G01*
G75*
G02*
X218020I-3480J0D01*
G01*
X207250Y196094D02*
G75*
G02*
X215750I4250J0D01*
G01*
G75*
G02*
X207250I-4250J0D01*
G01*
X208020Y182970D02*
G75*
G02*
X214980I3480J0D01*
G01*
G75*
G02*
X208020I-3480J0D01*
G01*
X206750Y182974D02*
G36*
X206750Y182974D02*
Y173344D01*
X208750Y171344D01*
X259903D01*
G75*
G02*
X260867Y171942I1597J-1500D01*
G01*
G75*
G02*
X260999Y171978I396J-1204D01*
G01*
G75*
G02*
X261564Y172035I501J-2137D01*
G01*
G75*
G03*
X261877Y172134I-272J1406D01*
G01*
X263043Y173300D01*
G75*
G02*
X264000Y173697I957J-953D01*
G01*
X295352D01*
X299000Y177344D01*
Y181181D01*
G75*
G02*
X298424Y182974I2501J1793D01*
G01*
X294974D01*
G75*
G02*
X288026I-3474J0D01*
G01*
X275250D01*
Y182344D01*
X272750Y179844D01*
X227612D01*
X226500Y180957D01*
Y182974D01*
X224980D01*
G75*
G02*
Y182970I-3524J-2D01*
G01*
G75*
G02*
X218020I-3480J0D01*
G01*
G75*
G02*
Y182974I3524J2D01*
G01*
X214980D01*
G75*
G02*
Y182970I-3524J-2D01*
G01*
G75*
G02*
X208020I-3480J0D01*
G01*
G75*
G02*
Y182974I3524J2D01*
G01*
X206750D01*
G37*
Y196094D02*
G36*
X206750Y196094D02*
Y182974D01*
X208020D01*
G75*
G02*
X214980I3480J-4D01*
G01*
X218020D01*
G75*
G02*
X224980I3480J-4D01*
G01*
X226500D01*
Y185760D01*
X223803Y188457D01*
X221303D01*
X219000Y190760D01*
Y196094D01*
X215750D01*
G75*
G02*
X207250I-4250J0D01*
G01*
X206750D01*
G37*
X275250D02*
G36*
X275250Y196094D02*
Y182974D01*
X288026D01*
G75*
G02*
X294974I3474J0D01*
G01*
X298424D01*
G75*
G02*
X301456Y186051I3077J0D01*
G01*
X301500Y186094D01*
X370250D01*
X371250Y187094D01*
Y193844D01*
X370250Y194844D01*
X292750D01*
X291500Y196094D01*
X285750D01*
G75*
G02*
X277250I-4250J0D01*
G01*
X275250D01*
G37*
X206750Y198844D02*
G36*
X206750Y198844D02*
Y196094D01*
X207250D01*
G75*
G02*
X215750I4250J0D01*
G01*
X219000D01*
Y198594D01*
X216750Y200844D01*
X208750D01*
X206750Y198844D01*
G37*
X275250Y198594D02*
G36*
X275250Y198594D02*
Y196094D01*
X277250D01*
G75*
G02*
X285750I4250J0D01*
G01*
X291500D01*
Y198594D01*
X289250Y200844D01*
X277500D01*
X275250Y198594D01*
G37*
X214102Y80341D02*
Y60478D01*
G75*
G03*
X214251Y60190I1359J519D01*
G01*
G75*
G02*
X214917Y58274I-1501J-1596D01*
G01*
X218898Y62254D01*
Y80318D01*
G75*
G02*
X214102Y80341I-2388J2027D01*
G01*
G36*
X214102Y80341D02*
Y60478D01*
G75*
G03*
X214251Y60190I1359J519D01*
G01*
G75*
G02*
X214917Y58274I-1501J-1596D01*
G01*
X218898Y62254D01*
Y80318D01*
G75*
G02*
X214102Y80341I-2388J2027D01*
G01*
G37*
X219162Y199992D02*
X219780Y199374D01*
G75*
G02*
X220103Y198594I-780J-780D01*
G01*
Y198594D01*
G75*
G02*
Y198592I-364J-1D01*
G01*
Y191217D01*
X221760Y189559D01*
X223801D01*
G75*
G02*
X224583Y189237I2J-1103D01*
G01*
X227280Y186540D01*
G75*
G02*
X227603Y185760I-780J-780D01*
G01*
Y185759D01*
G75*
G02*
Y185757I-364J-1D01*
G01*
Y181413D01*
X228069Y180947D01*
X229174D01*
G75*
G02*
X228417Y182970I2326J2023D01*
G01*
G75*
G02*
X234583I3083J0D01*
G01*
G75*
G02*
X233826Y180947I-3083J0D01*
G01*
X239174D01*
G75*
G02*
X238417Y182970I2326J2023D01*
G01*
G75*
G02*
X244583I3083J0D01*
G01*
G75*
G02*
X243826Y180947I-3083J0D01*
G01*
X249174D01*
G75*
G02*
X248417Y182970I2326J2023D01*
G01*
G75*
G02*
X254583I3083J0D01*
G01*
G75*
G02*
X253826Y180947I-3083J0D01*
G01*
X259174D01*
G75*
G02*
X258417Y182970I2326J2023D01*
G01*
G75*
G02*
X264583I3083J0D01*
G01*
G75*
G02*
X263826Y180947I-3083J0D01*
G01*
X269174D01*
G75*
G02*
X268417Y182970I2326J2023D01*
G01*
G75*
G02*
X274147Y184550I3083J0D01*
G01*
Y198592D01*
G75*
G02*
Y198594I367J1D01*
G01*
Y198594D01*
G75*
G02*
X274470Y199374I1103J0D01*
G01*
X275088Y199992D01*
X263195D01*
G75*
G02*
X265750Y196094I-1695J-3897D01*
G01*
G75*
G02*
X257250I-4250J0D01*
G01*
G75*
G02*
X259805Y199992I4250J0D01*
G01*
X219162D01*
X226657Y196772D02*
G75*
G02*
Y190142I0J-3315D01*
G01*
G75*
G02*
X223343Y193457I0J3315D01*
G01*
G75*
G02*
X226657Y196772I3315J0D01*
G01*
X236500Y197169D02*
G75*
G02*
X240213Y193457I0J-3713D01*
G01*
G75*
G02*
X236500Y189744I-3713J0D01*
G01*
G75*
G02*
X232787Y193457I0J3713D01*
G01*
G75*
G02*
X236500Y197169I3713J0D01*
G01*
X246343Y196772D02*
G75*
G02*
X249657Y193457I0J-3315D01*
G01*
G75*
G02*
X246343Y190142I-3315J0D01*
G01*
G75*
G02*
X243028Y193457I0J3315D01*
G01*
G75*
G02*
X246343Y196772I3315J0D01*
G01*
X220103Y193457D02*
G36*
X220103Y193457D02*
Y191217D01*
X221760Y189559D01*
X223801D01*
G75*
G02*
X224583Y189237I2J-1104D01*
G01*
X227280Y186540D01*
G75*
G02*
X227603Y185760I-780J-780D01*
G01*
Y185759D01*
Y185757D01*
Y181413D01*
X227819Y181197D01*
X228978D01*
G75*
G02*
X228417Y182970I2521J1773D01*
G01*
Y182970D01*
G75*
G02*
X234583I3083J0D01*
G01*
Y182970D01*
G75*
G02*
X234022Y181197I-3082J0D01*
G01*
X238978D01*
G75*
G02*
X238417Y182970I2521J1773D01*
G01*
Y182970D01*
G75*
G02*
X244583I3083J0D01*
G01*
Y182970D01*
G75*
G02*
X244022Y181197I-3082J0D01*
G01*
X248978D01*
G75*
G02*
X248417Y182970I2521J1773D01*
G01*
Y182970D01*
G75*
G02*
X254583I3083J0D01*
G01*
Y182970D01*
G75*
G02*
X254022Y181197I-3082J0D01*
G01*
X258978D01*
G75*
G02*
X258417Y182970I2521J1773D01*
G01*
Y182970D01*
G75*
G02*
X264583I3083J0D01*
G01*
Y182970D01*
G75*
G02*
X264022Y181197I-3082J0D01*
G01*
X268978D01*
G75*
G02*
X268417Y182970I2521J1773D01*
G01*
Y182970D01*
G75*
G02*
X274147Y184550I3083J0D01*
G01*
Y193457D01*
X264832D01*
G75*
G02*
X258168I-3332J2638D01*
G01*
X249657D01*
Y193456D01*
G75*
G02*
X246343Y190142I-3315J0D01*
G01*
G75*
G02*
X243028Y193456I0J3315D01*
G01*
Y193457D01*
X240213D01*
G75*
G02*
X236500Y189744I-3713J0D01*
G01*
G75*
G02*
X232787Y193457I0J3713D01*
G01*
X229972D01*
G75*
G02*
X226657Y190142I-3315J0D01*
G01*
G75*
G02*
X223343Y193456I0J3315D01*
G01*
Y193457D01*
X220103D01*
G37*
X219412Y199742D02*
G36*
X219412Y199742D02*
X219780Y199374D01*
G75*
G02*
X220103Y198594I-780J-780D01*
G01*
Y198594D01*
Y198592D01*
Y193457D01*
X223343D01*
Y193457D01*
G75*
G02*
X226657Y196772I3315J0D01*
G01*
G75*
G02*
X229972Y193457I0J-3315D01*
G01*
X232787D01*
G75*
G02*
X236500Y197169I3713J0D01*
G01*
G75*
G02*
X240213Y193457I0J-3713D01*
G01*
X243028D01*
Y193457D01*
G75*
G02*
X246343Y196772I3315J0D01*
G01*
G75*
G02*
X249657Y193457I0J-3315D01*
G01*
Y193457D01*
X258168D01*
G75*
G02*
X257250Y196094I3332J2638D01*
G01*
G75*
G02*
X259318Y199742I4250J0D01*
G01*
X219412D01*
G37*
X265750Y196094D02*
G36*
X265750Y196094D02*
G75*
G02*
X264832Y193457I-4250J0D01*
G01*
X274147D01*
Y198592D01*
Y198594D01*
Y198594D01*
G75*
G02*
X274470Y199374I1103J0D01*
G01*
X274838Y199742D01*
X263682D01*
G75*
G02*
X265750Y196094I-2182J-3647D01*
G01*
G37*
X224102Y89284D02*
Y84348D01*
G75*
G02*
X229037Y84194I2407J-2003D01*
G01*
G75*
G02*
X229295Y84552I1213J-600D01*
G01*
X233043Y88300D01*
G75*
G02*
X234000Y88697I957J-955D01*
G01*
X241510D01*
G75*
G02*
X242467Y88300I0J-1352D01*
G01*
X244814Y85953D01*
G75*
G03*
X246281Y85468I2156J4063D01*
G01*
G75*
G02*
X247278Y85381I229J-3124D01*
G01*
G75*
G02*
X247362Y85358I-307J-1317D01*
G01*
G75*
G02*
X248525Y79947I-852J-3014D01*
G01*
X252200D01*
X252903Y80650D01*
G75*
G03*
X253387Y82114I-4063J2155D01*
G01*
G75*
G02*
X253378Y82344I3126J233D01*
G01*
Y82345D01*
G75*
G02*
X253481Y83141I3132J0D01*
G01*
G75*
G02*
X253489Y83170I1328J-338D01*
G01*
G75*
G02*
X259642Y82344I3021J-826D01*
G01*
G75*
G02*
X257362Y79331I-3132J0D01*
G01*
G75*
G02*
X257278Y79308I-391J1294D01*
G01*
G75*
G02*
X256281Y79221I-769J3036D01*
G01*
G75*
G03*
X254814Y78736I689J-4547D01*
G01*
X253717Y77639D01*
G75*
G02*
X253475Y77447I-957J956D01*
G01*
X259700D01*
X262903Y80650D01*
G75*
G03*
X263387Y82114I-4063J2155D01*
G01*
G75*
G02*
X263378Y82344I3126J233D01*
G01*
Y82345D01*
G75*
G02*
X263481Y83141I3132J0D01*
G01*
G75*
G02*
X263489Y83170I1328J-338D01*
G01*
G75*
G02*
X269642Y82344I3021J-826D01*
G01*
G75*
G02*
X267362Y79331I-3132J0D01*
G01*
G75*
G02*
X267278Y79308I-391J1294D01*
G01*
G75*
G02*
X266281Y79221I-769J3036D01*
G01*
G75*
G03*
X264814Y78736I689J-4547D01*
G01*
X261217Y75139D01*
G75*
G02*
X260975Y74947I-957J956D01*
G01*
X267200D01*
X272903Y80650D01*
G75*
G03*
X273387Y82114I-4063J2155D01*
G01*
G75*
G02*
X273378Y82344I3126J233D01*
G01*
Y82345D01*
G75*
G02*
X273481Y83141I3132J0D01*
G01*
G75*
G02*
X273489Y83170I1328J-338D01*
G01*
G75*
G02*
X279642Y82344I3021J-826D01*
G01*
G75*
G02*
X277362Y79331I-3132J0D01*
G01*
G75*
G02*
X277278Y79308I-391J1294D01*
G01*
G75*
G02*
X276281Y79221I-769J3036D01*
G01*
G75*
G03*
X274814Y78736I689J-4547D01*
G01*
X268717Y72639D01*
G75*
G02*
X267760Y72242I-957J955D01*
G01*
X247060D01*
X241602Y66784D01*
Y60478D01*
G75*
G03*
X241751Y60190I1359J519D01*
G01*
G75*
G02*
X242441Y58594I-1501J-1596D01*
G01*
G75*
G02*
X238059I-2191J0D01*
G01*
G75*
G02*
X238331Y59652I2191J0D01*
G01*
G75*
G02*
X238374Y59726I1198J-641D01*
G01*
G75*
G02*
X238747Y60189I1877J-1131D01*
G01*
G75*
G03*
X238898Y60480I-1208J811D01*
G01*
Y67344D01*
G75*
G02*
X239295Y68302I1352J0D01*
G01*
X245543Y74550D01*
G75*
G02*
X245785Y74742I957J-956D01*
G01*
X243310D01*
X236356Y67788D01*
Y55704D01*
G75*
G02*
X236606Y54844I-1352J-859D01*
G01*
Y54189D01*
G75*
G03*
X238280Y51094I8090J2376D01*
G01*
X241728D01*
G75*
G03*
X243402Y54187I-6415J5470D01*
G01*
Y57344D01*
G75*
G02*
X243652Y58204I1602J0D01*
G01*
Y63594D01*
G75*
G02*
X244049Y64552I1352J0D01*
G01*
X249046Y69550D01*
G75*
G02*
X250004Y69947I957J-955D01*
G01*
X272200D01*
X282903Y80650D01*
G75*
G03*
X283387Y82114I-4063J2155D01*
G01*
G75*
G02*
X283378Y82344I3126J233D01*
G01*
Y82345D01*
G75*
G02*
X283481Y83141I3132J0D01*
G01*
G75*
G02*
X283489Y83170I1328J-338D01*
G01*
G75*
G02*
X289641Y82398I3021J-826D01*
G01*
X290543Y83300D01*
G75*
G02*
X291500Y83697I957J-955D01*
G01*
X292761D01*
G75*
G03*
X294139Y84391I-1354J4403D01*
G01*
G75*
G02*
X299642Y82344I2371J-2046D01*
G01*
G75*
G02*
X294139Y80298I-3132J0D01*
G01*
G75*
G03*
X292761Y80992I-2731J-3709D01*
G01*
X292060D01*
X290547Y79479D01*
G75*
G02*
X289791Y75169I-494J-2135D01*
G01*
X277261Y62639D01*
G75*
G02*
X276988Y62428I-957J955D01*
G01*
G75*
G02*
X274192Y59176I-1738J-1334D01*
G01*
G75*
G02*
X274119Y59218I641J1198D01*
G01*
G75*
G02*
X273656Y59591I1131J1877D01*
G01*
G75*
G03*
X273365Y59742I-811J-1208D01*
G01*
X272372D01*
G75*
G02*
X272387Y59728I-1117J-1163D01*
G01*
X276137Y55978D01*
G75*
G02*
X276606Y54844I-1133J-1133D01*
G01*
G75*
G02*
Y54841I-621J-2D01*
G01*
Y54189D01*
G75*
G03*
X278280Y51094I8090J2376D01*
G01*
X281728D01*
G75*
G03*
X283402Y54187I-6415J5470D01*
G01*
Y64918D01*
G75*
G02*
X283059Y66094I1849J1176D01*
G01*
G75*
G02*
X287441I2191J0D01*
G01*
G75*
G02*
X286606Y64374I-2191J0D01*
G01*
Y54189D01*
G75*
G03*
X288280Y51094I8090J2376D01*
G01*
X291728D01*
G75*
G03*
X293402Y54187I-6415J5470D01*
G01*
Y58177D01*
X290174Y61405D01*
G75*
G02*
X288059Y63594I76J2190D01*
G01*
G75*
G02*
X292440Y63671I2191J0D01*
G01*
X296135Y59976D01*
G75*
G02*
X296606Y58841I-1131J-1135D01*
G01*
Y54189D01*
G75*
G03*
X298280Y51094I8090J2376D01*
G01*
X311728D01*
G75*
G03*
X313456Y54382I-6415J5470D01*
G01*
G75*
G02*
X313652Y54827I1548J-415D01*
G01*
Y68023D01*
G75*
G02*
X313187Y70854I1402J1684D01*
G01*
X311937D01*
G75*
G03*
X311649Y70706I519J-1359D01*
G01*
G75*
G02*
X307862Y72207I-1596J1501D01*
G01*
G75*
G02*
X311649Y73708I2191J0D01*
G01*
G75*
G03*
X311937Y73559I807J1210D01*
G01*
X339493D01*
X341514Y75580D01*
G75*
G03*
X341612Y75891I-1320J589D01*
G01*
G75*
G02*
X341612Y75924I2189J43D01*
G01*
G75*
G02*
X341612Y75957I2190J-10D01*
G01*
G75*
G02*
X341674Y76473I2194J0D01*
G01*
G75*
G02*
X341701Y76575I1320J-298D01*
G01*
G75*
G02*
X341885Y77015I2104J-620D01*
G01*
G75*
G02*
X341927Y77088I1111J-591D01*
G01*
G75*
G02*
X342300Y77551I1885J-1138D01*
G01*
G75*
G03*
X342451Y77842I-1211J811D01*
G01*
Y83457D01*
G75*
G02*
X342848Y84414I1352J0D01*
G01*
X360148Y101714D01*
Y109268D01*
X358423D01*
Y115421D01*
X364577D01*
Y113947D01*
X368320D01*
G75*
G03*
X369208Y114397I-1043J3158D01*
G01*
G75*
G02*
X374577Y112344I2292J-2052D01*
G01*
G75*
G02*
X369208Y110292I-3077J0D01*
G01*
G75*
G03*
X368320Y110742I-1931J-2708D01*
G01*
X364577D01*
Y109268D01*
X362852D01*
Y101154D01*
G75*
G02*
X362455Y100196I-1352J0D01*
G01*
X355650Y93391D01*
G75*
G02*
X356303Y93559I654J-1184D01*
G01*
X387190D01*
X390148Y96517D01*
Y108706D01*
G75*
G03*
X389487Y110018I-4223J-1304D01*
G01*
G75*
G02*
X388423Y112344I2013J2326D01*
G01*
G75*
G02*
X393826Y114358I3077J0D01*
G01*
G75*
G03*
X395139Y113697I2618J3564D01*
G01*
X397862D01*
G75*
G03*
X399173Y114357I-1304J4219D01*
G01*
G75*
G02*
X404577Y112344I2327J-2013D01*
G01*
G75*
G02*
X399173Y110332I-3077J0D01*
G01*
G75*
G03*
X397862Y110992I-2614J-3558D01*
G01*
X395139D01*
G75*
G03*
X393826Y110331I1305J-4225D01*
G01*
G75*
G02*
X393513Y110018I-2327J2014D01*
G01*
G75*
G03*
X392852Y108707I3558J-2615D01*
G01*
Y95957D01*
G75*
G02*
X392455Y94999I-1352J0D01*
G01*
X388707Y91252D01*
G75*
G02*
X387750Y90854I-957J955D01*
G01*
X356863D01*
X355787Y89778D01*
G75*
G02*
X356441Y89947I654J-1184D01*
G01*
X379580D01*
G75*
G02*
X383027I1724J-1352D01*
G01*
X403330D01*
G75*
G02*
X407244Y88594I1724J-1352D01*
G01*
G75*
G02*
X403330Y87242I-2191J0D01*
G01*
X383027D01*
G75*
G02*
X379580I-1724J1352D01*
G01*
X374381D01*
G75*
G02*
X374623Y87050I-715J-1148D01*
G01*
X380613Y81059D01*
X422080D01*
G75*
G02*
X424951Y81573I1724J-1352D01*
G01*
Y81646D01*
X423045Y83552D01*
G75*
G02*
X422648Y84510I955J957D01*
G01*
Y86871D01*
G75*
G02*
X421809Y88594I1352J1724D01*
G01*
G75*
G02*
X426191I2191J0D01*
G01*
G75*
G02*
X425352Y86871I-2191J0D01*
G01*
Y85070D01*
X427258Y83164D01*
G75*
G02*
X427656Y82207I-955J-957D01*
G01*
Y78319D01*
G75*
G02*
X427258Y77361I-1352J0D01*
G01*
X424898Y75002D01*
G75*
G02*
X423941Y74604I-957J955D01*
G01*
X406863D01*
X405156Y72896D01*
Y64707D01*
G75*
G02*
X404758Y63749I-1352J0D01*
G01*
X402261Y61252D01*
G75*
G02*
X401303Y60854I-957J955D01*
G01*
X379717D01*
X379111Y60248D01*
G75*
G02*
X378881Y59959I-1361J847D01*
G01*
X376606Y57685D01*
Y54189D01*
G75*
G03*
X378280Y51094I8090J2376D01*
G01*
X381389D01*
Y57344D01*
G75*
G02*
X383858Y59813I2469J0D01*
G01*
X426304D01*
G75*
G03*
X428836Y62344I0J2531D01*
G01*
Y211094D01*
G75*
G03*
X425054Y214876I-3781J0D01*
G01*
X415528D01*
X417280Y213124D01*
G75*
G02*
X417603Y212344I-780J-780D01*
G01*
Y212344D01*
G75*
G02*
Y212342I-364J-1D01*
G01*
Y203597D01*
G75*
G02*
Y203595I-367J-1D01*
G01*
Y203594D01*
G75*
G02*
X417280Y202815I-1103J0D01*
G01*
X414780Y200315D01*
G75*
G02*
X413998Y199992I-780J780D01*
G01*
X404457D01*
X403853Y199388D01*
Y192347D01*
G75*
G02*
Y192345I-367J-1D01*
G01*
Y192344D01*
G75*
G02*
X403530Y191565I-1103J0D01*
G01*
X402280Y190315D01*
G75*
G02*
X401498Y189992I-780J780D01*
G01*
X391502D01*
G75*
G02*
X390720Y190315I-2J1103D01*
G01*
X389470Y191565D01*
G75*
G02*
X389147Y192344I780J780D01*
G01*
Y192345D01*
G75*
G02*
Y192347I364J1D01*
G01*
Y199388D01*
X388543Y199992D01*
X291662D01*
X292280Y199374D01*
G75*
G02*
X292603Y198594I-780J-780D01*
G01*
Y198594D01*
G75*
G02*
Y198592I-364J-1D01*
G01*
Y196551D01*
X293207Y195947D01*
X370248D01*
G75*
G02*
X371030Y195624I2J-1103D01*
G01*
X372280Y194374D01*
G75*
G02*
X372603Y193594I-780J-780D01*
G01*
Y193594D01*
G75*
G02*
Y193592I-364J-1D01*
G01*
Y187347D01*
G75*
G02*
Y187345I-367J-1D01*
G01*
Y187344D01*
G75*
G02*
X372280Y186565I-1103J0D01*
G01*
X371756Y186041D01*
G75*
G02*
X373513Y180647I-256J-3066D01*
G01*
G75*
G03*
X372852Y179337I3558J-2614D01*
G01*
Y177344D01*
G75*
G02*
X372455Y176387I-1352J0D01*
G01*
X362457Y166389D01*
G75*
G02*
X362215Y166197I-957J956D01*
G01*
X364000D01*
G75*
G02*
X364957Y165800I0J-1352D01*
G01*
X372455Y158302D01*
G75*
G02*
X372852Y157344I-955J-957D01*
G01*
Y155352D01*
G75*
G03*
X373513Y154042I4219J1304D01*
G01*
G75*
G02*
X374577Y151715I-2013J-2327D01*
G01*
G75*
G02*
X368423I-3077J0D01*
G01*
G75*
G02*
X369487Y154041I3077J0D01*
G01*
G75*
G03*
X370148Y155354I-3562J2617D01*
G01*
Y156784D01*
X363440Y163492D01*
X337215D01*
G75*
G02*
X337457Y163300I-715J-1148D01*
G01*
X342455Y158302D01*
G75*
G02*
X342852Y157344I-955J-957D01*
G01*
Y155352D01*
G75*
G03*
X343513Y154042I4219J1304D01*
G01*
G75*
G02*
X344577Y151715I-2013J-2327D01*
G01*
G75*
G02*
X338423I-3077J0D01*
G01*
G75*
G02*
X339487Y154041I3077J0D01*
G01*
G75*
G03*
X340148Y155354I-3562J2617D01*
G01*
Y156784D01*
X335940Y160992D01*
X329715D01*
G75*
G02*
X329957Y160800I-715J-1148D01*
G01*
X332455Y158302D01*
G75*
G02*
X332852Y157344I-955J-957D01*
G01*
Y155352D01*
G75*
G03*
X333513Y154042I4219J1304D01*
G01*
G75*
G02*
X334577Y151715I-2013J-2327D01*
G01*
G75*
G02*
X328423I-3077J0D01*
G01*
G75*
G02*
X329487Y154041I3077J0D01*
G01*
G75*
G03*
X330148Y155354I-3562J2617D01*
G01*
Y156784D01*
X328440Y158492D01*
X300965D01*
G75*
G02*
X301207Y158300I-715J-1148D01*
G01*
X302455Y157052D01*
G75*
G02*
X302852Y156094I-955J-957D01*
G01*
Y155352D01*
G75*
G03*
X303513Y154042I4219J1304D01*
G01*
G75*
G02*
X302100Y148697I-2013J-2327D01*
G01*
X306570D01*
X307970Y150097D01*
G75*
G03*
X308431Y151493I-3905J2062D01*
G01*
G75*
G02*
X308423Y151713I3070J220D01*
G01*
Y151715D01*
G75*
G02*
X308526Y152503I3077J0D01*
G01*
G75*
G02*
X308530Y152518I1216J-312D01*
G01*
G75*
G02*
X314577Y151715I2970J-803D01*
G01*
G75*
G02*
X312340Y148755I-3077J0D01*
G01*
G75*
G02*
X312251Y148731I-392J1296D01*
G01*
G75*
G02*
X311280Y148646I-752J2983D01*
G01*
G75*
G03*
X309882Y148184I665J-4365D01*
G01*
X308087Y146389D01*
G75*
G02*
X307130Y145992I-957J955D01*
G01*
X298320D01*
X298011Y145683D01*
G75*
G03*
X298557Y144715I4252J1762D01*
G01*
G75*
G02*
X299200Y143949I-2048J-2371D01*
G01*
G75*
G02*
X299244Y143873I-1151J-719D01*
G01*
G75*
G02*
X299642Y142345I-2734J-1528D01*
G01*
Y142344D01*
G75*
G02*
X299244Y140816I-3134J0D01*
G01*
G75*
G02*
X299200Y140740I-1094J584D01*
G01*
G75*
G02*
X298557Y139974I-2692J1607D01*
G01*
G75*
G03*
X297862Y138594I3709J-2732D01*
G01*
Y116096D01*
G75*
G02*
X297467Y115141I-1352J0D01*
G01*
X291219Y108889D01*
G75*
G02*
X290977Y108697I-957J957D01*
G01*
X293440D01*
X305157Y120415D01*
Y138596D01*
G75*
G03*
X304464Y139973I-4403J-1354D01*
G01*
G75*
G02*
X303378Y142344I2046J2371D01*
G01*
G75*
G02*
X309642I3132J0D01*
G01*
Y142344D01*
G75*
G02*
X309244Y140816I-3132J0D01*
G01*
G75*
G02*
X309200Y140740I-1190J640D01*
G01*
G75*
G02*
X308557Y139974I-2691J1605D01*
G01*
G75*
G03*
X307862Y138594I3705J-2730D01*
G01*
Y119854D01*
G75*
G02*
X307465Y118897I-1352J0D01*
G01*
X294957Y106389D01*
G75*
G02*
X294715Y106197I-957J956D01*
G01*
X300940D01*
X315157Y120415D01*
Y138596D01*
G75*
G03*
X314464Y139973I-4403J-1354D01*
G01*
G75*
G02*
X313378Y142344I2046J2371D01*
G01*
G75*
G02*
X319642I3132J0D01*
G01*
Y142344D01*
G75*
G02*
X319244Y140816I-3132J0D01*
G01*
G75*
G02*
X319200Y140740I-1190J640D01*
G01*
G75*
G02*
X318557Y139974I-2691J1605D01*
G01*
G75*
G03*
X317862Y138594I3705J-2730D01*
G01*
Y119854D01*
G75*
G02*
X317465Y118897I-1352J0D01*
G01*
X302457Y103889D01*
G75*
G02*
X302215Y103697I-957J956D01*
G01*
X308450D01*
X325157Y120405D01*
Y138596D01*
G75*
G03*
X324464Y139973I-4403J-1354D01*
G01*
G75*
G02*
X323378Y142344I2046J2371D01*
G01*
G75*
G02*
X329642I3132J0D01*
G01*
Y142344D01*
G75*
G02*
X329244Y140816I-3132J0D01*
G01*
G75*
G02*
X329200Y140740I-1190J640D01*
G01*
G75*
G02*
X328557Y139974I-2691J1605D01*
G01*
G75*
G03*
X327862Y138594I3705J-2730D01*
G01*
Y119844D01*
G75*
G02*
X327465Y118887I-1352J0D01*
G01*
X309967Y101389D01*
G75*
G02*
X309725Y101197I-957J956D01*
G01*
X315940D01*
X335157Y120415D01*
Y138596D01*
G75*
G03*
X334464Y139973I-4403J-1354D01*
G01*
G75*
G02*
X333378Y142344I2046J2371D01*
G01*
G75*
G02*
X339642I3132J0D01*
G01*
Y142344D01*
G75*
G02*
X339244Y140816I-3132J0D01*
G01*
G75*
G02*
X339200Y140740I-1190J640D01*
G01*
G75*
G02*
X338557Y139974I-2691J1605D01*
G01*
G75*
G03*
X337862Y138594I3705J-2730D01*
G01*
Y119854D01*
G75*
G02*
X337465Y118897I-1352J0D01*
G01*
X317457Y98889D01*
G75*
G02*
X316500Y98492I-957J955D01*
G01*
X312225D01*
G75*
G02*
X312467Y98300I-715J-1148D01*
G01*
X324814Y85953D01*
G75*
G03*
X326281Y85468I2156J4063D01*
G01*
G75*
G02*
X327278Y85381I229J-3124D01*
G01*
G75*
G02*
X327362Y85358I-307J-1317D01*
G01*
G75*
G02*
X329642Y82344I-853J-3014D01*
G01*
G75*
G02*
X323489Y81519I-3132J0D01*
G01*
G75*
G02*
X323481Y81548I1297J362D01*
G01*
G75*
G02*
X323378Y82344I3029J796D01*
G01*
Y82344D01*
G75*
G02*
X323387Y82575I3131J-2D01*
G01*
G75*
G03*
X322903Y84039I-4547J-691D01*
G01*
X310950Y95992D01*
X304725D01*
G75*
G02*
X304967Y95800I-715J-1148D01*
G01*
X314814Y85953D01*
G75*
G03*
X316281Y85468I2156J4063D01*
G01*
G75*
G02*
X317278Y85381I229J-3124D01*
G01*
G75*
G02*
X317362Y85358I-307J-1317D01*
G01*
G75*
G02*
X319642Y82344I-853J-3014D01*
G01*
G75*
G02*
X313489Y81519I-3132J0D01*
G01*
G75*
G02*
X313481Y81548I1297J362D01*
G01*
G75*
G02*
X313378Y82344I3029J796D01*
G01*
Y82344D01*
G75*
G02*
X313387Y82575I3131J-2D01*
G01*
G75*
G03*
X312903Y84039I-4547J-691D01*
G01*
X307681Y89261D01*
G75*
G02*
X307862Y88585I-1171J-676D01*
G01*
Y86094D01*
G75*
G03*
X308557Y84715I4400J1350D01*
G01*
G75*
G02*
X309200Y83949I-2048J-2371D01*
G01*
G75*
G02*
X309244Y83873I-1151J-719D01*
G01*
G75*
G02*
X309642Y82345I-2734J-1528D01*
G01*
Y82344D01*
G75*
G02*
X303378I-3132J0D01*
G01*
G75*
G02*
X304464Y84716I3132J0D01*
G01*
G75*
G03*
X305157Y86093I-3709J2731D01*
G01*
Y88024D01*
X302190Y90992D01*
X225810D01*
X224102Y89284D01*
X412250Y196094D02*
G75*
G02*
X420750I4250J0D01*
G01*
G75*
G02*
X412250I-4250J0D01*
G01*
X418026Y112344D02*
G75*
G02*
X424974I3474J0D01*
G01*
G75*
G02*
X418026I-3474J0D01*
G01*
X418423Y142344D02*
G75*
G02*
X424577I3077J0D01*
G01*
G75*
G02*
X418423I-3077J0D01*
G01*
X378026Y151715D02*
G75*
G02*
X384974I3474J0D01*
G01*
G75*
G02*
X378026I-3474J0D01*
G01*
X413513Y114672D02*
G75*
G02*
X414577Y112344I-2013J-2327D01*
G01*
G75*
G02*
X408423I-3077J0D01*
G01*
G75*
G02*
X409487Y114671I3077J0D01*
G01*
G75*
G03*
X410148Y115983I-3562J2617D01*
G01*
Y117700D01*
X404493Y123354D01*
X389000D01*
G75*
G02*
X388043Y123752I0J1352D01*
G01*
X380545Y131249D01*
G75*
G02*
X380148Y132207I955J957D01*
G01*
Y138706D01*
G75*
G03*
X379487Y140018I-4223J-1304D01*
G01*
G75*
G02*
X378423Y142344I2013J2326D01*
G01*
G75*
G02*
X384577I3077J0D01*
G01*
G75*
G02*
X383513Y140017I-3077J0D01*
G01*
G75*
G03*
X382852Y138707I3558J-2614D01*
G01*
Y132767D01*
X389560Y126059D01*
X405053D01*
G75*
G02*
X406011Y125662I0J-1352D01*
G01*
X412455Y119217D01*
G75*
G02*
X412852Y118260I-955J-957D01*
G01*
Y115982D01*
G75*
G03*
X413513Y114672I4219J1304D01*
G01*
X378423Y182974D02*
G75*
G02*
X384577I3077J0D01*
G01*
G75*
G02*
X378423I-3077J0D01*
G01*
X409173Y144357D02*
G75*
G02*
X414577Y142344I2327J-2013D01*
G01*
G75*
G02*
X409173Y140332I-3077J0D01*
G01*
G75*
G03*
X407862Y140992I-2614J-3558D01*
G01*
X405139D01*
G75*
G03*
X403826Y140331I1304J-4223D01*
G01*
G75*
G02*
X403058Y139692I-2326J2015D01*
G01*
G75*
G02*
X403019Y139669I-706J1160D01*
G01*
G75*
G02*
X399173Y140332I-1519J2676D01*
G01*
G75*
G03*
X397863Y140992I-2611J-3551D01*
G01*
X395139D01*
G75*
G03*
X393826Y140331I1304J-4223D01*
G01*
G75*
G02*
X388423Y142344I-2326J2013D01*
G01*
G75*
G02*
X393826Y144358I3077J0D01*
G01*
G75*
G03*
X395139Y143697I2617J3562D01*
G01*
X397863D01*
G75*
G03*
X399173Y144357I-1301J4211D01*
G01*
G75*
G02*
X403019Y145020I2327J-2013D01*
G01*
G75*
G02*
X403058Y144997I-673J-1194D01*
G01*
G75*
G02*
X403826Y144358I-1557J-2654D01*
G01*
G75*
G03*
X405139Y143697I2617J3561D01*
G01*
X407862D01*
G75*
G03*
X409173Y144357I-1304J4219D01*
G01*
X383513Y114672D02*
G75*
G02*
X384577Y112344I-2013J-2327D01*
G01*
G75*
G02*
X378423I-3077J0D01*
G01*
G75*
G02*
X379487Y114671I3077J0D01*
G01*
G75*
G03*
X380148Y115983I-3562J2617D01*
G01*
Y122896D01*
X370545Y132499D01*
G75*
G02*
X370148Y133457I955J957D01*
G01*
Y138706D01*
G75*
G03*
X369487Y140018I-4223J-1304D01*
G01*
G75*
G02*
X368423Y142344I2013J2326D01*
G01*
G75*
G02*
X374577I3077J0D01*
G01*
G75*
G02*
X373513Y140017I-3077J0D01*
G01*
G75*
G03*
X372852Y138707I3558J-2614D01*
G01*
Y134017D01*
X382455Y124414D01*
G75*
G02*
X382852Y123457I-955J-957D01*
G01*
Y115982D01*
G75*
G03*
X383513Y114672I4219J1304D01*
G01*
X348423Y151715D02*
G75*
G02*
X354577I3077J0D01*
G01*
G75*
G02*
X348423I-3077J0D01*
G01*
X358423Y142344D02*
G75*
G02*
X364577I3077J0D01*
G01*
G75*
G02*
X358423I-3077J0D01*
G01*
Y151715D02*
G75*
G02*
X364577I3077J0D01*
G01*
G75*
G02*
X358423I-3077J0D01*
G01*
X318423D02*
G75*
G02*
X324577I3077J0D01*
G01*
G75*
G02*
X318423I-3077J0D01*
G01*
X332980Y82344D02*
G75*
G02*
X340039I3530J0D01*
G01*
G75*
G02*
X332980I-3530J0D01*
G01*
X236356Y67788D02*
G36*
X236356Y67788D02*
Y55704D01*
G75*
G02*
X236606Y54844I-1352J-859D01*
G01*
Y54189D01*
G75*
G03*
X238075Y51344I8091J2376D01*
G01*
X241933D01*
G75*
G03*
X243402Y54187I-6617J5219D01*
G01*
Y57344D01*
G75*
G02*
X243652Y58204I1602J0D01*
G01*
Y63594D01*
G75*
G02*
Y63595I1253J0D01*
G01*
G75*
G02*
X244049Y64552I1350J0D01*
G01*
X249046Y69550D01*
G75*
G02*
X250004Y69947I957J-953D01*
G01*
X272200D01*
X282903Y80650D01*
G75*
G03*
X283387Y82114I-4078J2160D01*
G01*
G75*
G02*
X283378Y82344I3380J243D01*
G01*
X279642D01*
Y82344D01*
G75*
G02*
X277362Y79331I-3131J0D01*
G01*
G75*
G02*
X277278Y79308I-434J1453D01*
G01*
G75*
G02*
X276281Y79221I-768J3033D01*
G01*
G75*
G03*
X274814Y78736I689J-4550D01*
G01*
X268717Y72639D01*
G75*
G02*
X267760Y72242I-957J953D01*
G01*
X247060D01*
X241602Y66784D01*
Y60478D01*
G75*
G03*
X241751Y60190I1371J526D01*
G01*
G75*
G02*
X242441Y58594I-1501J-1596D01*
G01*
G75*
G02*
X238059I-2191J0D01*
G01*
G75*
G02*
X238331Y59652I2194J-1D01*
G01*
G75*
G02*
X238374Y59726I1113J-591D01*
G01*
G75*
G02*
X238747Y60189I1885J-1138D01*
G01*
G75*
G03*
X238898Y60480I-1235J824D01*
G01*
Y67344D01*
G75*
G02*
Y67345I1253J0D01*
G01*
G75*
G02*
X239295Y68302I1350J0D01*
G01*
X245543Y74550D01*
G75*
G02*
X245785Y74742I950J-947D01*
G01*
X243310D01*
X236356Y67788D01*
G37*
X249642Y82344D02*
G36*
X249642Y82344D02*
G75*
G02*
X248525Y79947I-3132J0D01*
G01*
X252200D01*
X252903Y80650D01*
G75*
G03*
X253387Y82114I-4078J2160D01*
G01*
G75*
G02*
X253378Y82344I3380J243D01*
G01*
X249642D01*
G37*
X253717Y77639D02*
G36*
X253717Y77639D02*
G75*
G02*
X253475Y77447I-950J947D01*
G01*
X259700D01*
X262903Y80650D01*
G75*
G03*
X263387Y82114I-4078J2160D01*
G01*
G75*
G02*
X263378Y82344I3380J243D01*
G01*
X259642D01*
Y82344D01*
G75*
G02*
X257362Y79331I-3131J0D01*
G01*
G75*
G02*
X257278Y79308I-434J1453D01*
G01*
G75*
G02*
X256281Y79221I-768J3033D01*
G01*
G75*
G03*
X254814Y78736I689J-4550D01*
G01*
X253717Y77639D01*
G37*
X261217Y75139D02*
G36*
X261217Y75139D02*
G75*
G02*
X260975Y74947I-950J947D01*
G01*
X267200D01*
X272903Y80650D01*
G75*
G03*
X273387Y82114I-4078J2160D01*
G01*
G75*
G02*
X273378Y82344I3380J243D01*
G01*
X269642D01*
Y82344D01*
G75*
G02*
X267362Y79331I-3131J0D01*
G01*
G75*
G02*
X267278Y79308I-434J1453D01*
G01*
G75*
G02*
X266281Y79221I-768J3033D01*
G01*
G75*
G03*
X264814Y78736I689J-4550D01*
G01*
X261217Y75139D01*
G37*
X272372Y59742D02*
G36*
X272372Y59742D02*
G75*
G02*
X272387Y59728I-262J-284D01*
G01*
X276137Y55978D01*
G75*
G02*
X276606Y54844I-1133J-1133D01*
G01*
Y54844D01*
Y54841D01*
Y54189D01*
G75*
G03*
X278075Y51344I8091J2376D01*
G01*
X281933D01*
G75*
G03*
X283402Y54187I-6617J5219D01*
G01*
Y64918D01*
G75*
G02*
X283059Y66094I1850J1177D01*
G01*
G75*
G02*
X287441I2191J0D01*
G01*
G75*
G02*
X286606Y64374I-2191J0D01*
G01*
Y54189D01*
G75*
G03*
X288075Y51344I8091J2376D01*
G01*
X291933D01*
G75*
G03*
X293402Y54187I-6617J5219D01*
G01*
Y58177D01*
X290174Y61405D01*
G75*
G02*
X288059Y63594I77J2190D01*
G01*
G75*
G02*
X292440Y63671I2191J0D01*
G01*
X296135Y59976D01*
G75*
G02*
X296606Y58841I-1130J-1135D01*
G01*
Y58841D01*
Y54189D01*
G75*
G03*
X298075Y51344I8091J2376D01*
G01*
X311933D01*
G75*
G03*
X313456Y54382I-6617J5219D01*
G01*
G75*
G02*
X313652Y54827I1553J-417D01*
G01*
Y68023D01*
G75*
G02*
X312863Y69707I1402J1684D01*
G01*
G75*
G02*
X313187Y70854I2191J0D01*
G01*
X311937D01*
G75*
G03*
X311649Y70706I526J-1371D01*
G01*
G75*
G02*
X307862Y72207I-1596J1501D01*
G01*
G75*
G02*
X311649Y73708I2191J0D01*
G01*
G75*
G03*
X311937Y73559I814J1222D01*
G01*
X339493D01*
X341514Y75580D01*
G75*
G03*
X341612Y75891I-1336J594D01*
G01*
G75*
G02*
X341612Y75916I670J23D01*
G01*
G75*
G02*
Y75924I671J4D01*
G01*
G75*
G02*
Y75932I704J4D01*
G01*
G75*
G02*
X341612Y75957I681J1D01*
G01*
G75*
G02*
Y75959I2163J2D01*
G01*
G75*
G02*
X341674Y76473I2166J0D01*
G01*
G75*
G02*
X341701Y76575I1281J-288D01*
G01*
G75*
G02*
X341885Y77015I2133J-632D01*
G01*
G75*
G02*
X341927Y77088I1113J-591D01*
G01*
G75*
G02*
X342300Y77551I1885J-1138D01*
G01*
G75*
G03*
X342451Y77842I-1225J819D01*
G01*
Y82344D01*
X340039D01*
G75*
G02*
X332980I-3530J0D01*
G01*
X329642D01*
G75*
G02*
X323489Y81519I-3132J0D01*
G01*
G75*
G02*
X323481Y81548I2222J608D01*
G01*
G75*
G02*
X323378Y82344I3052J798D01*
G01*
Y82344D01*
X319642D01*
G75*
G02*
X313489Y81519I-3132J0D01*
G01*
G75*
G02*
X313481Y81548I2222J608D01*
G01*
G75*
G02*
X313378Y82344I3052J798D01*
G01*
Y82344D01*
X309642D01*
G75*
G02*
X303378I-3132J0D01*
G01*
X299642D01*
G75*
G02*
X294139Y80298I-3132J0D01*
G01*
G75*
G03*
X292761Y80992I-2735J-3718D01*
G01*
X292060D01*
X290547Y79479D01*
G75*
G02*
X292244Y77344I-494J-2135D01*
G01*
G75*
G02*
X289791Y75169I-2191J0D01*
G01*
X277261Y62639D01*
G75*
G02*
X276988Y62428I-963J962D01*
G01*
G75*
G02*
X277441Y61094I-1738J-1334D01*
G01*
G75*
G02*
X274192Y59176I-2191J0D01*
G01*
G75*
G02*
X274119Y59218I591J1113D01*
G01*
G75*
G02*
X273656Y59591I1138J1885D01*
G01*
G75*
G03*
X273365Y59742I-824J-1235D01*
G01*
X272372D01*
G37*
X376606Y57685D02*
G36*
X376606Y57685D02*
Y54189D01*
G75*
G03*
X378075Y51344I8091J2376D01*
G01*
X381389D01*
Y57344D01*
G75*
G02*
Y57345I3470J0D01*
G01*
G75*
G02*
X383858Y59813I2469J0D01*
G01*
X426304D01*
G75*
G03*
X428586Y61247I0J2531D01*
G01*
Y82344D01*
X427648D01*
G75*
G02*
X427656Y82207I-1344J-138D01*
G01*
Y78319D01*
G75*
G02*
Y78318I-1253J0D01*
G01*
G75*
G02*
X427258Y77361I-1350J0D01*
G01*
X424898Y75002D01*
G75*
G02*
X423941Y74604I-957J953D01*
G01*
X406863D01*
X405156Y72896D01*
Y64707D01*
G75*
G02*
Y64706I-1253J0D01*
G01*
G75*
G02*
X404758Y63749I-1350J0D01*
G01*
X402261Y61252D01*
G75*
G02*
X401303Y60854I-957J953D01*
G01*
X379717D01*
X379111Y60248D01*
G75*
G02*
X378881Y59959I-1357J844D01*
G01*
X376606Y57685D01*
G37*
X379328Y82344D02*
G36*
X379328Y82344D02*
X380613Y81059D01*
X422080D01*
G75*
G02*
X424951Y81573I1724J-1352D01*
G01*
Y81646D01*
X424253Y82344D01*
X379328D01*
G37*
X224352Y89534D02*
G36*
X224352Y89534D02*
Y84615D01*
G75*
G02*
X229037Y84194I2157J-2270D01*
G01*
G75*
G02*
X229295Y84552I1217J-603D01*
G01*
X233043Y88300D01*
G75*
G02*
X234000Y88697I957J-953D01*
G01*
X241510D01*
G75*
G02*
X242467Y88300I1J-1350D01*
G01*
X244814Y85953D01*
G75*
G03*
X246281Y85468I2156J4065D01*
G01*
G75*
G02*
X247278Y85381I229J-3120D01*
G01*
G75*
G02*
X247362Y85358I-350J-1476D01*
G01*
G75*
G02*
X249642Y82344I-852J-3014D01*
G01*
X253378D01*
Y82345D01*
G75*
G02*
X253481Y83141I3154J-3D01*
G01*
G75*
G02*
X253489Y83170I2230J-579D01*
G01*
G75*
G02*
X259642Y82344I3021J-826D01*
G01*
X263378D01*
Y82345D01*
G75*
G02*
X263481Y83141I3154J-3D01*
G01*
G75*
G02*
X263489Y83170I2230J-579D01*
G01*
G75*
G02*
X269642Y82344I3021J-826D01*
G01*
X273378D01*
Y82345D01*
G75*
G02*
X273481Y83141I3154J-3D01*
G01*
G75*
G02*
X273489Y83170I2230J-579D01*
G01*
G75*
G02*
X279642Y82344I3021J-826D01*
G01*
X283378D01*
Y82345D01*
G75*
G02*
X283481Y83141I3154J-3D01*
G01*
G75*
G02*
X283489Y83170I2230J-579D01*
G01*
G75*
G02*
X289641Y82398I3021J-826D01*
G01*
X290543Y83300D01*
G75*
G02*
X291500Y83697I957J-953D01*
G01*
X292761D01*
G75*
G03*
X294139Y84391I-1358J4411D01*
G01*
G75*
G02*
X299642Y82344I2371J-2046D01*
G01*
X303378D01*
Y82345D01*
G75*
G02*
X304464Y84716I3131J0D01*
G01*
G75*
G03*
X305157Y86093I-3718J2735D01*
G01*
Y88024D01*
X302190Y90992D01*
X225810D01*
X224352Y89534D01*
G37*
X291219Y108889D02*
G36*
X291219Y108889D02*
G75*
G02*
X290977Y108697I-967J969D01*
G01*
X293440D01*
X297087Y112344D01*
X294672D01*
X291219Y108889D01*
G37*
X294957Y106389D02*
G36*
X294957Y106389D02*
G75*
G02*
X294715Y106197I-950J947D01*
G01*
X300940D01*
X307087Y112344D01*
X300913D01*
X294957Y106389D01*
G37*
X302457Y103889D02*
G36*
X302457Y103889D02*
G75*
G02*
X302215Y103697I-950J947D01*
G01*
X308450D01*
X317097Y112344D01*
X310913D01*
X302457Y103889D01*
G37*
X304725Y95992D02*
G36*
X304725Y95992D02*
G75*
G02*
X304967Y95800I-708J-1139D01*
G01*
X314814Y85953D01*
G75*
G03*
X316281Y85468I2156J4065D01*
G01*
G75*
G02*
X317278Y85381I229J-3120D01*
G01*
G75*
G02*
X317362Y85358I-350J-1476D01*
G01*
G75*
G02*
X319642Y82344I-853J-3014D01*
G01*
X323378D01*
G75*
G02*
X323387Y82575I3388J-12D01*
G01*
G75*
G03*
X322903Y84039I-4537J-687D01*
G01*
X310950Y95992D01*
X304725D01*
G37*
X307862Y88585D02*
G36*
X307862Y88585D02*
Y86094D01*
G75*
G03*
X308557Y84715I4393J1347D01*
G01*
G75*
G02*
X309200Y83949I-2050J-2372D01*
G01*
G75*
G02*
X309244Y83873I-1048J-659D01*
G01*
G75*
G02*
X309642Y82345I-2736J-1528D01*
G01*
Y82344D01*
X313378D01*
G75*
G02*
X313387Y82575I3388J-12D01*
G01*
G75*
G03*
X312903Y84039I-4537J-687D01*
G01*
X307681Y89261D01*
G75*
G02*
X307862Y88585I-1171J-676D01*
G01*
G37*
X309967Y101389D02*
G36*
X309967Y101389D02*
G75*
G02*
X309725Y101197I-950J947D01*
G01*
X315940D01*
X327087Y112344D01*
X320922D01*
X309967Y101389D01*
G37*
X312225Y98492D02*
G36*
X312225Y98492D02*
G75*
G02*
X312467Y98300I-708J-1139D01*
G01*
X324814Y85953D01*
G75*
G03*
X326281Y85468I2156J4065D01*
G01*
G75*
G02*
X327278Y85381I229J-3120D01*
G01*
G75*
G02*
X327362Y85358I-350J-1476D01*
G01*
G75*
G02*
X329642Y82344I-853J-3014D01*
G01*
X332980D01*
G75*
G02*
X340039I3530J0D01*
G01*
X342451D01*
Y83457D01*
G75*
G02*
X342848Y84414I1350J1D01*
G01*
X360148Y101714D01*
Y109268D01*
X358423D01*
Y112344D01*
X330913D01*
X317457Y98889D01*
G75*
G02*
X316500Y98492I-957J953D01*
G01*
X312225D01*
G37*
X355650Y93391D02*
G36*
X355650Y93391D02*
G75*
G02*
X356303Y93559I654J-1187D01*
G01*
X387190D01*
X390148Y96517D01*
Y108706D01*
G75*
G03*
X389487Y110018I-4227J-1306D01*
G01*
G75*
G02*
X388423Y112344I2013J2326D01*
G01*
X384577D01*
G75*
G02*
X378423I-3077J0D01*
G01*
X374577D01*
G75*
G02*
X369208Y110292I-3077J0D01*
G01*
G75*
G03*
X368320Y110742I-1932J-2711D01*
G01*
X364577D01*
Y109268D01*
X362852D01*
Y101154D01*
G75*
G02*
Y101153I-1253J0D01*
G01*
G75*
G02*
X362455Y100196I-1350J0D01*
G01*
X355650Y93391D01*
G37*
X355787Y89778D02*
G36*
X355787Y89778D02*
G75*
G02*
X356441Y89947I654J-1187D01*
G01*
X379580D01*
G75*
G02*
X383027I1724J-1352D01*
G01*
X403330D01*
G75*
G02*
X407244Y88594I1724J-1352D01*
G01*
G75*
G02*
X403330Y87242I-2191J0D01*
G01*
X383027D01*
G75*
G02*
X379580I-1724J1352D01*
G01*
X374381D01*
G75*
G02*
X374623Y87050I-708J-1139D01*
G01*
X379328Y82344D01*
X424253D01*
X423045Y83552D01*
G75*
G02*
X422648Y84509I953J957D01*
G01*
G75*
G02*
Y84510I1253J0D01*
G01*
Y86871D01*
G75*
G02*
X421809Y88594I1354J1724D01*
G01*
G75*
G02*
X426191I2191J0D01*
G01*
G75*
G02*
X425352Y86871I-2192J1D01*
G01*
Y85070D01*
X427258Y83164D01*
G75*
G02*
X427648Y82344I-953J-956D01*
G01*
X428586D01*
Y112344D01*
X424974D01*
G75*
G02*
X418026I-3474J0D01*
G01*
X414577D01*
G75*
G02*
X408423I-3077J0D01*
G01*
X404577D01*
G75*
G02*
X399173Y110332I-3077J0D01*
G01*
G75*
G03*
X397862Y110992I-2610J-3550D01*
G01*
X395139D01*
G75*
G03*
X393826Y110331I1306J-4227D01*
G01*
G75*
G02*
X393513Y110018I-2381J2068D01*
G01*
G75*
G03*
X392852Y108707I3569J-2620D01*
G01*
Y95957D01*
G75*
G02*
Y95956I-1253J0D01*
G01*
G75*
G02*
X392455Y94999I-1350J0D01*
G01*
X388707Y91252D01*
G75*
G02*
X387750Y90854I-957J953D01*
G01*
X356863D01*
X355787Y89778D01*
G37*
X294672Y112344D02*
G36*
X294672Y112344D02*
X297087D01*
X305157Y120415D01*
Y138596D01*
G75*
G03*
X304464Y139973I-4411J-1358D01*
G01*
G75*
G02*
X303378Y142344I2046J2371D01*
G01*
Y142344D01*
X299642D01*
G75*
G02*
X299244Y140816I-3134J0D01*
G01*
G75*
G02*
X299200Y140740I-1092J583D01*
G01*
G75*
G02*
X298557Y139974I-2692J1606D01*
G01*
G75*
G03*
X297862Y138594I3694J-2725D01*
G01*
Y116096D01*
Y116096D01*
G75*
G02*
X297467Y115141I-1352J0D01*
G01*
X294672Y112344D01*
G37*
X300913D02*
G36*
X300913Y112344D02*
X307087D01*
X315157Y120415D01*
Y138596D01*
G75*
G03*
X314464Y139973I-4411J-1358D01*
G01*
G75*
G02*
X313378Y142344I2046J2371D01*
G01*
Y142344D01*
X309642D01*
Y142344D01*
G75*
G02*
X309244Y140816I-3134J0D01*
G01*
G75*
G02*
X309200Y140740I-1092J583D01*
G01*
G75*
G02*
X308557Y139974I-2692J1606D01*
G01*
G75*
G03*
X307862Y138594I3698J-2727D01*
G01*
Y119854D01*
G75*
G02*
X307465Y118897I-1350J-1D01*
G01*
X300913Y112344D01*
G37*
X310913D02*
G36*
X310913Y112344D02*
X317097D01*
X325157Y120405D01*
Y138596D01*
G75*
G03*
X324464Y139973I-4411J-1358D01*
G01*
G75*
G02*
X323378Y142344I2046J2371D01*
G01*
Y142344D01*
X319642D01*
Y142344D01*
G75*
G02*
X319244Y140816I-3134J0D01*
G01*
G75*
G02*
X319200Y140740I-1092J583D01*
G01*
G75*
G02*
X318557Y139974I-2692J1606D01*
G01*
G75*
G03*
X317862Y138594I3698J-2727D01*
G01*
Y119854D01*
G75*
G02*
X317465Y118897I-1350J-1D01*
G01*
X310913Y112344D01*
G37*
X320922D02*
G36*
X320922Y112344D02*
X327087D01*
X335157Y120415D01*
Y138596D01*
G75*
G03*
X334464Y139973I-4411J-1358D01*
G01*
G75*
G02*
X333378Y142344I2046J2371D01*
G01*
Y142344D01*
X329642D01*
Y142344D01*
G75*
G02*
X329244Y140816I-3134J0D01*
G01*
G75*
G02*
X329200Y140740I-1092J583D01*
G01*
G75*
G02*
X328557Y139974I-2692J1606D01*
G01*
G75*
G03*
X327862Y138594I3698J-2727D01*
G01*
Y119844D01*
G75*
G02*
X327465Y118887I-1350J-1D01*
G01*
X320922Y112344D01*
G37*
X337465Y118897D02*
G36*
X337465Y118897D02*
X330913Y112344D01*
X358423D01*
Y115421D01*
X364577D01*
Y113947D01*
X368320D01*
G75*
G03*
X369208Y114397I-1044J3161D01*
G01*
G75*
G02*
X374577Y112344I2292J-2052D01*
G01*
X378423D01*
G75*
G02*
X379487Y114671I3076J0D01*
G01*
G75*
G03*
X380148Y115983I-3566J2619D01*
G01*
Y122896D01*
X370545Y132499D01*
G75*
G02*
X370148Y133456I953J957D01*
G01*
G75*
G02*
Y133457I1253J0D01*
G01*
Y138706D01*
G75*
G03*
X369487Y140018I-4227J-1306D01*
G01*
G75*
G02*
X368423Y142344I2013J2326D01*
G01*
X364577D01*
G75*
G02*
X358423I-3077J0D01*
G01*
X339642D01*
Y142344D01*
G75*
G02*
X339244Y140816I-3134J0D01*
G01*
G75*
G02*
X339200Y140740I-1092J583D01*
G01*
G75*
G02*
X338557Y139974I-2692J1606D01*
G01*
G75*
G03*
X337862Y138594I3698J-2727D01*
G01*
Y119854D01*
G75*
G02*
X337465Y118897I-1350J-1D01*
G01*
G37*
X372852Y138707D02*
G36*
X372852Y138707D02*
Y134017D01*
X382455Y124414D01*
G75*
G02*
X382852Y123457I-953J-957D01*
G01*
Y115982D01*
G75*
G03*
X383513Y114672I4210J1299D01*
G01*
G75*
G02*
X384577Y112344I-2013J-2328D01*
G01*
X388423D01*
G75*
G02*
X393826Y114358I3077J0D01*
G01*
G75*
G03*
X395139Y113697I2619J3566D01*
G01*
X397862D01*
G75*
G03*
X399173Y114357I-1299J4210D01*
G01*
G75*
G02*
X404577Y112344I2327J-2013D01*
G01*
X408423D01*
G75*
G02*
X409487Y114671I3076J0D01*
G01*
G75*
G03*
X410148Y115983I-3566J2619D01*
G01*
Y117700D01*
X404493Y123354D01*
X389000D01*
G75*
G02*
X388043Y123752I-1J1350D01*
G01*
X380545Y131249D01*
G75*
G02*
X380148Y132206I953J957D01*
G01*
G75*
G02*
Y132207I1253J0D01*
G01*
Y138706D01*
G75*
G03*
X379487Y140018I-4227J-1306D01*
G01*
G75*
G02*
X378423Y142344I2013J2326D01*
G01*
X374577D01*
G75*
G02*
X373513Y140017I-3077J0D01*
G01*
G75*
G03*
X372852Y138707I3550J-2610D01*
G01*
G37*
X382852D02*
G36*
X382852Y138707D02*
Y132767D01*
X389560Y126059D01*
X405053D01*
G75*
G02*
X406011Y125662I1J-1350D01*
G01*
X412455Y119217D01*
G75*
G02*
X412852Y118261I-953J-957D01*
G01*
G75*
G02*
Y118260I-1253J0D01*
G01*
Y115982D01*
G75*
G03*
X413513Y114672I4210J1299D01*
G01*
G75*
G02*
X414577Y112344I-2013J-2328D01*
G01*
X418026D01*
G75*
G02*
X424974I3474J0D01*
G01*
X428586D01*
Y142344D01*
X424577D01*
G75*
G02*
X418423I-3077J0D01*
G01*
X414577D01*
G75*
G02*
X409173Y140332I-3077J0D01*
G01*
G75*
G03*
X407862Y140992I-2610J-3550D01*
G01*
X405139D01*
G75*
G03*
X403826Y140331I1299J-4213D01*
G01*
G75*
G02*
X403058Y139692I-2327J2016D01*
G01*
G75*
G02*
X403019Y139669I-1316J2202D01*
G01*
G75*
G02*
X399173Y140332I-1519J2676D01*
G01*
G75*
G03*
X397863Y140992I-2612J-3553D01*
G01*
X395139D01*
G75*
G03*
X393826Y140331I1306J-4227D01*
G01*
G75*
G02*
X388423Y142344I-2326J2013D01*
G01*
X384577D01*
G75*
G02*
X383513Y140017I-3077J0D01*
G01*
G75*
G03*
X382852Y138707I3550J-2610D01*
G01*
G37*
X298320Y145992D02*
G36*
X298320Y145992D02*
X298011Y145683D01*
G75*
G03*
X298557Y144715I4245J1758D01*
G01*
G75*
G02*
X299200Y143949I-2050J-2372D01*
G01*
G75*
G02*
X299244Y143873I-1048J-659D01*
G01*
G75*
G02*
X299642Y142345I-2736J-1528D01*
G01*
Y142344D01*
X303378D01*
G75*
G02*
X309642I3132J0D01*
G01*
X313378D01*
G75*
G02*
X319642I3132J0D01*
G01*
X323378D01*
G75*
G02*
X329642I3132J0D01*
G01*
X333378D01*
G75*
G02*
X339642I3132J0D01*
G01*
X358423D01*
G75*
G02*
X364577I3077J0D01*
G01*
X368423D01*
G75*
G02*
X374577I3077J0D01*
G01*
X378423D01*
G75*
G02*
X384577I3077J0D01*
G01*
X388423D01*
G75*
G02*
X393826Y144358I3077J0D01*
G01*
G75*
G03*
X395139Y143697I2619J3566D01*
G01*
X397863D01*
G75*
G03*
X399173Y144357I-1302J4213D01*
G01*
G75*
G02*
X403019Y145020I2327J-2013D01*
G01*
G75*
G02*
X403058Y144997I-1277J-2225D01*
G01*
G75*
G02*
X403826Y144358I-1559J-2655D01*
G01*
G75*
G03*
X405139Y143697I2612J3552D01*
G01*
X407862D01*
G75*
G03*
X409173Y144357I-1299J4210D01*
G01*
G75*
G02*
X414577Y142344I2327J-2013D01*
G01*
X418423D01*
G75*
G02*
X424577I3077J0D01*
G01*
X428586D01*
Y151715D01*
X384974D01*
G75*
G02*
X378026I-3474J0D01*
G01*
X374577D01*
G75*
G02*
X368423I-3077J0D01*
G01*
X364577D01*
G75*
G02*
X358423I-3077J0D01*
G01*
X354577D01*
G75*
G02*
X348423I-3077J0D01*
G01*
X344577D01*
G75*
G02*
X338423I-3077J0D01*
G01*
X334577D01*
G75*
G02*
X328423I-3077J0D01*
G01*
X324577D01*
G75*
G02*
X318423I-3077J0D01*
G01*
X314577D01*
G75*
G02*
X312340Y148755I-3077J0D01*
G01*
G75*
G02*
X312251Y148731I-360J1176D01*
G01*
G75*
G02*
X311280Y148646I-751J2975D01*
G01*
G75*
G03*
X309882Y148184I667J-4370D01*
G01*
X308087Y146389D01*
G75*
G02*
X307130Y145992I-957J953D01*
G01*
X298320D01*
G37*
X304576Y151715D02*
G36*
X304576Y151715D02*
G75*
G02*
X302100Y148697I-3077J0D01*
G01*
X306570D01*
X307970Y150097D01*
G75*
G03*
X308431Y151493I-3895J2059D01*
G01*
G75*
G02*
X308423Y151713I3063J220D01*
G01*
Y151713D01*
Y151715D01*
X304576D01*
G37*
X300965Y158492D02*
G36*
X300965Y158492D02*
G75*
G02*
X301207Y158300I-708J-1139D01*
G01*
X302455Y157052D01*
G75*
G02*
X302852Y156095I-953J-957D01*
G01*
G75*
G02*
Y156094I-1253J0D01*
G01*
Y155352D01*
G75*
G03*
X303513Y154042I4210J1299D01*
G01*
G75*
G02*
X304576Y151715I-2013J-2327D01*
G01*
X308423D01*
G75*
G02*
X308526Y152503I3099J-3D01*
G01*
X308530Y152518D01*
G75*
G02*
X314577Y151715I2970J-803D01*
G01*
X318423D01*
G75*
G02*
X324577I3077J0D01*
G01*
X328423D01*
G75*
G02*
X329487Y154041I3076J0D01*
G01*
G75*
G03*
X330148Y155354I-3566J2619D01*
G01*
Y156784D01*
X328440Y158492D01*
X300965D01*
G37*
X329715Y160992D02*
G36*
X329715Y160992D02*
G75*
G02*
X329957Y160800I-708J-1139D01*
G01*
X332455Y158302D01*
G75*
G02*
X332852Y157345I-953J-957D01*
G01*
G75*
G02*
Y157344I-1253J0D01*
G01*
Y155352D01*
G75*
G03*
X333513Y154042I4210J1299D01*
G01*
G75*
G02*
X334577Y151715I-2013J-2328D01*
G01*
X338423D01*
G75*
G02*
X339487Y154041I3076J0D01*
G01*
G75*
G03*
X340148Y155354I-3566J2619D01*
G01*
Y156784D01*
X335940Y160992D01*
X329715D01*
G37*
X337215Y163492D02*
G36*
X337215Y163492D02*
G75*
G02*
X337457Y163300I-708J-1139D01*
G01*
X342455Y158302D01*
G75*
G02*
X342852Y157345I-953J-957D01*
G01*
G75*
G02*
Y157344I-1253J0D01*
G01*
Y155352D01*
G75*
G03*
X343513Y154042I4210J1299D01*
G01*
G75*
G02*
X344577Y151715I-2013J-2328D01*
G01*
X348423D01*
G75*
G02*
X354577I3077J0D01*
G01*
X358423D01*
G75*
G02*
X364577I3077J0D01*
G01*
X368423D01*
G75*
G02*
X369487Y154041I3076J0D01*
G01*
G75*
G03*
X370148Y155354I-3566J2619D01*
G01*
Y156784D01*
X363440Y163492D01*
X337215D01*
G37*
X362457Y166389D02*
G36*
X362457Y166389D02*
G75*
G02*
X362215Y166197I-950J947D01*
G01*
X364000D01*
G75*
G02*
X364957Y165800I1J-1350D01*
G01*
X372455Y158302D01*
G75*
G02*
X372852Y157345I-953J-957D01*
G01*
G75*
G02*
Y157344I-1253J0D01*
G01*
Y155352D01*
G75*
G03*
X373513Y154042I4210J1299D01*
G01*
G75*
G02*
X374577Y151715I-2013J-2328D01*
G01*
X378026D01*
G75*
G02*
X384974I3474J0D01*
G01*
X428586D01*
Y182974D01*
X384577D01*
G75*
G02*
X378423I-3077J0D01*
G01*
X374577D01*
G75*
G02*
X373513Y180647I-3077J0D01*
G01*
G75*
G03*
X372852Y179337I3550J-2610D01*
G01*
Y177344D01*
G75*
G02*
X372455Y176387I-1350J-1D01*
G01*
X362457Y166389D01*
G37*
X293059Y196094D02*
G36*
X293059Y196094D02*
X293207Y195947D01*
X370248D01*
G75*
G02*
X371030Y195624I2J-1104D01*
G01*
X372280Y194374D01*
G75*
G02*
X372603Y193594I-780J-780D01*
G01*
Y193594D01*
Y193592D01*
Y187347D01*
Y187345D01*
Y187344D01*
G75*
G02*
X372280Y186565I-1103J0D01*
G01*
X371756Y186041D01*
G75*
G02*
X374577Y182974I-256J-3067D01*
G01*
X378423D01*
G75*
G02*
X384577I3077J0D01*
G01*
X428586D01*
Y196094D01*
X420750D01*
G75*
G02*
X412250I-4250J0D01*
G01*
X403853D01*
Y192347D01*
Y192345D01*
Y192344D01*
G75*
G02*
X403530Y191565I-1103J0D01*
G01*
X402280Y190315D01*
G75*
G02*
X401498Y189992I-780J781D01*
G01*
X391502D01*
G75*
G02*
X390720Y190315I-2J1104D01*
G01*
X389470Y191565D01*
G75*
G02*
X389147Y192344I780J780D01*
G01*
Y192345D01*
Y192347D01*
Y196094D01*
X293059D01*
G37*
X291662Y199992D02*
G36*
X291662Y199992D02*
X292280Y199374D01*
G75*
G02*
X292603Y198594I-780J-780D01*
G01*
Y198594D01*
Y198592D01*
Y196551D01*
X293059Y196094D01*
X389147D01*
Y199388D01*
X388543Y199992D01*
X291662D01*
G37*
X403853Y199388D02*
G36*
X403853Y199388D02*
Y196094D01*
X412250D01*
G75*
G02*
X420750I4250J0D01*
G01*
X428586D01*
Y212447D01*
G75*
G03*
X426407Y214626I-3531J-1352D01*
G01*
X415778D01*
X417280Y213124D01*
G75*
G02*
X417603Y212344I-780J-780D01*
G01*
Y212344D01*
Y212342D01*
Y203597D01*
Y203595D01*
Y203594D01*
G75*
G02*
X417280Y202815I-1103J0D01*
G01*
X414780Y200315D01*
G75*
G02*
X413998Y199992I-780J781D01*
G01*
X404457D01*
X403853Y199388D01*
G37*
X226602Y74284D02*
Y58748D01*
G75*
G02*
X226612Y58585I-1345J-163D01*
G01*
Y57344D01*
G75*
G02*
X226470Y56741I-1352J0D01*
G01*
G75*
G02*
X226606Y56094I-1466J-646D01*
G01*
Y54189D01*
G75*
G03*
X228280Y51094I8090J2376D01*
G01*
X231728D01*
G75*
G03*
X233402Y54187I-6415J5470D01*
G01*
Y54844D01*
G75*
G02*
X233652Y55704I1602J0D01*
G01*
Y68348D01*
G75*
G02*
X234049Y69306I1352J0D01*
G01*
X241793Y77050D01*
G75*
G02*
X242035Y77242I957J-956D01*
G01*
X239560D01*
X231602Y69284D01*
Y60478D01*
G75*
G03*
X231751Y60190I1359J519D01*
G01*
G75*
G02*
X232441Y58594I-1501J-1596D01*
G01*
G75*
G02*
X228059I-2191J0D01*
G01*
G75*
G02*
X228331Y59652I2191J0D01*
G01*
G75*
G02*
X228374Y59726I1198J-641D01*
G01*
G75*
G02*
X228747Y60189I1877J-1131D01*
G01*
G75*
G03*
X228898Y60480I-1208J811D01*
G01*
Y69844D01*
G75*
G02*
X229295Y70802I1352J0D01*
G01*
X238043Y79550D01*
G75*
G02*
X239000Y79947I957J-955D01*
G01*
X244495D01*
G75*
G02*
X243489Y81519I2015J2398D01*
G01*
G75*
G02*
X243481Y81548I1297J362D01*
G01*
G75*
G02*
X243378Y82344I3029J796D01*
G01*
Y82344D01*
G75*
G02*
X243387Y82575I3131J-2D01*
G01*
G75*
G03*
X242903Y84039I-4547J-691D01*
G01*
X240950Y85992D01*
X234560D01*
X231602Y83034D01*
Y79844D01*
G75*
G02*
X231205Y78887I-1352J0D01*
G01*
X226602Y74284D01*
X233378Y82344D02*
G75*
G02*
X239642I3132J0D01*
G01*
G75*
G02*
X233378I-3132J0D01*
G01*
X226720Y74402D02*
G36*
X226720Y74402D02*
Y53831D01*
G75*
G03*
X228075Y51344I7978J2734D01*
G01*
X231933D01*
G75*
G03*
X233402Y54187I-6617J5219D01*
G01*
Y54844D01*
G75*
G02*
X233652Y55704I1602J0D01*
G01*
Y68348D01*
G75*
G02*
Y68349I1253J0D01*
G01*
G75*
G02*
X234049Y69306I1350J0D01*
G01*
X241793Y77050D01*
G75*
G02*
X242035Y77242I950J-947D01*
G01*
X239560D01*
X231602Y69284D01*
Y60478D01*
G75*
G03*
X231751Y60190I1371J526D01*
G01*
G75*
G02*
X232441Y58594I-1501J-1596D01*
G01*
G75*
G02*
X228059I-2191J0D01*
G01*
G75*
G02*
X228331Y59652I2194J-1D01*
G01*
G75*
G02*
X228374Y59726I1113J-591D01*
G01*
G75*
G02*
X228747Y60189I1885J-1138D01*
G01*
G75*
G03*
X228898Y60480I-1235J824D01*
G01*
Y69844D01*
G75*
G02*
Y69845I1253J0D01*
G01*
G75*
G02*
X229295Y70802I1350J0D01*
G01*
X238043Y79550D01*
G75*
G02*
X239000Y79947I957J-953D01*
G01*
X244245D01*
Y80181D01*
G75*
G02*
X243489Y81519I2269J2165D01*
G01*
G75*
G02*
X243481Y81548I2222J608D01*
G01*
G75*
G02*
X243378Y82344I3052J798D01*
G01*
Y82344D01*
X239642D01*
G75*
G02*
X233378I-3132J0D01*
G01*
X231602D01*
Y79844D01*
G75*
G02*
X231205Y78887I-1350J-1D01*
G01*
X226720Y74402D01*
G37*
X231602Y83034D02*
G36*
X231602Y83034D02*
Y82344D01*
X233378D01*
G75*
G02*
X239642I3132J0D01*
G01*
X243378D01*
G75*
G02*
X243387Y82575I3388J-12D01*
G01*
G75*
G03*
X242903Y84039I-4537J-687D01*
G01*
X241200Y85742D01*
X234310D01*
X231602Y83034D01*
G37*
X299780Y176565D02*
X296912Y173697D01*
X325940D01*
X330148Y177905D01*
Y179335D01*
G75*
G03*
X329487Y180648I-4223J-1304D01*
G01*
G75*
G02*
X329177Y184992I2013J2326D01*
G01*
X323823D01*
G75*
G02*
X324577Y182974I-2323J-2017D01*
G01*
G75*
G02*
X318423I-3077J0D01*
G01*
G75*
G02*
X319177Y184992I3077J0D01*
G01*
X313823D01*
G75*
G02*
X314577Y182974I-2323J-2017D01*
G01*
G75*
G02*
X308423I-3077J0D01*
G01*
G75*
G02*
X309177Y184992I3077J0D01*
G01*
X303823D01*
G75*
G02*
X300103Y180233I-2323J-2017D01*
G01*
Y177347D01*
G75*
G02*
Y177345I-367J-1D01*
G01*
Y177344D01*
G75*
G02*
X299780Y176565I-1103J0D01*
G01*
G36*
X299780Y176565D02*
X296912Y173697D01*
X325940D01*
X330148Y177905D01*
Y179335D01*
G75*
G03*
X329487Y180648I-4223J-1304D01*
G01*
G75*
G02*
X329177Y184992I2013J2326D01*
G01*
X323823D01*
G75*
G02*
X324577Y182974I-2323J-2017D01*
G01*
G75*
G02*
X318423I-3077J0D01*
G01*
G75*
G02*
X319177Y184992I3077J0D01*
G01*
X313823D01*
G75*
G02*
X314577Y182974I-2323J-2017D01*
G01*
G75*
G02*
X308423I-3077J0D01*
G01*
G75*
G02*
X309177Y184992I3077J0D01*
G01*
X303823D01*
G75*
G02*
X300103Y180233I-2323J-2017D01*
G01*
Y177347D01*
G75*
G02*
Y177345I-367J-1D01*
G01*
Y177344D01*
G75*
G02*
X299780Y176565I-1103J0D01*
G01*
G37*
X316356Y67946D02*
Y54828D01*
G75*
G02*
X316552Y54382I-1353J-860D01*
G01*
G75*
G03*
X318280Y51094I8144J2182D01*
G01*
X361728D01*
G75*
G03*
X363402Y54187I-6415J5470D01*
G01*
Y57098D01*
G75*
G02*
X363873Y58233I1602J0D01*
G01*
X366617Y60978D01*
G75*
G02*
X368609Y61197I1133J-1133D01*
G01*
X372190D01*
X376793Y65800D01*
G75*
G02*
X377750Y66197I957J-955D01*
G01*
X398168D01*
G75*
G03*
X398459Y66348I-520J1359D01*
G01*
G75*
G02*
X398922Y66721I1594J-1504D01*
G01*
G75*
G02*
X398995Y66763I713J-1156D01*
G01*
G75*
G02*
X402234Y65050I1058J-1919D01*
G01*
X402451Y65267D01*
Y73457D01*
G75*
G02*
X402848Y74414I1352J0D01*
G01*
X405346Y76912D01*
G75*
G02*
X406303Y77309I957J-955D01*
G01*
X423381D01*
X423597Y77526D01*
G75*
G02*
X422080Y78354I206J2181D01*
G01*
X380053D01*
G75*
G02*
X379096Y78752I0J1352D01*
G01*
X373105Y84742D01*
X358251D01*
X352656Y79146D01*
Y72207D01*
G75*
G02*
X352258Y71249I-1352J0D01*
G01*
X344761Y63752D01*
G75*
G02*
X343803Y63354I-957J955D01*
G01*
X324437D01*
G75*
G03*
X324149Y63206I519J-1359D01*
G01*
G75*
G02*
X320687Y65854I-1596J1501D01*
G01*
G75*
G03*
X320399Y65706I519J-1359D01*
G01*
G75*
G02*
X316937Y68354I-1596J1501D01*
G01*
G75*
G03*
X316649Y68206I519J-1359D01*
G01*
G75*
G02*
X316356Y67946I-1595J1501D01*
G01*
X354357Y72688D02*
G75*
G02*
X376613I11128J0D01*
G01*
G75*
G02*
X354357I-11128J0D01*
G01*
X316606Y68161D02*
G36*
X316606Y68161D02*
Y54189D01*
G75*
G03*
X318075Y51344I8092J2376D01*
G01*
X361933D01*
G75*
G03*
X363402Y54187I-6617J5219D01*
G01*
Y57098D01*
Y57099D01*
G75*
G02*
X363873Y58233I1602J0D01*
G01*
X366617Y60978D01*
G75*
G02*
X368609Y61197I1133J-1132D01*
G01*
X372190D01*
X376793Y65800D01*
G75*
G02*
X377750Y66197I957J-953D01*
G01*
X398168D01*
G75*
G03*
X398459Y66348I-533J1386D01*
G01*
G75*
G02*
X398922Y66721I1601J-1512D01*
G01*
G75*
G02*
X398995Y66763I665J-1070D01*
G01*
G75*
G02*
X402234Y65050I1058J-1919D01*
G01*
X402451Y65267D01*
Y72688D01*
X376613D01*
G75*
G02*
X354357I-11128J0D01*
G01*
X352656D01*
Y72207D01*
G75*
G02*
Y72206I-1253J0D01*
G01*
G75*
G02*
X352258Y71249I-1350J0D01*
G01*
X344761Y63752D01*
G75*
G02*
X343803Y63354I-957J953D01*
G01*
X324437D01*
G75*
G03*
X324149Y63206I526J-1371D01*
G01*
G75*
G02*
X320362Y64706I-1596J1501D01*
G01*
G75*
G02*
X320687Y65854I2191J0D01*
G01*
G75*
G03*
X320399Y65706I526J-1371D01*
G01*
G75*
G02*
X316612Y67206I-1596J1501D01*
G01*
G75*
G02*
X316937Y68354I2191J0D01*
G01*
G75*
G03*
X316649Y68206I526J-1371D01*
G01*
G75*
G02*
X316606Y68161I-1593J1494D01*
G01*
G37*
X352656Y79146D02*
G36*
X352656Y79146D02*
Y72688D01*
X354357D01*
G75*
G02*
X376613I11128J0D01*
G01*
X402451D01*
Y73457D01*
G75*
G02*
X402848Y74414I1350J1D01*
G01*
X405346Y76912D01*
G75*
G02*
X406303Y77309I957J-953D01*
G01*
X423347D01*
Y77564D01*
G75*
G02*
X422080Y78354I456J2143D01*
G01*
X380053D01*
G75*
G02*
X379096Y78752I-1J1350D01*
G01*
X373355Y84492D01*
X358001D01*
X352656Y79146D01*
G37*
X327457Y171389D02*
G75*
G02*
X327215Y171197I-957J956D01*
G01*
X333440D01*
X340148Y177905D01*
Y179335D01*
G75*
G03*
X339487Y180648I-4223J-1304D01*
G01*
G75*
G02*
X339177Y184992I2013J2326D01*
G01*
X333823D01*
G75*
G02*
X333513Y180647I-2323J-2017D01*
G01*
G75*
G03*
X332852Y179337I3558J-2614D01*
G01*
Y177344D01*
G75*
G02*
X332455Y176387I-1352J0D01*
G01*
X327457Y171389D01*
G36*
X327457Y171389D02*
G75*
G02*
X327215Y171197I-957J956D01*
G01*
X333440D01*
X340148Y177905D01*
Y179335D01*
G75*
G03*
X339487Y180648I-4223J-1304D01*
G01*
G75*
G02*
X339177Y184992I2013J2326D01*
G01*
X333823D01*
G75*
G02*
X333513Y180647I-2323J-2017D01*
G01*
G75*
G03*
X332852Y179337I3558J-2614D01*
G01*
Y177344D01*
G75*
G02*
X332455Y176387I-1352J0D01*
G01*
X327457Y171389D01*
G37*
X334957Y168889D02*
G75*
G02*
X334715Y168697I-957J956D01*
G01*
X360940D01*
X370148Y177905D01*
Y179335D01*
G75*
G03*
X369487Y180648I-4223J-1304D01*
G01*
G75*
G02*
X369177Y184992I2013J2326D01*
G01*
X363823D01*
G75*
G02*
X364577Y182974I-2323J-2017D01*
G01*
G75*
G02*
X358423I-3077J0D01*
G01*
G75*
G02*
X359177Y184992I3077J0D01*
G01*
X353823D01*
G75*
G02*
X354577Y182974I-2323J-2017D01*
G01*
G75*
G02*
X348423I-3077J0D01*
G01*
G75*
G02*
X349177Y184992I3077J0D01*
G01*
X343823D01*
G75*
G02*
X343513Y180647I-2323J-2017D01*
G01*
G75*
G03*
X342852Y179337I3558J-2614D01*
G01*
Y177344D01*
G75*
G02*
X342455Y176387I-1352J0D01*
G01*
X334957Y168889D01*
G36*
X334957Y168889D02*
G75*
G02*
X334715Y168697I-957J956D01*
G01*
X360940D01*
X370148Y177905D01*
Y179335D01*
G75*
G03*
X369487Y180648I-4223J-1304D01*
G01*
G75*
G02*
X369177Y184992I2013J2326D01*
G01*
X363823D01*
G75*
G02*
X364577Y182974I-2323J-2017D01*
G01*
G75*
G02*
X358423I-3077J0D01*
G01*
G75*
G02*
X359177Y184992I3077J0D01*
G01*
X353823D01*
G75*
G02*
X354577Y182974I-2323J-2017D01*
G01*
G75*
G02*
X348423I-3077J0D01*
G01*
G75*
G02*
X349177Y184992I3077J0D01*
G01*
X343823D01*
G75*
G02*
X343513Y180647I-2323J-2017D01*
G01*
G75*
G03*
X342852Y179337I3558J-2614D01*
G01*
Y177344D01*
G75*
G02*
X342455Y176387I-1352J0D01*
G01*
X334957Y168889D01*
G37*
D02*
D74*
X81539Y207352D02*
Y205352D01*
Y212337D02*
Y214337D01*
X90016Y86094D02*
X88016D01*
X93016Y83094D02*
Y81094D01*
Y89094D02*
Y91094D01*
X96016Y86094D02*
X98016D01*
X101876Y141341D02*
X99876D01*
X106344Y138841D02*
Y136841D01*
Y143841D02*
Y145841D01*
X110813Y141341D02*
X112813D01*
X115606Y86094D02*
X113606D01*
X116539Y207352D02*
Y205352D01*
Y212337D02*
Y214337D01*
X118606Y83094D02*
Y81094D01*
Y89094D02*
Y91094D01*
X121606Y86094D02*
X123606D01*
X126382Y209844D02*
X146618D01*
X129000Y140957D02*
X127000D01*
X131039Y209844D02*
G75*
G02*
X127018Y212166I2322J8665D01*
G01*
Y207523D01*
G75*
G02*
X131039Y209844I6343J-6343D01*
G01*
G36*
X131039Y209844D02*
G75*
G02*
X127018Y212166I2322J8665D01*
G01*
Y207523D01*
G75*
G02*
X131039Y209844I6343J-6343D01*
G01*
G37*
X131500Y138457D02*
Y136457D01*
Y143457D02*
Y145457D01*
X134000Y140957D02*
X136000D01*
X141961Y209844D02*
G75*
G02*
X145982Y207523I-2322J-8665D01*
G01*
Y212166D01*
G75*
G02*
X141961Y209844I-6343J6343D01*
G01*
G36*
X141961Y209844D02*
G75*
G02*
X145982Y207523I-2322J-8665D01*
G01*
Y212166D01*
G75*
G02*
X141961Y209844I-6343J6343D01*
G01*
G37*
X142750Y196094D02*
X140750D01*
X143947Y180524D02*
G75*
G03*
X141052Y181299I-2895J-5014D01*
G01*
G75*
G03*
X143171Y183419I448J1671D01*
G01*
G75*
G03*
X143947Y180524I5790J0D01*
G01*
G36*
X143947Y180524D02*
G75*
G03*
X141052Y181299I-2895J-5014D01*
G01*
G75*
G03*
X143171Y183419I448J1671D01*
G01*
G75*
G03*
X143947Y180524I5790J0D01*
G01*
G37*
X145250Y193594D02*
Y191594D01*
Y198594D02*
Y200594D01*
X147750Y196094D02*
X149750D01*
X149000Y130957D02*
X147000D01*
X149000Y140957D02*
X147000D01*
X151500Y128457D02*
Y126457D01*
Y133457D02*
Y135457D01*
Y138457D02*
Y136457D01*
Y143457D02*
Y145457D01*
X151539Y207352D02*
Y205352D01*
Y212337D02*
Y214337D01*
X153947Y180524D02*
G75*
G03*
X151052Y181299I-2895J-5014D01*
G01*
G75*
G03*
X153171Y183419I448J1671D01*
G01*
G75*
G03*
X153947Y180524I5790J0D01*
G01*
G36*
X153947Y180524D02*
G75*
G03*
X151052Y181299I-2895J-5014D01*
G01*
G75*
G03*
X153171Y183419I448J1671D01*
G01*
G75*
G03*
X153947Y180524I5790J0D01*
G01*
G37*
X154000Y130957D02*
X156000D01*
X154000Y140957D02*
X156000D01*
X155575Y169707D02*
Y174821D01*
X153328Y177068D01*
X147403D01*
X141500Y182970D01*
X163429Y169707D02*
Y175081D01*
X161303Y177207D01*
X157264D01*
X151500Y182970D01*
X163482Y194327D02*
X162068Y192913D01*
X163482Y197862D02*
X162068Y199276D01*
X167018Y194327D02*
X168432Y192913D01*
X167018Y197862D02*
X168432Y199276D01*
X171500Y155179D02*
G75*
G03*
X172998Y152583I5593J1498D01*
G01*
G75*
G03*
X170002I-1498J-865D01*
G01*
G75*
G03*
X171500Y155179I-4094J4094D01*
G01*
G36*
X171500Y155179D02*
G75*
G03*
X172998Y152583I5593J1498D01*
G01*
G75*
G03*
X170002I-1498J-865D01*
G01*
G75*
G03*
X171500Y155179I-4094J4094D01*
G01*
G37*
Y155667D02*
G75*
G03*
X170774Y156925I-2710J-726D01*
G01*
G75*
G03*
X172226I726J419D01*
G01*
G75*
G03*
X171500Y155667I1984J-1984D01*
G01*
G36*
X171500Y155667D02*
G75*
G03*
X170774Y156925I-2710J-726D01*
G01*
G75*
G03*
X172226I726J419D01*
G01*
G75*
G03*
X171500Y155667I1984J-1984D01*
G01*
G37*
Y157344D02*
Y151719D01*
X179177Y167207D02*
Y165207D01*
Y172207D02*
Y174207D01*
X181500Y155179D02*
G75*
G03*
X182998Y152583I5593J1498D01*
G01*
G75*
G03*
X180002I-1498J-865D01*
G01*
G75*
G03*
X181500Y155179I-4094J4094D01*
G01*
G36*
X181500Y155179D02*
G75*
G03*
X182998Y152583I5593J1498D01*
G01*
G75*
G03*
X180002I-1498J-865D01*
G01*
G75*
G03*
X181500Y155179I-4094J4094D01*
G01*
G37*
Y159417D02*
G75*
G03*
X180774Y160675I-2710J-726D01*
G01*
G75*
G03*
X182226I726J419D01*
G01*
G75*
G03*
X181500Y159417I1984J-1984D01*
G01*
G36*
X181500Y159417D02*
G75*
G03*
X180774Y160675I-2710J-726D01*
G01*
G75*
G03*
X182226I726J419D01*
G01*
G75*
G03*
X181500Y159417I1984J-1984D01*
G01*
G37*
Y161094D02*
Y151719D01*
X181677Y169707D02*
X183677D01*
X184000Y119844D02*
X187750Y116094D01*
X284915D01*
X285053Y115957D01*
X184730Y142344D02*
X182730D01*
X185004Y57591D02*
X182750Y59844D01*
Y91094D01*
X201500Y109844D01*
X290262D01*
X296512Y116094D01*
X296510Y116096D01*
Y142344D01*
X185186Y103530D02*
G75*
G03*
X184810Y102127I2431J-1402D01*
G01*
G75*
G03*
X183783Y103155I-810J217D01*
G01*
G75*
G03*
X185186Y103530I1J2806D01*
G01*
G36*
X185186Y103530D02*
G75*
G03*
X184810Y102127I2431J-1402D01*
G01*
G75*
G03*
X183783Y103155I-810J217D01*
G01*
G75*
G03*
X185186Y103530I1J2806D01*
G01*
G37*
Y118659D02*
G75*
G03*
X183783Y119034I-1402J-2431D01*
G01*
G75*
G03*
X184810Y120062I217J810D01*
G01*
G75*
G03*
X185186Y118659I2806J-1D01*
G01*
G36*
X185186Y118659D02*
G75*
G03*
X183783Y119034I-1402J-2431D01*
G01*
G75*
G03*
X184810Y120062I217J810D01*
G01*
G75*
G03*
X185186Y118659I2806J-1D01*
G01*
G37*
X186510Y140565D02*
Y138565D01*
Y144124D02*
Y146124D01*
X186539Y207352D02*
Y205352D01*
Y212337D02*
Y214337D01*
X188289Y142344D02*
X190289D01*
X189732Y194327D02*
X188318Y192913D01*
X189732Y197862D02*
X188318Y199276D01*
X191500Y58594D02*
Y89844D01*
X209000Y107344D01*
X294000D01*
X306510Y119854D01*
Y142344D01*
X191500Y60272D02*
G75*
G03*
X192226Y59014I2710J726D01*
G01*
G75*
G03*
X190774I-726J-419D01*
G01*
G75*
G03*
X191500Y60272I-1984J1984D01*
G01*
G36*
X191500Y60272D02*
G75*
G03*
X192226Y59014I2710J726D01*
G01*
G75*
G03*
X190774I-726J-419D01*
G01*
G75*
G03*
X191500Y60272I-1984J1984D01*
G01*
G37*
Y151719D02*
Y162344D01*
X194000Y164844D01*
X202750D01*
X205250Y162344D01*
X265250D01*
X267750Y164844D01*
X364000D01*
X371500Y157344D01*
Y151715D01*
X191500Y155179D02*
G75*
G03*
X192998Y152583I5593J1498D01*
G01*
G75*
G03*
X190002I-1498J-865D01*
G01*
G75*
G03*
X191500Y155179I-4094J4094D01*
G01*
G36*
X191500Y155179D02*
G75*
G03*
X192998Y152583I5593J1498D01*
G01*
G75*
G03*
X190002I-1498J-865D01*
G01*
G75*
G03*
X191500Y155179I-4094J4094D01*
G01*
G37*
X193268Y194327D02*
X194682Y192913D01*
X193268Y197862D02*
X194682Y199276D01*
X195004Y31754D02*
Y72344D01*
X200250Y77591D01*
Y93594D01*
X211500Y104844D01*
X301500D01*
X316510Y119854D01*
Y142344D01*
X195004Y54401D02*
G75*
G02*
X192157Y49470I-10624J2846D01*
G01*
X197850D01*
G75*
G02*
X195004Y54401I7777J7777D01*
G01*
G36*
X195004Y54401D02*
G75*
G02*
X192157Y49470I-10624J2846D01*
G01*
X197850D01*
G75*
G02*
X195004Y54401I7777J7777D01*
G01*
G37*
X195250Y161094D02*
X202750D01*
X204000Y159844D01*
X266500D01*
X269000Y162344D01*
X336500D01*
X341500Y157344D01*
Y151715D01*
X196510Y80565D02*
Y78565D01*
Y84124D02*
Y86124D01*
Y138785D02*
G75*
G03*
X194969Y141455I-5752J-1541D01*
G01*
G75*
G03*
X198051I1541J890D01*
G01*
G75*
G03*
X196510Y138785I4211J-4210D01*
G01*
G36*
X196510Y138785D02*
G75*
G03*
X194969Y141455I-5752J-1541D01*
G01*
G75*
G03*
X198051I1541J890D01*
G01*
G75*
G03*
X196510Y138785I4211J-4210D01*
G01*
G37*
Y142344D02*
Y123457D01*
X201510Y118457D01*
X291303D01*
X196927Y161094D02*
G75*
G03*
X195669Y160368I726J-2710D01*
G01*
G75*
G03*
Y161821I-419J726D01*
G01*
G75*
G03*
X196927Y161094I1984J1984D01*
G01*
G36*
X196927Y161094D02*
G75*
G03*
X195669Y160368I726J-2710D01*
G01*
G75*
G03*
Y161821I-419J726D01*
G01*
G75*
G03*
X196927Y161094I1984J1984D01*
G01*
G37*
X197750Y157344D02*
X267750D01*
X270250Y159844D01*
X329000D01*
X331500Y157344D01*
Y151715D01*
X199770Y151719D02*
X197770D01*
X200276Y181747D02*
X198862Y180333D01*
X200276Y184194D02*
X198862Y185608D01*
X201500Y149988D02*
Y147988D01*
Y153449D02*
Y155449D01*
X202724Y181747D02*
X204138Y180333D01*
X202724Y184194D02*
X204138Y185608D01*
X202750Y58594D02*
Y91094D01*
X214000Y102344D01*
X309010D01*
X326510Y119844D01*
Y142344D01*
X202750Y60272D02*
G75*
G03*
X203476Y59014I2710J726D01*
G01*
G75*
G03*
X202024I-726J-419D01*
G01*
G75*
G03*
X202750Y60272I-1984J1984D01*
G01*
G36*
X202750Y60272D02*
G75*
G03*
X203476Y59014I2710J726D01*
G01*
G75*
G03*
X202024I-726J-419D01*
G01*
G75*
G03*
X202750Y60272I-1984J1984D01*
G01*
G37*
X203230Y151719D02*
X205230D01*
X207750Y58594D02*
Y74844D01*
X210496Y77591D01*
Y93594D01*
X216746Y99844D01*
X316500D01*
X336510Y119854D01*
Y142344D01*
X209000Y196094D02*
X207000D01*
X209770Y182970D02*
X207770D01*
X210276Y150495D02*
X208862Y149081D01*
X210276Y152942D02*
X208862Y154356D01*
X211500Y181240D02*
Y179240D01*
Y184701D02*
Y186701D01*
Y193594D02*
Y191594D01*
Y198594D02*
Y200594D01*
X212724Y150495D02*
X214138Y149081D01*
X212724Y152942D02*
X214138Y154356D01*
X212750Y58594D02*
Y91094D01*
X219000Y97344D01*
X311510D01*
X326510Y82344D01*
X212750Y60272D02*
G75*
G03*
X213476Y59014I2710J726D01*
G01*
G75*
G03*
X212024I-726J-419D01*
G01*
G75*
G03*
X212750Y60272I-1984J1984D01*
G01*
G36*
X212750Y60272D02*
G75*
G03*
X213476Y59014I2710J726D01*
G01*
G75*
G03*
X212024I-726J-419D01*
G01*
G75*
G03*
X212750Y60272I-1984J1984D01*
G01*
G37*
X213230Y182970D02*
X215230D01*
X214000Y196094D02*
X216000D01*
X219770Y182970D02*
X217770D01*
X220250Y61341D02*
Y91094D01*
X224000Y94844D01*
X304010D01*
X316510Y82344D01*
X221500Y181240D02*
Y179240D01*
Y184701D02*
Y186701D01*
X221539Y207352D02*
Y205352D01*
Y212337D02*
Y214337D01*
X222750Y58594D02*
Y89844D01*
X225250Y92344D01*
X302750D01*
X306510Y88585D01*
Y82344D01*
X222750Y60272D02*
G75*
G03*
X223476Y59014I2710J726D01*
G01*
G75*
G03*
X222024I-726J-419D01*
G01*
G75*
G03*
X222750Y60272I-1984J1984D01*
G01*
G36*
X222750Y60272D02*
G75*
G03*
X223476Y59014I2710J726D01*
G01*
G75*
G03*
X222024I-726J-419D01*
G01*
G75*
G03*
X222750Y60272I-1984J1984D01*
G01*
G37*
X223230Y182970D02*
X225230D01*
X225004Y56094D02*
Y57089D01*
X225260Y57344D01*
Y58585D01*
X225250Y58594D01*
Y74844D01*
X230250Y79844D01*
Y83594D01*
X234000Y87344D01*
X241510D01*
X246510Y82344D01*
X230250Y58594D02*
Y69844D01*
X239000Y78594D01*
X252760D01*
X256510Y82344D01*
X230250Y60272D02*
G75*
G03*
X230976Y59014I2710J726D01*
G01*
G75*
G03*
X229524I-726J-419D01*
G01*
G75*
G03*
X230250Y60272I-1984J1984D01*
G01*
G36*
X230250Y60272D02*
G75*
G03*
X230976Y59014I2710J726D01*
G01*
G75*
G03*
X229524I-726J-419D01*
G01*
G75*
G03*
X230250Y60272I-1984J1984D01*
G01*
G37*
X234537Y193457D02*
X232537D01*
X235004Y54844D02*
Y68348D01*
X242750Y76094D01*
X260260D01*
X266510Y82344D01*
X236500Y191494D02*
Y189494D01*
Y195419D02*
Y197419D01*
X238463Y193457D02*
X240463D01*
X240250Y58594D02*
Y67344D01*
X246500Y73594D01*
X267760D01*
X276510Y82344D01*
X240250Y60272D02*
G75*
G03*
X240976Y59014I2710J726D01*
G01*
G75*
G03*
X239524I-726J-419D01*
G01*
G75*
G03*
X240250Y60272I-1984J1984D01*
G01*
G36*
X240250Y60272D02*
G75*
G03*
X240976Y59014I2710J726D01*
G01*
G75*
G03*
X239524I-726J-419D01*
G01*
G75*
G03*
X240250Y60272I-1984J1984D01*
G01*
G37*
X241500Y164844D02*
X264000D01*
X266500Y167344D01*
X361500D01*
X371500Y177344D01*
Y182974D01*
X243177Y164844D02*
G75*
G03*
X241919Y164118I726J-2710D01*
G01*
G75*
G03*
Y165571I-419J726D01*
G01*
G75*
G03*
X243177Y164844I1984J1984D01*
G01*
G36*
X243177Y164844D02*
G75*
G03*
X241919Y164118I726J-2710D01*
G01*
G75*
G03*
Y165571I-419J726D01*
G01*
G75*
G03*
X243177Y164844I1984J1984D01*
G01*
G37*
X243993Y84861D02*
G75*
G03*
X246970Y84063I2977J5157D01*
G01*
G75*
G03*
X244791Y81884I-461J-1719D01*
G01*
G75*
G03*
X243993Y84861I-5954J0D01*
G01*
G36*
X243993Y84861D02*
G75*
G03*
X246970Y84063I2977J5157D01*
G01*
G75*
G03*
X244791Y81884I-461J-1719D01*
G01*
G75*
G03*
X243993Y84861I-5954J0D01*
G01*
G37*
X245004Y57344D02*
Y63594D01*
X250004Y68594D01*
X272760D01*
X286510Y82344D01*
X247750Y58594D02*
Y62344D01*
X251500Y66094D01*
X275250D01*
X291500Y82344D01*
X296510D01*
X247750Y60272D02*
G75*
G03*
X248476Y59014I2710J726D01*
G01*
G75*
G03*
X247024I-726J-419D01*
G01*
G75*
G03*
X247750Y60272I-1984J1984D01*
G01*
G36*
X247750Y60272D02*
G75*
G03*
X248476Y59014I2710J726D01*
G01*
G75*
G03*
X247024I-726J-419D01*
G01*
G75*
G03*
X247750Y60272I-1984J1984D01*
G01*
G37*
X251500Y167344D02*
X262750D01*
X265250Y169844D01*
X334000D01*
X341500Y177344D01*
Y182974D01*
X253177Y167344D02*
G75*
G03*
X251919Y166618I726J-2710D01*
G01*
G75*
G03*
Y168071I-419J726D01*
G01*
G75*
G03*
X253177Y167344I1984J1984D01*
G01*
G36*
X253177Y167344D02*
G75*
G03*
X251919Y166618I726J-2710D01*
G01*
G75*
G03*
Y168071I-419J726D01*
G01*
G75*
G03*
X253177Y167344I1984J1984D01*
G01*
G37*
X253993Y79828D02*
G75*
G03*
X254791Y82805I-5157J2977D01*
G01*
G75*
G03*
X256970Y80626I1719J-461D01*
G01*
G75*
G03*
X253993Y79828I0J-5954D01*
G01*
G36*
X253993Y79828D02*
G75*
G03*
X254791Y82805I-5157J2977D01*
G01*
G75*
G03*
X256970Y80626I1719J-461D01*
G01*
G75*
G03*
X253993Y79828I0J-5954D01*
G01*
G37*
X255004Y54844D02*
X251500Y58348D01*
Y61094D01*
X254000Y63594D01*
X276303D01*
X290053Y77344D01*
X255250Y58594D02*
X257750Y61094D01*
X275250D01*
X256436Y59780D02*
G75*
G03*
X256060Y58377I2431J-1402D01*
G01*
G75*
G03*
X255033Y59405I-810J217D01*
G01*
G75*
G03*
X256436Y59780I1J2806D01*
G01*
G36*
X256436Y59780D02*
G75*
G03*
X256060Y58377I2431J-1402D01*
G01*
G75*
G03*
X255033Y59405I-810J217D01*
G01*
G75*
G03*
X256436Y59780I1J2806D01*
G01*
G37*
X256539Y207352D02*
Y205352D01*
Y212337D02*
Y214337D01*
X259732Y194327D02*
X258318Y192913D01*
X259732Y197862D02*
X258318Y199276D01*
X261500Y169844D02*
X264000Y172344D01*
X326500D01*
X331500Y177344D01*
Y182974D01*
X262686Y171030D02*
G75*
G03*
X262310Y169627I2431J-1402D01*
G01*
G75*
G03*
X261283Y170655I-810J217D01*
G01*
G75*
G03*
X262686Y171030I1J2806D01*
G01*
G36*
X262686Y171030D02*
G75*
G03*
X262310Y169627I2431J-1402D01*
G01*
G75*
G03*
X261283Y170655I-810J217D01*
G01*
G75*
G03*
X262686Y171030I1J2806D01*
G01*
G37*
X263268Y194327D02*
X264682Y192913D01*
X263268Y197862D02*
X264682Y199276D01*
X263993Y79828D02*
G75*
G03*
X264791Y82805I-5157J2977D01*
G01*
G75*
G03*
X266970Y80626I1719J-461D01*
G01*
G75*
G03*
X263993Y79828I0J-5954D01*
G01*
G36*
X263993Y79828D02*
G75*
G03*
X264791Y82805I-5157J2977D01*
G01*
G75*
G03*
X266970Y80626I1719J-461D01*
G01*
G75*
G03*
X263993Y79828I0J-5954D01*
G01*
G37*
X273177Y157344D02*
G75*
G03*
X271919Y156618I726J-2710D01*
G01*
G75*
G03*
Y158071I-419J726D01*
G01*
G75*
G03*
X273177Y157344I1984J1984D01*
G01*
G36*
X273177Y157344D02*
G75*
G03*
X271919Y156618I726J-2710D01*
G01*
G75*
G03*
Y158071I-419J726D01*
G01*
G75*
G03*
X273177Y157344I1984J1984D01*
G01*
G37*
X273573Y61094D02*
G75*
G03*
X274831Y61821I-726J2710D01*
G01*
G75*
G03*
Y60368I419J-726D01*
G01*
G75*
G03*
X273573Y61094I-1984J-1984D01*
G01*
G36*
X273573Y61094D02*
G75*
G03*
X274831Y61821I-726J2710D01*
G01*
G75*
G03*
Y60368I419J-726D01*
G01*
G75*
G03*
X273573Y61094I-1984J-1984D01*
G01*
G37*
X273993Y79828D02*
G75*
G03*
X274791Y82805I-5157J2977D01*
G01*
G75*
G03*
X276970Y80626I1719J-461D01*
G01*
G75*
G03*
X273993Y79828I0J-5954D01*
G01*
G36*
X273993Y79828D02*
G75*
G03*
X274791Y82805I-5157J2977D01*
G01*
G75*
G03*
X276970Y80626I1719J-461D01*
G01*
G75*
G03*
X273993Y79828I0J-5954D01*
G01*
G37*
X279000Y196094D02*
X277000D01*
X280876Y113594D02*
G75*
G03*
X282134Y114321I-726J2710D01*
G01*
G75*
G03*
Y112868I419J-726D01*
G01*
G75*
G03*
X280876Y113594I-1984J-1984D01*
G01*
G36*
X280876Y113594D02*
G75*
G03*
X282134Y114321I-726J2710D01*
G01*
G75*
G03*
Y112868I419J-726D01*
G01*
G75*
G03*
X280876Y113594I-1984J-1984D01*
G01*
G37*
X281500Y193594D02*
Y191594D01*
Y198594D02*
Y200594D01*
X282553Y113594D02*
X195250D01*
X184000Y102344D01*
X283993Y79828D02*
G75*
G03*
X284791Y82805I-5157J2977D01*
G01*
G75*
G03*
X286970Y80626I1719J-461D01*
G01*
G75*
G03*
X283993Y79828I0J-5954D01*
G01*
G36*
X283993Y79828D02*
G75*
G03*
X284791Y82805I-5157J2977D01*
G01*
G75*
G03*
X286970Y80626I1719J-461D01*
G01*
G75*
G03*
X283993Y79828I0J-5954D01*
G01*
G37*
X284000Y196094D02*
X286000D01*
X289626Y118457D02*
G75*
G03*
X290884Y119183I-726J2710D01*
G01*
G75*
G03*
Y117730I419J-726D01*
G01*
G75*
G03*
X289626Y118457I-1984J-1984D01*
G01*
G36*
X289626Y118457D02*
G75*
G03*
X290884Y119183I-726J2710D01*
G01*
G75*
G03*
Y117730I419J-726D01*
G01*
G75*
G03*
X289626Y118457I-1984J-1984D01*
G01*
G37*
X289776Y151715D02*
X287776D01*
X289776Y182974D02*
X287776D01*
X291500Y149990D02*
Y147990D01*
Y153439D02*
Y155439D01*
Y181250D02*
Y179250D01*
Y184699D02*
Y186699D01*
X291539Y207352D02*
Y205352D01*
Y212337D02*
Y214337D01*
X292951Y82344D02*
G75*
G03*
X295620Y83885I-1541J5752D01*
G01*
G75*
G03*
Y80804I890J-1541D01*
G01*
G75*
G03*
X292951Y82344I-4210J-4211D01*
G01*
G36*
X292951Y82344D02*
G75*
G03*
X295620Y83885I-1541J5752D01*
G01*
G75*
G03*
Y80804I890J-1541D01*
G01*
G75*
G03*
X292951Y82344I-4210J-4211D01*
G01*
G37*
X293224Y151715D02*
X295224D01*
X293224Y182974D02*
X295224D01*
X296510Y138785D02*
G75*
G03*
X294969Y141455I-5752J-1541D01*
G01*
G75*
G03*
X298051I1541J890D01*
G01*
G75*
G03*
X296510Y138785I4211J-4210D01*
G01*
G36*
X296510Y138785D02*
G75*
G03*
X294969Y141455I-5752J-1541D01*
G01*
G75*
G03*
X298051I1541J890D01*
G01*
G75*
G03*
X296510Y138785I4211J-4210D01*
G01*
G37*
Y142344D02*
Y146094D01*
X297760Y147344D01*
X307130D01*
X311500Y151715D01*
X296510Y145904D02*
G75*
G03*
X298051Y143234I5752J1541D01*
G01*
G75*
G03*
X294969I-1541J-890D01*
G01*
G75*
G03*
X296510Y145904I-4211J4210D01*
G01*
G36*
X296510Y145904D02*
G75*
G03*
X298051Y143234I5752J1541D01*
G01*
G75*
G03*
X294969I-1541J-890D01*
G01*
G75*
G03*
X296510Y145904I-4211J4210D01*
G01*
G37*
X301500Y151715D02*
Y156094D01*
X300250Y157344D01*
X271500D01*
X301500Y155163D02*
G75*
G03*
X302993Y152577I5573J1493D01*
G01*
G75*
G03*
X300007I-1493J-862D01*
G01*
G75*
G03*
X301500Y155163I-4080J4080D01*
G01*
G36*
X301500Y155163D02*
G75*
G03*
X302993Y152577I5573J1493D01*
G01*
G75*
G03*
X300007I-1493J-862D01*
G01*
G75*
G03*
X301500Y155163I-4080J4080D01*
G01*
G37*
X306510Y85904D02*
G75*
G03*
X308051Y83234I5752J1541D01*
G01*
G75*
G03*
X304969I-1541J-890D01*
G01*
G75*
G03*
X306510Y85904I-4211J4210D01*
G01*
G36*
X306510Y85904D02*
G75*
G03*
X308051Y83234I5752J1541D01*
G01*
G75*
G03*
X304969I-1541J-890D01*
G01*
G75*
G03*
X306510Y85904I-4211J4210D01*
G01*
G37*
Y138785D02*
G75*
G03*
X304969Y141455I-5752J-1541D01*
G01*
G75*
G03*
X308051I1541J890D01*
G01*
G75*
G03*
X306510Y138785I4211J-4210D01*
G01*
G36*
X306510Y138785D02*
G75*
G03*
X304969Y141455I-5752J-1541D01*
G01*
G75*
G03*
X308051I1541J890D01*
G01*
G75*
G03*
X306510Y138785I4211J-4210D01*
G01*
G37*
X309061Y149276D02*
G75*
G03*
X309834Y152161I-4996J2885D01*
G01*
G75*
G03*
X311946Y150049I1665J-446D01*
G01*
G75*
G03*
X309061Y149276I0J-5769D01*
G01*
G36*
X309061Y149276D02*
G75*
G03*
X309834Y152161I-4996J2885D01*
G01*
G75*
G03*
X311946Y150049I1665J-446D01*
G01*
G75*
G03*
X309061Y149276I0J-5769D01*
G01*
G37*
X310053Y72207D02*
X340053D01*
X343803Y75957D01*
X311730Y72207D02*
G75*
G03*
X310472Y71480I726J-2710D01*
G01*
G75*
G03*
Y72933I-419J726D01*
G01*
G75*
G03*
X311730Y72207I1984J1984D01*
G01*
G36*
X311730Y72207D02*
G75*
G03*
X310472Y71480I726J-2710D01*
G01*
G75*
G03*
Y72933I-419J726D01*
G01*
G75*
G03*
X311730Y72207I1984J1984D01*
G01*
G37*
X313993Y84861D02*
G75*
G03*
X316970Y84063I2977J5157D01*
G01*
G75*
G03*
X314791Y81884I-461J-1719D01*
G01*
G75*
G03*
X313993Y84861I-5954J0D01*
G01*
G36*
X313993Y84861D02*
G75*
G03*
X316970Y84063I2977J5157D01*
G01*
G75*
G03*
X314791Y81884I-461J-1719D01*
G01*
G75*
G03*
X313993Y84861I-5954J0D01*
G01*
G37*
X315004Y31754D02*
Y69657D01*
X315053Y69707D01*
X341303D01*
X346303Y74707D01*
Y82207D01*
X356303Y92207D01*
X387750D01*
X391500Y95957D01*
Y112344D01*
X316510Y138785D02*
G75*
G03*
X314969Y141455I-5752J-1541D01*
G01*
G75*
G03*
X318051I1541J890D01*
G01*
G75*
G03*
X316510Y138785I4211J-4210D01*
G01*
G36*
X316510Y138785D02*
G75*
G03*
X314969Y141455I-5752J-1541D01*
G01*
G75*
G03*
X318051I1541J890D01*
G01*
G75*
G03*
X316510Y138785I4211J-4210D01*
G01*
G37*
X316730Y69707D02*
G75*
G03*
X315472Y68980I726J-2710D01*
G01*
G75*
G03*
Y70433I-419J726D01*
G01*
G75*
G03*
X316730Y69707I1984J1984D01*
G01*
G36*
X316730Y69707D02*
G75*
G03*
X315472Y68980I726J-2710D01*
G01*
G75*
G03*
Y70433I-419J726D01*
G01*
G75*
G03*
X316730Y69707I1984J1984D01*
G01*
G37*
X320480Y67207D02*
G75*
G03*
X319222Y66480I726J-2710D01*
G01*
G75*
G03*
Y67933I-419J726D01*
G01*
G75*
G03*
X320480Y67207I1984J1984D01*
G01*
G36*
X320480Y67207D02*
G75*
G03*
X319222Y66480I726J-2710D01*
G01*
G75*
G03*
Y67933I-419J726D01*
G01*
G75*
G03*
X320480Y67207I1984J1984D01*
G01*
G37*
X323993Y84861D02*
G75*
G03*
X326970Y84063I2977J5157D01*
G01*
G75*
G03*
X324791Y81884I-461J-1719D01*
G01*
G75*
G03*
X323993Y84861I-5954J0D01*
G01*
G36*
X323993Y84861D02*
G75*
G03*
X326970Y84063I2977J5157D01*
G01*
G75*
G03*
X324791Y81884I-461J-1719D01*
G01*
G75*
G03*
X323993Y84861I-5954J0D01*
G01*
G37*
X324230Y64707D02*
G75*
G03*
X322972Y63980I726J-2710D01*
G01*
G75*
G03*
Y65433I-419J726D01*
G01*
G75*
G03*
X324230Y64707I1984J1984D01*
G01*
G36*
X324230Y64707D02*
G75*
G03*
X322972Y63980I726J-2710D01*
G01*
G75*
G03*
Y65433I-419J726D01*
G01*
G75*
G03*
X324230Y64707I1984J1984D01*
G01*
G37*
X326510Y138785D02*
G75*
G03*
X324969Y141455I-5752J-1541D01*
G01*
G75*
G03*
X328051I1541J890D01*
G01*
G75*
G03*
X326510Y138785I4211J-4210D01*
G01*
G36*
X326510Y138785D02*
G75*
G03*
X324969Y141455I-5752J-1541D01*
G01*
G75*
G03*
X328051I1541J890D01*
G01*
G75*
G03*
X326510Y138785I4211J-4210D01*
G01*
G37*
X326539Y207352D02*
Y205352D01*
Y212337D02*
Y214337D01*
X331500Y155163D02*
G75*
G03*
X332993Y152577I5573J1493D01*
G01*
G75*
G03*
X330007I-1493J-862D01*
G01*
G75*
G03*
X331500Y155163I-4080J4080D01*
G01*
G36*
X331500Y155163D02*
G75*
G03*
X332993Y152577I5573J1493D01*
G01*
G75*
G03*
X330007I-1493J-862D01*
G01*
G75*
G03*
X331500Y155163I-4080J4080D01*
G01*
G37*
Y179526D02*
G75*
G03*
X330007Y182112I-5573J-1493D01*
G01*
G75*
G03*
X332993I1493J862D01*
G01*
G75*
G03*
X331500Y179526I4080J-4080D01*
G01*
G36*
X331500Y179526D02*
G75*
G03*
X330007Y182112I-5573J-1493D01*
G01*
G75*
G03*
X332993I1493J862D01*
G01*
G75*
G03*
X331500Y179526I4080J-4080D01*
G01*
G37*
X334730Y82344D02*
X332730D01*
X336510Y80565D02*
Y78565D01*
Y84124D02*
Y86124D01*
Y138785D02*
G75*
G03*
X334969Y141455I-5752J-1541D01*
G01*
G75*
G03*
X338051I1541J890D01*
G01*
G75*
G03*
X336510Y138785I4211J-4210D01*
G01*
G36*
X336510Y138785D02*
G75*
G03*
X334969Y141455I-5752J-1541D01*
G01*
G75*
G03*
X338051I1541J890D01*
G01*
G75*
G03*
X336510Y138785I4211J-4210D01*
G01*
G37*
X338289Y82344D02*
X340289D01*
X341500Y155163D02*
G75*
G03*
X342993Y152577I5573J1493D01*
G01*
G75*
G03*
X340007I-1493J-862D01*
G01*
G75*
G03*
X341500Y155163I-4080J4080D01*
G01*
G36*
X341500Y155163D02*
G75*
G03*
X342993Y152577I5573J1493D01*
G01*
G75*
G03*
X340007I-1493J-862D01*
G01*
G75*
G03*
X341500Y155163I-4080J4080D01*
G01*
G37*
Y179526D02*
G75*
G03*
X340007Y182112I-5573J-1493D01*
G01*
G75*
G03*
X342993I1493J862D01*
G01*
G75*
G03*
X341500Y179526I4080J-4080D01*
G01*
G36*
X341500Y179526D02*
G75*
G03*
X340007Y182112I-5573J-1493D01*
G01*
G75*
G03*
X342993I1493J862D01*
G01*
G75*
G03*
X341500Y179526I4080J-4080D01*
G01*
G37*
X342617Y74771D02*
G75*
G03*
X342993Y76174I-2431J1402D01*
G01*
G75*
G03*
X344020Y75146I810J-217D01*
G01*
G75*
G03*
X342617Y74771I-1J-2806D01*
G01*
G36*
X342617Y74771D02*
G75*
G03*
X342993Y76174I-2431J1402D01*
G01*
G75*
G03*
X344020Y75146I810J-217D01*
G01*
G75*
G03*
X342617Y74771I-1J-2806D01*
G01*
G37*
X343803Y77634D02*
G75*
G03*
X344530Y76376I2710J726D01*
G01*
G75*
G03*
X343077I-726J-419D01*
G01*
G75*
G03*
X343803Y77634I-1984J1984D01*
G01*
G36*
X343803Y77634D02*
G75*
G03*
X344530Y76376I2710J726D01*
G01*
G75*
G03*
X343077I-726J-419D01*
G01*
G75*
G03*
X343803Y77634I-1984J1984D01*
G01*
G37*
X361500Y112344D02*
Y101154D01*
X343803Y83457D01*
Y75957D01*
X361539Y207352D02*
Y205352D01*
Y212337D02*
Y214337D01*
X367750Y59844D02*
X372750D01*
X377750Y64844D01*
X400053D01*
X371500Y138896D02*
G75*
G03*
X370007Y141482I-5573J-1493D01*
G01*
G75*
G03*
X372993I1493J862D01*
G01*
G75*
G03*
X371500Y138896I4080J-4080D01*
G01*
G36*
X371500Y138896D02*
G75*
G03*
X370007Y141482I-5573J-1493D01*
G01*
G75*
G03*
X372993I1493J862D01*
G01*
G75*
G03*
X371500Y138896I4080J-4080D01*
G01*
G37*
Y142344D02*
Y133457D01*
X381500Y123457D01*
Y112344D01*
X371500Y155163D02*
G75*
G03*
X372993Y152577I5573J1493D01*
G01*
G75*
G03*
X370007I-1493J-862D01*
G01*
G75*
G03*
X371500Y155163I-4080J4080D01*
G01*
G36*
X371500Y155163D02*
G75*
G03*
X372993Y152577I5573J1493D01*
G01*
G75*
G03*
X370007I-1493J-862D01*
G01*
G75*
G03*
X371500Y155163I-4080J4080D01*
G01*
G37*
Y179526D02*
G75*
G03*
X370007Y182112I-5573J-1493D01*
G01*
G75*
G03*
X372993I1493J862D01*
G01*
G75*
G03*
X371500Y179526I4080J-4080D01*
G01*
G36*
X371500Y179526D02*
G75*
G03*
X370007Y182112I-5573J-1493D01*
G01*
G75*
G03*
X372993I1493J862D01*
G01*
G75*
G03*
X371500Y179526I4080J-4080D01*
G01*
G37*
X378803Y62207D02*
X401303D01*
X403803Y64707D01*
Y73457D01*
X406303Y75957D01*
X423941D01*
X426303Y78319D01*
Y82207D01*
X424000Y84510D01*
Y88594D01*
X379776Y151715D02*
X377776D01*
X381303Y88594D02*
X356441D01*
X348803Y80957D01*
Y73457D01*
X342553Y67207D01*
X318803D01*
X381500Y115793D02*
G75*
G03*
X382993Y113207I5573J1493D01*
G01*
G75*
G03*
X380007I-1493J-862D01*
G01*
G75*
G03*
X381500Y115793I-4080J4080D01*
G01*
G36*
X381500Y115793D02*
G75*
G03*
X382993Y113207I5573J1493D01*
G01*
G75*
G03*
X380007I-1493J-862D01*
G01*
G75*
G03*
X381500Y115793I-4080J4080D01*
G01*
G37*
Y138896D02*
G75*
G03*
X380007Y141482I-5573J-1493D01*
G01*
G75*
G03*
X382993I1493J862D01*
G01*
G75*
G03*
X381500Y138896I4080J-4080D01*
G01*
G36*
X381500Y138896D02*
G75*
G03*
X380007Y141482I-5573J-1493D01*
G01*
G75*
G03*
X382993I1493J862D01*
G01*
G75*
G03*
X381500Y138896I4080J-4080D01*
G01*
G37*
Y142344D02*
Y132207D01*
X389000Y124707D01*
X405053D01*
X411500Y118260D01*
Y112344D01*
X381500Y149990D02*
Y147990D01*
Y153439D02*
Y155439D01*
X383224Y151715D02*
X385224D01*
X391500Y108896D02*
G75*
G03*
X390007Y111482I-5573J-1493D01*
G01*
G75*
G03*
X392993I1493J862D01*
G01*
G75*
G03*
X391500Y108896I4080J-4080D01*
G01*
G36*
X391500Y108896D02*
G75*
G03*
X390007Y111482I-5573J-1493D01*
G01*
G75*
G03*
X392993I1493J862D01*
G01*
G75*
G03*
X391500Y108896I4080J-4080D01*
G01*
G37*
Y112344D02*
X401500D01*
X391500Y142344D02*
X401500D01*
X394000Y196094D02*
X392000D01*
X394949Y112344D02*
G75*
G03*
X392362Y110851I1493J-5573D01*
G01*
G75*
G03*
Y113838I-862J1493D01*
G01*
G75*
G03*
X394949Y112344I4080J4080D01*
G01*
G36*
X394949Y112344D02*
G75*
G03*
X392362Y110851I1493J-5573D01*
G01*
G75*
G03*
Y113838I-862J1493D01*
G01*
G75*
G03*
X394949Y112344I4080J4080D01*
G01*
G37*
Y142344D02*
G75*
G03*
X392362Y140851I1493J-5573D01*
G01*
G75*
G03*
Y143838I-862J1493D01*
G01*
G75*
G03*
X394949Y142344I4080J4080D01*
G01*
G36*
X394949Y142344D02*
G75*
G03*
X392362Y140851I1493J-5573D01*
G01*
G75*
G03*
Y143838I-862J1493D01*
G01*
G75*
G03*
X394949Y142344I4080J4080D01*
G01*
G37*
X396500Y193594D02*
Y191594D01*
Y198594D02*
Y200594D01*
X396539Y207352D02*
Y205352D01*
Y212337D02*
Y214337D01*
X398051Y112344D02*
G75*
G03*
X400638Y113838I-1493J5573D01*
G01*
G75*
G03*
Y110851I862J-1493D01*
G01*
G75*
G03*
X398051Y112344I-4080J-4080D01*
G01*
G36*
X398051Y112344D02*
G75*
G03*
X400638Y113838I-1493J5573D01*
G01*
G75*
G03*
Y110851I862J-1493D01*
G01*
G75*
G03*
X398051Y112344I-4080J-4080D01*
G01*
G37*
Y142344D02*
G75*
G03*
X400638Y143838I-1493J5573D01*
G01*
G75*
G03*
Y140851I862J-1493D01*
G01*
G75*
G03*
X398051Y142344I-4080J-4080D01*
G01*
G36*
X398051Y142344D02*
G75*
G03*
X400638Y143838I-1493J5573D01*
G01*
G75*
G03*
Y140851I862J-1493D01*
G01*
G75*
G03*
X398051Y142344I-4080J-4080D01*
G01*
G37*
X398376Y64844D02*
G75*
G03*
X399634Y65571I-726J2710D01*
G01*
G75*
G03*
Y64118I419J-726D01*
G01*
G75*
G03*
X398376Y64844I-1984J-1984D01*
G01*
G36*
X398376Y64844D02*
G75*
G03*
X399634Y65571I-726J2710D01*
G01*
G75*
G03*
Y64118I419J-726D01*
G01*
G75*
G03*
X398376Y64844I-1984J-1984D01*
G01*
G37*
X399000Y196094D02*
X401000D01*
X404949Y142344D02*
G75*
G03*
X402362Y140851I1493J-5573D01*
G01*
G75*
G03*
Y143838I-862J1493D01*
G01*
G75*
G03*
X404949Y142344I4080J4080D01*
G01*
G36*
X404949Y142344D02*
G75*
G03*
X402362Y140851I1493J-5573D01*
G01*
G75*
G03*
Y143838I-862J1493D01*
G01*
G75*
G03*
X404949Y142344I4080J4080D01*
G01*
G37*
X405053Y88594D02*
X381303D01*
X408051Y142344D02*
G75*
G03*
X410638Y143838I-1493J5573D01*
G01*
G75*
G03*
Y140851I862J-1493D01*
G01*
G75*
G03*
X408051Y142344I-4080J-4080D01*
G01*
G36*
X408051Y142344D02*
G75*
G03*
X410638Y143838I-1493J5573D01*
G01*
G75*
G03*
Y140851I862J-1493D01*
G01*
G75*
G03*
X408051Y142344I-4080J-4080D01*
G01*
G37*
X411500Y115793D02*
G75*
G03*
X412993Y113207I5573J1493D01*
G01*
G75*
G03*
X410007I-1493J-862D01*
G01*
G75*
G03*
X411500Y115793I-4080J4080D01*
G01*
G36*
X411500Y115793D02*
G75*
G03*
X412993Y113207I5573J1493D01*
G01*
G75*
G03*
X410007I-1493J-862D01*
G01*
G75*
G03*
X411500Y115793I-4080J4080D01*
G01*
G37*
Y142344D02*
X401500D01*
X414000Y196094D02*
X412000D01*
X416500Y193594D02*
Y191594D01*
Y198594D02*
Y200594D01*
X419000Y196094D02*
X421000D01*
X419776Y112344D02*
X417776D01*
X421500Y110620D02*
Y108620D01*
Y114069D02*
Y116069D01*
X423224Y112344D02*
X425224D01*
X423803Y79707D02*
X380053D01*
X373665Y86094D01*
X357691D01*
X351303Y79707D01*
Y72207D01*
X343803Y64707D01*
X322553D01*
D02*
D75*
X145004Y50937D02*
G75*
G02*
X144157Y49470I-3159J846D01*
G01*
X145850D01*
G75*
G02*
X145004Y50937I2313J2313D01*
G01*
G36*
X145004Y50937D02*
G75*
G02*
X144157Y49470I-3159J846D01*
G01*
X145850D01*
G75*
G02*
X145004Y50937I2313J2313D01*
G01*
G37*
X155004Y31754D02*
Y58594D01*
X145004D01*
Y31754D01*
X155004Y50937D02*
G75*
G02*
X154157Y49470I-3159J846D01*
G01*
X155850D01*
G75*
G02*
X155004Y50937I2313J2313D01*
G01*
G36*
X155004Y50937D02*
G75*
G02*
X154157Y49470I-3159J846D01*
G01*
X155850D01*
G75*
G02*
X155004Y50937I2313J2313D01*
G01*
G37*
X165004D02*
G75*
G02*
X164157Y49470I-3159J846D01*
G01*
X165850D01*
G75*
G02*
X165004Y50937I2313J2313D01*
G01*
G36*
X165004Y50937D02*
G75*
G02*
X164157Y49470I-3159J846D01*
G01*
X165850D01*
G75*
G02*
X165004Y50937I2313J2313D01*
G01*
G37*
Y61094D02*
Y31754D01*
X175004D02*
Y61094D01*
Y50937D02*
G75*
G02*
X174157Y49470I-3159J846D01*
G01*
X175850D01*
G75*
G02*
X175004Y50937I2313J2313D01*
G01*
G36*
X175004Y50937D02*
G75*
G02*
X174157Y49470I-3159J846D01*
G01*
X175850D01*
G75*
G02*
X175004Y50937I2313J2313D01*
G01*
G37*
D02*
D76*
X124106Y103811D02*
G75*
G03*
X119981Y101430I2381J-8889D01*
G01*
G75*
G03*
Y106193I-1375J2381D01*
G01*
G75*
G03*
X124106Y103811I6507J6507D01*
G01*
G36*
X124106Y103811D02*
G75*
G03*
X119981Y101430I2381J-8889D01*
G01*
G75*
G03*
Y106193I-1375J2381D01*
G01*
G75*
G03*
X124106Y103811I6507J6507D01*
G01*
G37*
X131500Y126457D02*
G75*
G03*
X129552Y129832I-7272J-1948D01*
G01*
G75*
G03*
X133448I1948J1125D01*
G01*
G75*
G03*
X131500Y126457I5324J-5323D01*
G01*
G36*
X131500Y126457D02*
G75*
G03*
X129552Y129832I-7272J-1948D01*
G01*
G75*
G03*
X133448I1948J1125D01*
G01*
G75*
G03*
X131500Y126457I5324J-5323D01*
G01*
G37*
Y130957D02*
Y106508D01*
X128803Y103811D01*
X118606D01*
X136000Y130957D02*
G75*
G03*
X132625Y129008I1948J-7272D01*
G01*
G75*
G03*
Y132905I-1125J1948D01*
G01*
G75*
G03*
X136000Y130957I5323J5324D01*
G01*
G36*
X136000Y130957D02*
G75*
G03*
X132625Y129008I1948J-7272D01*
G01*
G75*
G03*
Y132905I-1125J1948D01*
G01*
G75*
G03*
X136000Y130957I5323J5324D01*
G01*
G37*
X141500Y151719D02*
Y134844D01*
X137612Y130957D01*
X131500D01*
X185004Y31754D02*
Y57591D01*
Y53968D02*
G75*
G02*
X182407Y49470I-9691J2596D01*
G01*
X187600D01*
G75*
G02*
X185004Y53968I7094J7094D01*
G01*
G36*
X185004Y53968D02*
G75*
G02*
X182407Y49470I-9691J2596D01*
G01*
X187600D01*
G75*
G02*
X185004Y53968I7094J7094D01*
G01*
G37*
X196382Y209844D02*
X216618D01*
X200539D02*
G75*
G02*
X196893Y211950I2105J7856D01*
G01*
Y207739D01*
G75*
G02*
X200539Y209844I5751J-5751D01*
G01*
G36*
X200539Y209844D02*
G75*
G02*
X196893Y211950I2105J7856D01*
G01*
Y207739D01*
G75*
G02*
X200539Y209844I5751J-5751D01*
G01*
G37*
X205004Y31754D02*
Y55848D01*
X207750Y58594D01*
X205004Y53968D02*
G75*
G02*
X202407Y49470I-9691J2596D01*
G01*
X207600D01*
G75*
G02*
X205004Y53968I7094J7094D01*
G01*
G36*
X205004Y53968D02*
G75*
G02*
X202407Y49470I-9691J2596D01*
G01*
X207600D01*
G75*
G02*
X205004Y53968I7094J7094D01*
G01*
G37*
X212461Y209844D02*
G75*
G02*
X216107Y207739I-2105J-7855D01*
G01*
X216107Y211950D01*
G75*
G02*
X212461Y209844I-5751J5751D01*
G01*
G36*
X212461Y209844D02*
G75*
G02*
X216107Y207739I-2105J-7855D01*
G01*
X216107Y211950D01*
G75*
G02*
X212461Y209844I-5751J5751D01*
G01*
G37*
X215004Y31754D02*
Y56094D01*
X220250Y61341D01*
X215004Y53968D02*
G75*
G02*
X212407Y49470I-9691J2596D01*
G01*
X217600D01*
G75*
G02*
X215004Y53968I7094J7094D01*
G01*
G36*
X215004Y53968D02*
G75*
G02*
X212407Y49470I-9691J2596D01*
G01*
X217600D01*
G75*
G02*
X215004Y53968I7094J7094D01*
G01*
G37*
X225004Y31754D02*
Y56094D01*
Y53968D02*
G75*
G02*
X222407Y49470I-9691J2596D01*
G01*
X227600D01*
G75*
G02*
X225004Y53968I7094J7094D01*
G01*
G36*
X225004Y53968D02*
G75*
G02*
X222407Y49470I-9691J2596D01*
G01*
X227600D01*
G75*
G02*
X225004Y53968I7094J7094D01*
G01*
G37*
X235004Y31754D02*
Y54844D01*
Y53968D02*
G75*
G02*
X232407Y49470I-9691J2596D01*
G01*
X237600D01*
G75*
G02*
X235004Y53968I7094J7094D01*
G01*
G36*
X235004Y53968D02*
G75*
G02*
X232407Y49470I-9691J2596D01*
G01*
X237600D01*
G75*
G02*
X235004Y53968I7094J7094D01*
G01*
G37*
X245004Y31754D02*
Y57344D01*
Y53968D02*
G75*
G02*
X242407Y49470I-9691J2596D01*
G01*
X247600D01*
G75*
G02*
X245004Y53968I7094J7094D01*
G01*
G36*
X245004Y53968D02*
G75*
G02*
X242407Y49470I-9691J2596D01*
G01*
X247600D01*
G75*
G02*
X245004Y53968I7094J7094D01*
G01*
G37*
X255004Y31754D02*
Y54844D01*
Y53968D02*
G75*
G02*
X252407Y49470I-9691J2596D01*
G01*
X257600D01*
G75*
G02*
X255004Y53968I7094J7094D01*
G01*
G36*
X255004Y53968D02*
G75*
G02*
X252407Y49470I-9691J2596D01*
G01*
X257600D01*
G75*
G02*
X255004Y53968I7094J7094D01*
G01*
G37*
X260250Y58594D02*
X262504D01*
X265004Y56094D01*
Y31754D01*
Y53968D02*
G75*
G02*
X262407Y49470I-9691J2596D01*
G01*
X267600D01*
G75*
G02*
X265004Y53968I7094J7094D01*
G01*
G36*
X265004Y53968D02*
G75*
G02*
X262407Y49470I-9691J2596D01*
G01*
X267600D01*
G75*
G02*
X265004Y53968I7094J7094D01*
G01*
G37*
X266382Y209844D02*
X286618D01*
X269000Y58594D02*
X271254D01*
X275004Y54844D01*
Y31754D01*
X270539Y209844D02*
G75*
G02*
X266893Y211950I2105J7856D01*
G01*
Y207739D01*
G75*
G02*
X270539Y209844I5751J-5751D01*
G01*
G36*
X270539Y209844D02*
G75*
G02*
X266893Y211950I2105J7856D01*
G01*
Y207739D01*
G75*
G02*
X270539Y209844I5751J-5751D01*
G01*
G37*
X275004Y53968D02*
G75*
G02*
X272407Y49470I-9691J2596D01*
G01*
X277600D01*
G75*
G02*
X275004Y53968I7094J7094D01*
G01*
G36*
X275004Y53968D02*
G75*
G02*
X272407Y49470I-9691J2596D01*
G01*
X277600D01*
G75*
G02*
X275004Y53968I7094J7094D01*
G01*
G37*
X282461Y209844D02*
G75*
G02*
X286107Y207739I-2105J-7855D01*
G01*
X286107Y211950D01*
G75*
G02*
X282461Y209844I-5751J5751D01*
G01*
G36*
X282461Y209844D02*
G75*
G02*
X286107Y207739I-2105J-7855D01*
G01*
X286107Y211950D01*
G75*
G02*
X282461Y209844I-5751J5751D01*
G01*
G37*
X285004Y31754D02*
Y65848D01*
X285250Y66094D01*
X285004Y53968D02*
G75*
G02*
X282407Y49470I-9691J2596D01*
G01*
X287600D01*
G75*
G02*
X285004Y53968I7094J7094D01*
G01*
G36*
X285004Y53968D02*
G75*
G02*
X282407Y49470I-9691J2596D01*
G01*
X287600D01*
G75*
G02*
X285004Y53968I7094J7094D01*
G01*
G37*
X290250Y63594D02*
X295004Y58841D01*
Y31754D01*
Y53968D02*
G75*
G02*
X292407Y49470I-9691J2596D01*
G01*
X297600D01*
G75*
G02*
X295004Y53968I7094J7094D01*
G01*
G36*
X295004Y53968D02*
G75*
G02*
X292407Y49470I-9691J2596D01*
G01*
X297600D01*
G75*
G02*
X295004Y53968I7094J7094D01*
G01*
G37*
X315004D02*
G75*
G02*
X312407Y49470I-9691J2596D01*
G01*
X317600D01*
G75*
G02*
X315004Y53968I7094J7094D01*
G01*
G36*
X315004Y53968D02*
G75*
G02*
X312407Y49470I-9691J2596D01*
G01*
X317600D01*
G75*
G02*
X315004Y53968I7094J7094D01*
G01*
G37*
X336382Y209844D02*
X356618D01*
X340539D02*
G75*
G02*
X336893Y211950I2105J7856D01*
G01*
Y207739D01*
G75*
G02*
X340539Y209844I5751J-5751D01*
G01*
G36*
X340539Y209844D02*
G75*
G02*
X336893Y211950I2105J7856D01*
G01*
Y207739D01*
G75*
G02*
X340539Y209844I5751J-5751D01*
G01*
G37*
X352461D02*
G75*
G02*
X356107Y207739I-2105J-7855D01*
G01*
X356107Y211950D01*
G75*
G02*
X352461Y209844I-5751J5751D01*
G01*
G36*
X352461Y209844D02*
G75*
G02*
X356107Y207739I-2105J-7855D01*
G01*
X356107Y211950D01*
G75*
G02*
X352461Y209844I-5751J5751D01*
G01*
G37*
X361500Y112344D02*
X371500D01*
X365004Y31754D02*
Y57098D01*
X367750Y59844D01*
X365004Y53968D02*
G75*
G02*
X362407Y49470I-9691J2596D01*
G01*
X367600D01*
G75*
G02*
X365004Y53968I7094J7094D01*
G01*
G36*
X365004Y53968D02*
G75*
G02*
X362407Y49470I-9691J2596D01*
G01*
X367600D01*
G75*
G02*
X365004Y53968I7094J7094D01*
G01*
G37*
X368551Y112344D02*
G75*
G03*
X370763Y113621I-1277J4766D01*
G01*
G75*
G03*
Y111068I737J-1277D01*
G01*
G75*
G03*
X368551Y112344I-3489J-3489D01*
G01*
G36*
X368551Y112344D02*
G75*
G03*
X370763Y113621I-1277J4766D01*
G01*
G75*
G03*
Y111068I737J-1277D01*
G01*
G75*
G03*
X368551Y112344I-3489J-3489D01*
G01*
G37*
X375004Y31754D02*
Y58348D01*
X377750Y61094D01*
Y61154D01*
X378803Y62207D01*
X375004Y53968D02*
G75*
G02*
X372407Y49470I-9691J2596D01*
G01*
X377600D01*
G75*
G02*
X375004Y53968I7094J7094D01*
G01*
G36*
X375004Y53968D02*
G75*
G02*
X372407Y49470I-9691J2596D01*
G01*
X377600D01*
G75*
G02*
X375004Y53968I7094J7094D01*
G01*
G37*
D02*
D77*
X40250Y188594D03*
Y211094D03*
X41500Y107344D03*
Y132344D03*
X52750Y153594D03*
Y177344D03*
X61500Y153594D03*
Y177344D03*
X62750Y211094D03*
X71500Y107344D03*
X79000Y62344D03*
Y89844D03*
X97750Y114707D03*
Y122207D03*
X105250Y114707D03*
Y122207D03*
X107750Y62344D03*
Y88594D03*
X112750Y114707D03*
Y122207D03*
X134000Y59844D03*
Y68594D03*
Y78594D03*
X141303Y105957D03*
Y113594D03*
Y124707D03*
X156500Y189844D03*
X176500D03*
X177750Y82344D03*
X187553Y65957D03*
X191500Y121094D03*
Y131094D03*
X196500Y189844D03*
X198803Y65957D03*
X206500Y173594D03*
X211500Y137344D03*
X216303Y65957D03*
X216500Y173594D03*
X221500Y137344D03*
X231303Y75957D03*
X231500Y137344D03*
X251500D03*
X261500Y87344D03*
Y137344D03*
X266500Y189844D03*
X271500Y87344D03*
Y137344D03*
X291500D03*
X295250Y198594D03*
X305250Y56094D03*
X316303Y179707D03*
X325250Y56094D03*
X331500Y103594D03*
Y197344D03*
X336303Y179707D03*
X341500Y131094D03*
X345250Y56094D03*
X350250Y103594D03*
X356303Y179707D03*
X366500Y132344D03*
Y198594D03*
X367553Y103457D03*
X376500Y187344D03*
X386500Y68594D03*
Y103594D03*
X391500Y162344D03*
Y187344D03*
X407750Y103594D03*
Y132344D03*
X411500Y68594D03*
X424000Y209844D03*
X425053Y68457D03*
X426500Y103594D03*
Y132344D03*
Y162344D03*
Y187344D03*
D02*
D78*
X165004Y61094D03*
X175004D03*
X366500Y189844D03*
D02*
D80*
X158803Y88594D03*
X159000Y77344D03*
Y134844D03*
X171500Y157344D03*
X181500Y161094D03*
X184000Y102344D03*
Y119844D03*
X191500Y58594D03*
X195250Y161094D03*
X197750Y157344D03*
X202750Y58594D03*
X212750D03*
X222750D03*
X230250D03*
X240250D03*
X241500Y164844D03*
X247750Y58594D03*
X251500Y167344D03*
X255250Y58594D03*
X260250D03*
X261500Y169844D03*
X269000Y58594D03*
X271500Y157344D03*
X275250Y61094D03*
X282553Y113594D03*
X285053Y115957D03*
X285250Y66094D03*
X290053Y77344D03*
X290250Y63594D03*
X291303Y118457D03*
X310053Y72207D03*
X315053Y69707D03*
X318803Y67207D03*
X322553Y64707D03*
X343803Y75957D03*
X381303Y88594D03*
X400053Y64844D03*
X405053Y88594D03*
X423803Y79707D03*
X424000Y88594D03*
D02*
D81*
X135004Y31754D03*
X145004D03*
X155004D03*
X165004D03*
X175004D03*
X185004D03*
X195004D03*
X205004D03*
X215004D03*
X225004D03*
X235004D03*
X245004D03*
X255004D03*
X265004D03*
X275004D03*
X285004D03*
X295004D03*
X305004D03*
X315004D03*
X325004D03*
X335004D03*
X345004D03*
X355004D03*
X365004D03*
X375004D03*
D02*
D83*
X186510Y82344D03*
D02*
D84*
Y142344D03*
X196510Y82344D03*
Y142344D03*
X206510Y82344D03*
Y142344D03*
X216510Y82344D03*
Y142344D03*
X226510Y82344D03*
Y142344D03*
X236510Y82344D03*
Y142344D03*
X246510Y82344D03*
Y142344D03*
X256510Y82344D03*
Y142344D03*
X266510Y82344D03*
Y142344D03*
X276510Y82344D03*
Y142344D03*
X286510Y82344D03*
Y142344D03*
X296510Y82344D03*
Y142344D03*
X306510Y82344D03*
Y142344D03*
X316510Y82344D03*
Y142344D03*
X326510Y82344D03*
Y142344D03*
X336510Y82344D03*
Y142344D03*
D02*
D86*
X125053Y172344D03*
Y192344D03*
X131500Y130957D03*
Y140957D03*
X145250Y196094D03*
X151500Y130957D03*
Y140957D03*
X165250Y196094D03*
X191500D03*
X211500D03*
X261500D03*
X281500D03*
X396500D03*
X416500D03*
D02*
D89*
X141500Y151719D03*
D02*
D90*
Y182970D03*
X151500Y151719D03*
Y182970D03*
X161500Y151719D03*
Y182970D03*
X171500Y151719D03*
Y182970D03*
X181500Y151719D03*
Y182970D03*
X191500Y151719D03*
Y182970D03*
X201500Y151719D03*
Y182970D03*
X211500Y151719D03*
Y182970D03*
X221500Y151719D03*
Y182970D03*
X231500Y151719D03*
Y182970D03*
X241500Y151719D03*
Y182970D03*
X251500Y151719D03*
Y182970D03*
X261500Y151719D03*
Y182970D03*
X271500Y151719D03*
Y182970D03*
D02*
D91*
X226657Y193457D03*
X236500D03*
X246343D03*
D02*
D92*
X291500Y151715D03*
X361500Y112344D03*
D02*
D93*
X291500Y182974D03*
X301500Y151715D03*
Y182974D03*
X311500Y151715D03*
Y182974D03*
X321500Y151715D03*
Y182974D03*
X331500Y151715D03*
Y182974D03*
X341500Y151715D03*
Y182974D03*
X351500Y151715D03*
Y182974D03*
X361500Y142344D03*
Y151715D03*
Y182974D03*
X371500Y112344D03*
Y142344D03*
Y151715D03*
Y182974D03*
X381500Y112344D03*
Y142344D03*
Y151715D03*
Y182974D03*
X391500Y112344D03*
Y142344D03*
X401500Y112344D03*
Y142344D03*
X411500Y112344D03*
Y142344D03*
X421500Y112344D03*
Y142344D03*
D02*
D94*
X93016Y86094D03*
Y103811D03*
X118606Y86094D03*
Y103811D03*
D02*
D95*
X106344Y141341D03*
Y151341D03*
Y161341D03*
Y171341D03*
Y181341D03*
Y191341D03*
D02*
D96*
X56344Y141341D03*
Y191341D03*
X66344Y141341D03*
Y191341D03*
D02*
D97*
X155575Y168207D03*
D02*
D86*
Y169707D03*
D02*
D97*
X163429Y168207D03*
D02*
D86*
Y169707D03*
D02*
D97*
X171303Y168207D03*
D02*
D86*
Y169707D03*
D02*
D97*
X179177Y168207D03*
D02*
D86*
Y169707D03*
D02*
D99*
X76618Y209844D03*
X81539D03*
X86461D03*
X91382D03*
X111618D03*
X116539D03*
X121461D03*
X126382D03*
X146618D03*
X151539D03*
X156461D03*
X161382D03*
X181618D03*
X186539D03*
X191461D03*
X196382D03*
X216618D03*
X221539D03*
X226461D03*
X231382D03*
X251618D03*
X256539D03*
X261461D03*
X266382D03*
X286618D03*
X291539D03*
X296461D03*
X301382D03*
X321618D03*
X326539D03*
X331461D03*
X336382D03*
X356618D03*
X361539D03*
X366461D03*
X371382D03*
X391618D03*
X396539D03*
X401461D03*
X406382D03*
D02*
D100*
X57012Y118457D03*
X151500D03*
D02*
D121*
X54707D02*
X52707D01*
X57012Y116152D02*
Y114152D01*
Y120762D02*
Y122762D01*
X59317Y118457D02*
X61317D01*
X149195D02*
X147195D01*
X151500Y116152D02*
Y114152D01*
Y120762D02*
Y122762D01*
X153805Y118457D02*
X155805D01*
X171303Y167207D02*
Y165207D01*
D02*
D131*
X125053Y151341D03*
Y161341D03*
X0Y0D02*
M02*
