G05
M48
;#@! TF.GenerationSoftware,DesignSpark,DesignSpark PCB PRO,10.0.5299
;#@! TF.CreationDate,2023-01-31T09:34:56--9:00*
;#@! TF.FileFunction,Plated,1,2,Buried
;FILE_FORMAT=3:5
;TYPE=PLATED
INCH,TZ
FMAT,2
T1C000.01181
T2C000.01600
T3C000.02362
T4C000.02400
T5C000.02874
T6C000.02886
T7C000.02984
T8C000.03500
T9C000.03740
T10C000.03937
T11C000.18504
%
T001
X1.58803Y0.88594
X1.59000Y0.77344
X1.59000Y1.34844
X1.71500Y1.57344
X1.81500Y1.61094
X1.84000Y1.02344
X1.84000Y1.19844
X1.91500Y0.58594
X1.95250Y1.61094
X1.97750Y1.57344
X2.02750Y0.58594
X2.12750Y0.58594
X2.22750Y0.58594
X2.30250Y0.58594
X2.40250Y0.58594
X2.41500Y1.64844
X2.47750Y0.58594
X2.51500Y1.67344
X2.55250Y0.58594
X2.60250Y0.58594
X2.61500Y1.69844
X2.69000Y0.58594
X2.71500Y1.57344
X2.75250Y0.61094
X2.82553Y1.13594
X2.85053Y1.15957
X2.85250Y0.66094
X2.90053Y0.77344
X2.90250Y0.63594
X2.91303Y1.18457
X3.10053Y0.72207
X3.15053Y0.69707
X3.18803Y0.67207
X3.22553Y0.64707
X3.43803Y0.75957
X3.81303Y0.88594
X4.00053Y0.64844
X4.05053Y0.88594
X4.23803Y0.79707
X4.24000Y0.88594
T002
X0.40250Y1.88594
X0.40250Y2.11094
X0.41500Y1.07344
X0.41500Y1.32344
X0.52750Y1.53594
X0.52750Y1.77344
X0.61500Y1.53594
X0.61500Y1.77344
X0.62750Y2.11094
X0.71500Y1.07344
X0.79000Y0.62344
X0.79000Y0.89844
X0.97750Y1.14707
X0.97750Y1.22207
X1.05250Y1.14707
X1.05250Y1.22207
X1.07750Y0.62344
X1.07750Y0.88594
X1.12750Y1.14707
X1.12750Y1.22207
X1.34000Y0.59844
X1.34000Y0.68594
X1.34000Y0.78594
X1.41303Y1.05957
X1.41303Y1.13594
X1.41303Y1.24707
X1.56500Y1.89844
X1.76500Y1.89844
X1.77750Y0.82344
X1.87553Y0.65957
X1.91500Y1.21094
X1.91500Y1.31094
X1.96500Y1.89844
X1.98803Y0.65957
X2.06500Y1.73594
X2.11500Y1.37344
X2.16303Y0.65957
X2.16500Y1.73594
X2.21500Y1.37344
X2.31303Y0.75957
X2.31500Y1.37344
X2.51500Y1.37344
X2.61500Y0.87344
X2.61500Y1.37344
X2.66500Y1.89844
X2.71500Y0.87344
X2.71500Y1.37344
X2.91500Y1.37344
X2.95250Y1.98594
X3.05250Y0.56094
X3.16303Y1.79707
X3.25250Y0.56094
X3.31500Y1.03594
X3.31500Y1.97344
X3.36303Y1.79707
X3.41500Y1.31094
X3.45250Y0.56094
X3.50250Y1.03594
X3.56303Y1.79707
X3.66500Y1.32344
X3.66500Y1.98594
X3.67553Y1.03457
X3.76500Y1.87344
X3.86500Y0.68594
X3.86500Y1.03594
X3.91500Y1.62344
X3.91500Y1.87344
X4.07750Y1.03594
X4.07750Y1.32344
X4.11500Y0.68594
X4.24000Y2.09844
X4.25053Y0.68457
X4.26500Y1.03594
X4.26500Y1.32344
X4.26500Y1.62344
X4.26500Y1.87344
T003
X0.76618Y2.09844
X0.81539Y2.09844
X0.86461Y2.09844
X0.91382Y2.09844
X1.11618Y2.09844
X1.16539Y2.09844
X1.21461Y2.09844
X1.26382Y2.09844
X1.46618Y2.09844
X1.51539Y2.09844
X1.56461Y2.09844
X1.61382Y2.09844
X1.81618Y2.09844
X1.86539Y2.09844
X1.91461Y2.09844
X1.96382Y2.09844
X2.16618Y2.09844
X2.21539Y2.09844
X2.26461Y2.09844
X2.31382Y2.09844
X2.51618Y2.09844
X2.56539Y2.09844
X2.61461Y2.09844
X2.66382Y2.09844
X2.86618Y2.09844
X2.91539Y2.09844
X2.96461Y2.09844
X3.01382Y2.09844
X3.21618Y2.09844
X3.26539Y2.09844
X3.31461Y2.09844
X3.36382Y2.09844
X3.56618Y2.09844
X3.61539Y2.09844
X3.66461Y2.09844
X3.71382Y2.09844
X3.91618Y2.09844
X3.96539Y2.09844
X4.01461Y2.09844
X4.06382Y2.09844
T004
X1.65004Y0.61094
X1.75004Y0.61094
X3.66500Y1.89844
T005
X2.26657Y1.93457
X2.36500Y1.93457
X2.46343Y1.93457
X2.91500Y1.51715
X2.91500Y1.82974
X3.01500Y1.51715
X3.01500Y1.82974
X3.11500Y1.51715
X3.11500Y1.82974
X3.21500Y1.51715
X3.21500Y1.82974
X3.31500Y1.51715
X3.31500Y1.82974
X3.41500Y1.51715
X3.41500Y1.82974
X3.51500Y1.51715
X3.51500Y1.82974
X3.61500Y1.12344
X3.61500Y1.42344
X3.61500Y1.51715
X3.61500Y1.82974
X3.71500Y1.12344
X3.71500Y1.42344
X3.71500Y1.51715
X3.71500Y1.82974
X3.81500Y1.12344
X3.81500Y1.42344
X3.81500Y1.51715
X3.81500Y1.82974
X3.91500Y1.12344
X3.91500Y1.42344
X4.01500Y1.12344
X4.01500Y1.42344
X4.11500Y1.12344
X4.11500Y1.42344
X4.21500Y1.12344
X4.21500Y1.42344
T006
X1.41500Y1.51719
X1.41500Y1.82970
X1.51500Y1.51719
X1.51500Y1.82970
X1.61500Y1.51719
X1.61500Y1.82970
X1.71500Y1.51719
X1.71500Y1.82970
X1.81500Y1.51719
X1.81500Y1.82970
X1.91500Y1.51719
X1.91500Y1.82970
X2.01500Y1.51719
X2.01500Y1.82970
X2.11500Y1.51719
X2.11500Y1.82970
X2.21500Y1.51719
X2.21500Y1.82970
X2.31500Y1.51719
X2.31500Y1.82970
X2.41500Y1.51719
X2.41500Y1.82970
X2.51500Y1.51719
X2.51500Y1.82970
X2.61500Y1.51719
X2.61500Y1.82970
X2.71500Y1.51719
X2.71500Y1.82970
T007
X1.86510Y0.82344
X1.86510Y1.42344
X1.96510Y0.82344
X1.96510Y1.42344
X2.06510Y0.82344
X2.06510Y1.42344
X2.16510Y0.82344
X2.16510Y1.42344
X2.26510Y0.82344
X2.26510Y1.42344
X2.36510Y0.82344
X2.36510Y1.42344
X2.46510Y0.82344
X2.46510Y1.42344
X2.56510Y0.82344
X2.56510Y1.42344
X2.66510Y0.82344
X2.66510Y1.42344
X2.76510Y0.82344
X2.76510Y1.42344
X2.86510Y0.82344
X2.86510Y1.42344
X2.96510Y0.82344
X2.96510Y1.42344
X3.06510Y0.82344
X3.06510Y1.42344
X3.16510Y0.82344
X3.16510Y1.42344
X3.26510Y0.82344
X3.26510Y1.42344
X3.36510Y0.82344
X3.36510Y1.42344
T008
X1.25053Y1.51341
X1.25053Y1.61341
X1.25053Y1.72344
X1.25053Y1.92344
X1.31500Y1.30957
X1.31500Y1.40957
X1.45250Y1.96094
X1.51500Y1.30957
X1.51500Y1.40957
X1.65250Y1.96094
X1.91500Y1.96094
X2.11500Y1.96094
X2.61500Y1.96094
X2.81500Y1.96094
X3.96500Y1.96094
X4.16500Y1.96094
T009
X0.57012Y1.18457
X1.51500Y1.18457
T010
X0.56344Y1.41341
X0.56344Y1.91341
X0.66344Y1.41341
X0.66344Y1.91341
X0.93016Y0.86094
X0.93016Y1.03811
X1.06344Y1.41341
X1.06344Y1.51341
X1.06344Y1.61341
X1.06344Y1.71341
X1.06344Y1.81341
X1.06344Y1.91341
X1.18606Y0.86094
X1.18606Y1.03811
T011
X1.44453Y0.91596
X3.65555Y0.72699
M30
