G04 DesignSpark PCB PRO Gerber Version 10.0 Build 5299*
G04 #@! TF.Part,Single*
G04 #@! TF.FilePolarity,Positive*
%FSLAX35Y35*%
%MOIN*%
G04 #@! TA.AperFunction,ViaDrill*
%ADD71C,0.01181*%
%ADD20C,0.01600*%
G04 #@! TA.AperFunction,ComponentDrill*
%ADD128C,0.02362*%
G04 #@! TA.AperFunction,ViaDrill*
%ADD122C,0.02400*%
G04 #@! TA.AperFunction,ComponentDrill*
%ADD126C,0.02874*%
%ADD125C,0.02886*%
%ADD123C,0.02984*%
%ADD124C,0.03500*%
%ADD129C,0.03740*%
%ADD127C,0.03937*%
G04 #@! TA.AperFunction,MechanicalDrill*
%ADD21C,0.18504*%
G04 #@! TD.AperFunction*
X0Y0D02*
D02*
D71*
X158803Y88594D03*
X159000Y77344D03*
Y134844D03*
X171500Y157344D03*
X181500Y161094D03*
X184000Y102344D03*
Y119844D03*
X191500Y58594D03*
X195250Y161094D03*
X197750Y157344D03*
X202750Y58594D03*
X212750D03*
X222750D03*
X230250D03*
X240250D03*
X241500Y164844D03*
X247750Y58594D03*
X251500Y167344D03*
X255250Y58594D03*
X260250D03*
X261500Y169844D03*
X269000Y58594D03*
X271500Y157344D03*
X275250Y61094D03*
X282553Y113594D03*
X285053Y115957D03*
X285250Y66094D03*
X290053Y77344D03*
X290250Y63594D03*
X291303Y118457D03*
X310053Y72207D03*
X315053Y69707D03*
X318803Y67207D03*
X322553Y64707D03*
X343803Y75957D03*
X381303Y88594D03*
X400053Y64844D03*
X405053Y88594D03*
X423803Y79707D03*
X424000Y88594D03*
D02*
D20*
X40250Y188594D03*
Y211094D03*
X41500Y107344D03*
Y132344D03*
X52750Y153594D03*
Y177344D03*
X61500Y153594D03*
Y177344D03*
X62750Y211094D03*
X71500Y107344D03*
X79000Y62344D03*
Y89844D03*
X97750Y114707D03*
Y122207D03*
X105250Y114707D03*
Y122207D03*
X107750Y62344D03*
Y88594D03*
X112750Y114707D03*
Y122207D03*
X134000Y59844D03*
Y68594D03*
Y78594D03*
X141303Y105957D03*
Y113594D03*
Y124707D03*
X156500Y189844D03*
X176500D03*
X177750Y82344D03*
X187553Y65957D03*
X191500Y121094D03*
Y131094D03*
X196500Y189844D03*
X198803Y65957D03*
X206500Y173594D03*
X211500Y137344D03*
X216303Y65957D03*
X216500Y173594D03*
X221500Y137344D03*
X231303Y75957D03*
X231500Y137344D03*
X251500D03*
X261500Y87344D03*
Y137344D03*
X266500Y189844D03*
X271500Y87344D03*
Y137344D03*
X291500D03*
X295250Y198594D03*
X305250Y56094D03*
X316303Y179707D03*
X325250Y56094D03*
X331500Y103594D03*
Y197344D03*
X336303Y179707D03*
X341500Y131094D03*
X345250Y56094D03*
X350250Y103594D03*
X356303Y179707D03*
X366500Y132344D03*
Y198594D03*
X367553Y103457D03*
X376500Y187344D03*
X386500Y68594D03*
Y103594D03*
X391500Y162344D03*
Y187344D03*
X407750Y103594D03*
Y132344D03*
X411500Y68594D03*
X424000Y209844D03*
X425053Y68457D03*
X426500Y103594D03*
Y132344D03*
Y162344D03*
Y187344D03*
D02*
D21*
X144453Y91596D03*
X365555Y72699D03*
D02*
D122*
X165004Y61094D03*
X175004D03*
X366500Y189844D03*
D02*
D123*
X186510Y82344D03*
Y142344D03*
X196510Y82344D03*
Y142344D03*
X206510Y82344D03*
Y142344D03*
X216510Y82344D03*
Y142344D03*
X226510Y82344D03*
Y142344D03*
X236510Y82344D03*
Y142344D03*
X246510Y82344D03*
Y142344D03*
X256510Y82344D03*
Y142344D03*
X266510Y82344D03*
Y142344D03*
X276510Y82344D03*
Y142344D03*
X286510Y82344D03*
Y142344D03*
X296510Y82344D03*
Y142344D03*
X306510Y82344D03*
Y142344D03*
X316510Y82344D03*
Y142344D03*
X326510Y82344D03*
Y142344D03*
X336510Y82344D03*
Y142344D03*
D02*
D124*
X125053Y151341D03*
Y161341D03*
Y172344D03*
Y192344D03*
X131500Y130957D03*
Y140957D03*
X145250Y196094D03*
X151500Y130957D03*
Y140957D03*
X165250Y196094D03*
X191500D03*
X211500D03*
X261500D03*
X281500D03*
X396500D03*
X416500D03*
D02*
D125*
X141500Y151719D03*
Y182970D03*
X151500Y151719D03*
Y182970D03*
X161500Y151719D03*
Y182970D03*
X171500Y151719D03*
Y182970D03*
X181500Y151719D03*
Y182970D03*
X191500Y151719D03*
Y182970D03*
X201500Y151719D03*
Y182970D03*
X211500Y151719D03*
Y182970D03*
X221500Y151719D03*
Y182970D03*
X231500Y151719D03*
Y182970D03*
X241500Y151719D03*
Y182970D03*
X251500Y151719D03*
Y182970D03*
X261500Y151719D03*
Y182970D03*
X271500Y151719D03*
Y182970D03*
D02*
D126*
X226657Y193457D03*
X236500D03*
X246343D03*
X291500Y151715D03*
Y182974D03*
X301500Y151715D03*
Y182974D03*
X311500Y151715D03*
Y182974D03*
X321500Y151715D03*
Y182974D03*
X331500Y151715D03*
Y182974D03*
X341500Y151715D03*
Y182974D03*
X351500Y151715D03*
Y182974D03*
X361500Y112344D03*
Y142344D03*
Y151715D03*
Y182974D03*
X371500Y112344D03*
Y142344D03*
Y151715D03*
Y182974D03*
X381500Y112344D03*
Y142344D03*
Y151715D03*
Y182974D03*
X391500Y112344D03*
Y142344D03*
X401500Y112344D03*
Y142344D03*
X411500Y112344D03*
Y142344D03*
X421500Y112344D03*
Y142344D03*
D02*
D127*
X56344Y141341D03*
Y191341D03*
X66344Y141341D03*
Y191341D03*
X93016Y86094D03*
Y103811D03*
X106344Y141341D03*
Y151341D03*
Y161341D03*
Y171341D03*
Y181341D03*
Y191341D03*
X118606Y86094D03*
Y103811D03*
D02*
D128*
X76618Y209844D03*
X81539D03*
X86461D03*
X91382D03*
X111618D03*
X116539D03*
X121461D03*
X126382D03*
X146618D03*
X151539D03*
X156461D03*
X161382D03*
X181618D03*
X186539D03*
X191461D03*
X196382D03*
X216618D03*
X221539D03*
X226461D03*
X231382D03*
X251618D03*
X256539D03*
X261461D03*
X266382D03*
X286618D03*
X291539D03*
X296461D03*
X301382D03*
X321618D03*
X326539D03*
X331461D03*
X336382D03*
X356618D03*
X361539D03*
X366461D03*
X371382D03*
X391618D03*
X396539D03*
X401461D03*
X406382D03*
D02*
D129*
X57012Y118457D03*
X151500D03*
X0Y0D02*
M02*
