G04 DesignSpark PCB PRO Gerber Version 10.0 Build 5299*
G04 #@! TF.Part,Single*
G04 #@! TF.FileFunction,Drillmap*
G04 #@! TF.FilePolarity,Positive*
%FSLAX35Y35*%
%MOIN*%
%ADD19C,0.00500*%
G04 #@! TA.AperFunction,WasherPad*
%ADD24C,0.10000*%
G04 #@! TD.AperFunction*
X0Y0D02*
D02*
D19*
X52437Y196094D02*
X53375D01*
Y195782D01*
X53063Y195157D01*
X52750Y194844D01*
X52125Y194532D01*
X51500D01*
X50875Y194844D01*
X50563Y195157D01*
X50250Y195782D01*
Y197032D01*
X50563Y197657D01*
X50875Y197970D01*
X51500Y198282D01*
X52125D01*
X52750Y197970D01*
X53063Y197657D01*
X53375Y197032D01*
X52437Y218594D02*
X53375D01*
Y218282D01*
X53063Y217657D01*
X52750Y217344D01*
X52125Y217032D01*
X51500D01*
X50875Y217344D01*
X50563Y217657D01*
X50250Y218282D01*
Y219532D01*
X50563Y220157D01*
X50875Y220470D01*
X51500Y220782D01*
X52125D01*
X52750Y220470D01*
X53063Y220157D01*
X53375Y219532D01*
X53687Y114844D02*
X54625D01*
Y114532D01*
X54313Y113907D01*
X54000Y113594D01*
X53375Y113282D01*
X52750D01*
X52125Y113594D01*
X51813Y113907D01*
X51500Y114532D01*
Y115782D01*
X51813Y116407D01*
X52125Y116720D01*
X52750Y117032D01*
X53375D01*
X54000Y116720D01*
X54313Y116407D01*
X54625Y115782D01*
X53687Y139844D02*
X54625D01*
Y139532D01*
X54313Y138907D01*
X54000Y138594D01*
X53375Y138282D01*
X52750D01*
X52125Y138594D01*
X51813Y138907D01*
X51500Y139532D01*
Y140782D01*
X51813Y141407D01*
X52125Y141720D01*
X52750Y142032D01*
X53375D01*
X54000Y141720D01*
X54313Y141407D01*
X54625Y140782D01*
X64937Y161094D02*
X65875D01*
Y160782D01*
X65563Y160157D01*
X65250Y159844D01*
X64625Y159532D01*
X64000D01*
X63375Y159844D01*
X63063Y160157D01*
X62750Y160782D01*
Y162032D01*
X63063Y162657D01*
X63375Y162970D01*
X64000Y163282D01*
X64625D01*
X65250Y162970D01*
X65563Y162657D01*
X65875Y162032D01*
X64937Y184844D02*
X65875D01*
Y184532D01*
X65563Y183907D01*
X65250Y183594D01*
X64625Y183282D01*
X64000D01*
X63375Y183594D01*
X63063Y183907D01*
X62750Y184532D01*
Y185782D01*
X63063Y186407D01*
X63375Y186720D01*
X64000Y187032D01*
X64625D01*
X65250Y186720D01*
X65563Y186407D01*
X65875Y185782D01*
X69470Y147903D02*
X69157Y147591D01*
X68532Y147278D01*
X67594D01*
X66970Y147591D01*
X66657Y147903D01*
X66344Y148528D01*
Y149778D01*
X66657Y150403D01*
X66970Y150716D01*
X67594Y151028D01*
X68532D01*
X69157Y150716D01*
X69470Y150403D01*
Y197903D02*
X69157Y197591D01*
X68532Y197278D01*
X67594D01*
X66970Y197591D01*
X66657Y197903D01*
X66344Y198528D01*
Y199778D01*
X66657Y200403D01*
X66970Y200716D01*
X67594Y201028D01*
X68532D01*
X69157Y200716D01*
X69470Y200403D01*
X67012Y124394D02*
X68574Y128144D01*
X70137Y124394D01*
X67637Y125957D02*
X69512D01*
X72012Y128144D02*
Y125332D01*
X72324Y124707D01*
X72949Y124394D01*
X74199D01*
X74824Y124707D01*
X75137Y125332D01*
Y128144D01*
X73687Y161094D02*
X74625D01*
Y160782D01*
X74313Y160157D01*
X74000Y159844D01*
X73375Y159532D01*
X72750D01*
X72125Y159844D01*
X71813Y160157D01*
X71500Y160782D01*
Y162032D01*
X71813Y162657D01*
X72125Y162970D01*
X72750Y163282D01*
X73375D01*
X74000Y162970D01*
X74313Y162657D01*
X74625Y162032D01*
X73687Y184844D02*
X74625D01*
Y184532D01*
X74313Y183907D01*
X74000Y183594D01*
X73375Y183282D01*
X72750D01*
X72125Y183594D01*
X71813Y183907D01*
X71500Y184532D01*
Y185782D01*
X71813Y186407D01*
X72125Y186720D01*
X72750Y187032D01*
X73375D01*
X74000Y186720D01*
X74313Y186407D01*
X74625Y185782D01*
X74937Y218594D02*
X75875D01*
Y218282D01*
X75563Y217657D01*
X75250Y217344D01*
X74625Y217032D01*
X74000D01*
X73375Y217344D01*
X73063Y217657D01*
X72750Y218282D01*
Y219532D01*
X73063Y220157D01*
X73375Y220470D01*
X74000Y220782D01*
X74625D01*
X75250Y220470D01*
X75563Y220157D01*
X75875Y219532D01*
X79470Y147903D02*
X79157Y147591D01*
X78532Y147278D01*
X77594D01*
X76970Y147591D01*
X76657Y147903D01*
X76344Y148528D01*
Y149778D01*
X76657Y150403D01*
X76970Y150716D01*
X77594Y151028D01*
X78532D01*
X79157Y150716D01*
X79470Y150403D01*
Y197903D02*
X79157Y197591D01*
X78532Y197278D01*
X77594D01*
X76970Y197591D01*
X76657Y197903D01*
X76344Y198528D01*
Y199778D01*
X76657Y200403D01*
X76970Y200716D01*
X77594Y201028D01*
X78532D01*
X79157Y200716D01*
X79470Y200403D01*
X83687Y114844D02*
X84625D01*
Y114532D01*
X84313Y113907D01*
X84000Y113594D01*
X83375Y113282D01*
X82750D01*
X82125Y113594D01*
X81813Y113907D01*
X81500Y114532D01*
Y115782D01*
X81813Y116407D01*
X82125Y116720D01*
X82750Y117032D01*
X83375D01*
X84000Y116720D01*
X84313Y116407D01*
X84625Y115782D01*
X86618Y215782D02*
X88181Y219532D01*
X89743Y215782D01*
X87243Y217344D02*
X89118D01*
X93806D02*
X94743D01*
Y217032D01*
X94431Y216407D01*
X94118Y216094D01*
X93493Y215782D01*
X92868D01*
X92243Y216094D01*
X91931Y216407D01*
X91618Y217032D01*
Y218282D01*
X91931Y218907D01*
X92243Y219220D01*
X92868Y219532D01*
X93493D01*
X94118Y219220D01*
X94431Y218907D01*
X94743Y218282D01*
X91187Y69844D02*
X92125D01*
Y69532D01*
X91813Y68907D01*
X91500Y68594D01*
X90875Y68282D01*
X90250D01*
X89625Y68594D01*
X89313Y68907D01*
X89000Y69532D01*
Y70782D01*
X89313Y71407D01*
X89625Y71720D01*
X90250Y72032D01*
X90875D01*
X91500Y71720D01*
X91813Y71407D01*
X92125Y70782D01*
X91187Y97344D02*
X92125D01*
Y97032D01*
X91813Y96407D01*
X91500Y96094D01*
X90875Y95782D01*
X90250D01*
X89625Y96094D01*
X89313Y96407D01*
X89000Y97032D01*
Y98282D01*
X89313Y98907D01*
X89625Y99220D01*
X90250Y99532D01*
X90875D01*
X91500Y99220D01*
X91813Y98907D01*
X92125Y98282D01*
X91539Y215782D02*
X93102Y219532D01*
X94665Y215782D01*
X92165Y217344D02*
X94039D01*
X98727D02*
X99665D01*
Y217032D01*
X99352Y216407D01*
X99039Y216094D01*
X98415Y215782D01*
X97789D01*
X97165Y216094D01*
X96852Y216407D01*
X96539Y217032D01*
Y218282D01*
X96852Y218907D01*
X97165Y219220D01*
X97789Y219532D01*
X98415D01*
X99039Y219220D01*
X99352Y218907D01*
X99665Y218282D01*
X96461Y215782D02*
X98023Y219532D01*
X99586Y215782D01*
X97086Y217344D02*
X98961D01*
X103648D02*
X104586D01*
Y217032D01*
X104273Y216407D01*
X103961Y216094D01*
X103336Y215782D01*
X102711D01*
X102086Y216094D01*
X101773Y216407D01*
X101461Y217032D01*
Y218282D01*
X101773Y218907D01*
X102086Y219220D01*
X102711Y219532D01*
X103336D01*
X103961Y219220D01*
X104273Y218907D01*
X104586Y218282D01*
X101382Y215782D02*
X102944Y219532D01*
X104507Y215782D01*
X102007Y217344D02*
X103882D01*
X108569D02*
X109507D01*
Y217032D01*
X109194Y216407D01*
X108882Y216094D01*
X108257Y215782D01*
X107632D01*
X107007Y216094D01*
X106694Y216407D01*
X106382Y217032D01*
Y218282D01*
X106694Y218907D01*
X107007Y219220D01*
X107632Y219532D01*
X108257D01*
X108882Y219220D01*
X109194Y218907D01*
X109507Y218282D01*
X106141Y92657D02*
X105828Y92344D01*
X105203Y92032D01*
X104266D01*
X103641Y92344D01*
X103328Y92657D01*
X103016Y93282D01*
Y94532D01*
X103328Y95157D01*
X103641Y95470D01*
X104266Y95782D01*
X105203D01*
X105828Y95470D01*
X106141Y95157D01*
Y110374D02*
X105828Y110061D01*
X105203Y109748D01*
X104266D01*
X103641Y110061D01*
X103328Y110374D01*
X103016Y110998D01*
Y112248D01*
X103328Y112874D01*
X103641Y113186D01*
X104266Y113498D01*
X105203D01*
X105828Y113186D01*
X106141Y112874D01*
X109937Y122207D02*
X110875D01*
Y121894D01*
X110563Y121269D01*
X110250Y120957D01*
X109625Y120644D01*
X109000D01*
X108375Y120957D01*
X108063Y121269D01*
X107750Y121894D01*
Y123144D01*
X108063Y123769D01*
X108375Y124082D01*
X109000Y124394D01*
X109625D01*
X110250Y124082D01*
X110563Y123769D01*
X110875Y123144D01*
X109937Y129707D02*
X110875D01*
Y129394D01*
X110563Y128769D01*
X110250Y128457D01*
X109625Y128144D01*
X109000D01*
X108375Y128457D01*
X108063Y128769D01*
X107750Y129394D01*
Y130644D01*
X108063Y131269D01*
X108375Y131582D01*
X109000Y131894D01*
X109625D01*
X110250Y131582D01*
X110563Y131269D01*
X110875Y130644D01*
X117437Y122207D02*
X118375D01*
Y121894D01*
X118063Y121269D01*
X117750Y120957D01*
X117125Y120644D01*
X116500D01*
X115875Y120957D01*
X115563Y121269D01*
X115250Y121894D01*
Y123144D01*
X115563Y123769D01*
X115875Y124082D01*
X116500Y124394D01*
X117125D01*
X117750Y124082D01*
X118063Y123769D01*
X118375Y123144D01*
X117437Y129707D02*
X118375D01*
Y129394D01*
X118063Y128769D01*
X117750Y128457D01*
X117125Y128144D01*
X116500D01*
X115875Y128457D01*
X115563Y128769D01*
X115250Y129394D01*
Y130644D01*
X115563Y131269D01*
X115875Y131582D01*
X116500Y131894D01*
X117125D01*
X117750Y131582D01*
X118063Y131269D01*
X118375Y130644D01*
X119470Y147903D02*
X119157Y147591D01*
X118532Y147278D01*
X117594D01*
X116970Y147591D01*
X116657Y147903D01*
X116344Y148528D01*
Y149778D01*
X116657Y150403D01*
X116970Y150716D01*
X117594Y151028D01*
X118532D01*
X119157Y150716D01*
X119470Y150403D01*
Y157903D02*
X119157Y157591D01*
X118532Y157278D01*
X117594D01*
X116970Y157591D01*
X116657Y157903D01*
X116344Y158528D01*
Y159778D01*
X116657Y160403D01*
X116970Y160716D01*
X117594Y161028D01*
X118532D01*
X119157Y160716D01*
X119470Y160403D01*
Y167903D02*
X119157Y167591D01*
X118532Y167278D01*
X117594D01*
X116970Y167591D01*
X116657Y167903D01*
X116344Y168528D01*
Y169778D01*
X116657Y170403D01*
X116970Y170716D01*
X117594Y171028D01*
X118532D01*
X119157Y170716D01*
X119470Y170403D01*
Y177903D02*
X119157Y177591D01*
X118532Y177278D01*
X117594D01*
X116970Y177591D01*
X116657Y177903D01*
X116344Y178528D01*
Y179778D01*
X116657Y180403D01*
X116970Y180716D01*
X117594Y181028D01*
X118532D01*
X119157Y180716D01*
X119470Y180403D01*
Y187903D02*
X119157Y187591D01*
X118532Y187278D01*
X117594D01*
X116970Y187591D01*
X116657Y187903D01*
X116344Y188528D01*
Y189778D01*
X116657Y190403D01*
X116970Y190716D01*
X117594Y191028D01*
X118532D01*
X119157Y190716D01*
X119470Y190403D01*
Y197903D02*
X119157Y197591D01*
X118532Y197278D01*
X117594D01*
X116970Y197591D01*
X116657Y197903D01*
X116344Y198528D01*
Y199778D01*
X116657Y200403D01*
X116970Y200716D01*
X117594Y201028D01*
X118532D01*
X119157Y200716D01*
X119470Y200403D01*
X119937Y69844D02*
X120875D01*
Y69532D01*
X120563Y68907D01*
X120250Y68594D01*
X119625Y68282D01*
X119000D01*
X118375Y68594D01*
X118063Y68907D01*
X117750Y69532D01*
Y70782D01*
X118063Y71407D01*
X118375Y71720D01*
X119000Y72032D01*
X119625D01*
X120250Y71720D01*
X120563Y71407D01*
X120875Y70782D01*
X119937Y96094D02*
X120875D01*
Y95782D01*
X120563Y95157D01*
X120250Y94844D01*
X119625Y94532D01*
X119000D01*
X118375Y94844D01*
X118063Y95157D01*
X117750Y95782D01*
Y97032D01*
X118063Y97657D01*
X118375Y97970D01*
X119000Y98282D01*
X119625D01*
X120250Y97970D01*
X120563Y97657D01*
X120875Y97032D01*
X121618Y215782D02*
X123181Y219532D01*
X124743Y215782D01*
X122243Y217344D02*
X124118D01*
X128806D02*
X129743D01*
Y217032D01*
X129431Y216407D01*
X129118Y216094D01*
X128493Y215782D01*
X127868D01*
X127243Y216094D01*
X126931Y216407D01*
X126618Y217032D01*
Y218282D01*
X126931Y218907D01*
X127243Y219220D01*
X127868Y219532D01*
X128493D01*
X129118Y219220D01*
X129431Y218907D01*
X129743Y218282D01*
X124937Y122207D02*
X125875D01*
Y121894D01*
X125563Y121269D01*
X125250Y120957D01*
X124625Y120644D01*
X124000D01*
X123375Y120957D01*
X123063Y121269D01*
X122750Y121894D01*
Y123144D01*
X123063Y123769D01*
X123375Y124082D01*
X124000Y124394D01*
X124625D01*
X125250Y124082D01*
X125563Y123769D01*
X125875Y123144D01*
X124937Y129707D02*
X125875D01*
Y129394D01*
X125563Y128769D01*
X125250Y128457D01*
X124625Y128144D01*
X124000D01*
X123375Y128457D01*
X123063Y128769D01*
X122750Y129394D01*
Y130644D01*
X123063Y131269D01*
X123375Y131582D01*
X124000Y131894D01*
X124625D01*
X125250Y131582D01*
X125563Y131269D01*
X125875Y130644D01*
X126539Y215782D02*
X128102Y219532D01*
X129665Y215782D01*
X127165Y217344D02*
X129039D01*
X133727D02*
X134665D01*
Y217032D01*
X134352Y216407D01*
X134039Y216094D01*
X133415Y215782D01*
X132789D01*
X132165Y216094D01*
X131852Y216407D01*
X131539Y217032D01*
Y218282D01*
X131852Y218907D01*
X132165Y219220D01*
X132789Y219532D01*
X133415D01*
X134039Y219220D01*
X134352Y218907D01*
X134665Y218282D01*
X131731Y92657D02*
X131419Y92344D01*
X130794Y92032D01*
X129856D01*
X129231Y92344D01*
X128919Y92657D01*
X128606Y93282D01*
Y94532D01*
X128919Y95157D01*
X129231Y95470D01*
X129856Y95782D01*
X130794D01*
X131419Y95470D01*
X131731Y95157D01*
Y110374D02*
X131419Y110061D01*
X130794Y109748D01*
X129856D01*
X129231Y110061D01*
X128919Y110374D01*
X128606Y110998D01*
Y112248D01*
X128919Y112874D01*
X129231Y113186D01*
X129856Y113498D01*
X130794D01*
X131419Y113186D01*
X131731Y112874D01*
X131461Y215782D02*
X133023Y219532D01*
X134586Y215782D01*
X132086Y217344D02*
X133961D01*
X138648D02*
X139586D01*
Y217032D01*
X139273Y216407D01*
X138961Y216094D01*
X138336Y215782D01*
X137711D01*
X137086Y216094D01*
X136773Y216407D01*
X136461Y217032D01*
Y218282D01*
X136773Y218907D01*
X137086Y219220D01*
X137711Y219532D01*
X138336D01*
X138961Y219220D01*
X139273Y218907D01*
X139586Y218282D01*
X135053Y157278D02*
Y161028D01*
Y159153D02*
X135991D01*
X138178Y161028D01*
X135991Y159153D02*
X138178Y157278D01*
X135053Y167278D02*
Y171028D01*
Y169153D02*
X135991D01*
X138178Y171028D01*
X135991Y169153D02*
X138178Y167278D01*
X135053Y178282D02*
Y182032D01*
Y180157D02*
X135991D01*
X138178Y182032D01*
X135991Y180157D02*
X138178Y178282D01*
X135053Y198282D02*
Y202032D01*
Y200157D02*
X135991D01*
X138178Y202032D01*
X135991Y200157D02*
X138178Y198282D01*
X136382Y215782D02*
X137944Y219532D01*
X139507Y215782D01*
X137007Y217344D02*
X138882D01*
X143569D02*
X144507D01*
Y217032D01*
X144194Y216407D01*
X143882Y216094D01*
X143257Y215782D01*
X142632D01*
X142007Y216094D01*
X141694Y216407D01*
X141382Y217032D01*
Y218282D01*
X141694Y218907D01*
X142007Y219220D01*
X142632Y219532D01*
X143257D01*
X143882Y219220D01*
X144194Y218907D01*
X144507Y218282D01*
X141500Y136894D02*
Y140644D01*
Y138769D02*
X142437D01*
X144625Y140644D01*
X142437Y138769D02*
X144625Y136894D01*
X141500Y146894D02*
Y150644D01*
Y148769D02*
X142437D01*
X144625Y150644D01*
X142437Y148769D02*
X144625Y146894D01*
X146187Y67344D02*
X147125D01*
Y67032D01*
X146813Y66407D01*
X146500Y66094D01*
X145875Y65782D01*
X145250D01*
X144625Y66094D01*
X144313Y66407D01*
X144000Y67032D01*
Y68282D01*
X144313Y68907D01*
X144625Y69220D01*
X145250Y69532D01*
X145875D01*
X146500Y69220D01*
X146813Y68907D01*
X147125Y68282D01*
X146187Y76094D02*
X147125D01*
Y75782D01*
X146813Y75157D01*
X146500Y74844D01*
X145875Y74532D01*
X145250D01*
X144625Y74844D01*
X144313Y75157D01*
X144000Y75782D01*
Y77032D01*
X144313Y77657D01*
X144625Y77970D01*
X145250Y78282D01*
X145875D01*
X146500Y77970D01*
X146813Y77657D01*
X147125Y77032D01*
X146187Y86094D02*
X147125D01*
Y85782D01*
X146813Y85157D01*
X146500Y84844D01*
X145875Y84532D01*
X145250D01*
X144625Y84844D01*
X144313Y85157D01*
X144000Y85782D01*
Y87032D01*
X144313Y87657D01*
X144625Y87970D01*
X145250Y88282D01*
X145875D01*
X146500Y87970D01*
X146813Y87657D01*
X147125Y87032D01*
X153491Y113457D02*
X154428D01*
Y113144D01*
X154116Y112519D01*
X153803Y112207D01*
X153178Y111894D01*
X152553D01*
X151928Y112207D01*
X151616Y112519D01*
X151303Y113144D01*
Y114394D01*
X151616Y115019D01*
X151928Y115332D01*
X152553Y115644D01*
X153178D01*
X153803Y115332D01*
X154116Y115019D01*
X154428Y114394D01*
X153491Y121094D02*
X154428D01*
Y120782D01*
X154116Y120157D01*
X153803Y119844D01*
X153178Y119532D01*
X152553D01*
X151928Y119844D01*
X151616Y120157D01*
X151303Y120782D01*
Y122032D01*
X151616Y122657D01*
X151928Y122970D01*
X152553Y123282D01*
X153178D01*
X153803Y122970D01*
X154116Y122657D01*
X154428Y122032D01*
X153491Y132207D02*
X154428D01*
Y131894D01*
X154116Y131269D01*
X153803Y130957D01*
X153178Y130644D01*
X152553D01*
X151928Y130957D01*
X151616Y131269D01*
X151303Y131894D01*
Y133144D01*
X151616Y133769D01*
X151928Y134082D01*
X152553Y134394D01*
X153178D01*
X153803Y134082D01*
X154116Y133769D01*
X154428Y133144D01*
X151500Y157656D02*
X153063Y161406D01*
X154625Y157656D01*
X152125Y159219D02*
X154000D01*
X158063Y157656D02*
Y161406D01*
X156500D02*
X159625D01*
X151500Y188908D02*
X153063Y192658D01*
X154625Y188908D01*
X152125Y190470D02*
X154000D01*
X158063Y188908D02*
Y192658D01*
X156500D02*
X159625D01*
X154453Y97534D02*
Y101284D01*
Y99409D02*
X157578D01*
Y97534D02*
Y101284D01*
X155250Y202032D02*
Y205782D01*
Y203907D02*
X156187D01*
X158375Y205782D01*
X156187Y203907D02*
X158375Y202032D01*
X156618Y215782D02*
X158181Y219532D01*
X159743Y215782D01*
X157243Y217344D02*
X159118D01*
X163806D02*
X164743D01*
Y217032D01*
X164431Y216407D01*
X164118Y216094D01*
X163493Y215782D01*
X162868D01*
X162243Y216094D01*
X161931Y216407D01*
X161618Y217032D01*
Y218282D01*
X161931Y218907D01*
X162243Y219220D01*
X162868Y219532D01*
X163493D01*
X164118Y219220D01*
X164431Y218907D01*
X164743Y218282D01*
X161500Y124394D02*
X163063Y128144D01*
X164625Y124394D01*
X162125Y125957D02*
X164000D01*
X166500Y128144D02*
Y125332D01*
X166813Y124707D01*
X167437Y124394D01*
X168687D01*
X169313Y124707D01*
X169625Y125332D01*
Y128144D01*
X161500Y136894D02*
Y140644D01*
Y138769D02*
X162437D01*
X164625Y140644D01*
X162437Y138769D02*
X164625Y136894D01*
X161500Y146894D02*
Y150644D01*
Y148769D02*
X162437D01*
X164625Y150644D01*
X162437Y148769D02*
X164625Y146894D01*
X161500Y157656D02*
X163063Y161406D01*
X164625Y157656D01*
X162125Y159219D02*
X164000D01*
X168063Y157656D02*
Y161406D01*
X166500D02*
X169625D01*
X161500Y188908D02*
X163063Y192658D01*
X164625Y188908D01*
X162125Y190470D02*
X164000D01*
X168063Y188908D02*
Y192658D01*
X166500D02*
X169625D01*
X161539Y215782D02*
X163102Y219532D01*
X164665Y215782D01*
X162165Y217344D02*
X164039D01*
X168727D02*
X169665D01*
Y217032D01*
X169352Y216407D01*
X169039Y216094D01*
X168415Y215782D01*
X167789D01*
X167165Y216094D01*
X166852Y216407D01*
X166539Y217032D01*
Y218282D01*
X166852Y218907D01*
X167165Y219220D01*
X167789Y219532D01*
X168415D01*
X169039Y219220D01*
X169352Y218907D01*
X169665Y218282D01*
X166461Y215782D02*
X168023Y219532D01*
X169586Y215782D01*
X167086Y217344D02*
X168961D01*
X173648D02*
X174586D01*
Y217032D01*
X174273Y216407D01*
X173961Y216094D01*
X173336Y215782D01*
X172711D01*
X172086Y216094D01*
X171773Y216407D01*
X171461Y217032D01*
Y218282D01*
X171773Y218907D01*
X172086Y219220D01*
X172711Y219532D01*
X173336D01*
X173961Y219220D01*
X174273Y218907D01*
X174586Y218282D01*
X168687Y197344D02*
X169625D01*
Y197032D01*
X169313Y196407D01*
X169000Y196094D01*
X168375Y195782D01*
X167750D01*
X167125Y196094D01*
X166813Y196407D01*
X166500Y197032D01*
Y198282D01*
X166813Y198907D01*
X167125Y199220D01*
X167750Y199532D01*
X168375D01*
X169000Y199220D01*
X169313Y198907D01*
X169625Y198282D01*
X168803Y94532D02*
Y98282D01*
X171928D01*
X171303Y96407D02*
X168803D01*
Y94532D02*
X171928D01*
X169000Y83282D02*
Y87032D01*
X172125D01*
X171500Y85157D02*
X169000D01*
Y83282D02*
X172125D01*
X169000Y140782D02*
Y144532D01*
X172125D01*
X171500Y142657D02*
X169000D01*
Y140782D02*
X172125D01*
X171382Y215782D02*
X172944Y219532D01*
X174507Y215782D01*
X172007Y217344D02*
X173882D01*
X178569D02*
X179507D01*
Y217032D01*
X179194Y216407D01*
X178882Y216094D01*
X178257Y215782D01*
X177632D01*
X177007Y216094D01*
X176694Y216407D01*
X176382Y217032D01*
Y218282D01*
X176694Y218907D01*
X177007Y219220D01*
X177632Y219532D01*
X178257D01*
X178882Y219220D01*
X179194Y218907D01*
X179507Y218282D01*
X171500Y157656D02*
X173063Y161406D01*
X174625Y157656D01*
X172125Y159219D02*
X174000D01*
X178063Y157656D02*
Y161406D01*
X176500D02*
X179625D01*
X171500Y188908D02*
X173063Y192658D01*
X174625Y188908D01*
X172125Y190470D02*
X174000D01*
X178063Y188908D02*
Y192658D01*
X176500D02*
X179625D01*
X175004Y67032D02*
Y70782D01*
X176567Y68907D01*
X178129Y70782D01*
Y67032D01*
X175250Y202032D02*
Y205782D01*
Y203907D02*
X176187D01*
X178375Y205782D01*
X176187Y203907D02*
X178375Y202032D01*
X181500Y157656D02*
X183063Y161406D01*
X184625Y157656D01*
X182125Y159219D02*
X184000D01*
X188063Y157656D02*
Y161406D01*
X186500D02*
X189625D01*
X181500Y163282D02*
Y167032D01*
X184625D01*
X184000Y165157D02*
X181500D01*
Y163282D02*
X184625D01*
X181500Y188908D02*
X183063Y192658D01*
X184625Y188908D01*
X182125Y190470D02*
X184000D01*
X188063Y188908D02*
Y192658D01*
X186500D02*
X189625D01*
X185004Y67032D02*
Y70782D01*
X186567Y68907D01*
X188129Y70782D01*
Y67032D01*
X188687Y197344D02*
X189625D01*
Y197032D01*
X189313Y196407D01*
X189000Y196094D01*
X188375Y195782D01*
X187750D01*
X187125Y196094D01*
X186813Y196407D01*
X186500Y197032D01*
Y198282D01*
X186813Y198907D01*
X187125Y199220D01*
X187750Y199532D01*
X188375D01*
X189000Y199220D01*
X189313Y198907D01*
X189625Y198282D01*
X189937Y89844D02*
X190875D01*
Y89532D01*
X190563Y88907D01*
X190250Y88594D01*
X189625Y88282D01*
X189000D01*
X188375Y88594D01*
X188063Y88907D01*
X187750Y89532D01*
Y90782D01*
X188063Y91407D01*
X188375Y91720D01*
X189000Y92032D01*
X189625D01*
X190250Y91720D01*
X190563Y91407D01*
X190875Y90782D01*
X191500Y157656D02*
X193063Y161406D01*
X194625Y157656D01*
X192125Y159219D02*
X194000D01*
X198063Y157656D02*
Y161406D01*
X196500D02*
X199625D01*
X191500Y167032D02*
Y170782D01*
X194625D01*
X194000Y168907D02*
X191500D01*
Y167032D02*
X194625D01*
X191500Y188908D02*
X193063Y192658D01*
X194625Y188908D01*
X192125Y190470D02*
X194000D01*
X198063Y188908D02*
Y192658D01*
X196500D02*
X199625D01*
X191618Y215782D02*
X193181Y219532D01*
X194743Y215782D01*
X192243Y217344D02*
X194118D01*
X198806D02*
X199743D01*
Y217032D01*
X199431Y216407D01*
X199118Y216094D01*
X198493Y215782D01*
X197868D01*
X197243Y216094D01*
X196931Y216407D01*
X196618Y217032D01*
Y218282D01*
X196931Y218907D01*
X197243Y219220D01*
X197868Y219532D01*
X198493D01*
X199118Y219220D01*
X199431Y218907D01*
X199743Y218282D01*
X194000Y108282D02*
Y112032D01*
X197125D01*
X196500Y110157D02*
X194000D01*
Y108282D02*
X197125D01*
X194000Y125782D02*
Y129532D01*
X197125D01*
X196500Y127657D02*
X194000D01*
Y125782D02*
X197125D01*
X196510Y88907D02*
X196822Y88594D01*
X197447Y88282D01*
X198072Y88594D01*
X198385Y88907D01*
Y92032D01*
X199010D01*
X198385D02*
X197135D01*
X196510Y148907D02*
X196822Y148594D01*
X197447Y148282D01*
X198072Y148594D01*
X198385Y148907D01*
Y152032D01*
X199010D01*
X198385D02*
X197135D01*
X196539Y215782D02*
X198102Y219532D01*
X199665Y215782D01*
X197165Y217344D02*
X199039D01*
X203727D02*
X204665D01*
Y217032D01*
X204352Y216407D01*
X204039Y216094D01*
X203415Y215782D01*
X202789D01*
X202165Y216094D01*
X201852Y216407D01*
X201539Y217032D01*
Y218282D01*
X201852Y218907D01*
X202165Y219220D01*
X202789Y219532D01*
X203415D01*
X204039Y219220D01*
X204352Y218907D01*
X204665Y218282D01*
X199741Y73457D02*
X200678D01*
Y73144D01*
X200366Y72519D01*
X200053Y72207D01*
X199428Y71894D01*
X198803D01*
X198178Y72207D01*
X197866Y72519D01*
X197553Y73144D01*
Y74394D01*
X197866Y75019D01*
X198178Y75332D01*
X198803Y75644D01*
X199428D01*
X200053Y75332D01*
X200366Y75019D01*
X200678Y74394D01*
X201461Y215782D02*
X203023Y219532D01*
X204586Y215782D01*
X202086Y217344D02*
X203961D01*
X208648D02*
X209586D01*
Y217032D01*
X209273Y216407D01*
X208961Y216094D01*
X208336Y215782D01*
X207711D01*
X207086Y216094D01*
X206773Y216407D01*
X206461Y217032D01*
Y218282D01*
X206773Y218907D01*
X207086Y219220D01*
X207711Y219532D01*
X208336D01*
X208961Y219220D01*
X209273Y218907D01*
X209586Y218282D01*
X201500Y64532D02*
Y68282D01*
X204625D01*
X204000Y66407D02*
X201500D01*
Y64532D02*
X204625D01*
X203687Y128594D02*
X204625D01*
Y128282D01*
X204313Y127657D01*
X204000Y127344D01*
X203375Y127032D01*
X202750D01*
X202125Y127344D01*
X201813Y127657D01*
X201500Y128282D01*
Y129532D01*
X201813Y130157D01*
X202125Y130470D01*
X202750Y130782D01*
X203375D01*
X204000Y130470D01*
X204313Y130157D01*
X204625Y129532D01*
X203687Y138594D02*
X204625D01*
Y138282D01*
X204313Y137657D01*
X204000Y137344D01*
X203375Y137032D01*
X202750D01*
X202125Y137344D01*
X201813Y137657D01*
X201500Y138282D01*
Y139532D01*
X201813Y140157D01*
X202125Y140470D01*
X202750Y140782D01*
X203375D01*
X204000Y140470D01*
X204313Y140157D01*
X204625Y139532D01*
X201500Y157656D02*
X203063Y161406D01*
X204625Y157656D01*
X202125Y159219D02*
X204000D01*
X208063Y157656D02*
Y161406D01*
X206500D02*
X209625D01*
X201500Y188908D02*
X203063Y192658D01*
X204625Y188908D01*
X202125Y190470D02*
X204000D01*
X208063Y188908D02*
Y192658D01*
X206500D02*
X209625D01*
X201500Y202032D02*
Y205782D01*
Y203907D02*
X202437D01*
X204625Y205782D01*
X202437Y203907D02*
X204625Y202032D01*
X205250Y167032D02*
Y170782D01*
X208375D01*
X207750Y168907D02*
X205250D01*
Y167032D02*
X208375D01*
X206382Y215782D02*
X207944Y219532D01*
X209507Y215782D01*
X207007Y217344D02*
X208882D01*
X213569D02*
X214507D01*
Y217032D01*
X214194Y216407D01*
X213882Y216094D01*
X213257Y215782D01*
X212632D01*
X212007Y216094D01*
X211694Y216407D01*
X211382Y217032D01*
Y218282D01*
X211694Y218907D01*
X212007Y219220D01*
X212632Y219532D01*
X213257D01*
X213882Y219220D01*
X214194Y218907D01*
X214507Y218282D01*
X208687Y197344D02*
X209625D01*
Y197032D01*
X209313Y196407D01*
X209000Y196094D01*
X208375Y195782D01*
X207750D01*
X207125Y196094D01*
X206813Y196407D01*
X206500Y197032D01*
Y198282D01*
X206813Y198907D01*
X207125Y199220D01*
X207750Y199532D01*
X208375D01*
X209000Y199220D01*
X209313Y198907D01*
X209625Y198282D01*
X206510Y88907D02*
X206822Y88594D01*
X207447Y88282D01*
X208072Y88594D01*
X208385Y88907D01*
Y92032D01*
X209010D01*
X208385D02*
X207135D01*
X206510Y148907D02*
X206822Y148594D01*
X207447Y148282D01*
X208072Y148594D01*
X208385Y148907D01*
Y152032D01*
X209010D01*
X208385D02*
X207135D01*
X207750Y163282D02*
Y167032D01*
X210875D01*
X210250Y165157D02*
X207750D01*
Y163282D02*
X210875D01*
X210991Y73457D02*
X211928D01*
Y73144D01*
X211616Y72519D01*
X211303Y72207D01*
X210678Y71894D01*
X210053D01*
X209428Y72207D01*
X209116Y72519D01*
X208803Y73144D01*
Y74394D01*
X209116Y75019D01*
X209428Y75332D01*
X210053Y75644D01*
X210678D01*
X211303Y75332D01*
X211616Y75019D01*
X211928Y74394D01*
X211500Y157656D02*
X213063Y161406D01*
X214625Y157656D01*
X212125Y159219D02*
X214000D01*
X218063Y157656D02*
Y161406D01*
X216500D02*
X219625D01*
X211500Y188908D02*
X213063Y192658D01*
X214625Y188908D01*
X212125Y190470D02*
X214000D01*
X218063Y188908D02*
Y192658D01*
X216500D02*
X219625D01*
X212750Y64532D02*
Y68282D01*
X215875D01*
X215250Y66407D02*
X212750D01*
Y64532D02*
X215875D01*
X218687Y181094D02*
X219625D01*
Y180782D01*
X219313Y180157D01*
X219000Y179844D01*
X218375Y179532D01*
X217750D01*
X217125Y179844D01*
X216813Y180157D01*
X216500Y180782D01*
Y182032D01*
X216813Y182657D01*
X217125Y182970D01*
X217750Y183282D01*
X218375D01*
X219000Y182970D01*
X219313Y182657D01*
X219625Y182032D01*
X216510Y88907D02*
X216822Y88594D01*
X217447Y88282D01*
X218072Y88594D01*
X218385Y88907D01*
Y92032D01*
X219010D01*
X218385D02*
X217135D01*
X216510Y148907D02*
X216822Y148594D01*
X217447Y148282D01*
X218072Y148594D01*
X218385Y148907D01*
Y152032D01*
X219010D01*
X218385D02*
X217135D01*
X223687Y144844D02*
X224625D01*
Y144532D01*
X224313Y143907D01*
X224000Y143594D01*
X223375Y143282D01*
X222750D01*
X222125Y143594D01*
X221813Y143907D01*
X221500Y144532D01*
Y145782D01*
X221813Y146407D01*
X222125Y146720D01*
X222750Y147032D01*
X223375D01*
X224000Y146720D01*
X224313Y146407D01*
X224625Y145782D01*
X221500Y157656D02*
X223063Y161406D01*
X224625Y157656D01*
X222125Y159219D02*
X224000D01*
X228063Y157656D02*
Y161406D01*
X226500D02*
X229625D01*
X221500Y188908D02*
X223063Y192658D01*
X224625Y188908D01*
X222125Y190470D02*
X224000D01*
X228063Y188908D02*
Y192658D01*
X226500D02*
X229625D01*
X221500Y202032D02*
Y205782D01*
Y203907D02*
X222437D01*
X224625Y205782D01*
X222437Y203907D02*
X224625Y202032D01*
X222750Y64532D02*
Y68282D01*
X225875D01*
X225250Y66407D02*
X222750D01*
Y64532D02*
X225875D01*
X228491Y73457D02*
X229428D01*
Y73144D01*
X229116Y72519D01*
X228803Y72207D01*
X228178Y71894D01*
X227553D01*
X226928Y72207D01*
X226616Y72519D01*
X226303Y73144D01*
Y74394D01*
X226616Y75019D01*
X226928Y75332D01*
X227553Y75644D01*
X228178D01*
X228803Y75332D01*
X229116Y75019D01*
X229428Y74394D01*
X228687Y181094D02*
X229625D01*
Y180782D01*
X229313Y180157D01*
X229000Y179844D01*
X228375Y179532D01*
X227750D01*
X227125Y179844D01*
X226813Y180157D01*
X226500Y180782D01*
Y182032D01*
X226813Y182657D01*
X227125Y182970D01*
X227750Y183282D01*
X228375D01*
X229000Y182970D01*
X229313Y182657D01*
X229625Y182032D01*
X226510Y88907D02*
X226822Y88594D01*
X227447Y88282D01*
X228072Y88594D01*
X228385Y88907D01*
Y92032D01*
X229010D01*
X228385D02*
X227135D01*
X226510Y148907D02*
X226822Y148594D01*
X227447Y148282D01*
X228072Y148594D01*
X228385Y148907D01*
Y152032D01*
X229010D01*
X228385D02*
X227135D01*
X226618Y215782D02*
X228181Y219532D01*
X229743Y215782D01*
X227243Y217344D02*
X229118D01*
X233806D02*
X234743D01*
Y217032D01*
X234431Y216407D01*
X234118Y216094D01*
X233493Y215782D01*
X232868D01*
X232243Y216094D01*
X231931Y216407D01*
X231618Y217032D01*
Y218282D01*
X231931Y218907D01*
X232243Y219220D01*
X232868Y219532D01*
X233493D01*
X234118Y219220D01*
X234431Y218907D01*
X234743Y218282D01*
X233687Y144844D02*
X234625D01*
Y144532D01*
X234313Y143907D01*
X234000Y143594D01*
X233375Y143282D01*
X232750D01*
X232125Y143594D01*
X231813Y143907D01*
X231500Y144532D01*
Y145782D01*
X231813Y146407D01*
X232125Y146720D01*
X232750Y147032D01*
X233375D01*
X234000Y146720D01*
X234313Y146407D01*
X234625Y145782D01*
X231500Y157656D02*
X233063Y161406D01*
X234625Y157656D01*
X232125Y159219D02*
X234000D01*
X238063Y157656D02*
Y161406D01*
X236500D02*
X239625D01*
X231500Y188908D02*
X233063Y192658D01*
X234625Y188908D01*
X232125Y190470D02*
X234000D01*
X238063Y188908D02*
Y192658D01*
X236500D02*
X239625D01*
X231539Y215782D02*
X233102Y219532D01*
X234665Y215782D01*
X232165Y217344D02*
X234039D01*
X238727D02*
X239665D01*
Y217032D01*
X239352Y216407D01*
X239039Y216094D01*
X238415Y215782D01*
X237789D01*
X237165Y216094D01*
X236852Y216407D01*
X236539Y217032D01*
Y218282D01*
X236852Y218907D01*
X237165Y219220D01*
X237789Y219532D01*
X238415D01*
X239039Y219220D01*
X239352Y218907D01*
X239665Y218282D01*
X232750Y64532D02*
Y68282D01*
X235875D01*
X235250Y66407D02*
X232750D01*
Y64532D02*
X235875D01*
X236461Y215782D02*
X238023Y219532D01*
X239586Y215782D01*
X237086Y217344D02*
X238961D01*
X243648D02*
X244586D01*
Y217032D01*
X244273Y216407D01*
X243961Y216094D01*
X243336Y215782D01*
X242711D01*
X242086Y216094D01*
X241773Y216407D01*
X241461Y217032D01*
Y218282D01*
X241773Y218907D01*
X242086Y219220D01*
X242711Y219532D01*
X243336D01*
X243961Y219220D01*
X244273Y218907D01*
X244586Y218282D01*
X236510Y88907D02*
X236822Y88594D01*
X237447Y88282D01*
X238072Y88594D01*
X238385Y88907D01*
Y92032D01*
X239010D01*
X238385D02*
X237135D01*
X236510Y148907D02*
X236822Y148594D01*
X237447Y148282D01*
X238072Y148594D01*
X238385Y148907D01*
Y152032D01*
X239010D01*
X238385D02*
X237135D01*
X236657Y199394D02*
X238220Y203144D01*
X239783Y199394D01*
X237283Y200957D02*
X239157D01*
X241657Y200019D02*
X241970Y199707D01*
X242595Y199394D01*
X243220Y199707D01*
X243533Y200019D01*
Y203144D01*
X244157D01*
X243533D02*
X242283D01*
X240250Y64532D02*
Y68282D01*
X243375D01*
X242750Y66407D02*
X240250D01*
Y64532D02*
X243375D01*
X243491Y83457D02*
X244428D01*
Y83144D01*
X244116Y82519D01*
X243803Y82207D01*
X243178Y81894D01*
X242553D01*
X241928Y82207D01*
X241616Y82519D01*
X241303Y83144D01*
Y84394D01*
X241616Y85019D01*
X241928Y85332D01*
X242553Y85644D01*
X243178D01*
X243803Y85332D01*
X244116Y85019D01*
X244428Y84394D01*
X241382Y215782D02*
X242944Y219532D01*
X244507Y215782D01*
X242007Y217344D02*
X243882D01*
X248569D02*
X249507D01*
Y217032D01*
X249194Y216407D01*
X248882Y216094D01*
X248257Y215782D01*
X247632D01*
X247007Y216094D01*
X246694Y216407D01*
X246382Y217032D01*
Y218282D01*
X246694Y218907D01*
X247007Y219220D01*
X247632Y219532D01*
X248257D01*
X248882Y219220D01*
X249194Y218907D01*
X249507Y218282D01*
X243687Y144844D02*
X244625D01*
Y144532D01*
X244313Y143907D01*
X244000Y143594D01*
X243375Y143282D01*
X242750D01*
X242125Y143594D01*
X241813Y143907D01*
X241500Y144532D01*
Y145782D01*
X241813Y146407D01*
X242125Y146720D01*
X242750Y147032D01*
X243375D01*
X244000Y146720D01*
X244313Y146407D01*
X244625Y145782D01*
X241500Y157656D02*
X243063Y161406D01*
X244625Y157656D01*
X242125Y159219D02*
X244000D01*
X248063Y157656D02*
Y161406D01*
X246500D02*
X249625D01*
X241500Y188908D02*
X243063Y192658D01*
X244625Y188908D01*
X242125Y190470D02*
X244000D01*
X248063Y188908D02*
Y192658D01*
X246500D02*
X249625D01*
X246500Y199394D02*
X248063Y203144D01*
X249625Y199394D01*
X247125Y200957D02*
X249000D01*
X251500Y200019D02*
X251813Y199707D01*
X252437Y199394D01*
X253063Y199707D01*
X253375Y200019D01*
Y203144D01*
X254000D01*
X253375D02*
X252125D01*
X246510Y88907D02*
X246822Y88594D01*
X247447Y88282D01*
X248072Y88594D01*
X248385Y88907D01*
Y92032D01*
X249010D01*
X248385D02*
X247135D01*
X246510Y148907D02*
X246822Y148594D01*
X247447Y148282D01*
X248072Y148594D01*
X248385Y148907D01*
Y152032D01*
X249010D01*
X248385D02*
X247135D01*
X250250Y64532D02*
Y68282D01*
X253375D01*
X252750Y66407D02*
X250250D01*
Y64532D02*
X253375D01*
X251500Y157656D02*
X253063Y161406D01*
X254625Y157656D01*
X252125Y159219D02*
X254000D01*
X258063Y157656D02*
Y161406D01*
X256500D02*
X259625D01*
X251500Y170782D02*
Y174532D01*
X254625D01*
X254000Y172657D02*
X251500D01*
Y170782D02*
X254625D01*
X251500Y188908D02*
X253063Y192658D01*
X254625Y188908D01*
X252125Y190470D02*
X254000D01*
X258063Y188908D02*
Y192658D01*
X256500D02*
X259625D01*
X256343Y199394D02*
X257905Y203144D01*
X259468Y199394D01*
X256968Y200957D02*
X258843D01*
X261343Y200019D02*
X261655Y199707D01*
X262280Y199394D01*
X262905Y199707D01*
X263218Y200019D01*
Y203144D01*
X263843D01*
X263218D02*
X261968D01*
X256510Y88907D02*
X256822Y88594D01*
X257447Y88282D01*
X258072Y88594D01*
X258385Y88907D01*
Y92032D01*
X259010D01*
X258385D02*
X257135D01*
X256510Y148907D02*
X256822Y148594D01*
X257447Y148282D01*
X258072Y148594D01*
X258385Y148907D01*
Y152032D01*
X259010D01*
X258385D02*
X257135D01*
X257750Y64532D02*
Y68282D01*
X260875D01*
X260250Y66407D02*
X257750D01*
Y64532D02*
X260875D01*
X263687Y144844D02*
X264625D01*
Y144532D01*
X264313Y143907D01*
X264000Y143594D01*
X263375Y143282D01*
X262750D01*
X262125Y143594D01*
X261813Y143907D01*
X261500Y144532D01*
Y145782D01*
X261813Y146407D01*
X262125Y146720D01*
X262750Y147032D01*
X263375D01*
X264000Y146720D01*
X264313Y146407D01*
X264625Y145782D01*
X261500Y157656D02*
X263063Y161406D01*
X264625Y157656D01*
X262125Y159219D02*
X264000D01*
X268063Y157656D02*
Y161406D01*
X266500D02*
X269625D01*
X261500Y173282D02*
Y177032D01*
X264625D01*
X264000Y175157D02*
X261500D01*
Y173282D02*
X264625D01*
X261500Y188908D02*
X263063Y192658D01*
X264625Y188908D01*
X262125Y190470D02*
X264000D01*
X268063Y188908D02*
Y192658D01*
X266500D02*
X269625D01*
X261618Y215782D02*
X263181Y219532D01*
X264743Y215782D01*
X262243Y217344D02*
X264118D01*
X268806D02*
X269743D01*
Y217032D01*
X269431Y216407D01*
X269118Y216094D01*
X268493Y215782D01*
X267868D01*
X267243Y216094D01*
X266931Y216407D01*
X266618Y217032D01*
Y218282D01*
X266931Y218907D01*
X267243Y219220D01*
X267868Y219532D01*
X268493D01*
X269118Y219220D01*
X269431Y218907D01*
X269743Y218282D01*
X265250Y64532D02*
Y68282D01*
X268375D01*
X267750Y66407D02*
X265250D01*
Y64532D02*
X268375D01*
X266510Y88907D02*
X266822Y88594D01*
X267447Y88282D01*
X268072Y88594D01*
X268385Y88907D01*
Y92032D01*
X269010D01*
X268385D02*
X267135D01*
X266510Y148907D02*
X266822Y148594D01*
X267447Y148282D01*
X268072Y148594D01*
X268385Y148907D01*
Y152032D01*
X269010D01*
X268385D02*
X267135D01*
X266539Y215782D02*
X268102Y219532D01*
X269665Y215782D01*
X267165Y217344D02*
X269039D01*
X273727D02*
X274665D01*
Y217032D01*
X274352Y216407D01*
X274039Y216094D01*
X273415Y215782D01*
X272789D01*
X272165Y216094D01*
X271852Y216407D01*
X271539Y217032D01*
Y218282D01*
X271852Y218907D01*
X272165Y219220D01*
X272789Y219532D01*
X273415D01*
X274039Y219220D01*
X274352Y218907D01*
X274665Y218282D01*
X270250Y64532D02*
Y68282D01*
X273375D01*
X272750Y66407D02*
X270250D01*
Y64532D02*
X273375D01*
X271461Y215782D02*
X273023Y219532D01*
X274586Y215782D01*
X272086Y217344D02*
X273961D01*
X278648D02*
X279586D01*
Y217032D01*
X279273Y216407D01*
X278961Y216094D01*
X278336Y215782D01*
X277711D01*
X277086Y216094D01*
X276773Y216407D01*
X276461Y217032D01*
Y218282D01*
X276773Y218907D01*
X277086Y219220D01*
X277711Y219532D01*
X278336D01*
X278961Y219220D01*
X279273Y218907D01*
X279586Y218282D01*
X273687Y94844D02*
X274625D01*
Y94532D01*
X274313Y93907D01*
X274000Y93594D01*
X273375Y93282D01*
X272750D01*
X272125Y93594D01*
X271813Y93907D01*
X271500Y94532D01*
Y95782D01*
X271813Y96407D01*
X272125Y96720D01*
X272750Y97032D01*
X273375D01*
X274000Y96720D01*
X274313Y96407D01*
X274625Y95782D01*
X273687Y144844D02*
X274625D01*
Y144532D01*
X274313Y143907D01*
X274000Y143594D01*
X273375Y143282D01*
X272750D01*
X272125Y143594D01*
X271813Y143907D01*
X271500Y144532D01*
Y145782D01*
X271813Y146407D01*
X272125Y146720D01*
X272750Y147032D01*
X273375D01*
X274000Y146720D01*
X274313Y146407D01*
X274625Y145782D01*
X271500Y157656D02*
X273063Y161406D01*
X274625Y157656D01*
X272125Y159219D02*
X274000D01*
X278063Y157656D02*
Y161406D01*
X276500D02*
X279625D01*
X271500Y175782D02*
Y179532D01*
X274625D01*
X274000Y177657D02*
X271500D01*
Y175782D02*
X274625D01*
X271500Y188908D02*
X273063Y192658D01*
X274625Y188908D01*
X272125Y190470D02*
X274000D01*
X278063Y188908D02*
Y192658D01*
X276500D02*
X279625D01*
X271500Y202032D02*
Y205782D01*
Y203907D02*
X272437D01*
X274625Y205782D01*
X272437Y203907D02*
X274625Y202032D01*
X276382Y215782D02*
X277944Y219532D01*
X279507Y215782D01*
X277007Y217344D02*
X278882D01*
X283569D02*
X284507D01*
Y217032D01*
X284194Y216407D01*
X283882Y216094D01*
X283257Y215782D01*
X282632D01*
X282007Y216094D01*
X281694Y216407D01*
X281382Y217032D01*
Y218282D01*
X281694Y218907D01*
X282007Y219220D01*
X282632Y219532D01*
X283257D01*
X283882Y219220D01*
X284194Y218907D01*
X284507Y218282D01*
X278687Y197344D02*
X279625D01*
Y197032D01*
X279313Y196407D01*
X279000Y196094D01*
X278375Y195782D01*
X277750D01*
X277125Y196094D01*
X276813Y196407D01*
X276500Y197032D01*
Y198282D01*
X276813Y198907D01*
X277125Y199220D01*
X277750Y199532D01*
X278375D01*
X279000Y199220D01*
X279313Y198907D01*
X279625Y198282D01*
X276510Y88907D02*
X276822Y88594D01*
X277447Y88282D01*
X278072Y88594D01*
X278385Y88907D01*
Y92032D01*
X279010D01*
X278385D02*
X277135D01*
X276510Y148907D02*
X276822Y148594D01*
X277447Y148282D01*
X278072Y148594D01*
X278385Y148907D01*
Y152032D01*
X279010D01*
X278385D02*
X277135D01*
X279000Y64532D02*
Y68282D01*
X282125D01*
X281500Y66407D02*
X279000D01*
Y64532D02*
X282125D01*
X283687Y94844D02*
X284625D01*
Y94532D01*
X284313Y93907D01*
X284000Y93594D01*
X283375Y93282D01*
X282750D01*
X282125Y93594D01*
X281813Y93907D01*
X281500Y94532D01*
Y95782D01*
X281813Y96407D01*
X282125Y96720D01*
X282750Y97032D01*
X283375D01*
X284000Y96720D01*
X284313Y96407D01*
X284625Y95782D01*
X283687Y144844D02*
X284625D01*
Y144532D01*
X284313Y143907D01*
X284000Y143594D01*
X283375Y143282D01*
X282750D01*
X282125Y143594D01*
X281813Y143907D01*
X281500Y144532D01*
Y145782D01*
X281813Y146407D01*
X282125Y146720D01*
X282750Y147032D01*
X283375D01*
X284000Y146720D01*
X284313Y146407D01*
X284625Y145782D01*
X281500Y157656D02*
X283063Y161406D01*
X284625Y157656D01*
X282125Y159219D02*
X284000D01*
X288063Y157656D02*
Y161406D01*
X286500D02*
X289625D01*
X281500Y163282D02*
Y167032D01*
X284625D01*
X284000Y165157D02*
X281500D01*
Y163282D02*
X284625D01*
X281500Y188908D02*
X283063Y192658D01*
X284625Y188908D01*
X282125Y190470D02*
X284000D01*
X288063Y188908D02*
Y192658D01*
X286500D02*
X289625D01*
X285250Y67032D02*
Y70782D01*
X288375D01*
X287750Y68907D02*
X285250D01*
Y67032D02*
X288375D01*
X286510Y88907D02*
X286822Y88594D01*
X287447Y88282D01*
X288072Y88594D01*
X288385Y88907D01*
Y92032D01*
X289010D01*
X288385D02*
X287135D01*
X286510Y148907D02*
X286822Y148594D01*
X287447Y148282D01*
X288072Y148594D01*
X288385Y148907D01*
Y152032D01*
X289010D01*
X288385D02*
X287135D01*
X291500Y202032D02*
Y205782D01*
Y203907D02*
X292437D01*
X294625Y205782D01*
X292437Y203907D02*
X294625Y202032D01*
X292553Y119532D02*
Y123282D01*
X295678D01*
X295053Y121407D02*
X292553D01*
Y119532D02*
X295678D01*
X295053Y121894D02*
Y125644D01*
X298178D01*
X297553Y123769D02*
X295053D01*
Y121894D02*
X298178D01*
X295250Y72032D02*
Y75782D01*
X298375D01*
X297750Y73907D02*
X295250D01*
Y72032D02*
X298375D01*
X296510Y88907D02*
X296822Y88594D01*
X297447Y88282D01*
X298072Y88594D01*
X298385Y88907D01*
Y92032D01*
X299010D01*
X298385D02*
X297135D01*
X296510Y148907D02*
X296822Y148594D01*
X297447Y148282D01*
X298072Y148594D01*
X298385Y148907D01*
Y152032D01*
X299010D01*
X298385D02*
X297135D01*
X296618Y215782D02*
X298181Y219532D01*
X299743Y215782D01*
X297243Y217344D02*
X299118D01*
X303806D02*
X304743D01*
Y217032D01*
X304431Y216407D01*
X304118Y216094D01*
X303493Y215782D01*
X302868D01*
X302243Y216094D01*
X301931Y216407D01*
X301618Y217032D01*
Y218282D01*
X301931Y218907D01*
X302243Y219220D01*
X302868Y219532D01*
X303493D01*
X304118Y219220D01*
X304431Y218907D01*
X304743Y218282D01*
X300053Y83282D02*
Y87032D01*
X303178D01*
X302553Y85157D02*
X300053D01*
Y83282D02*
X303178D01*
X300250Y69532D02*
Y73282D01*
X303375D01*
X302750Y71407D02*
X300250D01*
Y69532D02*
X303375D01*
X301303Y124394D02*
Y128144D01*
X304428D01*
X303803Y126269D02*
X301303D01*
Y124394D02*
X304428D01*
X303687Y144844D02*
X304625D01*
Y144532D01*
X304313Y143907D01*
X304000Y143594D01*
X303375Y143282D01*
X302750D01*
X302125Y143594D01*
X301813Y143907D01*
X301500Y144532D01*
Y145782D01*
X301813Y146407D01*
X302125Y146720D01*
X302750Y147032D01*
X303375D01*
X304000Y146720D01*
X304313Y146407D01*
X304625Y145782D01*
X301500Y157652D02*
X303063Y161402D01*
X304625Y157652D01*
X302125Y159215D02*
X304000D01*
X306500Y158277D02*
X306813Y157965D01*
X307437Y157652D01*
X308063Y157965D01*
X308375Y158277D01*
Y161402D01*
X309000D01*
X308375D02*
X307125D01*
X301500Y188912D02*
X303063Y192662D01*
X304625Y188912D01*
X302125Y190474D02*
X304000D01*
X306500Y189537D02*
X306813Y189224D01*
X307437Y188912D01*
X308063Y189224D01*
X308375Y189537D01*
Y192662D01*
X309000D01*
X308375D02*
X307125D01*
X301539Y215782D02*
X303102Y219532D01*
X304665Y215782D01*
X302165Y217344D02*
X304039D01*
X308727D02*
X309665D01*
Y217032D01*
X309352Y216407D01*
X309039Y216094D01*
X308415Y215782D01*
X307789D01*
X307165Y216094D01*
X306852Y216407D01*
X306539Y217032D01*
Y218282D01*
X306852Y218907D01*
X307165Y219220D01*
X307789Y219532D01*
X308415D01*
X309039Y219220D01*
X309352Y218907D01*
X309665Y218282D01*
X307437Y206094D02*
X308375D01*
Y205782D01*
X308063Y205157D01*
X307750Y204844D01*
X307125Y204532D01*
X306500D01*
X305875Y204844D01*
X305563Y205157D01*
X305250Y205782D01*
Y207032D01*
X305563Y207657D01*
X305875Y207970D01*
X306500Y208282D01*
X307125D01*
X307750Y207970D01*
X308063Y207657D01*
X308375Y207032D01*
X306461Y215782D02*
X308023Y219532D01*
X309586Y215782D01*
X307086Y217344D02*
X308961D01*
X313648D02*
X314586D01*
Y217032D01*
X314273Y216407D01*
X313961Y216094D01*
X313336Y215782D01*
X312711D01*
X312086Y216094D01*
X311773Y216407D01*
X311461Y217032D01*
Y218282D01*
X311773Y218907D01*
X312086Y219220D01*
X312711Y219532D01*
X313336D01*
X313961Y219220D01*
X314273Y218907D01*
X314586Y218282D01*
X306510Y88907D02*
X306822Y88594D01*
X307447Y88282D01*
X308072Y88594D01*
X308385Y88907D01*
Y92032D01*
X309010D01*
X308385D02*
X307135D01*
X306510Y148907D02*
X306822Y148594D01*
X307447Y148282D01*
X308072Y148594D01*
X308385Y148907D01*
Y152032D01*
X309010D01*
X308385D02*
X307135D01*
X311382Y215782D02*
X312944Y219532D01*
X314507Y215782D01*
X312007Y217344D02*
X313882D01*
X318569D02*
X319507D01*
Y217032D01*
X319194Y216407D01*
X318882Y216094D01*
X318257Y215782D01*
X317632D01*
X317007Y216094D01*
X316694Y216407D01*
X316382Y217032D01*
Y218282D01*
X316694Y218907D01*
X317007Y219220D01*
X317632Y219532D01*
X318257D01*
X318882Y219220D01*
X319194Y218907D01*
X319507Y218282D01*
X311500Y157652D02*
X313063Y161402D01*
X314625Y157652D01*
X312125Y159215D02*
X314000D01*
X316500Y158277D02*
X316813Y157965D01*
X317437Y157652D01*
X318063Y157965D01*
X318375Y158277D01*
Y161402D01*
X319000D01*
X318375D02*
X317125D01*
X311500Y188912D02*
X313063Y192662D01*
X314625Y188912D01*
X312125Y190474D02*
X314000D01*
X316500Y189537D02*
X316813Y189224D01*
X317437Y188912D01*
X318063Y189224D01*
X318375Y189537D01*
Y192662D01*
X319000D01*
X318375D02*
X317125D01*
X317437Y63594D02*
X318375D01*
Y63282D01*
X318063Y62657D01*
X317750Y62344D01*
X317125Y62032D01*
X316500D01*
X315875Y62344D01*
X315563Y62657D01*
X315250Y63282D01*
Y64532D01*
X315563Y65157D01*
X315875Y65470D01*
X316500Y65782D01*
X317125D01*
X317750Y65470D01*
X318063Y65157D01*
X318375Y64532D01*
X316510Y88907D02*
X316822Y88594D01*
X317447Y88282D01*
X318072Y88594D01*
X318385Y88907D01*
Y92032D01*
X319010D01*
X318385D02*
X317135D01*
X316510Y148907D02*
X316822Y148594D01*
X317447Y148282D01*
X318072Y148594D01*
X318385Y148907D01*
Y152032D01*
X319010D01*
X318385D02*
X317135D01*
X320053Y78144D02*
Y81894D01*
X323178D01*
X322553Y80019D02*
X320053D01*
Y78144D02*
X323178D01*
X321500Y157652D02*
X323063Y161402D01*
X324625Y157652D01*
X322125Y159215D02*
X324000D01*
X326500Y158277D02*
X326813Y157965D01*
X327437Y157652D01*
X328063Y157965D01*
X328375Y158277D01*
Y161402D01*
X329000D01*
X328375D02*
X327125D01*
X321500Y188912D02*
X323063Y192662D01*
X324625Y188912D01*
X322125Y190474D02*
X324000D01*
X326500Y189537D02*
X326813Y189224D01*
X327437Y188912D01*
X328063Y189224D01*
X328375Y189537D01*
Y192662D01*
X329000D01*
X328375D02*
X327125D01*
X325053Y75644D02*
Y79394D01*
X328178D01*
X327553Y77519D02*
X325053D01*
Y75644D02*
X328178D01*
X328491Y187207D02*
X329428D01*
Y186894D01*
X329116Y186269D01*
X328803Y185957D01*
X328178Y185644D01*
X327553D01*
X326928Y185957D01*
X326616Y186269D01*
X326303Y186894D01*
Y188144D01*
X326616Y188769D01*
X326928Y189082D01*
X327553Y189394D01*
X328178D01*
X328803Y189082D01*
X329116Y188769D01*
X329428Y188144D01*
X326510Y88907D02*
X326822Y88594D01*
X327447Y88282D01*
X328072Y88594D01*
X328385Y88907D01*
Y92032D01*
X329010D01*
X328385D02*
X327135D01*
X326510Y148907D02*
X326822Y148594D01*
X327447Y148282D01*
X328072Y148594D01*
X328385Y148907D01*
Y152032D01*
X329010D01*
X328385D02*
X327135D01*
X328803Y73144D02*
Y76894D01*
X331928D01*
X331303Y75019D02*
X328803D01*
Y73144D02*
X331928D01*
X331500Y157652D02*
X333063Y161402D01*
X334625Y157652D01*
X332125Y159215D02*
X334000D01*
X336500Y158277D02*
X336813Y157965D01*
X337437Y157652D01*
X338063Y157965D01*
X338375Y158277D01*
Y161402D01*
X339000D01*
X338375D02*
X337125D01*
X331500Y188912D02*
X333063Y192662D01*
X334625Y188912D01*
X332125Y190474D02*
X334000D01*
X336500Y189537D02*
X336813Y189224D01*
X337437Y188912D01*
X338063Y189224D01*
X338375Y189537D01*
Y192662D01*
X339000D01*
X338375D02*
X337125D01*
X331618Y215782D02*
X333181Y219532D01*
X334743Y215782D01*
X332243Y217344D02*
X334118D01*
X338806D02*
X339743D01*
Y217032D01*
X339431Y216407D01*
X339118Y216094D01*
X338493Y215782D01*
X337868D01*
X337243Y216094D01*
X336931Y216407D01*
X336618Y217032D01*
Y218282D01*
X336931Y218907D01*
X337243Y219220D01*
X337868Y219532D01*
X338493D01*
X339118Y219220D01*
X339431Y218907D01*
X339743Y218282D01*
X332553Y70644D02*
Y74394D01*
X335678D01*
X335053Y72519D02*
X332553D01*
Y70644D02*
X335678D01*
X337437Y63594D02*
X338375D01*
Y63282D01*
X338063Y62657D01*
X337750Y62344D01*
X337125Y62032D01*
X336500D01*
X335875Y62344D01*
X335563Y62657D01*
X335250Y63282D01*
Y64532D01*
X335563Y65157D01*
X335875Y65470D01*
X336500Y65782D01*
X337125D01*
X337750Y65470D01*
X338063Y65157D01*
X338375Y64532D01*
X336510Y88907D02*
X336822Y88594D01*
X337447Y88282D01*
X338072Y88594D01*
X338385Y88907D01*
Y92032D01*
X339010D01*
X338385D02*
X337135D01*
X336510Y148907D02*
X336822Y148594D01*
X337447Y148282D01*
X338072Y148594D01*
X338385Y148907D01*
Y152032D01*
X339010D01*
X338385D02*
X337135D01*
X336539Y215782D02*
X338102Y219532D01*
X339665Y215782D01*
X337165Y217344D02*
X339039D01*
X343727D02*
X344665D01*
Y217032D01*
X344352Y216407D01*
X344039Y216094D01*
X343415Y215782D01*
X342789D01*
X342165Y216094D01*
X341852Y216407D01*
X341539Y217032D01*
Y218282D01*
X341852Y218907D01*
X342165Y219220D01*
X342789Y219532D01*
X343415D01*
X344039Y219220D01*
X344352Y218907D01*
X344665Y218282D01*
X341461Y215782D02*
X343023Y219532D01*
X344586Y215782D01*
X342086Y217344D02*
X343961D01*
X348648D02*
X349586D01*
Y217032D01*
X349273Y216407D01*
X348961Y216094D01*
X348336Y215782D01*
X347711D01*
X347086Y216094D01*
X346773Y216407D01*
X346461Y217032D01*
Y218282D01*
X346773Y218907D01*
X347086Y219220D01*
X347711Y219532D01*
X348336D01*
X348961Y219220D01*
X349273Y218907D01*
X349586Y218282D01*
X343687Y111094D02*
X344625D01*
Y110782D01*
X344313Y110157D01*
X344000Y109844D01*
X343375Y109532D01*
X342750D01*
X342125Y109844D01*
X341813Y110157D01*
X341500Y110782D01*
Y112032D01*
X341813Y112657D01*
X342125Y112970D01*
X342750Y113282D01*
X343375D01*
X344000Y112970D01*
X344313Y112657D01*
X344625Y112032D01*
X341500Y157652D02*
X343063Y161402D01*
X344625Y157652D01*
X342125Y159215D02*
X344000D01*
X346500Y158277D02*
X346813Y157965D01*
X347437Y157652D01*
X348063Y157965D01*
X348375Y158277D01*
Y161402D01*
X349000D01*
X348375D02*
X347125D01*
X341500Y188912D02*
X343063Y192662D01*
X344625Y188912D01*
X342125Y190474D02*
X344000D01*
X346500Y189537D02*
X346813Y189224D01*
X347437Y188912D01*
X348063Y189224D01*
X348375Y189537D01*
Y192662D01*
X349000D01*
X348375D02*
X347125D01*
X343687Y204844D02*
X344625D01*
Y204532D01*
X344313Y203907D01*
X344000Y203594D01*
X343375Y203282D01*
X342750D01*
X342125Y203594D01*
X341813Y203907D01*
X341500Y204532D01*
Y205782D01*
X341813Y206407D01*
X342125Y206720D01*
X342750Y207032D01*
X343375D01*
X344000Y206720D01*
X344313Y206407D01*
X344625Y205782D01*
X348491Y187207D02*
X349428D01*
Y186894D01*
X349116Y186269D01*
X348803Y185957D01*
X348178Y185644D01*
X347553D01*
X346928Y185957D01*
X346616Y186269D01*
X346303Y186894D01*
Y188144D01*
X346616Y188769D01*
X346928Y189082D01*
X347553Y189394D01*
X348178D01*
X348803Y189082D01*
X349116Y188769D01*
X349428Y188144D01*
X346382Y215782D02*
X347944Y219532D01*
X349507Y215782D01*
X347007Y217344D02*
X348882D01*
X353569D02*
X354507D01*
Y217032D01*
X354194Y216407D01*
X353882Y216094D01*
X353257Y215782D01*
X352632D01*
X352007Y216094D01*
X351694Y216407D01*
X351382Y217032D01*
Y218282D01*
X351694Y218907D01*
X352007Y219220D01*
X352632Y219532D01*
X353257D01*
X353882Y219220D01*
X354194Y218907D01*
X354507Y218282D01*
X346510Y88907D02*
X346822Y88594D01*
X347447Y88282D01*
X348072Y88594D01*
X348385Y88907D01*
Y92032D01*
X349010D01*
X348385D02*
X347135D01*
X346510Y148907D02*
X346822Y148594D01*
X347447Y148282D01*
X348072Y148594D01*
X348385Y148907D01*
Y152032D01*
X349010D01*
X348385D02*
X347135D01*
X353687Y138594D02*
X354625D01*
Y138282D01*
X354313Y137657D01*
X354000Y137344D01*
X353375Y137032D01*
X352750D01*
X352125Y137344D01*
X351813Y137657D01*
X351500Y138282D01*
Y139532D01*
X351813Y140157D01*
X352125Y140470D01*
X352750Y140782D01*
X353375D01*
X354000Y140470D01*
X354313Y140157D01*
X354625Y139532D01*
X351500Y157652D02*
X353063Y161402D01*
X354625Y157652D01*
X352125Y159215D02*
X354000D01*
X356500Y158277D02*
X356813Y157965D01*
X357437Y157652D01*
X358063Y157965D01*
X358375Y158277D01*
Y161402D01*
X359000D01*
X358375D02*
X357125D01*
X351500Y188912D02*
X353063Y192662D01*
X354625Y188912D01*
X352125Y190474D02*
X354000D01*
X356500Y189537D02*
X356813Y189224D01*
X357437Y188912D01*
X358063Y189224D01*
X358375Y189537D01*
Y192662D01*
X359000D01*
X358375D02*
X357125D01*
X353803Y81894D02*
Y85644D01*
X356928D01*
X356303Y83769D02*
X353803D01*
Y81894D02*
X356928D01*
X357437Y63594D02*
X358375D01*
Y63282D01*
X358063Y62657D01*
X357750Y62344D01*
X357125Y62032D01*
X356500D01*
X355875Y62344D01*
X355563Y62657D01*
X355250Y63282D01*
Y64532D01*
X355563Y65157D01*
X355875Y65470D01*
X356500Y65782D01*
X357125D01*
X357750Y65470D01*
X358063Y65157D01*
X358375Y64532D01*
X362437Y111094D02*
X363375D01*
Y110782D01*
X363063Y110157D01*
X362750Y109844D01*
X362125Y109532D01*
X361500D01*
X360875Y109844D01*
X360563Y110157D01*
X360250Y110782D01*
Y112032D01*
X360563Y112657D01*
X360875Y112970D01*
X361500Y113282D01*
X362125D01*
X362750Y112970D01*
X363063Y112657D01*
X363375Y112032D01*
X361500Y157652D02*
X363063Y161402D01*
X364625Y157652D01*
X362125Y159215D02*
X364000D01*
X366500Y158277D02*
X366813Y157965D01*
X367437Y157652D01*
X368063Y157965D01*
X368375Y158277D01*
Y161402D01*
X369000D01*
X368375D02*
X367125D01*
X361500Y188912D02*
X363063Y192662D01*
X364625Y188912D01*
X362125Y190474D02*
X364000D01*
X366500Y189537D02*
X366813Y189224D01*
X367437Y188912D01*
X368063Y189224D01*
X368375Y189537D01*
Y192662D01*
X369000D01*
X368375D02*
X367125D01*
X368491Y187207D02*
X369428D01*
Y186894D01*
X369116Y186269D01*
X368803Y185957D01*
X368178Y185644D01*
X367553D01*
X366928Y185957D01*
X366616Y186269D01*
X366303Y186894D01*
Y188144D01*
X366616Y188769D01*
X366928Y189082D01*
X367553Y189394D01*
X368178D01*
X368803Y189082D01*
X369116Y188769D01*
X369428Y188144D01*
X366618Y215782D02*
X368181Y219532D01*
X369743Y215782D01*
X367243Y217344D02*
X369118D01*
X373806D02*
X374743D01*
Y217032D01*
X374431Y216407D01*
X374118Y216094D01*
X373493Y215782D01*
X372868D01*
X372243Y216094D01*
X371931Y216407D01*
X371618Y217032D01*
Y218282D01*
X371931Y218907D01*
X372243Y219220D01*
X372868Y219532D01*
X373493D01*
X374118Y219220D01*
X374431Y218907D01*
X374743Y218282D01*
X371500Y118282D02*
X373063Y122032D01*
X374625Y118282D01*
X372125Y119844D02*
X374000D01*
X376500Y118907D02*
X376813Y118594D01*
X377437Y118282D01*
X378063Y118594D01*
X378375Y118907D01*
Y122032D01*
X379000D01*
X378375D02*
X377125D01*
X371500Y148282D02*
X373063Y152032D01*
X374625Y148282D01*
X372125Y149844D02*
X374000D01*
X376500Y148907D02*
X376813Y148594D01*
X377437Y148282D01*
X378063Y148594D01*
X378375Y148907D01*
Y152032D01*
X379000D01*
X378375D02*
X377125D01*
X371500Y157652D02*
X373063Y161402D01*
X374625Y157652D01*
X372125Y159215D02*
X374000D01*
X376500Y158277D02*
X376813Y157965D01*
X377437Y157652D01*
X378063Y157965D01*
X378375Y158277D01*
Y161402D01*
X379000D01*
X378375D02*
X377125D01*
X371500Y188912D02*
X373063Y192662D01*
X374625Y188912D01*
X372125Y190474D02*
X374000D01*
X376500Y189537D02*
X376813Y189224D01*
X377437Y188912D01*
X378063Y189224D01*
X378375Y189537D01*
Y192662D01*
X379000D01*
X378375D02*
X377125D01*
X371539Y215782D02*
X373102Y219532D01*
X374665Y215782D01*
X372165Y217344D02*
X374039D01*
X378727D02*
X379665D01*
Y217032D01*
X379352Y216407D01*
X379039Y216094D01*
X378415Y215782D01*
X377789D01*
X377165Y216094D01*
X376852Y216407D01*
X376539Y217032D01*
Y218282D01*
X376852Y218907D01*
X377165Y219220D01*
X377789Y219532D01*
X378415D01*
X379039Y219220D01*
X379352Y218907D01*
X379665Y218282D01*
X375555Y78636D02*
Y82386D01*
Y80511D02*
X378680D01*
Y78636D02*
Y82386D01*
X376461Y215782D02*
X378023Y219532D01*
X379586Y215782D01*
X377086Y217344D02*
X378961D01*
X383648D02*
X384586D01*
Y217032D01*
X384273Y216407D01*
X383961Y216094D01*
X383336Y215782D01*
X382711D01*
X382086Y216094D01*
X381773Y216407D01*
X381461Y217032D01*
Y218282D01*
X381773Y218907D01*
X382086Y219220D01*
X382711Y219532D01*
X383336D01*
X383961Y219220D01*
X384273Y218907D01*
X384586Y218282D01*
X378687Y139844D02*
X379625D01*
Y139532D01*
X379313Y138907D01*
X379000Y138594D01*
X378375Y138282D01*
X377750D01*
X377125Y138594D01*
X376813Y138907D01*
X376500Y139532D01*
Y140782D01*
X376813Y141407D01*
X377125Y141720D01*
X377750Y142032D01*
X378375D01*
X379000Y141720D01*
X379313Y141407D01*
X379625Y140782D01*
X376500Y195782D02*
Y199532D01*
X378063Y197657D01*
X379625Y199532D01*
Y195782D01*
X378687Y206094D02*
X379625D01*
Y205782D01*
X379313Y205157D01*
X379000Y204844D01*
X378375Y204532D01*
X377750D01*
X377125Y204844D01*
X376813Y205157D01*
X376500Y205782D01*
Y207032D01*
X376813Y207657D01*
X377125Y207970D01*
X377750Y208282D01*
X378375D01*
X379000Y207970D01*
X379313Y207657D01*
X379625Y207032D01*
X379741Y110957D02*
X380678D01*
Y110644D01*
X380366Y110019D01*
X380053Y109707D01*
X379428Y109394D01*
X378803D01*
X378178Y109707D01*
X377866Y110019D01*
X377553Y110644D01*
Y111894D01*
X377866Y112519D01*
X378178Y112832D01*
X378803Y113144D01*
X379428D01*
X380053Y112832D01*
X380366Y112519D01*
X380678Y111894D01*
X381382Y215782D02*
X382944Y219532D01*
X384507Y215782D01*
X382007Y217344D02*
X383882D01*
X388569D02*
X389507D01*
Y217032D01*
X389194Y216407D01*
X388882Y216094D01*
X388257Y215782D01*
X387632D01*
X387007Y216094D01*
X386694Y216407D01*
X386382Y217032D01*
Y218282D01*
X386694Y218907D01*
X387007Y219220D01*
X387632Y219532D01*
X388257D01*
X388882Y219220D01*
X389194Y218907D01*
X389507Y218282D01*
X381500Y118282D02*
X383063Y122032D01*
X384625Y118282D01*
X382125Y119844D02*
X384000D01*
X386500Y118907D02*
X386813Y118594D01*
X387437Y118282D01*
X388063Y118594D01*
X388375Y118907D01*
Y122032D01*
X389000D01*
X388375D02*
X387125D01*
X381500Y148282D02*
X383063Y152032D01*
X384625Y148282D01*
X382125Y149844D02*
X384000D01*
X386500Y148907D02*
X386813Y148594D01*
X387437Y148282D01*
X388063Y148594D01*
X388375Y148907D01*
Y152032D01*
X389000D01*
X388375D02*
X387125D01*
X381500Y157652D02*
X383063Y161402D01*
X384625Y157652D01*
X382125Y159215D02*
X384000D01*
X386500Y158277D02*
X386813Y157965D01*
X387437Y157652D01*
X388063Y157965D01*
X388375Y158277D01*
Y161402D01*
X389000D01*
X388375D02*
X387125D01*
X381500Y188912D02*
X383063Y192662D01*
X384625Y188912D01*
X382125Y190474D02*
X384000D01*
X386500Y189537D02*
X386813Y189224D01*
X387437Y188912D01*
X388063Y189224D01*
X388375Y189537D01*
Y192662D01*
X389000D01*
X388375D02*
X387125D01*
X388687Y194844D02*
X389625D01*
Y194532D01*
X389313Y193907D01*
X389000Y193594D01*
X388375Y193282D01*
X387750D01*
X387125Y193594D01*
X386813Y193907D01*
X386500Y194532D01*
Y195782D01*
X386813Y196407D01*
X387125Y196720D01*
X387750Y197032D01*
X388375D01*
X389000Y196720D01*
X389313Y196407D01*
X389625Y195782D01*
X391303Y94532D02*
Y98282D01*
X394428D01*
X393803Y96407D02*
X391303D01*
Y94532D02*
X394428D01*
X391500Y118282D02*
X393063Y122032D01*
X394625Y118282D01*
X392125Y119844D02*
X394000D01*
X396500Y118907D02*
X396813Y118594D01*
X397437Y118282D01*
X398063Y118594D01*
X398375Y118907D01*
Y122032D01*
X399000D01*
X398375D02*
X397125D01*
X391500Y148282D02*
X393063Y152032D01*
X394625Y148282D01*
X392125Y149844D02*
X394000D01*
X396500Y148907D02*
X396813Y148594D01*
X397437Y148282D01*
X398063Y148594D01*
X398375Y148907D01*
Y152032D01*
X399000D01*
X398375D02*
X397125D01*
X391500Y157652D02*
X393063Y161402D01*
X394625Y157652D01*
X392125Y159215D02*
X394000D01*
X396500Y158277D02*
X396813Y157965D01*
X397437Y157652D01*
X398063Y157965D01*
X398375Y158277D01*
Y161402D01*
X399000D01*
X398375D02*
X397125D01*
X391500Y188912D02*
X393063Y192662D01*
X394625Y188912D01*
X392125Y190474D02*
X394000D01*
X396500Y189537D02*
X396813Y189224D01*
X397437Y188912D01*
X398063Y189224D01*
X398375Y189537D01*
Y192662D01*
X399000D01*
X398375D02*
X397125D01*
X398687Y76094D02*
X399625D01*
Y75782D01*
X399313Y75157D01*
X399000Y74844D01*
X398375Y74532D01*
X397750D01*
X397125Y74844D01*
X396813Y75157D01*
X396500Y75782D01*
Y77032D01*
X396813Y77657D01*
X397125Y77970D01*
X397750Y78282D01*
X398375D01*
X399000Y77970D01*
X399313Y77657D01*
X399625Y77032D01*
X398687Y111094D02*
X399625D01*
Y110782D01*
X399313Y110157D01*
X399000Y109844D01*
X398375Y109532D01*
X397750D01*
X397125Y109844D01*
X396813Y110157D01*
X396500Y110782D01*
Y112032D01*
X396813Y112657D01*
X397125Y112970D01*
X397750Y113282D01*
X398375D01*
X399000Y112970D01*
X399313Y112657D01*
X399625Y112032D01*
X401500Y118282D02*
X403063Y122032D01*
X404625Y118282D01*
X402125Y119844D02*
X404000D01*
X406500Y118907D02*
X406813Y118594D01*
X407437Y118282D01*
X408063Y118594D01*
X408375Y118907D01*
Y122032D01*
X409000D01*
X408375D02*
X407125D01*
X401500Y148282D02*
X403063Y152032D01*
X404625Y148282D01*
X402125Y149844D02*
X404000D01*
X406500Y148907D02*
X406813Y148594D01*
X407437Y148282D01*
X408063Y148594D01*
X408375Y148907D01*
Y152032D01*
X409000D01*
X408375D02*
X407125D01*
X403687Y169844D02*
X404625D01*
Y169532D01*
X404313Y168907D01*
X404000Y168594D01*
X403375Y168282D01*
X402750D01*
X402125Y168594D01*
X401813Y168907D01*
X401500Y169532D01*
Y170782D01*
X401813Y171407D01*
X402125Y171720D01*
X402750Y172032D01*
X403375D01*
X404000Y171720D01*
X404313Y171407D01*
X404625Y170782D01*
X403687Y194844D02*
X404625D01*
Y194532D01*
X404313Y193907D01*
X404000Y193594D01*
X403375Y193282D01*
X402750D01*
X402125Y193594D01*
X401813Y193907D01*
X401500Y194532D01*
Y195782D01*
X401813Y196407D01*
X402125Y196720D01*
X402750Y197032D01*
X403375D01*
X404000Y196720D01*
X404313Y196407D01*
X404625Y195782D01*
X401618Y215782D02*
X403181Y219532D01*
X404743Y215782D01*
X402243Y217344D02*
X404118D01*
X408806D02*
X409743D01*
Y217032D01*
X409431Y216407D01*
X409118Y216094D01*
X408493Y215782D01*
X407868D01*
X407243Y216094D01*
X406931Y216407D01*
X406618Y217032D01*
Y218282D01*
X406931Y218907D01*
X407243Y219220D01*
X407868Y219532D01*
X408493D01*
X409118Y219220D01*
X409431Y218907D01*
X409743Y218282D01*
X406500Y202032D02*
Y205782D01*
Y203907D02*
X407437D01*
X409625Y205782D01*
X407437Y203907D02*
X409625Y202032D01*
X406539Y215782D02*
X408102Y219532D01*
X409665Y215782D01*
X407165Y217344D02*
X409039D01*
X413727D02*
X414665D01*
Y217032D01*
X414352Y216407D01*
X414039Y216094D01*
X413415Y215782D01*
X412789D01*
X412165Y216094D01*
X411852Y216407D01*
X411539Y217032D01*
Y218282D01*
X411852Y218907D01*
X412165Y219220D01*
X412789Y219532D01*
X413415D01*
X414039Y219220D01*
X414352Y218907D01*
X414665Y218282D01*
X410053Y70782D02*
Y74532D01*
X413178D01*
X412553Y72657D02*
X410053D01*
Y70782D02*
X413178D01*
X411461Y215782D02*
X413023Y219532D01*
X414586Y215782D01*
X412086Y217344D02*
X413961D01*
X418648D02*
X419586D01*
Y217032D01*
X419273Y216407D01*
X418961Y216094D01*
X418336Y215782D01*
X417711D01*
X417086Y216094D01*
X416773Y216407D01*
X416461Y217032D01*
Y218282D01*
X416773Y218907D01*
X417086Y219220D01*
X417711Y219532D01*
X418336D01*
X418961Y219220D01*
X419273Y218907D01*
X419586Y218282D01*
X411500Y118282D02*
X413063Y122032D01*
X414625Y118282D01*
X412125Y119844D02*
X414000D01*
X416500Y118907D02*
X416813Y118594D01*
X417437Y118282D01*
X418063Y118594D01*
X418375Y118907D01*
Y122032D01*
X419000D01*
X418375D02*
X417125D01*
X411500Y148282D02*
X413063Y152032D01*
X414625Y148282D01*
X412125Y149844D02*
X414000D01*
X416500Y148907D02*
X416813Y148594D01*
X417437Y148282D01*
X418063Y148594D01*
X418375Y148907D01*
Y152032D01*
X419000D01*
X418375D02*
X417125D01*
X415053Y94532D02*
Y98282D01*
X418178D01*
X417553Y96407D02*
X415053D01*
Y94532D02*
X418178D01*
X416382Y215782D02*
X417944Y219532D01*
X419507Y215782D01*
X417007Y217344D02*
X418882D01*
X423569D02*
X424507D01*
Y217032D01*
X424194Y216407D01*
X423882Y216094D01*
X423257Y215782D01*
X422632D01*
X422007Y216094D01*
X421694Y216407D01*
X421382Y217032D01*
Y218282D01*
X421694Y218907D01*
X422007Y219220D01*
X422632Y219532D01*
X423257D01*
X423882Y219220D01*
X424194Y218907D01*
X424507Y218282D01*
X419937Y111094D02*
X420875D01*
Y110782D01*
X420563Y110157D01*
X420250Y109844D01*
X419625Y109532D01*
X419000D01*
X418375Y109844D01*
X418063Y110157D01*
X417750Y110782D01*
Y112032D01*
X418063Y112657D01*
X418375Y112970D01*
X419000Y113282D01*
X419625D01*
X420250Y112970D01*
X420563Y112657D01*
X420875Y112032D01*
X419937Y139844D02*
X420875D01*
Y139532D01*
X420563Y138907D01*
X420250Y138594D01*
X419625Y138282D01*
X419000D01*
X418375Y138594D01*
X418063Y138907D01*
X417750Y139532D01*
Y140782D01*
X418063Y141407D01*
X418375Y141720D01*
X419000Y142032D01*
X419625D01*
X420250Y141720D01*
X420563Y141407D01*
X420875Y140782D01*
X423687Y76094D02*
X424625D01*
Y75782D01*
X424313Y75157D01*
X424000Y74844D01*
X423375Y74532D01*
X422750D01*
X422125Y74844D01*
X421813Y75157D01*
X421500Y75782D01*
Y77032D01*
X421813Y77657D01*
X422125Y77970D01*
X422750Y78282D01*
X423375D01*
X424000Y77970D01*
X424313Y77657D01*
X424625Y77032D01*
X421500Y118282D02*
X423063Y122032D01*
X424625Y118282D01*
X422125Y119844D02*
X424000D01*
X426500Y118907D02*
X426813Y118594D01*
X427437Y118282D01*
X428063Y118594D01*
X428375Y118907D01*
Y122032D01*
X429000D01*
X428375D02*
X427125D01*
X421500Y148282D02*
X423063Y152032D01*
X424625Y148282D01*
X422125Y149844D02*
X424000D01*
X426500Y148907D02*
X426813Y148594D01*
X427437Y148282D01*
X428063Y148594D01*
X428375Y148907D01*
Y152032D01*
X429000D01*
X428375D02*
X427125D01*
X426500Y202032D02*
Y205782D01*
Y203907D02*
X427437D01*
X429625Y205782D01*
X427437Y203907D02*
X429625Y202032D01*
X431500Y118282D02*
X433063Y122032D01*
X434625Y118282D01*
X432125Y119844D02*
X434000D01*
X436500Y118907D02*
X436813Y118594D01*
X437437Y118282D01*
X438063Y118594D01*
X438375Y118907D01*
Y122032D01*
X439000D01*
X438375D02*
X437125D01*
X431500Y148282D02*
X433063Y152032D01*
X434625Y148282D01*
X432125Y149844D02*
X434000D01*
X436500Y148907D02*
X436813Y148594D01*
X437437Y148282D01*
X438063Y148594D01*
X438375Y148907D01*
Y152032D01*
X439000D01*
X438375D02*
X437125D01*
X433803Y85644D02*
Y89394D01*
X436928D01*
X436303Y87519D02*
X433803D01*
Y85644D02*
X436928D01*
X434000Y94532D02*
Y98282D01*
X437125D01*
X436500Y96407D02*
X434000D01*
Y94532D02*
X437125D01*
X436187Y217344D02*
X437125D01*
Y217032D01*
X436813Y216407D01*
X436500Y216094D01*
X435875Y215782D01*
X435250D01*
X434625Y216094D01*
X434313Y216407D01*
X434000Y217032D01*
Y218282D01*
X434313Y218907D01*
X434625Y219220D01*
X435250Y219532D01*
X435875D01*
X436500Y219220D01*
X436813Y218907D01*
X437125Y218282D01*
X437241Y75957D02*
X438178D01*
Y75644D01*
X437866Y75019D01*
X437553Y74707D01*
X436928Y74394D01*
X436303D01*
X435678Y74707D01*
X435366Y75019D01*
X435053Y75644D01*
Y76894D01*
X435366Y77519D01*
X435678Y77832D01*
X436303Y78144D01*
X436928D01*
X437553Y77832D01*
X437866Y77519D01*
X438178Y76894D01*
X438687Y111094D02*
X439625D01*
Y110782D01*
X439313Y110157D01*
X439000Y109844D01*
X438375Y109532D01*
X437750D01*
X437125Y109844D01*
X436813Y110157D01*
X436500Y110782D01*
Y112032D01*
X436813Y112657D01*
X437125Y112970D01*
X437750Y113282D01*
X438375D01*
X439000Y112970D01*
X439313Y112657D01*
X439625Y112032D01*
X438687Y139844D02*
X439625D01*
Y139532D01*
X439313Y138907D01*
X439000Y138594D01*
X438375Y138282D01*
X437750D01*
X437125Y138594D01*
X436813Y138907D01*
X436500Y139532D01*
Y140782D01*
X436813Y141407D01*
X437125Y141720D01*
X437750Y142032D01*
X438375D01*
X439000Y141720D01*
X439313Y141407D01*
X439625Y140782D01*
X438687Y169844D02*
X439625D01*
Y169532D01*
X439313Y168907D01*
X439000Y168594D01*
X438375Y168282D01*
X437750D01*
X437125Y168594D01*
X436813Y168907D01*
X436500Y169532D01*
Y170782D01*
X436813Y171407D01*
X437125Y171720D01*
X437750Y172032D01*
X438375D01*
X439000Y171720D01*
X439313Y171407D01*
X439625Y170782D01*
X438687Y194844D02*
X439625D01*
Y194532D01*
X439313Y193907D01*
X439000Y193594D01*
X438375Y193282D01*
X437750D01*
X437125Y193594D01*
X436813Y193907D01*
X436500Y194532D01*
Y195782D01*
X436813Y196407D01*
X437125Y196720D01*
X437750Y197032D01*
X438375D01*
X439000Y196720D01*
X439313Y196407D01*
X439625Y195782D01*
D02*
D24*
X40250Y188594D03*
Y211094D03*
X41500Y107344D03*
Y132344D03*
X52750Y153594D03*
Y177344D03*
X56344Y141341D03*
Y191341D03*
X57012Y118457D03*
X61500Y153594D03*
Y177344D03*
X62750Y211094D03*
X66344Y141341D03*
Y191341D03*
X71500Y107344D03*
X76618Y209844D03*
X79000Y62344D03*
Y89844D03*
X81539Y209844D03*
X86461D03*
X91382D03*
X93016Y86094D03*
Y103811D03*
X97750Y114707D03*
Y122207D03*
X105250Y114707D03*
Y122207D03*
X106344Y141341D03*
Y151341D03*
Y161341D03*
Y171341D03*
Y181341D03*
Y191341D03*
X107750Y62344D03*
Y88594D03*
X111618Y209844D03*
X112750Y114707D03*
Y122207D03*
X116539Y209844D03*
X118606Y86094D03*
Y103811D03*
X121461Y209844D03*
X125053Y151341D03*
Y161341D03*
Y172344D03*
Y192344D03*
X126382Y209844D03*
X131500Y130957D03*
Y140957D03*
X134000Y59844D03*
Y68594D03*
Y78594D03*
X141303Y105957D03*
Y113594D03*
Y124707D03*
X141500Y151719D03*
Y182970D03*
X144453Y91596D03*
X145250Y196094D03*
X146618Y209844D03*
X151500Y118457D03*
Y130957D03*
Y140957D03*
Y151719D03*
Y182970D03*
X151539Y209844D03*
X156461D03*
X156500Y189844D03*
X158803Y88594D03*
X159000Y77344D03*
Y134844D03*
X161382Y209844D03*
X161500Y151719D03*
Y182970D03*
X165004Y61094D03*
X165250Y196094D03*
X171500Y151719D03*
Y157344D03*
Y182970D03*
X175004Y61094D03*
X176500Y189844D03*
X177750Y82344D03*
X181500Y151719D03*
Y161094D03*
Y182970D03*
X181618Y209844D03*
X184000Y102344D03*
Y119844D03*
X186510Y82344D03*
Y142344D03*
X186539Y209844D03*
X187553Y65957D03*
X191461Y209844D03*
X191500Y58594D03*
Y121094D03*
Y131094D03*
Y151719D03*
Y182970D03*
Y196094D03*
X195250Y161094D03*
X196382Y209844D03*
X196500Y189844D03*
X196510Y82344D03*
Y142344D03*
X197750Y157344D03*
X198803Y65957D03*
X201500Y151719D03*
Y182970D03*
X202750Y58594D03*
X206500Y173594D03*
X206510Y82344D03*
Y142344D03*
X211500Y137344D03*
Y151719D03*
Y182970D03*
Y196094D03*
X212750Y58594D03*
X216303Y65957D03*
X216500Y173594D03*
X216510Y82344D03*
Y142344D03*
X216618Y209844D03*
X221500Y137344D03*
Y151719D03*
Y182970D03*
X221539Y209844D03*
X222750Y58594D03*
X226461Y209844D03*
X226510Y82344D03*
Y142344D03*
X226657Y193457D03*
X230250Y58594D03*
X231303Y75957D03*
X231382Y209844D03*
X231500Y137344D03*
Y151719D03*
Y182970D03*
X236500Y193457D03*
X236510Y82344D03*
Y142344D03*
X240250Y58594D03*
X241500Y151719D03*
Y164844D03*
Y182970D03*
X246343Y193457D03*
X246510Y82344D03*
Y142344D03*
X247750Y58594D03*
X251500Y137344D03*
Y151719D03*
Y167344D03*
Y182970D03*
X251618Y209844D03*
X255250Y58594D03*
X256510Y82344D03*
Y142344D03*
X256539Y209844D03*
X260250Y58594D03*
X261461Y209844D03*
X261500Y87344D03*
Y137344D03*
Y151719D03*
Y169844D03*
Y182970D03*
Y196094D03*
X266382Y209844D03*
X266500Y189844D03*
X266510Y82344D03*
Y142344D03*
X269000Y58594D03*
X271500Y87344D03*
Y137344D03*
Y151719D03*
Y157344D03*
Y182970D03*
X275250Y61094D03*
X276510Y82344D03*
Y142344D03*
X281500Y196094D03*
X282553Y113594D03*
X285053Y115957D03*
X285250Y66094D03*
X286510Y82344D03*
Y142344D03*
X286618Y209844D03*
X290053Y77344D03*
X290250Y63594D03*
X291303Y118457D03*
X291500Y137344D03*
Y151715D03*
Y182974D03*
X291539Y209844D03*
X295250Y198594D03*
X296461Y209844D03*
X296510Y82344D03*
Y142344D03*
X301382Y209844D03*
X301500Y151715D03*
Y182974D03*
X305250Y56094D03*
X306510Y82344D03*
Y142344D03*
X310053Y72207D03*
X311500Y151715D03*
Y182974D03*
X315053Y69707D03*
X316303Y179707D03*
X316510Y82344D03*
Y142344D03*
X318803Y67207D03*
X321500Y151715D03*
Y182974D03*
X321618Y209844D03*
X322553Y64707D03*
X325250Y56094D03*
X326510Y82344D03*
Y142344D03*
X326539Y209844D03*
X331461D03*
X331500Y103594D03*
Y151715D03*
Y182974D03*
Y197344D03*
X336303Y179707D03*
X336382Y209844D03*
X336510Y82344D03*
Y142344D03*
X341500Y131094D03*
Y151715D03*
Y182974D03*
X343803Y75957D03*
X345250Y56094D03*
X350250Y103594D03*
X351500Y151715D03*
Y182974D03*
X356303Y179707D03*
X356618Y209844D03*
X361500Y112344D03*
Y142344D03*
Y151715D03*
Y182974D03*
X361539Y209844D03*
X365555Y72699D03*
X366461Y209844D03*
X366500Y132344D03*
Y189844D03*
Y198594D03*
X367553Y103457D03*
X371382Y209844D03*
X371500Y112344D03*
Y142344D03*
Y151715D03*
Y182974D03*
X376500Y187344D03*
X381303Y88594D03*
X381500Y112344D03*
Y142344D03*
Y151715D03*
Y182974D03*
X386500Y68594D03*
Y103594D03*
X391500Y112344D03*
Y142344D03*
Y162344D03*
Y187344D03*
X391618Y209844D03*
X396500Y196094D03*
X396539Y209844D03*
X400053Y64844D03*
X401461Y209844D03*
X401500Y112344D03*
Y142344D03*
X405053Y88594D03*
X406382Y209844D03*
X407750Y103594D03*
Y132344D03*
X411500Y68594D03*
Y112344D03*
Y142344D03*
X416500Y196094D03*
X421500Y112344D03*
Y142344D03*
X423803Y79707D03*
X424000Y88594D03*
Y209844D03*
X425053Y68457D03*
X426500Y103594D03*
Y132344D03*
Y162344D03*
Y187344D03*
X0Y0D02*
M02*
