G04 DesignSpark PCB PRO Gerber Version 10.0 Build 5299*
G04 #@! TF.Part,Single*
G04 #@! TF.FileFunction,Soldermask,Bot*
G04 #@! TF.FilePolarity,Negative*
%FSLAX35Y35*%
%MOIN*%
G04 #@! TA.AperFunction,SMDPad,CuDef*
%AMT117*0 Bullet Pad at angle 0*21,1,0.06200,0.03100,0,0,0*%
%ADD117T117*%
G04 #@! TA.AperFunction,ComponentPad*
%ADD119O,0.03743X0.06184*%
G04 #@! TA.AperFunction,SMDPad,CuDef*
%ADD14R,0.06893X0.35633*%
G04 #@! TA.AperFunction,ComponentPad*
%ADD112R,0.04649X0.04649*%
%ADD109R,0.04661X0.04661*%
%ADD102R,0.04759X0.04759*%
%ADD132R,0.06200X0.06200*%
G04 #@! TD.AperFunction*
%ADD19C,0.00500*%
G04 #@! TA.AperFunction,ComponentPad*
%ADD115O,0.10137X0.06200*%
G04 #@! TA.AperFunction,WasherPad*
%ADD12R,2.57639X0.43308*%
G04 #@! TA.AperFunction,ComponentPad*
%ADD113C,0.04649*%
%ADD110C,0.04661*%
%ADD103C,0.04759*%
%ADD111C,0.05125*%
%ADD120C,0.05810*%
G04 #@! TA.AperFunction,SMDPad,CuDef*
%ADD105C,0.06200*%
G04 #@! TA.AperFunction,ComponentPad*
%ADD108C,0.06200*%
%ADD114C,0.07200*%
%ADD116C,0.08074*%
G04 #@! TD.AperFunction*
X0Y0D02*
D02*
D12*
X255079Y28802D03*
D02*
D14*
X135004Y31754D03*
X145004D03*
X155004D03*
X165004D03*
X175004D03*
X185004D03*
X195004D03*
X205004D03*
X215004D03*
X225004D03*
X235004D03*
X245004D03*
X255004D03*
X265004D03*
X275004D03*
X285004D03*
X295004D03*
X305004D03*
X315004D03*
X325004D03*
X335004D03*
X345004D03*
X355004D03*
X365004D03*
X375004D03*
D02*
D19*
X131500Y9707D02*
G75*
G02*
X126220Y14987I0J5280D01*
G01*
Y57344D01*
X80041D01*
G75*
G02*
X75041Y62344I0J5000D01*
G01*
Y95258D01*
G75*
G03*
X70041Y100258I-5000J0D01*
G01*
X40054D01*
G75*
G02*
X33804Y106508I0J6250D01*
G01*
Y211094D01*
G75*
G02*
X40054Y217344I6250J0D01*
G01*
X425054D01*
G75*
G02*
X431304Y211094I0J-6250D01*
G01*
Y62344D01*
G75*
G02*
X426304Y57344I-5000J0D01*
G01*
X383858D01*
Y15204D01*
G75*
G02*
X378361Y9707I-5497J0D01*
G01*
X131500D01*
D02*
D102*
X186510Y82344D03*
D02*
D103*
Y142344D03*
X196510Y82344D03*
Y142344D03*
X206510Y82344D03*
Y142344D03*
X216510Y82344D03*
Y142344D03*
X226510Y82344D03*
Y142344D03*
X236510Y82344D03*
Y142344D03*
X246510Y82344D03*
Y142344D03*
X256510Y82344D03*
Y142344D03*
X266510Y82344D03*
Y142344D03*
X276510Y82344D03*
Y142344D03*
X286510Y82344D03*
Y142344D03*
X296510Y82344D03*
Y142344D03*
X306510Y82344D03*
Y142344D03*
X316510Y82344D03*
Y142344D03*
X326510Y82344D03*
Y142344D03*
X336510Y82344D03*
Y142344D03*
D02*
D108*
X125053Y172344D03*
Y192344D03*
X131500Y130957D03*
Y140957D03*
X145250Y196094D03*
X151500Y130957D03*
Y140957D03*
X165250Y196094D03*
X191500D03*
X211500D03*
X261500D03*
X281500D03*
X396500D03*
X416500D03*
D02*
D109*
X141500Y151719D03*
D02*
D110*
Y182970D03*
X151500Y151719D03*
Y182970D03*
X161500Y151719D03*
Y182970D03*
X171500Y151719D03*
Y182970D03*
X181500Y151719D03*
Y182970D03*
X191500Y151719D03*
Y182970D03*
X201500Y151719D03*
Y182970D03*
X211500Y151719D03*
Y182970D03*
X221500Y151719D03*
Y182970D03*
X231500Y151719D03*
Y182970D03*
X241500Y151719D03*
Y182970D03*
X251500Y151719D03*
Y182970D03*
X261500Y151719D03*
Y182970D03*
X271500Y151719D03*
Y182970D03*
D02*
D111*
X226657Y193457D03*
X236500D03*
X246343D03*
D02*
D112*
X291500Y151715D03*
X361500Y112344D03*
D02*
D113*
X291500Y182974D03*
X301500Y151715D03*
Y182974D03*
X311500Y151715D03*
Y182974D03*
X321500Y151715D03*
Y182974D03*
X331500Y151715D03*
Y182974D03*
X341500Y151715D03*
Y182974D03*
X351500Y151715D03*
Y182974D03*
X361500Y142344D03*
Y151715D03*
Y182974D03*
X371500Y112344D03*
Y142344D03*
Y151715D03*
Y182974D03*
X381500Y112344D03*
Y142344D03*
Y151715D03*
Y182974D03*
X391500Y112344D03*
Y142344D03*
X401500Y112344D03*
Y142344D03*
X411500Y112344D03*
Y142344D03*
X421500Y112344D03*
Y142344D03*
D02*
D114*
X93016Y86094D03*
Y103811D03*
X118606Y86094D03*
Y103811D03*
D02*
D115*
X106344Y141341D03*
Y151341D03*
Y161341D03*
Y171341D03*
Y181341D03*
Y191341D03*
D02*
D116*
X56344Y141341D03*
Y191341D03*
X66344Y141341D03*
Y191341D03*
D02*
D117*
X155575Y168157D03*
D02*
D105*
Y169707D03*
D02*
D117*
X163429Y168157D03*
D02*
D105*
Y169707D03*
D02*
D117*
X171303Y168157D03*
D02*
D105*
Y169707D03*
D02*
D117*
X179177Y168157D03*
D02*
D105*
Y169707D03*
D02*
D119*
X76618Y209844D03*
X81539D03*
X86461D03*
X91382D03*
X111618D03*
X116539D03*
X121461D03*
X126382D03*
X146618D03*
X151539D03*
X156461D03*
X161382D03*
X181618D03*
X186539D03*
X191461D03*
X196382D03*
X216618D03*
X221539D03*
X226461D03*
X231382D03*
X251618D03*
X256539D03*
X261461D03*
X266382D03*
X286618D03*
X291539D03*
X296461D03*
X301382D03*
X321618D03*
X326539D03*
X331461D03*
X336382D03*
X356618D03*
X361539D03*
X366461D03*
X371382D03*
X391618D03*
X396539D03*
X401461D03*
X406382D03*
D02*
D120*
X57012Y118457D03*
X151500D03*
D02*
D132*
X125053Y151341D03*
Y161341D03*
X0Y0D02*
M02*
